<?xml version="1.0" encoding="UTF-8" standalone="no"?>
<svg
   xmlns:dc="http://purl.org/dc/elements/1.1/"
   xmlns:cc="http://creativecommons.org/ns#"
   xmlns:rdf="http://www.w3.org/1999/02/22-rdf-syntax-ns#"
   xmlns:svg="http://www.w3.org/2000/svg"
   xmlns="http://www.w3.org/2000/svg"
   xmlns:sodipodi="http://sodipodi.sourceforge.net/DTD/sodipodi-0.dtd"
   xmlns:inkscape="http://www.inkscape.org/namespaces/inkscape"
   version="1.1"
   id="Layer_1"
   x="0px"
   y="0px"
   viewBox="0 0 512 512"
   style="enable-background:new 0 0 512 512;"
   xml:space="preserve"
   sodipodi:docname="GB.svg"
   inkscape:version="1.0.1 (c497b03c, 2020-09-10)"><metadata
     id="metadata892"><rdf:RDF><cc:Work
         rdf:about=""><dc:format>image/svg+xml</dc:format><dc:type
           rdf:resource="http://purl.org/dc/dcmitype/StillImage" /><dc:title></dc:title></cc:Work></rdf:RDF></metadata><defs
     id="defs890">									</defs><sodipodi:namedview
     pagecolor="#ffffff"
     bordercolor="#666666"
     borderopacity="1"
     objecttolerance="10"
     gridtolerance="10"
     guidetolerance="10"
     inkscape:pageopacity="0"
     inkscape:pageshadow="2"
     inkscape:window-width="1680"
     inkscape:window-height="922"
     id="namedview888"
     showgrid="false"
     inkscape:zoom="1.0523403"
     inkscape:cx="179.96488"
     inkscape:cy="250.44123"
     inkscape:window-x="0"
     inkscape:window-y="25"
     inkscape:window-maximized="0"
     inkscape:current-layer="Layer_1" /><path
     style="fill:#00479b;stroke-width:0.585938;fill-opacity:1"
     d="m 346.50603,394.07603 h -168.75 c -36.24375,0 -65.625,-29.38125 -65.625,-65.625 v -168.75 c 0,-36.24375 29.38125,-65.624996 65.625,-65.624996 h 168.75 c 36.24375,0 65.625,29.381246 65.625,65.624996 v 168.75 c 0,36.24375 -29.38125,65.625 -65.625,65.625 z"
     id="path833" /><path
     style="fill:#f5f5f5;stroke-width:0.585938"
     d="m 412.13103,328.44459 v -14.40645 l -46.53457,-30.48808 h 46.53457 V 267.76021 H 285.81521 v 126.31582 h 15.78926 v -95.82421 l 100.15547,65.61914 c 3.54726,-5.52247 6.28593,-11.61329 8.05664,-18.10313"
     id="path835" /><path
     style="fill:#f5f5f5;stroke-width:0.585938"
     d="m 116.54373,352.1481 c 1.59843,4.125 3.59882,8.04961 5.95781,11.72286 l 100.15547,-65.61914 v 95.82421 h 15.78925 V 267.76021 H 112.13103 v 15.78985 h 46.53457 l -46.53457,30.48808 v 14.41289 c 0,2.52305 0.14766,5.01153 0.4248,7.46075"
     id="path837" /><path
     style="fill:#f5f5f5;stroke-width:0.585938"
     d="m 112.13103,161.9317 v 12.18222 l 46.53457,30.48868 h -46.53457 v 15.78925 H 238.44685 V 94.076034 H 222.65759 V 189.90025 L 122.50154,124.28111 c -3.89238,6.06035 -6.81211,12.80391 -8.5459,20.00977"
     id="path839" /><path
     style="fill:#f5f5f5;stroke-width:0.585938"
     d="m 407.63162,135.77662 c -1.58321,-4.04238 -3.55547,-7.89023 -5.87168,-11.49609 L 301.60447,189.90025 V 94.076034 H 285.81521 V 220.39185 H 412.13103 V 204.6026 h -46.53457 l 46.53457,-30.48868 v -14.41289 c 0,-2.61328 -0.15762,-5.19023 -0.45469,-7.72382"
     id="path841" /><polygon
     style="fill:#ff0000;fill-opacity:1"
     points="0,296.421 215.579,296.421 215.579,512 296.421,512 296.421,296.421 512,296.421 512,215.579 296.421,215.579 296.421,0 215.579,0 215.579,215.579 0,215.579 "
     id="polygon845"
     transform="matrix(0.5859375,0,0,0.5859375,112.13103,94.076034)" /><path
     style="fill:#ff0000;stroke-width:0.585938;fill-opacity:1"
     d="m 193.22185,283.55006 -80.66602,52.36172 c 0.64102,5.66191 2.0004,11.10527 3.98848,16.23632 l 105.6791,-68.59863 h -29.00156 z"
     id="path847" /><path
     style="fill:#ff0000;stroke-width:0.585938;fill-opacity:1"
     d="m 313.96599,283.55006 95.85117,62.21836 c 1.50528,-5.51778 2.31387,-11.32266 2.31387,-17.31739 v -0.006 l -69.16348,-44.89512 z"
     id="path849" /><path
     style="fill:#ff0000;stroke-width:0.585938;fill-opacity:1"
     d="m 206.86775,204.6026 -92.91211,-60.31172 c -1.19004,4.94297 -1.82461,10.10215 -1.82461,15.41015 v 2.23067 l 65.73516,42.6709 z"
     id="path851" /><path
     style="fill:#ff0000;stroke-width:0.585938;fill-opacity:1"
     d="m 330.60544,204.6026 81.07032,-52.62539 c -0.6627,-5.65079 -2.03965,-11.08243 -4.04414,-16.2 L 301.60447,204.6026 Z"
     id="path853" /><g
     id="g857" /><g
     id="g859" /><g
     id="g861" /><g
     id="g863" /><g
     id="g865" /><g
     id="g867" /><g
     id="g869" /><g
     id="g871" /><g
     id="g873" /><g
     id="g875" /><g
     id="g877" /><g
     id="g879" /><g
     id="g881" /><g
     id="g883" /><g
     id="g885" /></svg>
