<?xml version="1.0" encoding="UTF-8" standalone="no"?>
<svg
   xmlns:dc="http://purl.org/dc/elements/1.1/"
   xmlns:cc="http://creativecommons.org/ns#"
   xmlns:rdf="http://www.w3.org/1999/02/22-rdf-syntax-ns#"
   xmlns:svg="http://www.w3.org/2000/svg"
   xmlns="http://www.w3.org/2000/svg"
   version="1.1"
   id="Layer_2"
   x="0px"
   y="0px"
   width="560px"
   height="674px"
   viewBox="0 0 560 674"
   enable-background="new 0 0 560 674"
   xml:space="preserve"><metadata
   id="metadata1297"><rdf:RDF><cc:Work
       rdf:about=""><dc:format>image/svg+xml</dc:format><dc:type
         rdf:resource="http://purl.org/dc/dcmitype/StillImage" /><dc:title></dc:title></cc:Work></rdf:RDF></metadata><defs
   id="defs1295">
	
	
	
	
	
	
	
	
	
	
	
	
	
	
	
	
	
	
	
	
	
	
	
	
	
	
	
	
	
	
	
</defs>
<g
   id="g1704"><g
     id="g1094"
     style="fill:#cccccc;fill-opacity:1">
		<path
   fill="#ffcb05"
   d="m 154.901,495.059 c 0,0 11.572,1.756 13.381,14.265 2.924,-0.702 9.879,-6.629 9.645,-13.413 -0.064,-1.875 -15.774,-12.782 -23.026,-0.852 z"
   id="path1090"
   style="fill:#cccccc;fill-opacity:1" />
		<path
   fill="#231f20"
   d="m 167.449,510.552 -0.157,-1.085 c -1.683,-11.641 -12.433,-13.403 -12.541,-13.42 l -1.484,-0.225 0.78,-1.283 c 2.379,-3.913 5.957,-5.982 10.346,-5.982 6.812,0 14.459,5.138 14.534,7.319 0.253,7.355 -7.106,13.626 -10.411,14.42 z m -10.913,-16.119 c 3.2,0.955 10.61,4.147 12.524,13.527 2.977,-1.496 7.992,-6.503 7.871,-11.911 -0.618,-1.154 -6.522,-5.492 -12.538,-5.492 -3.254,0 -5.892,1.302 -7.857,3.876 z"
   id="path1092"
   style="fill:#cccccc;fill-opacity:1" />
	</g><g
     id="g1100"
     style="fill:#cccccc;fill-opacity:1">
		<path
   fill="#ffcb05"
   d="m 142.494,523.294 c 0,0 -11.784,-19.263 13.233,-17.002 0.952,1.603 1.036,10.023 0.385,13.329 -1.553,-0.301 -11.716,-6.995 -13.618,3.673 z"
   id="path1096"
   style="fill:#cccccc;fill-opacity:1" />
		<path
   fill="#231f20"
   d="m 143.015,526.063 -1.375,-2.248 c -0.205,-0.335 -4.977,-8.261 -1.872,-13.8 2.183,-3.894 7.579,-5.484 16.047,-4.72 l 0.509,0.046 0.261,0.439 c 1.223,2.06 1.119,10.922 0.506,14.033 l -0.192,0.978 -0.979,-0.189 c -0.356,-0.068 -0.817,-0.275 -1.515,-0.588 -1.452,-0.651 -3.882,-1.742 -6.056,-1.742 -1.694,0 -4.042,0.539 -4.873,5.197 z m 8.882,-18.956 c -5.444,0 -8.938,1.308 -10.384,3.886 -1.661,2.964 -0.383,7.061 0.712,9.56 1.409,-3.47 4.007,-4.28 6.125,-4.28 2.602,0 5.276,1.2 6.875,1.917 0.029,0.013 0.059,0.026 0.089,0.04 0.42,-3.534 0.224,-9.18 -0.28,-10.992 -1.105,-0.087 -2.157,-0.131 -3.137,-0.131 z"
   id="path1098"
   style="fill:#cccccc;fill-opacity:1" />
	</g><g
     id="g1106"
     style="fill:#cccccc;fill-opacity:1">
		<path
   fill="#ffcb05"
   d="m 167.529,522.134 c 0,0 -0.01,8.511 -0.523,13.894 -2.243,1.03 -14.227,-4.229 -11.551,6.186 -3.272,-0.909 -9.091,-4.606 -7.636,-10.788 1.589,-6.755 19.71,-9.292 19.71,-9.292 z"
   id="path1102"
   style="fill:#cccccc;fill-opacity:1" />
		<path
   fill="#231f20"
   d="m 156.854,543.64 -1.667,-0.463 c -4.05,-1.126 -9.897,-5.373 -8.342,-11.981 1.697,-7.212 18.621,-9.782 20.545,-10.052 l 1.14,-0.16 -0.001,1.151 c 0,0.086 -0.016,8.62 -0.527,13.987 l -0.055,0.573 -0.523,0.241 c -0.787,0.361 -2.149,0.224 -3.96,-0.02 -1.141,-0.152 -2.434,-0.325 -3.609,-0.325 -1.655,0 -2.724,0.341 -3.268,1.042 -0.636,0.82 -0.691,2.277 -0.163,4.33 z m 9.667,-20.338 c -5.47,0.92 -16.638,3.717 -17.729,8.353 -1.124,4.774 2.677,7.715 5.342,8.982 -0.215,-1.806 0.074,-3.199 0.873,-4.229 0.948,-1.223 2.533,-1.816 4.848,-1.816 1.308,0 2.671,0.183 3.874,0.343 0.903,0.121 1.755,0.235 2.348,0.235 0,0 0.001,0 0.001,0 0.335,-4.054 0.421,-9.507 0.443,-11.868 z"
   id="path1104"
   style="fill:#cccccc;fill-opacity:1" />
	</g><g
     id="g1112"
     style="fill:#cccccc;fill-opacity:1">
		<path
   fill="#ffcb05"
   d="m 186.97,536.149 c 0,0 12.96,-3.617 17.482,5.274 0,0 -11.408,12.49 -3.333,13.308 -1.932,1.706 -12.531,6.257 -16.807,-1.106 -2.249,-3.875 0.533,-16.851 2.658,-17.476 z"
   id="path1108"
   style="fill:#cccccc;fill-opacity:1" />
		<path
   fill="#231f20"
   d="m 191.861,558.691 c -3.77,0 -6.679,-1.578 -8.413,-4.564 -1.916,-3.299 -0.646,-11.86 1.035,-16.076 0.681,-1.71 1.382,-2.619 2.205,-2.86 0.125,-0.035 2.792,-0.769 6.175,-0.769 5.986,0 10.302,2.265 12.48,6.549 l 0.313,0.616 -0.467,0.511 c -2.908,3.187 -6.648,8.603 -5.86,10.667 0.077,0.2 0.311,0.812 1.89,0.972 l 2.276,0.23 -1.714,1.515 c -1.227,1.083 -5.532,3.209 -9.92,3.209 z m 1.002,-22.269 c -3.112,0 -5.6,0.684 -5.624,0.69 -1.323,0.839 -4.113,12.478 -2.062,16.011 1.375,2.368 3.624,3.568 6.684,3.568 2.605,0 5.189,-0.872 6.873,-1.679 -0.707,-0.449 -1.078,-1.027 -1.271,-1.535 -1.37,-3.586 3.826,-9.977 5.771,-12.191 -2.398,-4.002 -6.92,-4.864 -10.371,-4.864 z"
   id="path1110"
   style="fill:#cccccc;fill-opacity:1" />
	</g><g
     id="g1118"
     style="fill:#cccccc;fill-opacity:1">
		<path
   fill="#ffcb05"
   d="m 125.451,124.47 c 0,0 8.293,4.728 8.293,13.436 0,0.995 8.142,0.18 10.118,-3.234 1.976,-3.414 -4.064,-11.196 -8.209,-11.917 -3.437,-0.599 -10.202,1.715 -10.202,1.715 z"
   id="path1114"
   style="fill:#cccccc;fill-opacity:1" />
		<path
   fill="#231f20"
   d="m 135.146,139.301 c 0,0 0,0 0,0 -1.594,0 -2.401,-0.469 -2.401,-1.395 0,-8.034 -7.711,-12.522 -7.789,-12.567 l -1.925,-1.098 2.097,-0.717 c 0.223,-0.076 5.506,-1.869 9.23,-1.869 0.541,0 1.034,0.038 1.467,0.113 3.271,0.569 6.98,4.529 8.541,7.871 1.042,2.23 1.167,4.144 0.362,5.533 -1.788,3.089 -7.328,4.129 -9.582,4.129 z m -0.414,-2.015 c 0.108,0.009 0.245,0.015 0.414,0.015 0,0 0,0 0,0 2.522,0 6.729,-1.19 7.852,-3.13 0.449,-0.776 0.288,-2.119 -0.444,-3.685 -1.493,-3.198 -4.798,-6.351 -7.071,-6.746 -0.32,-0.056 -0.698,-0.084 -1.125,-0.084 -2.079,0 -4.817,0.656 -6.636,1.167 2.495,1.936 6.746,6.141 7.01,12.463 z"
   id="path1116"
   style="fill:#cccccc;fill-opacity:1" />
	</g><g
     id="g1124"
     style="fill:#cccccc;fill-opacity:1">
		<path
   fill="#ffcb05"
   d="m 95.942,139.465 c 0,0 10.849,-3.882 13.917,6.651 0,0 8.554,-0.753 10.367,-8.874 0.354,-1.583 -6.151,-9.188 -13.737,-7.07 -7.142,1.994 -10.547,9.293 -10.547,9.293 z"
   id="path1120"
   style="fill:#cccccc;fill-opacity:1" />
		<path
   fill="#231f20"
   d="m 109.129,147.185 -0.229,-0.789 c -1.282,-4.399 -4.148,-6.629 -8.521,-6.629 -2.283,0 -4.082,0.634 -4.1,0.64 l -2.256,0.807 1.013,-2.171 c 0.147,-0.315 3.686,-7.74 11.184,-9.834 0.966,-0.27 1.962,-0.406 2.959,-0.406 4.65,0 8.67,2.957 10.699,5.489 1.055,1.316 1.5,2.383 1.325,3.169 -1.95,8.733 -11.163,9.644 -11.255,9.652 z m -8.75,-9.418 c 4.931,0 8.513,2.56 10.171,7.234 2.031,-0.393 7.362,-1.984 8.7,-7.977 -0.099,-0.996 -4.36,-6.222 -10.071,-6.222 -0.815,0 -1.63,0.112 -2.421,0.333 -4.37,1.22 -7.285,4.634 -8.764,6.82 0.698,-0.108 1.51,-0.188 2.385,-0.188 z"
   id="path1122"
   style="fill:#cccccc;fill-opacity:1" />
	</g><g
     id="g1130"
     style="fill:#cccccc;fill-opacity:1">
		<path
   fill="#ffcb05"
   d="m 105.879,167.596 c 0,0 -23.471,-2.488 -18.217,21.018 3.376,-4.133 11.423,-7.689 17.885,-5.011 0.524,-3.319 7.492,-16.822 0.332,-16.007 z"
   id="path1126"
   style="fill:#cccccc;fill-opacity:1" />
		<path
   fill="#231f20"
   d="m 87.135,190.839 -0.449,-2.007 c -1.569,-7.019 -0.798,-12.533 2.291,-16.389 4.129,-5.154 11.19,-5.923 15.031,-5.923 0.944,0 1.611,0.049 1.864,0.071 1.996,-0.193 3.01,0.628 3.493,1.314 1.793,2.545 -0.139,7.944 -1.691,12.283 -0.529,1.479 -1.03,2.877 -1.139,3.571 l -0.198,1.254 -1.172,-0.486 c -1.366,-0.566 -2.874,-0.853 -4.481,-0.853 -5.051,0 -9.983,2.803 -12.246,5.573 z m 16.873,-22.319 c -2.804,0 -9.729,0.504 -13.47,5.174 -2.424,3.025 -3.183,7.34 -2.264,12.842 2.811,-2.545 7.41,-4.862 12.409,-4.862 1.459,0 2.854,0.206 4.16,0.612 0.229,-0.763 0.563,-1.696 0.948,-2.772 1.172,-3.276 3.135,-8.76 1.939,-10.457 -0.15,-0.213 -0.444,-0.496 -1.26,-0.496 -0.15,0 -0.309,0.009 -0.478,0.029 l -0.108,0.012 -0.109,-0.011 c -0.007,-0.002 -0.689,-0.071 -1.767,-0.071 z"
   id="path1128"
   style="fill:#cccccc;fill-opacity:1" />
	</g><g
     id="g1136"
     style="fill:#cccccc;fill-opacity:1">
		<path
   fill="#ffcb05"
   d="m 116.791,204.676 c 0,0 5.339,2.974 8.718,1.689 3.379,-1.285 1.366,-8.615 1.366,-8.615 0,0 12.25,-0.25 14.333,8.161 -1.554,2.433 -6.306,11.335 -15.565,9.51 -2.81,-0.553 -7.636,-4.392 -8.852,-10.745 z"
   id="path1132"
   style="fill:#cccccc;fill-opacity:1" />
		<path
   fill="#231f20"
   d="m 128.081,216.666 c -0.858,0 -1.744,-0.089 -2.631,-0.264 -3.115,-0.614 -8.333,-4.705 -9.642,-11.539 l -0.402,-2.1 1.87,1.038 c 0.034,0.019 3.43,1.885 6.288,1.885 0.607,0 1.142,-0.086 1.589,-0.256 1.911,-0.727 1.335,-5.31 0.757,-7.416 l -0.339,-1.236 1.416,-0.029 c 1.329,0 13.044,0.25 15.192,8.922 l 0.103,0.417 -0.231,0.362 c -0.101,0.158 -0.216,0.345 -0.345,0.554 -1.784,2.891 -5.962,9.662 -13.625,9.662 z m -9.777,-10.181 c 1.678,4.877 5.557,7.565 7.533,7.955 0.76,0.149 1.515,0.226 2.244,0.226 6.546,0 10.314,-6.106 11.923,-8.713 0.042,-0.069 0.084,-0.136 0.124,-0.2 -1.729,-5.717 -9.024,-6.771 -11.989,-6.962 0.468,2.419 0.962,7.279 -2.275,8.509 -0.676,0.257 -1.45,0.387 -2.3,0.387 -1.87,0 -3.843,-0.626 -5.26,-1.202 z"
   id="path1134"
   style="fill:#cccccc;fill-opacity:1" />
	</g><g
     id="g1142"
     style="fill:#cccccc;fill-opacity:1">
		<path
   fill="#ffcb05"
   d="m 118.001,350.04 c 0,0 -20.593,-6.283 -21.087,10.249 -0.17,5.697 4.521,15.609 4.521,15.609 0,0 -1.52,-11.659 7.319,-6.603 2.181,1.248 8.014,-6.208 9.306,-9.222 1.292,-3.014 -0.059,-10.033 -0.059,-10.033 z"
   id="path1138"
   style="fill:#cccccc;fill-opacity:1" />
		<path
   fill="#231f20"
   d="m 101.435,376.898 c -0.378,0 -0.734,-0.216 -0.903,-0.572 -0.196,-0.413 -4.793,-10.197 -4.617,-16.067 0.239,-7.99 5.155,-12.391 13.843,-12.391 4.5,0 8.374,1.166 8.536,1.216 0.354,0.107 0.62,0.403 0.69,0.767 0.144,0.75 1.37,7.415 -0.004,10.617 -1.098,2.562 -6.392,9.968 -9.667,9.968 v 0 c -0.385,0 -0.739,-0.092 -1.054,-0.271 -2.3,-1.314 -3.91,-1.534 -4.831,-0.487 -1.276,1.451 -1.154,4.891 -1,6.094 0.063,0.487 -0.239,0.949 -0.71,1.087 -0.095,0.026 -0.19,0.039 -0.283,0.039 z m 8.322,-27.03 c -7.651,0 -11.636,3.517 -11.844,10.451 -0.094,3.127 1.396,7.694 2.673,10.997 0.226,-1.086 0.631,-2.155 1.336,-2.957 0.767,-0.873 1.813,-1.335 3.026,-1.335 1.244,0 2.651,0.459 4.302,1.403 0.001,0 0.002,0 0.003,0 1.744,0 6.562,-5.657 7.887,-8.747 0.871,-2.032 0.358,-6.612 -0.014,-8.843 -1.209,-0.311 -4.151,-0.969 -7.369,-0.969 z"
   id="path1140"
   style="fill:#cccccc;fill-opacity:1" />
	</g><g
     id="g1148"
     style="fill:#cccccc;fill-opacity:1">
		<path
   fill="#ffcb05"
   d="m 101.155,390.812 10.484,9.331 c 0,0 -8.912,6.113 -4.39,12.357 -5.599,0.97 -21.903,-5.934 -6.094,-21.688 z"
   id="path1144"
   style="fill:#cccccc;fill-opacity:1" />
		<path
   fill="#231f20"
   d="m 106.108,413.59 c -3.745,0 -9.945,-2.243 -12.006,-7.231 -1.326,-3.209 -1.301,-8.633 6.347,-16.254 l 0.667,-0.665 12.139,10.805 -1.05,0.724 c -0.045,0.031 -4.509,3.146 -5.159,6.92 -0.246,1.43 0.085,2.746 1.012,4.026 l 0.94,1.299 -1.58,0.273 c -0.397,0.069 -0.838,0.103 -1.31,0.103 z m -4.907,-21.398 c -4.938,5.146 -6.753,9.767 -5.251,13.401 1.595,3.859 6.464,5.773 9.611,5.979 -0.564,-1.282 -0.727,-2.632 -0.485,-4.031 0.587,-3.393 3.444,-6.167 4.996,-7.453 z"
   id="path1146"
   style="fill:#cccccc;fill-opacity:1" />
	</g><g
     id="g1154"
     style="fill:#cccccc;fill-opacity:1">
		<path
   fill="#ffcb05"
   d="m 131.125,401.352 14.107,1.208 c 0,0 -5.364,9.941 2.388,14.355 -7.322,2.368 -22.588,2.935 -16.495,-15.563 z"
   id="path1150"
   style="fill:#cccccc;fill-opacity:1" />
		<path
   fill="#231f20"
   d="m 140.232,419.102 c -4.464,0 -7.827,-1.388 -9.727,-4.013 -2.261,-3.125 -2.372,-7.853 -0.331,-14.05 l 0.247,-0.751 16.409,1.405 -0.719,1.34 c -0.199,0.371 -4.801,9.139 2.001,13.013 l 1.971,1.122 -2.158,0.698 c -2.425,0.785 -5.229,1.236 -7.693,1.236 z m -8.397,-16.686 c -1.585,5.176 -1.488,9.042 0.291,11.501 1.904,2.632 5.459,3.185 8.106,3.185 1.62,0 3.403,-0.213 5.106,-0.599 -4.061,-3.67 -3.143,-9.446 -1.627,-13.07 z"
   id="path1152"
   style="fill:#cccccc;fill-opacity:1" />
	</g><g
     id="g1160"
     style="fill:#cccccc;fill-opacity:1">
		<path
   fill="#ffcb05"
   d="m 171.359,381.098 c 0,0 5.701,-9.249 8.069,-10.648 2.368,-1.399 13.457,14.12 9.745,18.799 -4.952,6.243 -14.318,4.091 -14.318,4.091 0,0 6.782,-4.199 3.875,-8.721 -1.653,-2.575 -7.371,-3.521 -7.371,-3.521 z"
   id="path1156"
   style="fill:#cccccc;fill-opacity:1" />
		<path
   fill="#231f20"
   d="m 178.599,394.697 c -2.271,0 -3.899,-0.368 -3.967,-0.384 l -2.362,-0.543 2.059,-1.281 c 0.034,-0.021 3.453,-2.176 4.043,-4.801 0.2,-0.888 0.042,-1.715 -0.482,-2.529 -1.157,-1.8 -5.225,-2.83 -6.695,-3.075 l -1.467,-0.244 0.78,-1.267 c 0.597,-0.969 5.903,-9.503 8.412,-10.985 0.256,-0.15 0.545,-0.228 0.859,-0.228 2.653,0 7.136,6.242 9.221,10.557 1.529,3.164 2.936,7.459 0.957,9.952 -3.165,3.99 -7.923,4.828 -11.358,4.828 z m -1.236,-2.04 c 2.957,0.188 7.965,-0.17 11.027,-4.03 0.945,-1.191 0.635,-3.783 -0.852,-7.109 -2.388,-5.346 -6.482,-9.912 -7.694,-10.148 -1.451,0.974 -4.691,5.62 -6.876,9.047 1.952,0.482 5.266,1.578 6.605,3.661 0.818,1.273 1.07,2.638 0.749,4.057 -0.42,1.856 -1.774,3.44 -2.959,4.522 z"
   id="path1158"
   style="fill:#cccccc;fill-opacity:1" />
	</g><g
     id="g1166"
     style="fill:#cccccc;fill-opacity:1">
		<path
   fill="#ffcb05"
   d="m 382.157,519.467 c 0,0 3.725,10.987 3.558,12.154 -2,1 -12.715,4.379 -12.048,10.379 -5,-6.667 -8.01,-14.033 8.49,-22.533 z"
   id="path1162"
   style="fill:#cccccc;fill-opacity:1" />
		<path
   fill="#231f20"
   d="m 375.065,545.532 -2.198,-2.933 c -2.506,-3.341 -4.932,-7.353 -3.917,-11.768 0.997,-4.34 5.167,-8.349 12.749,-12.254 l 1.032,-0.532 0.373,1.1 c 1.42,4.188 3.775,11.396 3.601,12.617 l -0.074,0.519 -0.469,0.234 c -0.3,0.149 -0.785,0.352 -1.397,0.604 -3.169,1.309 -10.593,4.374 -10.104,8.77 z m 6.519,-24.633 c -6.371,3.434 -9.87,6.836 -10.685,10.38 -0.646,2.816 0.523,5.578 2.126,8.066 1.601,-4.203 7.742,-6.738 10.977,-8.074 0.24,-0.1 0.459,-0.189 0.652,-0.271 -0.319,-1.537 -1.671,-5.912 -3.07,-10.101 z"
   id="path1164"
   style="fill:#cccccc;fill-opacity:1" />
	</g><g
     id="g1172"
     style="fill:#cccccc;fill-opacity:1">
		<path
   fill="#ffcb05"
   d="m 383.442,538.735 c 0,0 10.795,4.886 11.462,6.719 -2.166,1.333 -9.071,14.212 -5.571,18.212 -5.166,-0.334 -18.341,-7.54 -5.891,-24.931 z"
   id="path1168"
   style="fill:#cccccc;fill-opacity:1" />
		<path
   fill="#231f20"
   d="m 391.671,564.819 -2.402,-0.155 c -2.91,-0.188 -8.434,-2.399 -10.865,-7.53 -1.7,-3.59 -2.349,-9.798 4.226,-18.98 l 0.479,-0.667 0.747,0.338 c 3.361,1.521 11.258,5.276 11.989,7.288 l 0.279,0.766 -0.694,0.428 c -1.248,0.768 -5.16,7.408 -5.939,12.558 -0.292,1.932 -0.086,3.364 0.597,4.145 z m -7.888,-24.828 c -4.374,6.365 -5.61,11.984 -3.572,16.286 1.555,3.281 4.779,5.278 7.361,6.044 -0.261,-1.043 -0.281,-2.299 -0.061,-3.757 0.717,-4.735 3.941,-10.928 6.033,-13.222 -1.391,-1.175 -5.717,-3.482 -9.761,-5.351 z"
   id="path1170"
   style="fill:#cccccc;fill-opacity:1" />
	</g><g
     id="g1178"
     style="fill:#cccccc;fill-opacity:1">
		<path
   fill="#ffcb05"
   d="m 402.611,549.802 c 0,0 10.6,-0.184 13.933,1.482 -1.166,3.334 -0.044,13.716 4.456,14.216 -7.5,3.5 -21.649,1.692 -18.389,-15.698 z"
   id="path1174"
   style="fill:#cccccc;fill-opacity:1" />
		<path
   fill="#231f20"
   d="m 414.145,567.974 c -4.246,0 -7.849,-1.523 -10.143,-4.288 -2.713,-3.269 -3.511,-8.001 -2.373,-14.068 l 0.149,-0.801 0.815,-0.015 c 0,0 0.353,-0.006 0.949,-0.006 3.085,0 10.57,0.155 13.448,1.594 l 0.787,0.394 -0.29,0.831 c -0.769,2.195 -0.383,8.243 1.521,11.269 0.624,0.992 1.331,1.538 2.101,1.623 l 3.541,0.394 -3.229,1.507 c -2.163,1.009 -4.748,1.566 -7.276,1.566 z m -10.692,-17.178 c -0.812,5.06 -0.111,8.964 2.088,11.612 1.907,2.299 4.963,3.565 8.604,3.565 1.47,0 2.957,-0.211 4.345,-0.606 -0.426,-0.382 -0.818,-0.856 -1.172,-1.419 -2.097,-3.33 -2.562,-9.014 -1.963,-12.063 -2.475,-0.797 -7.566,-1.089 -11.812,-1.089 -0.03,0 -0.061,0 -0.09,0 z"
   id="path1176"
   style="fill:#cccccc;fill-opacity:1" />
	</g><g
     id="g1184"
     style="fill:#cccccc;fill-opacity:1">
		<path
   fill="#ffcb05"
   d="m 428.401,530.534 10.474,-1.68 c 0,0 4.792,17.312 -11.375,20.146 1.333,-3.667 5.235,-11.633 0.901,-18.466 z"
   id="path1180"
   style="fill:#cccccc;fill-opacity:1" />
		<path
   fill="#231f20"
   d="m 425.97,550.283 0.591,-1.625 c 0.14,-0.385 0.308,-0.816 0.491,-1.288 1.541,-3.965 4.121,-10.6 0.505,-16.301 l -0.813,-1.282 12.856,-2.062 0.239,0.862 c 0.097,0.351 2.33,8.655 -1.673,14.989 -2.154,3.409 -5.686,5.565 -10.493,6.408 z m 4.003,-18.988 c 2.931,5.973 0.613,12.479 -0.874,16.326 3.323,-0.907 5.798,-2.619 7.371,-5.104 2.832,-4.473 2.062,-10.34 1.635,-12.526 z"
   id="path1182"
   style="fill:#cccccc;fill-opacity:1" />
	</g><g
     id="g1190"
     style="fill:#cccccc;fill-opacity:1">
		<path
   fill="#ffcb05"
   d="m 229.223,154.656 c 0,0 -0.246,-8.599 4.668,-8.722 1.474,-0.037 8.476,1.229 16.707,10.196 3.478,3.789 11.056,9.336 10.81,11.302 -0.246,1.966 -0.737,3.931 -7.002,5.651 -6.265,1.72 -17.936,4.177 -20.638,3.686 -2.702,-0.491 -5.896,-3.317 -5.896,-3.317 0,0 -3.194,10.196 11.302,13.267 3.324,0.704 22.566,2.302 29.691,-3.84 3.967,-3.42 7.329,-11.068 5.855,-15.613 -1.474,-4.545 -1.483,-18.189 -1.483,-18.189 0,0 -10.231,-1.545 -12.934,-3.142 -2.703,-1.597 -9.837,-10.44 -11.188,-11.3 -1.351,-0.86 -9.818,-4.547 -16.329,-2.582 -2.715,0.82 -11.28,3.438 -10.933,13.021 0.259,7.169 7.37,9.582 7.37,9.582 z"
   id="path1186"
   style="fill:#cccccc;fill-opacity:1" />
		<path
   fill="#231f20"
   d="m 249.264,188.44 c -4.944,0 -8.94,-0.456 -10.297,-0.743 -5.389,-1.142 -9.089,-3.376 -10.999,-6.641 -2.271,-3.881 -1.102,-7.742 -1.05,-7.904 l 0.46,-1.471 1.156,1.02 c 0.03,0.026 3.021,2.647 5.414,3.083 0.119,0.022 0.344,0.048 0.736,0.048 3.674,0 13.81,-2.163 19.458,-3.714 5.875,-1.612 6.078,-3.238 6.274,-4.811 -0.089,-0.902 -3.473,-3.925 -5.712,-5.925 -1.751,-1.564 -3.562,-3.182 -4.843,-4.577 -7.434,-8.1 -14.002,-9.874 -15.906,-9.874 -0.78,0.019 -1.392,0.293 -1.909,0.839 -1.608,1.697 -1.862,5.524 -1.824,6.855 l 0.041,1.438 -1.362,-0.462 c -0.317,-0.107 -7.767,-2.724 -8.049,-10.493 -0.25,-6.891 3.668,-11.606 11.644,-14.015 1.345,-0.406 2.85,-0.612 4.474,-0.612 5.641,0 11.349,2.459 12.681,3.307 0.63,0.401 1.802,1.684 3.99,4.108 2.4,2.658 5.688,6.299 7.17,7.175 2.079,1.228 9.782,2.592 12.575,3.014 l 0.85,0.128 v 0.86 c 0,0.135 0.025,13.538 1.434,17.881 1.624,5.006 -1.974,13.077 -6.153,16.679 -4.605,3.973 -13.556,4.807 -20.253,4.807 z m -20.672,-13.145 c -0.069,1.224 0.077,3.015 1.118,4.779 1.619,2.744 4.873,4.65 9.67,5.666 1.373,0.291 5.346,0.7 9.883,0.7 8.988,0 15.718,-1.534 18.949,-4.319 3.637,-3.135 6.927,-10.324 5.557,-14.547 -1.305,-4.022 -1.498,-14.538 -1.527,-17.642 -2.635,-0.424 -10.033,-1.711 -12.448,-3.138 -1.744,-1.03 -4.875,-4.498 -7.637,-7.556 -1.476,-1.634 -3.149,-3.487 -3.579,-3.761 -1.038,-0.66 -6.36,-2.995 -11.608,-2.995 -1.428,0 -2.738,0.177 -3.896,0.527 -2.608,0.787 -10.543,3.184 -10.223,12.028 0.167,4.609 3.525,7.063 5.419,8.085 0.136,-1.86 0.624,-4.934 2.323,-6.727 0.889,-0.938 1.99,-1.43 3.272,-1.462 0,0 0.001,0 0.002,0 2.762,0 9.831,2.2 17.467,10.52 1.213,1.322 2.987,2.906 4.702,4.438 4.207,3.757 6.576,5.966 6.364,7.664 -0.298,2.384 -1.113,4.675 -7.729,6.491 -5.635,1.547 -15.996,3.785 -19.988,3.785 -0.44,0 -0.798,-0.026 -1.094,-0.08 -1.801,-0.327 -3.735,-1.538 -4.997,-2.456 z"
   id="path1188"
   style="fill:#cccccc;fill-opacity:1" />
	</g><g
     id="g1200"
     style="fill:#cccccc;fill-opacity:1">
		<g
   id="g1194"
   style="fill:#cccccc;fill-opacity:1">
			<path
   fill="#ffcb05"
   d="m 301.751,96.067 c -3.18,-0.076 -7.874,-0.227 -8.782,2.801 -0.908,3.028 -0.605,4.391 -0.605,4.391 0,0 8.327,-0.454 7.344,4.997 -0.063,0.349 -0.128,0.726 -0.208,1.111 0,0.003 10e-4,0.005 10e-4,0.008 0,0.949 -0.381,1.84 -1.048,2.617 -0.345,0.468 -0.798,0.882 -1.401,1.202 -1.555,1.012 -3.718,1.641 -6.113,1.641 -4.729,0 -8.562,-2.444 -8.562,-5.46 0,-0.232 0.03,-0.46 0.075,-0.685 0.032,-3.326 0.766,-6.629 7.34,-6.112 0.227,-3.028 0.378,-8.176 -7.722,-8.403 0.075,-1.893 -0.131,-9.055 -3.407,-9.16 -4.693,-0.151 -5.299,9.69 -5.299,9.69 0,0 -8.63,-1.514 -7.797,6.964 2.422,0 6.435,-0.303 6.813,2.953 0,0 0.45,2.08 0.199,4.179 0.005,0.081 0.018,0.159 0.018,0.24 0,3.016 -3.6,5.46 -8.041,5.46 -2.334,0 -4.43,-0.68 -5.898,-1.758 -1.456,-0.858 -2.717,-2.695 -2.402,-6.38 0.131,-1.539 0.606,-4.164 6.738,-4.467 -0.076,-2.12 -0.076,-7.418 -8.857,-6.51 -0.757,-1.287 -5.677,-10.068 -12.339,-10.068 0,0 11.379,28.083 10.755,40.417 0,0 37.713,5.779 40.438,5.855 2.725,0.076 9.55,-3.182 10.383,-7.572 0.576,-3.039 2.014,-15.308 3.755,-20.834 1.741,-5.526 6.208,-15.67 6.208,-15.67 0,0 -8.105,0.907 -11.586,8.553 z"
   id="path1192"
   style="fill:#cccccc;fill-opacity:1" />
		</g>
		<g
   id="g1198"
   style="fill:#cccccc;fill-opacity:1">
			<path
   fill="#231f20"
   d="m 293.083,132.59 -0.124,-0.002 c -2.755,-0.077 -39.018,-5.63 -40.561,-5.866 l -0.893,-0.137 0.046,-0.902 c 0.606,-11.971 -10.57,-39.712 -10.683,-39.991 l -0.557,-1.375 h 1.484 c 4.445,0 9.007,3.553 12.88,10.017 0.469,-0.035 0.921,-0.052 1.352,-0.052 7.707,0 7.891,5.412 7.96,7.449 l 0.04,1.115 -0.985,0.049 c -5.511,0.272 -5.693,2.406 -5.791,3.553 -0.229,2.681 0.433,4.56 1.914,5.434 l 0.084,0.055 c 1.354,0.994 3.288,1.564 5.307,1.564 3.816,0 7.041,-2.042 7.041,-4.46 l -0.022,-0.267 0.011,-0.093 c 0.227,-1.898 -0.18,-3.83 -0.184,-3.85 -0.192,-1.608 -1.434,-2.17 -4.599,-2.17 l -2.144,0.007 -0.088,-0.902 c -0.252,-2.562 0.272,-4.581 1.558,-5.999 1.625,-1.792 4.035,-2.168 5.771,-2.168 0.199,0 0.387,0.005 0.558,0.014 0.311,-2.757 1.541,-9.601 6.098,-9.601 l 0.139,0.002 c 0.856,0.028 1.641,0.399 2.269,1.074 1.815,1.951 2.087,6.204 2.113,8.14 2.725,0.225 4.76,1.065 6.059,2.505 2.005,2.222 1.776,5.277 1.653,6.919 l -0.075,1.001 -1,-0.079 c -0.434,-0.034 -0.84,-0.051 -1.221,-0.051 -4.196,0 -5.01,1.819 -5.042,5.175 l -0.019,0.184 c -0.038,0.192 -0.056,0.348 -0.056,0.491 0,2.417 3.463,4.46 7.562,4.46 2.125,0 4.103,-0.525 5.567,-1.479 0.512,-0.275 0.859,-0.574 1.143,-0.957 0.565,-0.663 0.837,-1.306 0.852,-1.967 l 0.021,-0.269 c 0.062,-0.292 0.112,-0.578 0.161,-0.851 l 0.043,-0.235 c 0.164,-0.91 0.017,-1.625 -0.451,-2.184 -1.012,-1.212 -3.479,-1.644 -5.451,-1.644 -0.243,0 -0.392,0.007 -0.404,0.008 l -0.846,0.044 -0.185,-0.826 c -0.036,-0.166 -0.331,-1.709 0.624,-4.895 1.062,-3.543 5.878,-3.543 7.934,-3.543 0.404,0 0.803,0.006 1.185,0.015 3.805,-7.521 11.748,-8.495 12.093,-8.533 l 1.727,-0.194 -0.7,1.59 c -0.044,0.101 -4.465,10.157 -6.169,15.567 -1.24,3.937 -2.338,11.458 -3.064,16.435 -0.279,1.918 -0.5,3.433 -0.662,4.286 -0.922,4.847 -7.96,8.389 -11.273,8.389 z m -39.509,-7.711 c 13.243,2.026 37.381,5.653 39.442,5.71 l 0.067,1.001 v -1 c 2.326,0 8.577,-2.926 9.305,-6.76 0.153,-0.811 0.372,-2.307 0.648,-4.201 0.735,-5.04 1.847,-12.657 3.135,-16.747 1.311,-4.159 4.092,-10.776 5.46,-13.958 -2.446,0.737 -6.751,2.684 -8.97,7.558 l -0.273,0.601 -0.781,-0.019 c -0.523,-0.013 -1.085,-0.026 -1.662,-0.026 -3.723,0 -5.578,0.653 -6.018,2.117 -0.433,1.443 -0.568,2.467 -0.602,3.103 1.712,0.055 4.877,0.431 6.482,2.353 0.858,1.027 1.156,2.313 0.884,3.823 l -0.042,0.231 c -0.046,0.258 -0.095,0.528 -0.15,0.803 -0.023,1.124 -0.468,2.22 -1.288,3.176 -0.411,0.563 -0.996,1.065 -1.691,1.434 -1.709,1.117 -4.074,1.757 -6.582,1.757 -5.362,0 -9.562,-2.837 -9.562,-6.46 0,-0.246 0.025,-0.503 0.076,-0.785 0.047,-3.373 0.912,-7.181 7.399,-7.062 0.056,-1.588 -0.106,-3.242 -1.2,-4.455 -1.07,-1.186 -2.957,-1.825 -5.609,-1.899 l -1.012,-0.028 0.041,-1.011 c 0.088,-2.223 -0.26,-6.275 -1.571,-7.684 -0.352,-0.378 -0.664,-0.431 -0.869,-0.437 0,0 0,0 -10e-4,0 -3.051,0 -4.125,6.481 -4.268,8.752 l -0.07,1.116 -1.101,-0.193 c -0.003,0 -0.534,-0.09 -1.291,-0.09 -1.332,0 -3.157,0.262 -4.289,1.512 -0.749,0.826 -1.118,2.018 -1.101,3.552 l 0.293,-10e-4 c 1.832,0 6.123,0 6.569,3.845 v 0 c 0.005,0 0.452,2.106 0.211,4.306 0.008,0.094 0.013,0.161 0.013,0.229 0,3.623 -3.971,6.46 -9.041,6.46 -2.452,0 -4.74,-0.683 -6.451,-1.923 -1.516,-0.913 -3.22,-2.918 -2.847,-7.3 0.174,-2.041 1.077,-4.751 6.691,-5.308 -0.148,-2.043 -0.869,-4.688 -5.921,-4.688 -0.556,0 -1.159,0.033 -1.79,0.098 l -0.639,0.066 -0.406,-0.69 c -3.074,-5.269 -6.52,-8.488 -9.854,-9.259 2.332,5.967 10.313,27.221 10.236,38.381 z"
   id="path1196"
   style="fill:#cccccc;fill-opacity:1" />
		</g>
	</g><g
     id="g1210"
     style="fill:#cccccc;fill-opacity:1">
		<g
   id="g1204"
   style="fill:#cccccc;fill-opacity:1">
			<path
   fill="#231f20"
   d="m 448.667,426.833 c -3.646,-1.554 -1,-8.5 5,-6.333 6,2.167 10.5,2.833 10.5,2.833 0,0 -5,-15.166 -24.834,-17.166 -6.171,-0.622 -13.166,3.499 -14.333,6.666 -1.5,-3 -0.333,-11.5 -11.832,-12.166 C 414,405.5 415.168,416 408,418 c -4.621,1.29 -12.166,-3 -18.332,-11.334 -2.322,-3.14 -20.202,-32.91 -23.023,-38.562 -19.069,-0.666 -34.528,-7.123 -40.982,-10.265 0.831,3.022 1.549,5.645 1.955,7.831 l 0.64,3.436 -3.286,-1.188 c -9.645,-3.489 -22.896,-22.042 -23.405,-22.732 l 11.306,10.27 c 0.102,0.138 1.97,1.611 9.846,6.811 -0.29,-1.105 -0.616,-2.291 -0.963,-3.549 -2.098,-7.626 -3.334,-16.428 -2.2,-24.171 -0.127,0.1 -0.254,0.199 -0.383,0.292 -2.577,1.839 -6.104,1.733 -8.534,1.492 -1.955,-0.194 -3.567,-0.957 -4.819,-2.277 -1.506,1.614 -3.501,2.544 -5.964,2.774 -2.366,0.223 -4.731,-0.502 -6.367,-1.929 -0.229,-0.199 -0.439,-0.409 -0.632,-0.63 -1.472,1.507 -3.408,2.739 -5.953,2.739 -0.104,0 -0.207,-10e-4 -0.312,-0.006 -7.933,-0.342 -3.342,-8.486 -3.342,-8.486 l 0.058,2.129 c 0.024,0.887 0.061,2.228 3.44,2.36 1.696,0.063 3.22,-1.073 4.919,-3.697 l 3.412,-5.267 0.265,6.27 c 0.026,0.627 0.28,1.142 0.776,1.575 0.802,0.699 2.118,1.073 3.363,0.96 2.241,-0.209 3.597,-1.187 4.535,-3.268 l 1.887,-4.186 1.78,4.232 c 0.736,1.751 1.738,2.567 3.349,2.727 1.785,0.177 4.334,0.291 5.814,-0.766 2.408,-1.721 3.976,-6.788 3.337,-10.069 -0.201,-0.481 -0.477,-4.02 -0.594,-4.565 0,0 3.842,4.127 6.614,4.953 2.393,0.712 5.905,-0.599 7.603,-2.622 l 2.285,-2.723 1.142,3.366 c 0.493,1.457 1.414,2.458 2.737,2.975 1.748,0.683 4.071,0.434 6.065,-0.652 3.782,-2.061 5.919,-6.403 5.317,-10.806 -0.032,-0.235 -0.015,-0.465 0.032,-0.685 -3.846,-1.805 -7.326,-4.416 -8.698,-5.946 l 0.478,-0.627 c 6.909,3.151 15.671,5.582 17.697,4.175 0.701,-0.485 1.571,-1.257 1.736,-2.178 0.133,-0.744 -0.232,-1.358 -0.236,-1.364 l -2.664,-3.806 4.596,0.681 c 0.074,0.011 7.751,1.066 10.345,-3.082 0.405,-0.648 0.51,-1.286 0.33,-2.007 -0.63,-2.518 -4.276,-5.087 -5.629,-5.865 l -5.862,-3.372 6.752,-0.36 c 5.536,-0.294 11.294,-1.694 11.849,-2.881 0.501,-1.844 -2.787,-3.252 -2.82,-3.265 l -3.987,-1.596 3.788,-2.025 c 3.54,-1.893 9.379,-6.083 9.977,-9.271 0.073,-0.388 -0.023,-0.491 -0.108,-0.583 -1.113,-1.199 -5.772,-1.387 -8.705,-1.061 l -1.675,0.12 c 4.006,-1.8 9.121,-8.899 9.121,-10.441 0,-0.488 -0.101,-0.648 -0.102,-0.649 -0.162,-0.082 -1.43,-0.101 -2.02,0.117 l -3.024,0.605 c 0.062,-0.065 7.726,-10.556 7.154,-16.549 -0.043,-0.449 -0.166,-0.512 -0.256,-0.558 -1.855,-0.958 -8.454,2.331 -14.071,4.405 l -2.073,0.864 c 1.49,-2.301 3.855,-9.204 3.283,-11.492 -0.033,-0.132 -1.111,-0.591 -1.123,-0.605 -0.475,-0.293 -2.581,-0.793 -4.493,0.346 l -3.024,1.814 c 2.167,-2.289 6.025,-11.242 5.46,-13.878 -0.049,-0.23 -0.147,-0.476 -0.53,-0.717 -1.694,-1.065 -5.928,-0.521 -7.711,-0.091 l -2.47,0.596 v -20.206 c -2.927,3.627 -5.995,7.247 -9.218,10.834 -0.049,0.054 -0.102,0.105 -0.158,0.152 -0.166,0.138 -16.662,13.831 -18.287,15.294 -0.069,0.062 -6.88,6.297 -3.975,12.59 2.496,5.409 7.549,8.094 12.564,6.685 5.187,-1.458 11.606,-4.084 11.671,-4.11 0.447,-0.183 0.951,-0.14 1.36,0.113 0.409,0.254 0.671,0.688 0.705,1.168 0.157,2.215 1.429,21.813 -2.21,27.878 -0.477,0.794 -0.918,1.662 -1.386,2.58 -2.935,5.767 -6.588,12.945 -24.132,14.145 -6.881,0.471 -11.728,8.264 -12.397,9.032 0.63,-5.664 3.519,-11.432 12.192,-12.025 15.847,-1.083 18.938,-7.155 21.663,-12.512 0.492,-0.966 0.957,-1.879 1.487,-2.763 2.399,-4 2.262,-17.243 1.913,-24.069 -2.351,0.913 -6.435,2.433 -10.055,3.451 -0.221,0.062 -0.442,0.104 -0.663,0.154 0.135,0.164 0.241,0.349 0.3,0.562 0.426,1.562 -0.426,15.188 -5.536,17.175 -5.11,1.987 -16.749,5.82 -21.008,12.35 -4.259,6.53 -4.116,10.788 -20.015,13.343 -15.899,2.555 -14.803,-20.491 -14.803,-20.491 0.054,-1.436 0.028,-2.233 0.16,-2.845 -2.723,4.843 -5.945,12.742 -0.941,32.562 0.089,0.354 -0.021,0.729 -0.289,0.978 -0.188,0.174 -0.433,0.267 -0.681,0.267 -0.106,0 -0.208,-0.037 -0.316,-0.051 -12.508,-1.604 -16.206,-10.833 -16.996,-18.367 -2.583,3.661 -6.156,5.605 -9.626,7.494 -0.912,0.496 -1.838,1 -2.764,1.542 -4.105,2.406 -6.422,9.726 -7.954,14.57 -0.167,0.527 -0.327,1.034 -0.482,1.512 l -0.863,2.664 -1.739,-2.195 c -3.776,-4.766 -6.001,-10.946 -6.242,-17.054 -3.151,1.961 -6.303,3.325 -8.83,4.415 -1.425,0.615 -2.655,1.146 -3.628,1.659 -4.339,2.29 -4.49,8.373 -4.622,13.74 -0.025,1.015 -0.05,1.996 -0.101,2.916 l -0.139,2.503 -2.14,-1.307 c -4.94,-3.017 -7.864,-7.141 -8.878,-12.222 -3.025,-15.152 9.883,-27.514 10.309,-28.069 0,0 -9.365,16.812 -7.358,27.526 0.642,3.424 2.423,6.331 5.307,8.669 0,-0.03 0.001,-0.061 0.002,-0.091 0.146,-5.885 0.326,-13.208 6.221,-16.319 1.077,-0.568 2.358,-1.121 3.841,-1.76 6.776,-2.922 20.006,-11.242 23.154,-23.44 L 247,275.487 c -1.807,7.003 -5.727,11.706 -10.041,15.035 -0.213,5.126 1.184,10.454 3.896,14.87 1.737,-5.413 4.166,-12.116 8.856,-14.864 0.954,-0.559 1.907,-1.078 2.847,-1.589 3.658,-1.99 8.505,-5.818 10.9,-9.581 0.114,-3.213 0.639,-5.445 0.797,-5.438 0.551,0.028 0.976,0.498 0.947,1.05 -0.811,15.812 7.934,22.311 14.311,24.935 -4.837,-20.64 -0.212,-28.653 2.582,-33.497 0.254,-0.44 1.629,1.18 1.576,1.271 5.582,16.832 14.495,16.926 17.857,17.486 -0.727,-1.373 -3.068,-12.757 -1.453,-18.409 0.908,-3.179 3.24,-6.552 5.11,-8.901 -4.688,-7.185 -6.704,-17.56 -7.386,-21.994 -1.762,0.633 -2.773,1.28 -2.793,1.293 l -3.191,0.45 c 0.187,-0.122 2.08,-8.196 16.06,-4.992 l -3.079,2.041 c -1.502,0 -2.869,0.162 -4.077,0.402 0.59,3.888 2.442,13.886 6.662,20.685 7.054,6.256 16.159,2.88 16.159,2.88 0,0 -6.27,-3.335 -7.913,-7.267 -5.571,-13.323 -1.857,-24.707 0.323,-29.713 2.18,-5.006 1.05,-7.913 -0.09,-17.426 2.868,8.424 8.244,13.979 13.621,16.13 -2.33,-3.405 -4.66,-31.543 -5.197,-34.948 -0.537,-3.405 -2.15,-3.943 -2.867,-8.065 16.309,6.631 21.147,-0.358 21.147,-0.358 0,0 -9.857,0.179 -16.488,-4.839 -3.893,-2.946 -5.204,-8.923 -5.713,-13.348 -0.003,-0.027 10e-4,-0.054 -10e-4,-0.082 -7.062,4.552 -15.285,4.804 -15.713,4.849 l 2.908,-1.313 c 0.138,-0.015 15.289,-4.502 19.105,-13.776 l 0.003,0.002 c 2.475,-5.51 2.88,-12.51 3.238,-17.408 0.528,-7.217 3.608,-18.218 3.608,-18.218 0,0 -6.925,7.502 -11.178,13.29 -4.253,5.788 -7.615,10.148 -11.988,10.931 -1.124,0.201 -2.096,0.359 -2.951,0.498 -5.005,0.812 -5.528,0.897 -9.613,5.445 l -0.866,0.331 c 2,-5.833 4.468,-7.839 9.999,-8.737 0.841,-0.137 1.798,-0.292 2.902,-0.49 2.11,-0.377 3.898,-1.822 5.358,-3.655 0.343,-0.929 0.624,-1.791 0.735,-2.386 2.2,-11.793 -2.377,-21.299 -2.377,-21.299 0,0 -2.2,4.665 -3.784,8.801 -1.584,4.136 -11.97,11.793 -16.898,12.938 -4.928,1.145 -15.313,0.088 -23.234,-1.32 -7.921,-1.408 -15.578,-1.848 -17.866,-1.408 -2.288,0.44 -3.873,4.4 -2.64,6.072 0.02,0.027 0.05,0.054 0.073,0.081 -0.123,0.935 -0.034,1.991 0.643,2.876 1.627,2.128 9.39,10.267 9.39,10.267 l 3.281,1.404 c -0.253,0.072 -0.153,1.25 1.667,1.887 1.536,0.307 2.087,2.24 2.194,2.536 l 0.038,0.113 c 0.031,0.103 3.081,10.348 4.531,14.817 1.745,5.38 0.539,13.789 -4.037,17.733 -0.837,0.722 -1.776,1.343 -2.774,1.894 0.044,0.028 0.091,0.062 0.132,0.078 1.144,0.44 7.569,6.249 8.449,13.642 0.041,0.346 0.054,0.688 0.067,1.029 -0.439,15.683 -17.855,11.051 -17.855,11.051 -8.615,-1.688 -9.605,-2.911 -16.765,-2.212 -4.233,0.413 -10.145,4.516 -13.77,6.328 -3.625,1.812 -6.824,0.147 -8,-2.25 -3.188,-6.5 -6.312,-4.75 -7.75,-4.625 -1.438,0.125 -2.812,1.812 -6.5,-0.5 -3.688,-2.312 0.979,-9.478 2.87,-11.495 -12.103,2.521 -13.317,9.784 -13.583,11.818 -1.481,11.314 9.77,12.575 12.197,13.93 2.427,1.355 2.149,3.282 1.024,3.999 -3.42,2.178 -13.676,-1.004 -22.333,-6.022 -8.657,-5.018 -16.562,-17.565 -18.945,-22.208 -2.383,-4.643 -5.896,-6.775 -8.029,-9.912 -2.133,-3.137 -2.259,-11.794 -2.51,-16.185 -0.251,-4.391 -4.015,-5.27 -6.022,-7.151 -2.007,-1.881 -2.133,-5.521 -2.635,-9.285 -0.502,-3.764 1.129,-13.425 1.882,-17.314 0.753,-3.889 -1.38,-5.019 -2.76,-4.14 -1.38,0.879 -6.901,2.509 -6.901,2.509 0,0 -5.389,0.41 -4.454,3.727 0.935,3.317 2.467,9.357 1.531,10.292 -0.936,0.935 -3.573,-1.872 -3.913,-6.975 -0.34,-5.103 0.595,-11.229 -4.508,-11.058 -5.103,0.171 -4.593,3.147 -4.934,4.423 -0.341,1.276 -1.105,6.72 -11.909,9.187 -2.322,0.53 0.936,7.656 5.614,11.398 4.678,3.742 13.524,8.846 13.78,10.037 0.256,1.191 0.255,2.892 -3.317,1.786 -3.572,-1.106 -10.973,-3.317 -12.079,-3.913 -1.106,-0.596 -3.317,-1.957 -5.104,-1.531 -1.787,0.426 -2.381,1.446 -2.126,3.232 0.255,1.786 1.105,10.377 0.595,12.164 -0.51,1.787 -1.106,7.656 -1.106,7.656 0,0 3.743,0.51 6.38,-0.255 2.637,-0.765 9.017,-1.616 11.058,-1.276 2.041,0.34 3.317,0.341 2.211,4.253 -1.106,3.912 -2.645,8.764 0.296,11.558 1.45,1.377 2.904,0.772 3.897,-0.11 0.993,-0.882 6.875,-2.574 10.147,3.198 3.272,5.772 5.22,2.647 5.772,0.993 0.552,-1.654 0.882,-8.162 1.618,-8.603 0.736,-0.441 1.655,-1.287 3.309,3.309 1.654,4.596 6.065,14.356 8.391,17.16 2.326,2.804 8.411,11.214 9.916,13.334 1.485,2.093 2.43,3.062 1.664,6.311 -1.481,0.985 -8.671,4.934 -19.977,-2.294 0,7.73 2.507,16.296 13.372,16.505 10.865,0.209 11.909,3.134 7.73,3.761 -4.179,0.627 -11.282,-1.045 -19.013,3.97 -7.731,5.015 -7.582,9.454 -14.834,9.402 -12.582,-0.09 -14.208,-12.745 -14.208,-12.745 0,0 -9.819,14.834 7.73,23.609 4.616,2.308 17.968,-1.253 17.968,-1.253 0,0 -4.388,1.671 -8.357,7.73 -3.969,6.059 -19.222,18.177 -36.145,10.237 4.806,9.611 29.25,28.206 64.56,-14.416 2.074,-2.503 7.312,-0.417 0.626,6.268 -6.686,6.685 -6.542,7.531 -21.813,17.468 -12.167,7.917 -8.709,25.193 -8.5,30.417 11.5,-12.25 7.5,-25.5 16.524,-26.783 0,0 10.864,2.298 14.834,-2.925 3.97,-5.223 12.118,-15.043 12.118,-15.043 0,0 -0.417,6.06 -6.686,13.999 -6.269,7.939 -3.552,16.296 -2.089,19.221 4.388,-5.85 15.879,-22.355 21.52,-24.027 5.641,-1.672 6.686,-0.418 6.895,5.85 0.209,6.268 2.089,22.355 18.595,29.041 6.078,2.461 10.655,5.224 12.327,7.522 0,-3.97 0.418,-8.357 0.418,-8.357 0,0 4.805,2.508 11.282,8.984 6.477,6.476 12.327,10.237 12.327,10.237 l -0.276,-7.425 c 0,0 14.39,6.683 19.334,10.776 5.67,0.542 15.73,2.321 21.834,8.181 l 0.958,0.92 -0.797,1.062 c -1.666,2.221 -2.679,5.241 -3.219,7.276 2.611,-0.424 7.114,-0.974 10.888,1.498 5.113,3.349 8.02,4.739 9.337,8.498 0.37,0.815 1.074,1.927 1.074,1.927 0,0 2.055,6.735 1.055,20.068 -0.41,5.487 1,10.5 17.5,27.167 16.5,16.667 26,28.333 43,30 17,1.667 29.168,-1.334 35.5,12.499 4.434,9.685 2.833,19.501 -3.167,31.001 -4.413,8.459 -6.5,16.666 -6.5,19.333 -2,-3.833 -9.5,-17.5 -21.665,-6.833 1.165,3.333 4.165,15.5 1.165,19.666 4.335,1.667 9.167,5 10.167,8.667 1,3.667 3.666,2.833 4.333,0.833 0.667,-2 4.335,-12.999 5.167,-12.166 0.833,0.833 -0.667,14.666 -0.667,14.666 0,0 13.169,-1 14.335,1.667 1.165,2.667 4.499,-6.167 5.332,-9.167 0.833,-3 4.833,-1.5 5.833,-4.833 1,-3.333 1.833,-8.167 5.5,-7.667 3.667,0.5 7.834,-0.666 7.167,-2.833 -0.667,-2.167 -6.166,-2.666 -6.833,-4.333 -0.667,-1.667 0.499,-8.166 4.166,-11 3.667,-2.834 4.834,-17.334 4.667,-17.834 -0.167,-0.5 6.333,6.5 5.833,11.667 -0.5,5.167 12,-14.5 -4.333,-18.333 0.333,-6 0.834,-15.001 2.667,-19.334 C 447.5,464.5 445,448.666 442.5,444.833 440,441 439.667,434 442,433.5 c 2.333,-0.5 7.167,4.167 7.833,13.833 0.161,2.328 18,-12.333 -1.166,-20.5 z m -139.62,-285.565 0.558,-0.029 c -0.056,0.047 -5.14,4.421 -3.946,7.924 2.882,-1.385 5.931,-2.337 5.931,-2.337 -0.043,0.111 -0.937,2.333 -3.658,4.329 0.115,0.019 0.223,0.048 0.346,0.058 3.172,0.23 7.94,-2.967 9.287,-4.385 l -1.124,2.009 c -1.094,1.152 -3.556,4.389 -7.815,4.389 -0.167,0 -0.332,-0.006 -0.496,-0.018 -1.56,-0.116 -3.158,-0.514 -4.01,-1.73 -3.565,-5.092 4.621,-9.953 4.927,-10.21 z m -23.28,89.982 c -0.86,0.5 -4.742,2.237 -6.076,4.275 0,0 -3.425,2.959 -2.917,-0.195 0.078,-0.482 0.408,-1.447 0.408,-1.447 2.802,-5.883 8.585,-2.633 8.585,-2.633 z m -20.829,7.312 c 0,0 2.375,5.375 4.781,6.092 0.142,0.042 0.534,0.276 1.484,-0.269 0.264,-0.151 0.611,-0.767 0.889,-1.262 0.468,-0.831 0.963,-1.835 1.927,-2.345 2.418,-1.279 5.231,2.221 5.231,2.221 -0.144,0 -0.324,-0.005 -0.532,-0.011 -0.794,-0.023 -2.448,-0.073 -3.125,0.345 -0.269,0.166 -0.611,0.774 -0.886,1.263 -0.483,0.857 -1.03,1.829 -2.009,2.391 -1.962,1.126 -3.455,0.801 -4.361,0.33 -0.345,-0.179 -0.655,-0.403 -0.933,-0.66 -1.171,4.238 -3.951,7.798 -8.396,8.571 -10e-4,0 6.862,-9.726 5.93,-16.666 z m -23.235,19.279 c 2.12,-0.832 3.893,-0.076 5.317,0.531 0.935,0.399 1.736,0.738 2.573,0.687 1.137,-0.077 2.375,-0.432 2.663,-3.691 l 0.011,-0.128 c 0.416,-4.676 1.507,-9.276 1.507,-9.276 1.315,1.702 1.775,6.238 1.481,9.542 l -0.011,0.127 c -0.357,4.039 -2.19,6.199 -5.448,6.42 -1.547,0.104 -2.825,-0.44 -3.952,-0.92 -1.32,-0.562 -2.112,-0.863 -3.045,-0.498 -1.104,0.433 -2.599,1.925 -3.289,3.142 l -1.479,2.991 c -0.943,-2.519 1.576,-8.104 3.672,-8.927 z m -41.194,-7.715 0.866,2.335 c 0.527,1.167 1.53,2.249 2.189,2.852 1.054,0.963 2.977,1.34 4.897,0.965 1.744,-0.342 3.143,-1.986 4.623,-3.727 0.85,-1 4.472,-3.782 5.467,-4.61 l -0.904,3.691 c -0.641,2.825 -0.149,4.057 0.147,6.441 0.051,0.41 0.102,0.822 0.148,1.234 0.734,-0.655 1.59,-1.21 2.572,-1.542 2.249,-0.756 3.892,0.052 5.212,0.702 0.813,0.4 1.516,0.746 2.342,0.783 1.857,0.083 3.542,-0.873 5.045,-2.843 0.737,-0.967 0.948,-2.046 1.192,-3.295 0.216,-1.105 2.071,-4.288 2.739,-5.511 0,0 0.396,5.107 0.205,6.085 -0.276,1.414 -0.589,3.017 -1.751,4.54 -2.105,2.76 -4.736,4.147 -7.566,4.021 -1.452,-0.066 -2.556,-0.609 -3.53,-1.089 -1.22,-0.6 -1.905,-0.897 -2.929,-0.551 -1.647,0.556 -4.466,4.546 -4.466,4.546 l -2.788,3.39 c 0.062,-0.151 0.529,-4.675 0.635,-4.902 0.447,-1.308 0.211,-3.204 -0.037,-5.199 -0.119,-0.957 -0.243,-1.958 -0.295,-2.964 -1.469,1.665 -3.168,3.289 -5.483,3.743 -2.867,0.561 -5.74,-0.087 -7.499,-1.695 -1.372,-1.253 -1.822,-4.65 -1.031,-7.4 z"
   id="path1202"
   style="fill:#cccccc;fill-opacity:1" />
		</g>
		<g
   id="g1208"
   style="fill:#cccccc;fill-opacity:1">
			<path
   fill="#231f20"
   d="m 371.5,364 12.167,-8.667 c 0,0 0.067,-0.047 0.164,-0.113 -34.935,-1.205 -55.671,-13.514 -62.083,-17.968 0.231,4.987 1.35,10.522 2.546,15.369 2.597,1.406 18.86,9.799 39.381,11.306 -0.016,-0.017 -0.028,-0.032 -0.044,-0.049 L 364,363.833 Z"
   id="path1206"
   style="fill:#cccccc;fill-opacity:1" />
		</g>
	</g><g
     id="g1216"
     style="fill:#cccccc;fill-opacity:1">
		<g
   id="g1214"
   style="fill:#cccccc;fill-opacity:1">
			<path
   fill="#231f20"
   d="m 148.528,389.706 c -1.199,-3.596 -0.399,-7.99 0.999,-9.788 1.199,0.999 4.395,0.6 6.592,-2.597 2.197,-3.197 3.196,-4.994 4.395,-4.195 1.199,0.799 2.796,6.792 5.993,9.189 3.197,2.397 7.191,-1.199 9.588,-4.994 2.397,-3.795 4.994,-4.994 6.392,-6.991 -2.197,-6.992 -11.586,-7.392 -15.182,-6.792 -3.596,0.6 -4.594,-0.8 -4.594,-0.8 8.877,-16.849 35.335,-36.654 40.182,-40.194 -3.021,-5.966 -3.877,-12.216 -4.026,-16.668 -0.041,-1.24 -0.119,-2.098 -0.205,-2.713 -0.873,0.497 -1.732,1.032 -2.438,1.567 -16.099,12.191 -25.259,27.04 -27.105,29.941 -1.846,2.901 -6.332,8.441 -10.42,10.552 -4.088,2.111 -8.969,1.715 -15.234,6.464 -1.75,1.326 -7.65,8.507 -9.431,9.167 -1.781,0.66 -5.078,-1.649 -7.716,-4.749 -2.638,-3.1 -7.716,-6.858 -7.716,-6.858 -0.857,11.277 -11.343,20.444 -10.882,20.709 0.461,0.265 4.353,0.856 8.64,0.065 4.287,-0.791 5.656,-1.795 7.716,-1.319 4.287,0.989 1.253,6.529 -0.33,7.453 -1.583,0.924 -5.21,1.648 -6.661,1.912 -1.451,0.264 -4.353,4.023 -6.332,4.748 -1.979,0.725 -5.181,1.173 -7.386,2.375 -5.078,2.77 -2.374,7.649 -0.989,8.111 1.385,0.462 6.148,6.373 9.035,8.112 5.144,3.1 8.441,-2.572 9.365,-4.353 0.924,-1.781 2.506,-2.836 5.276,-3.892 2.77,-1.056 3.697,-2.464 4.696,-4.262 0.999,-1.798 1.398,-4.195 3.196,-3.596 1.798,0.599 2.197,5.194 0.2,6.393 -5.394,4.194 -5.593,9.988 -5.593,9.988 0,0 9.588,1.198 12.186,1.397 2.598,0.199 6.792,1.798 10.188,-0.799 3.396,-2.597 -1.2,-8.987 -2.399,-12.583 z"
   id="path1212"
   style="fill:#cccccc;fill-opacity:1" />
		</g>
	</g><g
     id="g1220"
     style="fill:#cccccc;fill-opacity:1">
		<path
   fill="#ed1c24"
   d="m 201.992,142.378 c 0,0 -1.507,12.806 3.917,16.874 5.424,4.068 11.451,6.177 24.106,3.767 12.655,-2.41 20.942,-2.712 25.312,1.356 -8.287,-0.15 -25.185,4.252 -35.708,6.479 -7.834,1.658 -30.434,0.302 -19.134,-27.27 1.374,-3.352 1.507,-1.206 1.507,-1.206 z"
   id="path1218"
   style="fill:#cccccc;fill-opacity:1" />
	</g><g
     id="g1226"
     style="fill:#cccccc;fill-opacity:1">
		<g
   id="g1224"
   style="fill:#cccccc;fill-opacity:1">
			<path
   fill="#231f20"
   d="m 352.167,545.166 c 1.093,-8.935 0,-19.333 -4.5,-21.5 -3.092,-1.489 -13,-6 -8.667,-25.166 0.72,-3.18 8.642,-18.948 29.778,-33.415 -5.146,-1.558 -9.697,-4.09 -14.104,-7.391 -9.135,6.476 -31.651,25.268 -33.508,54.306 -0.447,7.004 -5.167,6.832 -8.167,7.166 -3,0.334 -10.498,2.834 -9.165,14.334 1.333,11.5 -0.443,21.862 -5.667,21.166 -7.5,-1 -6,-18 -6,-18 0,0 -13.778,20.436 4.667,27.5 7.833,3 16.832,-5.167 18.666,-10.5 0.834,8.334 -6.333,29.167 -21,30.167 -3.492,0.238 -9.666,-7 -5.166,-12.833 -6.834,0.333 -17.667,15.833 2.333,24.5 4.829,2.093 28.667,4.166 45.667,-38 3.833,10.333 20.333,26.166 33.166,8.333 -7,0.333 -21.166,2.5 -18.333,-20.667 z"
   id="path1222"
   style="fill:#cccccc;fill-opacity:1" />
		</g>
	</g><g
     id="g1232"
     style="fill:#cccccc;fill-opacity:1">
		<g
   id="g1230"
   style="fill:#cccccc;fill-opacity:1">
			<path
   fill="#231f20"
   d="m 376.725,378.764 c 0.987,-0.632 1.629,-1.103 1.629,-1.103 26.797,-20.965 47.437,-14.664 52.176,-12.295 18.285,9.142 13.083,37.2 13.083,37.2 l -0.241,0.655 c 5.378,1.021 9.629,2.959 12.971,5.222 9.053,-31.219 -3.896,-44.919 -9.262,-49.697 -31.684,-28.216 -74.559,9.615 -74.559,9.615 0,0 -0.45,0.503 -1.1,1.234 1.318,2.353 3.197,5.592 5.303,9.169 z"
   id="path1228"
   style="fill:#cccccc;fill-opacity:1" />
		</g>
	</g><g
     id="g1236"
     style="fill:#cccccc;fill-opacity:1">
		<path
   fill="#231f20"
   d="m 294.499,468.368 c -0.362,-2.71 1.896,-6.323 3.521,-9.484 1.625,-3.161 2.258,-9.935 -1.354,-13.096 -1.536,6.321 -16.98,18.424 -27.366,12.282 -6.587,-3.895 -11.832,-21.405 6.955,-35.585 5.365,-4.05 22.128,-10.567 29.442,-19.779 3.688,-4.646 6.043,-9.287 7.474,-12.751 l 0.054,-0.687 c 0.253,-4.685 -3.288,-7.771 -9.593,-11.109 -5.038,-2.667 -10.933,-0.757 -10.99,-0.736 l -2.353,0.784 0.397,-2.447 c 0.039,-0.243 0.921,-5.531 3.5,-9.681 -4.771,-3.936 -11.879,-5.574 -16.934,-6.258 0.603,5.718 -1.901,21.863 -10.064,25.003 -9.061,3.485 -25.788,1.395 -34.151,4.879 -5.912,2.463 -21.399,12.068 -25.293,31.396 -0.784,0.193 -1.649,0.301 -2.605,0.268 -5.387,-0.189 -10.395,-4.253 -17.577,0.944 -7.182,5.197 -8.789,12.38 -14.742,13.986 -5.953,1.606 -10.772,0.188 -11.245,-6.237 -0.146,-1.988 -8.032,15.025 7.371,16.348 6.217,0.533 13.986,-6.331 13.986,-6.331 l -1.606,8.788 c 0,0 11.15,1.323 15.025,-1.039 3.875,-2.362 8.789,-7.276 8.789,-7.276 0,0 -2.835,11.529 -6.898,12.663 4.825,-0.081 8.487,0.51 12.266,-2.511 1.685,5.083 4.917,16.07 11.728,18.454 6.97,2.439 10.105,3.485 6.272,5.925 -3.833,2.44 -16.378,7.666 -24.394,33.105 -5.576,-1.046 -13.591,-2.091 -17.772,0 -1.485,-3.782 0.05,-8.659 -7.627,-13.717 -0.883,-0.582 -5.419,10.656 -8.038,12.554 -2.619,1.898 -7.948,1.626 -10.748,-0.09 -2.8,-1.716 -5.419,-2.71 -5.419,-2.71 0,0 1.355,14.812 0,16.348 -1.355,1.536 8.038,1.625 9.754,4.154 1.716,2.529 2.98,9.213 -0.361,13.096 5.69,0.994 9.574,3.522 16.979,-4.605 1.721,-1.889 1.264,0.722 2.348,2.167 1.084,1.445 2.167,3.342 5.69,2.71 3.523,-0.632 8.219,-0.903 9.754,1.174 1.535,2.077 3.161,5.961 3.161,5.961 0,0 6.864,-2.348 7.135,-14.36 2.167,0.361 4.064,1.626 5.509,1.987 1.445,0.361 5.69,-3.884 8.399,-5.419 2.709,-1.535 11.109,-7.497 14.541,-5.51 3.432,1.987 6.593,4.336 6.593,4.336 0,0 0.722,-5.51 -8.491,-14.902 -1,-1.02 -1.536,-4.336 0.181,-3.613 1.717,0.723 12.771,5.109 14.54,6.142 2.167,1.265 6.232,4.517 13.909,-1.896 3.301,-2.758 12.012,-13.818 13.367,-14.812 1.355,-0.994 7.406,-7.406 12.464,2.528 1.658,3.26 2.258,8.038 2.167,9.303 -0.089,1.265 15.806,-13.005 -1.083,-21.134 -1.421,-0.684 0.451,-6.954 3.612,-7.135 3.162,-0.181 9.754,-0.542 9.754,13.457 3.794,-2.981 17.974,-23.483 -9.933,-25.832 z"
   id="path1234"
   style="fill:#cccccc;fill-opacity:1" />
	</g><g
     id="g1262"
     style="fill:#cccccc;fill-opacity:1">
		<g
   id="g1240"
   style="fill:#cccccc;fill-opacity:1">
			<path
   fill="#231f20"
   d="m 392.949,268.771 c -0.843,4.249 -5.841,8.135 -9.148,10.288 1.599,1.438 2.841,3.525 2.129,6.135 -0.029,0.105 -0.074,0.205 -0.112,0.306 12.526,-0.832 45.387,-4.691 68.949,-22.549 2.007,-5.366 6.6,-19.02 7.191,-32.883 -20.028,19.41 -61.465,35.816 -69.009,38.703 z"
   id="path1238"
   style="fill:#cccccc;fill-opacity:1" />
		</g>
		<g
   id="g1244"
   style="fill:#cccccc;fill-opacity:1">
			<path
   fill="#231f20"
   d="m 387.183,262.504 c 1.839,0.337 3.584,0.981 4.675,2.157 0.296,0.319 0.531,0.666 0.719,1.032 7.859,-3.069 39.839,-16.054 60.143,-31.669 2.739,-6.433 10.626,-27.646 5.615,-48.524 0,0 -0.385,0.51 -1.047,1.229 -21.719,35.531 -57.585,54.24 -64.139,57.441 -0.816,2.961 -2.384,5.66 -3.764,7.629 0.16,0.081 0.318,0.173 0.473,0.279 0.825,0.567 1.81,1.708 1.81,3.921 -0.001,2.462 -2.085,4.721 -4.485,6.505 z"
   id="path1242"
   style="fill:#cccccc;fill-opacity:1" />
		</g>
		<g
   id="g1248"
   style="fill:#cccccc;fill-opacity:1">
			<path
   fill="#231f20"
   d="m 375.575,290.485 c 1.423,1.388 2.771,3.146 3.271,5.135 0.446,1.773 0.164,3.54 -0.815,5.107 -1.799,2.876 -4.808,4.167 -7.606,4.716 12.046,2.684 44.53,7.809 72.656,-6.636 1.761,-0.896 9.754,-11.641 13.754,-33.307 -0.02,-0.113 -0.048,-0.204 -0.074,-0.3 -27.146,20.686 -66.222,23.188 -74.486,23.487 -1.959,0.892 -4.41,1.451 -6.7,1.798 z"
   id="path1246"
   style="fill:#cccccc;fill-opacity:1" />
		</g>
		<g
   id="g1252"
   style="fill:#cccccc;fill-opacity:1">
			<path
   fill="#231f20"
   d="m 421.921,141.319 c -0.949,-6.17 -3.703,-20.458 -9.904,-29.759 -2.45,7.349 -15.899,45.091 -45.35,83.367 v 16.933 c 8.573,-8.128 36.263,-35.757 55.254,-70.541 z"
   id="path1250"
   style="fill:#cccccc;fill-opacity:1" />
		</g>
		<g
   id="g1256"
   style="fill:#cccccc;fill-opacity:1">
			<path
   fill="#231f20"
   d="m 443.991,156.595 c -4.308,9.699 -12.207,25.27 -25.24,41.532 -16.354,20.405 -33.864,29.058 -39.649,31.517 0.213,0.367 0.395,0.76 0.506,1.205 0.508,2.03 0,4.444 -0.78,6.595 4.187,-1.882 9.43,-3.576 12.423,-2.036 1.392,0.716 2.247,2.042 2.408,3.735 0.044,0.465 0.052,0.929 0.043,1.392 9.09,-4.691 38.107,-21.254 57.915,-50.532 0.752,-6.632 2.314,-25.556 -4.949,-38.503 -0.858,2.119 -1.792,3.788 -2.677,5.095 z"
   id="path1254"
   style="fill:#cccccc;fill-opacity:1" />
		</g>
		<g
   id="g1260"
   style="fill:#cccccc;fill-opacity:1">
			<path
   fill="#231f20"
   d="m 376.174,227.643 -0.02,-0.055 c 0.21,-0.074 21.301,-7.686 40.255,-31.336 11.587,-14.457 19.051,-28.363 23.514,-37.958 -0.733,-6.69 -3.142,-25.657 -7.397,-31.842 -19.187,44.595 -57.101,81.358 -65.022,88.738 2.34,-0.224 5.397,-0.179 7.475,1.127 1.219,0.767 2.019,1.896 2.312,3.265 0.563,2.632 -0.564,5.557 -1.981,7.982 0.292,0.002 0.58,0.032 0.864,0.079 z"
   id="path1258"
   style="fill:#cccccc;fill-opacity:1" />
		</g>
	</g><g
     id="g1266"
     style="fill:#cccccc;fill-opacity:1">
		<path
   fill="#231f20"
   d="m 363.139,311.645 c -1.116,0.773 -2.652,1.084 -4.401,1.084 -1.053,0 -2.17,-0.178 -3.306,-0.475 0.239,5.425 -2.512,10.602 -7.14,13.298 9.599,4.438 71.22,26.486 95.375,-21.386 0.408,-0.899 0.75,-1.787 0.518,-2.065 -0.233,-0.278 -0.947,0.073 -1.988,0.49 -14.538,6.899 -29.998,8.956 -43.25,8.956 -15.646,0 -28.214,-2.861 -32.571,-3.994 -0.465,1.55 -1.55,2.924 -3.237,4.092 z"
   id="path1264"
   style="fill:#cccccc;fill-opacity:1" />
	</g><g
     id="g1270"
     style="fill:#ffffff;fill-opacity:1">
		<path
   fill="#ffcb05"
   d="m 254.671,137.378 c 0,0 4.115,5.014 6.172,5.593 2.057,0.579 8.165,0.065 10.093,-2.893 1.929,-2.958 -5.786,-4.436 -6.815,-4.5 -1.028,-0.064 -3.702,5.026 -3.702,5.026 l 0.488,-4.962 c 0.001,0 -4.694,0.579 -6.236,1.736 z"
   id="path1268"
   style="fill:#ffffff;fill-opacity:1" />
	</g><g
     id="g1274"
     style="fill:#cccccc;fill-opacity:1">
		<path
   fill="#231f20"
   d="m 372.578,118.499 c 0,0 -4.337,50.7 -16.003,72.535 -0.265,0.496 -0.559,0.998 -0.859,1.487 0.006,2.753 -0.015,6.382 -0.055,11.215 5.727,-6.575 19.929,-23.493 29.181,-39.772 1.126,-1.981 9.123,-30.959 -12.264,-45.465 z"
   id="path1272"
   style="fill:#cccccc;fill-opacity:1" />
	</g><g
     id="g1284"
     style="fill:#cccccc;fill-opacity:1">
		<g
   id="g1278"
   style="fill:#cccccc;fill-opacity:1">
			<path
   fill="#231f20"
   d="m 325.375,246 c 2.446,1.254 5.711,0.809 8.356,0.054 -2.054,-1.467 -3.784,-3.56 -4.972,-6.135 -3.43,-7.428 3.422,-14.395 4.451,-15.382 l -4.657,-1.871 c -0.452,-0.181 -0.898,-0.385 -1.341,-0.603 -0.552,0.6 -1.049,1.131 -1.463,1.562 C 316.5,233.25 320.5,243.5 325.375,246 Z"
   id="path1276"
   style="fill:#cccccc;fill-opacity:1" />
		</g>
		<g
   id="g1282"
   style="fill:#cccccc;fill-opacity:1">
			<path
   fill="#231f20"
   d="m 331.082,217.675 c 0.162,0.576 0.321,1.018 0.476,1.277 l 3.014,4.404 c 3.662,-3.107 13.621,-11.383 16.976,-14.168 l 0.092,-0.077 c 0.496,-0.553 0.993,-1.119 1.489,-1.682 0.026,-3.017 0.215,-26.365 -0.253,-21.803 -0.5,4.875 -10.75,17.375 -15,23.375 -2.151,3.036 -4.587,6.073 -6.794,8.674 z"
   id="path1280"
   style="fill:#cccccc;fill-opacity:1" />
		</g>
	</g><g
     id="g1288"
     style="fill:#cccccc;fill-opacity:1">
		<path
   fill="#231f20"
   d="m 342.81,327.244 c -1.499,0.091 -2.97,-0.104 -4.297,-0.623 -1.542,-0.603 -2.81,-1.574 -3.755,-2.861 -2.765,1.927 -6.46,2.777 -9.518,2.021 -0.385,-0.096 -1.26,-0.889 -1.611,-1.03 0.225,2.917 -0.529,5.342 -1.735,7.211 -0.033,0.271 -0.053,0.554 -0.077,0.833 4.017,2.835 28.045,18.492 67.847,18.65 1.695,-1.02 3.418,-1.968 4.671,-2.445 3.5,-1.333 23,-10.833 26,-12.667 3,-1.834 9.666,-6.667 9.666,-6.667 l -0.214,-0.083 c -15.447,6.071 -29.649,8.171 -41.901,8.171 -27.208,10e-4 -44.801,-10.343 -45.076,-10.51 z"
   id="path1286"
   style="fill:#cccccc;fill-opacity:1" />
	</g></g>
</svg>
