<?xml version="1.0" encoding="UTF-8" standalone="no"?>
<svg
   xmlns:dc="http://purl.org/dc/elements/1.1/"
   xmlns:cc="http://creativecommons.org/ns#"
   xmlns:rdf="http://www.w3.org/1999/02/22-rdf-syntax-ns#"
   xmlns:svg="http://www.w3.org/2000/svg"
   xmlns="http://www.w3.org/2000/svg"
   xmlns:sodipodi="http://sodipodi.sourceforge.net/DTD/sodipodi-0.dtd"
   xmlns:inkscape="http://www.inkscape.org/namespaces/inkscape"
   id="svg2"
   width="150pt"
   height="193.08807pt"
   version="1.0"
   sodipodi:docname="powiat_chojnicki_kopia.svg"
   inkscape:version="1.0.1 (c497b03c, 2020-09-10)">
  <sodipodi:namedview
     pagecolor="#ffffff"
     bordercolor="#666666"
     borderopacity="1"
     objecttolerance="10"
     gridtolerance="10"
     guidetolerance="10"
     inkscape:pageopacity="0"
     inkscape:pageshadow="2"
     inkscape:window-width="1680"
     inkscape:window-height="922"
     id="namedview1111"
     showgrid="false"
     fit-margin-top="0"
     fit-margin-left="0"
     fit-margin-right="0"
     fit-margin-bottom="0"
     showborder="false"
     inkscape:zoom="2.1411842"
     inkscape:cx="99.999999"
     inkscape:cy="128.72538"
     inkscape:window-x="0"
     inkscape:window-y="25"
     inkscape:window-maximized="0"
     inkscape:current-layer="svg2" />
  <metadata
     id="metadata7">
    <rdf:RDF>
      <cc:Work
         rdf:about="">
        <dc:format>image/svg+xml</dc:format>
        <dc:type
           rdf:resource="http://purl.org/dc/dcmitype/StillImage" />
        <dc:title></dc:title>
      </cc:Work>
    </rdf:RDF>
  </metadata>
  <defs
     id="defs5" />
  <g
     id="g2425"
     transform="matrix(0.26924752,0,0,0.26924752,-1.1779704,-1.1623572)">
    <g
       id="g2368">
      <g
         id="g4424"
         transform="matrix(1.012656,0,0,1.003247,-6.131306,-7.538367)">
        <path
           style="fill:#015198;fill-opacity:1;fill-rule:evenodd;stroke:none;stroke-width:11.7702;stroke-linecap:round;stroke-linejoin:miter;stroke-miterlimit:4;stroke-dasharray:none;stroke-dashoffset:0;stroke-opacity:1"
           d="M 743.90244,490.74971 V 652.74236 C 736.61365,852.19293 546.43986,968.15256 376.1449,964.83942 222.41552,962.18892 17.001246,830.32626 10.375046,652.74236 V 490.74971 Z"
           id="path2060" />
        <path
           style="fill:#b9974f;fill-opacity:1;fill-rule:evenodd;stroke:none;stroke-width:11.7702;stroke-linecap:round;stroke-linejoin:miter;stroke-miterlimit:4;stroke-dasharray:none;stroke-dashoffset:0;stroke-opacity:1"
           d="M 10.375046,490.74971 V 11.817055 H 743.90244 V 490.74971 Z"
           id="path2062" />
        <g
           transform="matrix(0.961972,0,0,0.951379,34.4576,45.74161)"
           id="g2998">
          <path
             style="fill:#ffffff;fill-opacity:1;fill-rule:evenodd;stroke:none;stroke-width:1px;stroke-linecap:butt;stroke-linejoin:miter;stroke-opacity:1"
             d="m 281.38933,720.46708 c -6.7689,27.71769 13.98984,46.14656 43.97782,30.9219 -4.4301,-18.17589 -28.92521,-20.91716 -43.97782,-30.9219 z"
             id="path2121" />
          <path
             id="path2996"
             d="m 450.86235,726.30788 c 6.91759,28.60982 -13.29728,50.30189 -43.97782,30.9219 4.4301,-18.17589 28.92521,-20.91716 43.97782,-30.9219 z"
             style="fill:#ffffff;fill-opacity:1;fill-rule:evenodd;stroke:none;stroke-width:1px;stroke-linecap:butt;stroke-linejoin:miter;stroke-opacity:1" />
          <g
             id="g2106"
             transform="translate(463.0691,-496.4864)">
            <g
               id="g2091">
              <g
                 transform="matrix(0.668735,0,0,0.668735,-339.2192,945.1622)"
                 id="g2217">
                <g
                   id="g2208">
                  <path
                     id="path2194"
                     d="m 358.3491,180.21112 c -1.23567,9.51402 -3.14506,18.73931 1.06703,30.58808 6.72405,19.18392 4.75215,37.84582 1.96128,56.22326 l 15.14151,5.04717 c -5.61973,-16.31453 1.10879,-32.34789 -2.8277,-45.93032 -4.41987,-14.70183 -9.3722,-28.05585 -8.77973,-45.92819 z"
                     style="fill:#009240;fill-opacity:1;fill-rule:evenodd;stroke:none;stroke-width:1px;stroke-linecap:butt;stroke-linejoin:miter;stroke-opacity:1" />
                  <path
                     id="path2196"
                     d="m 376.3802,239.59914 c 56.14069,23.23565 53.55453,-16.2491 57.57829,-44.54741 -17.87934,18.46105 -36.48924,34.91306 -57.57829,44.54741 z"
                     style="fill:#009240;fill-opacity:1;fill-rule:evenodd;stroke:none;stroke-width:1px;stroke-linecap:butt;stroke-linejoin:miter;stroke-opacity:1" />
                  <path
                     id="path2198"
                     d="m 376.98629,238.99305 c 20.06976,-8.37196 39.46177,-25.68097 52.42655,-40.00176 -15.45502,6.66675 -31.38881,-0.73382 -43.63829,7.27305 -12.67358,11.71123 -8.45567,29.23307 -10.00044,33.03176"
                     style="fill:#84c326;fill-opacity:1;fill-rule:evenodd;stroke:none;stroke-width:1px;stroke-linecap:butt;stroke-linejoin:miter;stroke-opacity:1" />
                </g>
                <path
                   style="fill:#009240;fill-opacity:1;fill-rule:evenodd;stroke:none;stroke-width:1px;stroke-linecap:butt;stroke-linejoin:miter;stroke-opacity:1"
                   d="m 363.95541,253.53915 c -24.44223,-14.17937 -43.39299,-34.46036 -60.60873,-56.66916 43.75467,-3.24894 57.00122,22.17976 60.60873,56.66916 z"
                   id="path2213" />
                <path
                   style="fill:#84c326;fill-opacity:1;fill-rule:evenodd;stroke:none;stroke-width:1px;stroke-linecap:butt;stroke-linejoin:miter;stroke-opacity:1"
                   d="m 302.7406,196.86999 c 17.36378,19.441 31.34163,39.51686 60.91177,56.66916 -52.14928,4.28143 -56.29865,-33.57719 -60.91177,-56.66916 z"
                   id="path2215" />
              </g>
              <path
                 d="m -154.67242,1127.7956 c -17.47405,24.6676 -24.05253,30.0486 -31.60602,42.7557 -19.99688,0.3125 -64.66733,-40.9956 -59.5001,-78.1446 5.81806,-41.828 45.59983,-54.3406 69.45723,-65.9078 34.31506,-24.9695 27.27408,-31.87785 30.92651,-41.48422 13.36708,5.34658 8.16773,42.05102 -12.41305,62.85122 -7.93855,8.0231 -38.29482,27.8619 -25.71975,54.6876 6.38929,13.6299 19.47858,18.7574 29.2179,25.1094 m 118.679929,7.1724 c 7.458268,-3.513 41.2930488,-10.7095 36.9635918,-41.4397 -4.686294,-33.2629 -42.8207738,-52.5651 -48.4398198,-61.9038 -2.693999,-4.4774 -10.307213,-36.80315 4.37901,-42.44802 2.259389,21.92162 16.424534,34.91962 32.375201,41.00122 25.935549,9.8885 53.650803,23.5683 66.514654,55.6143 14.96683,37.2848 -14.584439,71.9603 -46.5168702,84.3027 z"
                 style="fill:#b9974f;stroke:none;stroke-opacity:1"
                 id="path2513" />
              <path
                 id="path2500"
                 style="fill:#ff0000;fill-opacity:1;stroke:none;stroke-opacity:1"
                 d="m -98.989469,1070.7245 c -10.539801,16.3667 -32.215241,-0.1081 -24.961401,-16.7658 2.84854,-6.5414 15.46737,-1.0083 18.15207,-5.3544 2.2725,-3.6789 -1.24184,-4.6915 -6.38401,-2.231 -6.00216,2.8719 -12.68209,3.8828 -16.26009,-0.133 -6.99229,-7.8479 -1.73062,-26.672 11.92535,-26.9672 8.69229,-0.1879 9.68308,21.8798 13.53246,17.5671 3.486312,-3.906 -11.90683,-13.0742 -7.00193,-22.1447 3.22939,-5.9721 24.398599,-9.3238 27.006665,6.7503 1.242242,7.6561 -13.749726,11.3989 -8.212734,15.3087 6.698116,4.7297 2.995464,-14.4995 13.908083,-15.1263 13.393424,-0.7694 23.471796,22.5102 8.562081,30.2221 -8.289505,4.2877 -15.689593,-9.5852 -16.990683,-1.4143 -1.239835,7.7864 12.669518,-3.4222 16.780099,9.3245 2.958283,9.1737 -6.910908,17.8706 -12.307867,18.9558 -7.569479,1.522 -14.112917,-5.3449 -14.432438,-8.2084 -3.40647,-4.9556 7.106847,-15.5232 -0.708726,-15.5064 -5.34854,0.01 0.195271,11.5582 -2.606929,15.723 z m 7.955806,-27.112 c -1.719853,-6.8686 -11.183857,-5.9347 -10.445977,2.2831 0.68552,7.6346 12.011686,3.9699 10.445977,-2.2831 z" />
            </g>
            <g
               id="g2102">
              <path
                 d="m -168.95292,1291.7228 c -13.91792,-6.0943 -8.49588,-27.5339 -17.63434,-38.4177 -12.25535,-9.9423 -9.91488,-24.1775 -7.55757,-38.4176 l -14.48534,3.7788 c -30.4371,2.0807 -38.45487,-28.9572 -62.97973,-25.8217 -9.30619,-0.1262 -10.40172,-12.2885 -4.40858,-19.5237 31.83646,-18.0021 53.1292,-18.4313 69.9075,-11.3364 10.72889,-22.3376 28.49533,-33.6745 43.456,-39.6772 10.06828,0.634 18.24389,2.2144 31.48986,1.2596 17.51631,-9.7404 33.711735,3.257 46.605013,-1.8894 8.397305,-5.4412 16.79461,-3.5523 25.191915,0.6298 48.78228,2.6518 68.5574418,24.3904 73.686305,39.6772 23.371553,-2.3569 51.406733,12.1861 63.609473,22.0429 4.6231,3.1468 5.9504,13.228 -1.88938,16.3747 -18.14385,-1.7604 -39.943941,32.2118 -63.54828,25.4303 -5.6681312,-2.4892 -13.6478122,-5.1774 -18.3253462,-2.7576 4.665363,23.4142 -0.600992,37.1929 -12.5959578,44.954 -1.763989,15.2994 -10.056303,27.0273 -20.153533,35.6601 -2.038839,16.0355 -4.94028,30.9209 -11.966143,40.307 1.941003,8.6118 6.761847,18.7486 5.993938,27.0097 -0.670273,7.2111 -7.328466,8.8193 -9.142945,13.9272 -34.739913,31.7808 -76.525889,18.0323 -95.068769,-4.8001 -28.2681,-26.4021 10.56962,-26.1069 -6.32857,-53.1413 -7.88907,-9.0226 -0.50302,-27.897 -13.85552,-35.2686 z m -83.00306,-117.6734 c 1.66598,-8.7937 43.48636,-7.6984 47.33422,-3.5062 11.71981,3.55 2.85447,8.9436 -3.94452,7.0125 -11.98296,-3.4466 -24.03619,-5.6284 -36.37723,-2.6297 -3.63618,2.0455 -8.87198,0.2781 -7.01247,-0.8766 z m 71.68666,-6.112 c 2.44697,-0.033 3.34133,10.2294 5.55418,11.5148 2.15747,-0.2634 4.87628,-8.3945 6.50251,-6.5024 1.49455,0.9196 0.29972,4.2841 -2.16751,8.8054 -1.88289,3.5408 -3.22885,9.5874 -6.09605,8.5345 -3.71971,-7.6643 -8.11222,-15.387 -3.79313,-22.3523 z m 59.60601,-31.9705 c -2.33228,0.3533 -1.77167,4.254 -5.56895,9.8797 -3.27279,4.8488 -5.56769,9.7157 -0.39161,13.8273 2.20254,0.8475 2.67005,-8.6116 5.0123,-13.4114 3.39222,-5.0395 4.85154,-9.1571 0.94826,-10.2956 z m -41.72424,33.5961 c -2.68611,1.8209 -3.5996,-1.1976 -3.1157,-3.1157 1.22639,-3.3225 5.12619,-8.0111 9.7537,-10.973 2.26621,-1.2416 2.7263,0.081 3.11577,2.1675 l 0.2709,19.6429 h 2.70938 l 9.48279,-19.7783 c 1.39585,-2.9257 4.31689,-5.4011 7.3153,-0.5419 l 9.34731,21.6749 c 2.9231,5.3706 -0.31371,6.828 -2.16751,3.7931 -4.04698,-3.7961 -7.00727,-9.2223 -9.61821,-15.1724 -1.08375,-3.0576 -2.16751,-2.1787 -3.25126,-1.7611 -4.58224,5.8182 -8.12312,21.3954 -12.59856,21.404 -9.34731,-2.2578 -2.98028,-24.1407 -8.53453,-20.5912 z m 45.11099,2.4385 c -1.77128,3.962 0.93228,5.3649 3.25125,2.7094 5.79506,-2.664 9.03475,-16.4291 16.391634,-22.8942 1.271733,2.4049 2.649996,4.6498 0.406457,12.3276 -5.437751,8.8459 -6.753891,14.5443 -4.335011,14.0887 8.312647,-3.6332 5.624934,-16.5523 17.339967,-24.5197 3.52517,-4.106 0.465173,-7.7161 -2.438475,-5.1478 l -2.844799,2.7093 c -2.440682,1.5631 -4.872737,0.9181 -4.741398,-1.7611 l 0.677295,-7.1798 c -0.182832,-1.8876 -2.078829,-4.7799 -5.147788,0.9483 -12.930122,12.102 -14.684422,19.8268 -18.559132,28.7193 z m 34.137983,-17.8818 c 2.959286,1.3012 0.03558,9.0959 -1.896533,9.6182 -2.74616,-2.1825 -1.60463,-6.9098 1.896533,-9.6182 z m 28.448387,-9.8892 c -3.433954,1.0766 -3.330099,9.1563 -0.270971,9.4828 3.89926,-0.061 3.620732,-9.7357 0.270971,-9.4828 z m 6.908902,-0.5419 c -1.538759,1.0369 0.120038,3.6725 1.354657,6.0961 1.064893,3.5902 2.548014,4.6708 4.335008,3.9286 2.061175,-1.2589 1.275344,-3.3938 -1.354724,-6.0961 -2.720146,-4.3699 -3.466856,-4.6267 -4.334941,-3.9286 z m -19.913858,-6.0961 c -4.545793,4.9295 -1.580488,9.3473 -8.263558,17.4754 -3.004092,4.6563 -5.449388,8.9774 -3.11577,10.4311 4.248273,3.0909 8.226978,-7.9131 13.004956,-11.3793 1.088901,-5.1637 -3.042811,-8.1252 0.541876,-14.6306 -0.180625,-2.0772 -0.903126,-2.7094 -2.167504,-1.8966 z m 7.450711,22.8942 c 0.600792,4.6658 -4.212094,10.4108 -1.761046,11.5148 2.855832,0.8317 6.418518,0.6947 6.63793,-7.1798 l -1.219171,-6.2316 c -2.161418,-0.5455 -2.905988,0.68 -3.657713,1.8966 z m 65.9854198,20.5251 c 1.235488,-9.4197 14.2024602,-7.4266 21.0019572,-6.9491 13.378579,2.365 32.551274,7.8876 29.495364,10.9642 -0.2574,1.5443 -2.47085,1.8531 -4.32398,0 -11.568511,-4.3727 -23.751325,-5.4248 -37.37105,-1.3898 -5.0128372,2.5029 -7.0264652,0.132 -8.8022912,-2.6253 z m -14.052797,7.2581 c -5.5065648,0.029 -4.8898568,16.6212 -14.0527308,21.0019 l -6.949159,5.8682 c -3.637852,2.6122 -0.607145,5.6487 2.161953,3.8606 18.4005778,-7.9994 18.6896718,-16.2587 18.8399368,-30.7307 z m -8.8022908,37.8343 -8.647814,4.0151 c 0.911085,20.4939 -14.286854,20.5304 -24.399332,12.9718 l -4.478317,8.1846 c 19.63085,12.1467 38.862799,8.2237 37.525463,-25.1715 z m -26.406808,13.4351 c 1.663746,4.251 4.668105,5.3739 8.802292,3.8606 3.087884,-1.1842 3.901199,-3.5057 3.706196,-6.3314 0.02414,-2.4344 -1.105352,-3.3305 -3.551785,-2.4708 z m 13.589498,-27.4878 c -0.52937,-3.1843 -4.406228,-2.0763 -6.94916,-0.6177 -10.026143,10.329 -7.929124,12.7315 -7.721348,16.3691 2.5325,0.9778 5.710061,0.017 6.022628,-6.3314 3.812124,-4.6848 11.167807,-7.1112 8.64788,-9.42 z m -18.994415,11.2731 c -3.247444,-0.5753 -4.479722,2.8799 -6.177038,5.4049 -1.625293,3.0665 -3.952424,6.3882 -1.235421,7.8757 1.289388,-0.01 3.30422,-2.9217 5.404917,-6.177 2.004667,-2.9021 4.02117,-5.8089 2.007542,-7.1036 z m -2.007542,-6.7948 c -3.654102,-0.7186 -6.037741,2.374 -8.493403,5.2505 -5.672477,10.8443 -2.663303,12.1041 -0.308888,11.4275 0.661178,-8.2222 13.455416,-12.5638 8.802291,-16.678 z m -15.13374,-0.3088 c -3.294456,1.6743 -4.272481,10.8613 -9.883302,17.9134 -2.081304,3.6678 -3.664066,7.7344 -1.544243,14.2072 1.875468,7.3386 3.137504,16.9893 2.316431,25.3258 -0.324938,2.1505 1.029317,4.2433 3.088486,1.8532 2.244743,-4.6217 3.577131,-11.0681 0.926533,-25.4803 -1.20145,-4.9157 -1.73617,-6.8567 1.08101,-12.663 7.371131,-13.296 6.964942,-17.327 4.015085,-21.1563 z m 1.853131,30.4219 c 0.856449,7.6981 0.69816,22.341 -0.926599,29.9586 -2.092739,2.3033 -0.0066,3.2901 1.853132,2.0076 2.960757,-1.8199 6.673774,-20.7497 2.007542,-33.0472 -0.987187,-2.2199 -2.972995,-1.5989 -2.934075,1.081 z m 14.670441,36.1357 c 1.758171,-0.088 3.120986,1.487 1.698654,3.3973 l -10.037646,6.9492 c -3.468862,1.0692 -5.644992,-1.8741 -3.242963,-4.9416 z m -15.59704,9.42 c -1.806253,12.3057 -2.980886,24.1903 -3.551785,35.6724 -0.787503,4.0368 -3.047025,3.8222 -3.606555,1.4836 -4.40041,-13.6303 -1.896198,-29.9986 4.841976,-37.7737 1.112908,-0.8165 2.390995,-2.1285 2.316364,0.6177 z m 10.655423,7.1036 -5.250506,7.5668 c -2.016236,2.2309 -5.408394,1.3453 -4.169496,-2.6252 3.762905,-6.5385 7.721883,-11.2962 13.435087,-9.42 1.340479,2.05 -0.779478,4.124 -4.015085,4.4784 z m -4.478385,10.8098 c 3.002486,-0.2713 3.322409,1.3614 1.853132,3.0885 -1.750147,1.5047 -3.076114,4.9611 -4.826261,7.346 -3.316992,5.1342 -6.473622,1.8288 -4.43933,-2.2499 2.448172,-2.7905 4.388506,-6.9776 7.412459,-8.1846 z m -121.51456,-89.7225 9.93854,3.3937 c -3.09277,14.8348 10.63583,23.2027 24.16533,14.0972 l 4.19565,8.931 c -18.8596,11.8126 -45.42774,-0.1382 -38.29952,-26.4219 z m 15.99855,8.4841 10.03129,5.8177 c 1.18373,0.9362 1.57714,2.2796 0.18651,3.8594 -9.33688,5.599 -14.75972,-5.1826 -10.2178,-9.6771 z m -9.46321,-22.5965 c -1.31841,-1.7336 -4.29013,-0.3207 -2.8684,2.8023 10.83384,21.6324 34.22077,11.0346 41.10346,32.9048 0.28374,5.455 4.77878,5.3697 5.05583,0.948 1.46774,-26.1387 -31.80643,-19.1985 -43.29089,-36.6551 z m 36.60582,51.3304 c -0.98873,-4.6331 0.38907,-5.8853 3.60709,-4.5088 3.67396,3.9612 6.47436,14.2572 2.4798,16.6825 -4.29522,0.4746 -1.13972,-8.3162 -6.08689,-12.1737 z m 2.25444,15.3299 c 1.78331,3.4048 -2.68718,5.2344 -3.83252,1.3526 -0.006,-5.4984 -3.36682,-7.3348 -2.02894,-10.3702 3.07063,0.3256 5.7572,1.5727 5.86146,9.0176 z m 10.37021,7.665 c -11.27822,13.8193 4.03996,35.4946 -2.25438,49.8222 -4.33895,0.9915 -5.55892,-9.5072 -9.46848,-6.5378 -3.97764,3.0489 -4.28606,10.0292 -1.35265,11.0466 3.27152,1.0212 2.72623,-5.7572 5.41053,-3.1562 0.94265,3.8496 1.66027,7.8118 5.63603,10.1448 6.80679,-0.8107 4.13018,-9.2677 5.92961,-14.3705 4.74019,-17.0647 -5.42719,-30.037 -1.95946,-42.8535 0.5509,-2.0362 -0.90326,-3.8434 -1.9412,-4.0956 z m 21.92915,67.8388 c 8.00095,3.4817 24.64884,-6.5213 33.03665,-0.8471 2.093541,2.7023 0.467111,3.5417 -1.863631,3.5578 -9.500919,-0.2554 -25.348801,7.1005 -32.528409,-0.3388 -1.75436,-2.0513 -0.0798,-3.0629 1.35539,-2.3719 z m -17.95841,33.7144 c -2.94664,-0.2963 -5.56869,3.0678 -2.37187,4.9131 4.34163,2.8168 15.31484,5.658 16.26417,2.033 0.14412,-5.8956 -9.24552,-4.2442 -13.8923,-6.9461 z m 41.84643,-12.7064 c -1.435573,-2.1609 -0.6145,-5.5449 1.524783,-7.4545 3.672425,-3.7179 6.370905,-2.0971 6.099064,1.0165 -2.41206,3.0835 -5.993002,8.5429 -7.623847,6.438 z m 17.280715,-10.3346 c -2.680424,1.9341 0.64018,3.241 3.228585,4.7359 1.262171,2.7847 2.430651,6.0844 4.564652,4.0739 2.018777,-2.8286 -0.610154,-12.5428 -7.793237,-8.8098 z m -61.956095,-1.7172 c -2.68256,-1.0386 -9.79563,1.0981 -5.74416,-4.4677 3.41155,-4.6889 16.1228,1.6455 11.06288,9.3609 -2.9221,3.6458 -3.92975,-2.707 -5.31872,-4.8932 z"
                 style="fill:#1f1a17;fill-opacity:1;fill-rule:evenodd;stroke:none;stroke-width:1px;stroke-linecap:butt;stroke-linejoin:miter;stroke-opacity:1"
                 id="path2238" />
              <path
                 d="m -61.260644,1364.1943 c 5.07436,7.5046 8.043878,16.5843 8.043878,26.3627 0,25.7841 -20.647259,46.7103 -46.087611,46.7103 -25.440353,0 -46.087543,-20.9262 -46.087543,-46.7103 0,-11.8221 4.34056,-22.623 11.49355,-30.8538 m 0,0 c 7.61221,-4.5219 14.08262,1.6967 10.16363,8.6599 -5.21118,5.8878 -8.38226,13.6679 -8.38226,22.1941 0,18.3574 14.7002,33.2562 32.812891,33.2562 18.112687,0 32.812887,-14.8988 32.812887,-33.2562 0,-6.6531 -1.930839,-12.8519 -5.25512,-18.0518 -4.714382,-6.6337 5.198879,-14.5453 10.485698,-8.3111"
                 style="fill:#b9974f;fill-opacity:1;fill-rule:evenodd;stroke:none;stroke-width:4.6063;stroke-linecap:round;stroke-linejoin:round;stroke-miterlimit:4;stroke-dashoffset:0;stroke-opacity:1"
                 id="path1317" />
            </g>
          </g>
        </g>
        <path
           id="path2355"
           d="m 233.5349,427.39897 c 0,0.0592 0,0.11831 0,0 z"
           style="fill:none;fill-opacity:0.75;fill-rule:evenodd;stroke:#000000;stroke-width:0.668971px;stroke-linecap:butt;stroke-linejoin:miter;stroke-opacity:1" />
        <path
           id="path2387"
           d="m 450.06907,406.50928 c 0.0686,0 0.13723,0 0,0 z"
           style="fill:none;fill-opacity:0.75;fill-rule:evenodd;stroke:#000000;stroke-width:0.668971px;stroke-linecap:butt;stroke-linejoin:miter;stroke-opacity:1" />
        <g
           transform="rotate(0.38485498,-74070.215,57044.847)"
           id="g4391">
          <path
             style="fill:#000000;fill-opacity:1;fill-rule:evenodd;stroke:#000000;stroke-width:0.668971px;stroke-linecap:butt;stroke-linejoin:miter;stroke-opacity:1"
             d="m 89.910593,-226.63657 -2.937446,13.53683 c 44.152243,-1.23308 74.109533,28.50927 13.788703,54.51586 2.79302,4.64901 5.42328,9.44332 5.91889,16.1429 19.29112,-9.44706 53.13285,-26.39898 38.53014,-57.08519 -17.63505,-28.93186 -33.87018,-19.5346 -55.300287,-27.1104 z"
             id="path2373" />
          <path
             style="fill:#000000;fill-opacity:1;fill-rule:evenodd;stroke:#000000;stroke-width:0.668971px;stroke-linecap:butt;stroke-linejoin:miter;stroke-opacity:1"
             d="m -20.69043,-64.748613 c -4.960537,4.828594 -10.796188,8.306208 -21.006189,5.030801 -20.763631,-9.900422 -8.346571,-27.592444 -1.643564,-27.341666 -1.220661,5.835707 -3.614717,11.943756 2.82357,16.001831 9.995217,3.191143 9.797977,-15.65183 14.197633,-23.641068 5.333474,-3.700433 12.684928,-1.262002 18.2686389,-3.690053 5.536604,-2.407562 5.587884,-8.716442 9.9894145,-12.925022 11.3128716,-11.35157 24.5606976,-20.71071 44.9917676,-22.67327 l 11.92492,12.84108 c -15.797736,3.16923 -33.524593,7.72569 -43.436966,23.554902 -3.050213,11.978808 7.861435,13.958399 10.169176,21.01417 -1.582577,12.220681 -11.265256,25.893176 -2.425761,36.245872 4.364003,2.859916 9.039412,3.826754 14.023216,2.918879 -1.798048,6.366204 -8.29045,8.010783 -18.869951,5.544511 C 8.8172893,-37.015367 2.530366,-43.51813 2.2825496,-52.569199 c -15.1904936,9.73735 -25.7418636,25.430151 -52.9981846,19.678073 -28.1604,-8.017677 -22.037392,-28.840768 -5.358921,-27.255911 5.42298,1.574352 4.345022,2.814424 2.950843,5.061652 -7.641494,0.194176 -5.420138,3.077127 -4.381877,5.637546 18.461558,13.111407 35.703358,-7.198335 36.81516,-15.300774 z"
             id="path2411" />
          <g
             transform="matrix(0.796706,0,0,0.724148,-345.9759,-527.7185)"
             id="g3226">
            <path
               style="fill:none;fill-opacity:0.75;fill-rule:evenodd;stroke:#000000;stroke-width:0.984036px;stroke-linecap:butt;stroke-linejoin:miter;stroke-opacity:1"
               d="m 342.74566,348.50479 c 0.0859,0 0.17182,0 0,0 z"
               id="path3049" />
            <g
               id="g3110"
               transform="matrix(0.984036,0,0,0.984036,-20.87637,34.62494)">
              <g
                 id="g3103">
                <path
                   style="fill:none;fill-opacity:1;fill-rule:evenodd;stroke:#000000;stroke-width:2.09321;stroke-linecap:butt;stroke-linejoin:miter;stroke-miterlimit:4;stroke-dasharray:none;stroke-opacity:1"
                   d="m 180.03481,224.45601 c 11.47266,2.94241 18.16467,-5.84635 20.36017,-11.29758 -6.06702,-9.99599 -26.69658,-18.56258 -36.95909,1.85533 5.96091,1.10095 17.00013,3.49834 16.59892,9.44225 z"
                   id="path3383" />
                <path
                   style="fill:none;fill-opacity:1;fill-rule:evenodd;stroke:#000000;stroke-width:2.332;stroke-linecap:butt;stroke-linejoin:miter;stroke-miterlimit:4;stroke-dasharray:none;stroke-opacity:1"
                   d="m 145.83638,263.69946 c 2.38865,-4.48325 7.97886,-15.33403 2.5785,-22.86042 -11.53882,-3.63969 -26.47546,-0.0172 -26.52466,19.80201 4.99128,-5.53056 18.21471,-3.19488 23.94616,3.05841 z"
                   id="path3385" />
                <path
                   id="path3387"
                   d="m 173.5579,312.38229 c -0.33407,-7.53842 -5.32625,-15.02578 -14.05397,-16.82119 -13.28635,0.37201 -19.74618,22.26177 -8.37676,32.38443 -2.46375,-8.21212 13.77372,-18.82282 22.43073,-15.56324 z"
                   style="fill:none;fill-opacity:1;fill-rule:evenodd;stroke:#000000;stroke-width:2.17044;stroke-linecap:butt;stroke-linejoin:miter;stroke-miterlimit:4;stroke-dasharray:none;stroke-opacity:1" />
                <path
                   style="fill:none;fill-opacity:1;fill-rule:evenodd;stroke:#000000;stroke-width:2.17044;stroke-linecap:butt;stroke-linejoin:miter;stroke-miterlimit:4;stroke-dasharray:none;stroke-opacity:1"
                   d="m 236.67284,322.6762 c 9.91214,-4.21719 18.88158,2.25843 21.72539,7.31843 -1.87658,13.55822 -31.23543,22.99255 -36.19864,7.84949 9.4302,1.16619 13.74643,-6.87432 14.47325,-15.16792 z"
                   id="path3389" />
                <path
                   style="fill:#1f1a17;fill-opacity:1;fill-rule:evenodd;stroke:#000000;stroke-width:2.90412;stroke-linecap:butt;stroke-linejoin:miter;stroke-miterlimit:4;stroke-dasharray:none;stroke-opacity:1"
                   d="m 297.47215,298.14852 c 0.82855,-10.37665 0.77358,-12.80143 3.36922,-22.73632 -12.67094,-1.80569 -13.4141,-3.61136 -27.41034,-5.85882 -22.26346,-0.55151 -32.38852,-2.28522 -48.14712,-4.21063 -16.2287,-5.53678 -16.66385,-22.77887 -14.5649,-31.76828 4.80469,-9.26772 -0.23926,-21.37031 -11.18323,-20.81292 -3.22226,9.46961 -6.88985,11.95146 -18.78615,12.2581 -1.71867,12.69519 28.13986,20.93414 21.01448,35.83515 -29.62446,-3.95997 -31.65267,-27.87423 -53.18962,-21.02047 3.43602,10.85752 2.59612,16.84188 -2.30717,24.30906 12.19185,12.5099 29.02735,-12.26221 46.256,9.38035 -1.20198,11.17217 -32.58935,4.03485 -33.16408,21.91434 8.90649,1.80544 14.25445,12.14039 14.49491,17.08461 9.2032,2.42271 14.73818,-11.34659 13.94573,-15.12264 1.25472,-10.78052 18.81924,-28.04575 42.88171,-21.86385 19.16896,2.82609 -1.11585,38.22017 6.08004,46.8242 10.20951,-2.01695 17.55921,0.79688 22.25758,6.57429 17.55424,-10.40619 -19.0867,-24.82503 -6.79358,-45.44652 11.19145,-1.67589 29.53077,-1.88831 45.24652,14.66035 z"
                   id="path3381" />
              </g>
              <g
                 id="g3091">
                <path
                   id="path3349"
                   d="m 200.14346,98.932415 c 5.4426,-5.106729 10.78602,-9.541548 8.70495,-20.082053 -12.08525,-9.408621 -31.71768,-5.324518 -34.44801,10.660675 8.00787,-4.776791 20.45624,2.00595 25.74306,9.421378 z"
                   style="fill:none;fill-opacity:1;fill-rule:evenodd;stroke:#000000;stroke-width:2.43704;stroke-linecap:butt;stroke-linejoin:miter;stroke-miterlimit:4;stroke-dasharray:none;stroke-opacity:1" />
                <path
                   style="fill:none;fill-opacity:1;fill-rule:evenodd;stroke:#000000;stroke-width:2.43704;stroke-linecap:butt;stroke-linejoin:miter;stroke-miterlimit:4;stroke-dasharray:none;stroke-opacity:1"
                   d="m 183.40135,141.03902 c 3.60948,-5.35243 5.4516,-13.71902 -1.80646,-20.74337 -13.50524,-2.2707 -27.13485,17.30496 -16.04173,28.83404 4.2724,-7.1596 10.46589,-8.66794 17.84819,-8.09067 z"
                   id="path3351" />
                <path
                   id="path3353"
                   d="m 222.44382,179.19592 c 8.23444,-1.16504 17.69071,4.17811 20.49137,10.53675 -3.94979,11.58588 -30.98572,16.49936 -35.34184,2.87854 7.44534,-0.31946 15.09513,-5.69222 14.85047,-13.41529 z"
                   style="fill:none;fill-opacity:1;fill-rule:evenodd;stroke:#000000;stroke-width:2.43704;stroke-linecap:butt;stroke-linejoin:miter;stroke-miterlimit:4;stroke-dasharray:none;stroke-opacity:1" />
                <path
                   style="fill:#1f1a17;fill-opacity:1;fill-rule:evenodd;stroke:#000000;stroke-width:3.0463;stroke-linecap:butt;stroke-linejoin:miter;stroke-miterlimit:4;stroke-dasharray:none;stroke-opacity:1"
                   d="m 297.70091,213.8626 c 8.39309,4.11508 -0.15669,-6.25268 13.54935,-10.56108 -26.74761,-34.93355 -42.26535,-46.36795 -59.74432,-79.14048 -3.17277,-4.6659 3.19028,-23.03528 9.27015,-27.653941 7.73797,-3.790187 14.34568,-12.773595 6.54138,-21.529416 -8.22941,1.994532 -13.39259,3.068689 -21.98923,-0.812417 -8.3599,0.559242 6.57851,25.143821 -5.82506,33.535244 -18.7046,-1.19813 -14.69503,-36.205689 -31.03606,-29.376886 0.23689,6.964183 1.35864,13.878982 -9.38484,20.712643 -1.1883,9.630233 32.92045,3.305873 21.93617,24.878923 -10.29789,3.57857 -30.421,-15.983 -39.15011,-5.02485 5.95071,9.50386 6.40612,12.46512 2.22621,22.31949 14.62129,5.6881 25.37422,-8.06885 34.38906,-6.22762 28.00584,-2.56703 32.95423,23.69445 25.53294,24.49215 -2.17187,8.17449 -25.03034,5.03826 -22.31155,19.15603 10.97795,1.92254 17.07911,2.44574 21.91673,12.28911 6.2821,2.15956 -0.54542,-22.62376 15.83541,-21.08152 27.61564,25.08194 30.63384,47.67903 38.24377,44.02462 z"
                   id="path3345" />
                <path
                   style="fill:none;fill-opacity:1;fill-rule:evenodd;stroke:#000000;stroke-width:2.43704;stroke-linecap:butt;stroke-linejoin:miter;stroke-miterlimit:4;stroke-dasharray:none;stroke-opacity:1"
                   d="m 245.31779,72.842163 c 6.70032,5.308881 12.52744,4.191061 20.33242,1.76728 3.26506,-17.053709 -22.46482,-31.662989 -35.94203,-19.893139 7.7673,5.15877 16.6527,9.910492 15.60961,18.125859 z"
                   id="path3347" />
              </g>
            </g>
            <path
               style="fill:#1f1a17;fill-opacity:1;fill-rule:evenodd;stroke:#000000;stroke-width:2.99767;stroke-linecap:butt;stroke-linejoin:miter;stroke-miterlimit:4;stroke-dasharray:none;stroke-opacity:1"
               d="m 442.125,67.0625 c 1.43383,8.344866 -0.20405,13.738595 -3.84375,17.40625 -5.92616,0.673575 -59.91124,-9.638154 -57.03125,8.40625 -0.6414,14.95234 1.58466,22.3872 6.21875,36.5 -21.29763,25.05222 25.40668,19.46199 18.40625,39.8125 -7.3911,6.17763 -10.73722,-1.73108 -24.0625,1.125 -17.08773,3.66251 -13.04869,23.77115 -17.0625,21.375 -5.89449,0.0326 1.80701,-22.61092 -5.4375,-22.71875 -14.30822,3.15664 -12.40027,27.94642 -16.84375,24.4375 -8.12371,-6.41512 -0.62805,-16.98246 -6.15625,-23.46875 -10.62887,5.41408 -6.77108,24.09633 -15.8125,25.90625 -7.96779,-0.0645 2.1393,-50.0631 -48.3125,-40.875 15.01113,7.82542 22.82787,20.18636 16.78125,49.78125 -7.69481,12.31445 -12.14119,11.1031 -24.6875,38.21875 -7.17841,7.6601 -24.65097,3.84152 -32.96875,-4.6875 -2.92636,35.9581 29.3915,28.19351 24.8125,34.65625 -27.85675,14.12112 -38.16703,-3.56765 -44.25,-27.78125 -11.81278,69.55546 51.85043,37.94752 49.6875,52.875 -14.8294,5.63951 -17.5814,-6.89717 -11.0625,17.75 15.21969,6.14433 17.65535,19.61634 11.34375,22.59375 -16.82709,-2.77785 -12.15061,-5.79763 -13.125,-7.71875 -0.0331,-0.0619 -0.0789,-0.1279 -0.125,-0.1875 -0.004,23.94525 24.00983,29.05732 23.90625,45.3125 5.53928,-25.41271 45.58385,-32.94572 64.875,-23.6875 11.31736,15.47094 24.67791,23.77093 38.3125,29.71875 -0.46936,0.47127 -0.77259,1.01549 -0.90625,1.625 3.03009,0.49954 6.01923,1.02389 8.96875,1.625 0.0327,0.007 0.061,0.0246 0.0937,0.0312 0.0211,0.008 0.0414,0.0232 0.0625,0.0312 9.9194,3.77635 19.76967,6.83797 28.875,11 4.92807,3.29616 9.57533,7.50306 13.84375,12.9375 -13.00954,-0.58774 -18.5744,5.29217 -32.53125,9.1875 -9.50032,-17.08397 -32.55435,-13.72069 -53.6875,-10 -5.17488,5.35366 -10.98187,20.47381 -16.1875,30.3125 -29.96432,15.27908 -28.7703,-24.0938 -13.6875,-31.375 -52.57397,6.3647 -28.06927,49.12219 6.625,57.21875 9.84816,14.75065 28.07994,25.4804 14.625,35.34375 -14.17127,9.18754 -15.00428,-8.35697 -32.375,5.8125 -7.68539,3.20678 -15.51511,1.37684 -16.65625,-4.5625 -7.84078,-12.69199 8.52012,-25.93587 -4.875,-33.0625 -9.77842,7.06996 -16.83831,2.28342 -18.875,1.15625 -6.35496,6.9007 6.39066,19.03064 4.53125,30.1875 -9.24663,6.77255 -24.46925,-21.58125 -36.625,-9.65625 2.81421,3.50965 5.6987,13.03355 -0.53125,19.5625 2.23629,7.6098 24.89924,-2.60714 32.8125,6.34375 -5.01888,18.59053 -32.38307,-2.9676 -34.34375,13.84375 12.38741,1.86882 9.3248,9.80432 7.75,15.34375 8.60075,5.93659 20.76769,-13.797 33.90625,-11.6875 32.41449,4.57259 -1.83356,12.05025 3.625,19.46875 8.07259,-2.8703 16.61114,3.36069 16.03125,8.6875 15.21045,-4.24899 2.68783,-26.46004 30.71875,-26.40625 6.26387,-1.28246 12.22575,4.98044 13.6875,21.5 14.85065,-10.34199 16.65564,0.41922 26.25,3.375 5.91114,2.75241 10.42018,-1.62301 14.90625,-6.28125 8.05075,4.62295 1.26279,21.32612 6.875,22.90625 10.26194,-13.69003 18.28379,-10.34119 21.1875,-8.125 -0.61532,15.21267 -10.95463,20.18182 -14.0625,28.53125 13.40367,0.5421 13.22646,-8.33649 32.3125,-24.875 8.28491,0.58091 17.0821,0.59766 26.46875,-0.125 7.00617,-0.93063 -34.24916,-21.19488 -15.9375,-35.9375 10.80546,-28.46017 -11.77174,-31.98492 -17.78125,-40.21875 -16.8568,-9.33797 -21.73824,-42.13068 5.5,-33.71875 14.54339,4.10979 17.46603,2.76214 32.28125,4.375 0.0379,-0.0278 0.11376,-0.0665 0.15625,-0.0937 0.70872,3.74326 1.35276,7.67179 1.96875,11.78125 34.4524,32.13054 -3.21504,35.78673 39.375,82.21875 -12.4169,24.8608 -4.85832,25.29729 30.21875,21.25 0.41249,-7.11704 -15.20052,-14.25271 -10.28125,-24.875 24.2539,3.21334 31.50428,13.65805 37.34375,24.71875 11.41867,68.80877 -38.61927,11.47111 -45.9375,34.90625 4.49219,4.81042 5.63468,15.73211 2.34375,20.34375 6.02399,10.93888 27.47666,-15.37609 36.4375,1.84375 -3.95743,10.96067 -47.92365,15.28957 -39.78125,33.09375 7.62704,-2.74622 16.62998,-1.57697 17.3125,7.28125 19.02339,4.31592 17.90012,-33.48841 29.875,-25.03125 13.50355,0.25762 -3.41954,19.65204 7.6875,24.03125 2.73625,-10.72578 11.58524,-9.82892 20.25,-6.78125 11.72785,-15.72442 -19.84813,-21.57973 0.875,-40.4375 9.27504,-8.28566 11.63494,15.18911 23,10.71875 2.96172,-9.07123 -2.38666,-8.50678 7.59375,-13.90625 1.84883,-22.83193 -21.30923,-4.80328 -18.875,-21.25 0.58045,-8.62307 13.37855,-11.47517 14.375,-14.875 3.51996,-2.03738 19.21266,-28.53068 17.15625,-44.15625 -19.91393,1.68116 -18.72018,-20.07527 -11.5,-41.21875 -23.71612,-10.05551 -51.43333,21.91708 -63.84375,6.5625 -4.7412,-5.86596 1.79805,-22.57892 4.75,-40.40625 l 3.15625,-24.375 c 0.44945,-5.58526 0.15991,-10.13948 -0.6875,-13.9375 12.42131,-0.3239 23.36018,-3.2195 31.4375,-10.09375 -30.20532,-10.40739 -22.45375,-5.64361 -34.1875,-22.375 11.06019,11.41205 64.53721,22.60293 75.1875,0.65625 -8.7865,10.5085 -47.14115,-3.05541 -59.4375,-13.6875 43.68614,15.55303 67.90088,1.52358 62.375,-19.84375 -15.92949,24.24015 -58.82263,-8.50217 -50.15625,-22.5 19.06832,19.36098 99.37719,21.8511 81.375,-5.40625 -28.87269,12.37754 -55.12205,8.93841 -71.40625,-9.03125 57.09273,-1.55583 97.85426,-25.70407 80.46875,-42.1875 -18.69504,15.40555 -51.33664,15.47409 -72.375,2.53125 18.33674,-8.97294 57.75351,1.8754 66.03125,-36.625 -2.79467,9.57096 -35.6915,19.07787 -43.90625,13 1.98641,-7.18706 58.79715,-12.30023 48.5,-53.59375 -16.92738,17.31687 -59.18762,28.28156 -57.0625,12.03125 1.22319,-12.59268 50.1979,3.4097 44.1875,-36.03125 -13.96897,11.96205 -16.34539,15.49796 -32.71875,15.78125 24.92914,-16.97823 50.58408,-31.52735 33.8125,-57.09375 -8.84645,14.07711 -33.16891,30.96999 -45.6875,30.8125 -0.15476,-13.9575 57.18951,-32.36019 39.59375,-55.5 -11.37627,14.5564 -26.65635,25.25924 -49.34375,38.3125 5.46102,-4.64333 37.4653,-57.64303 17.09375,-61.84375 -7.77234,14.10589 -13.61928,27.08945 -21.28125,26.28125 -13.61408,-2.52854 23.91943,-45.441189 0.1875,-48.625 -4.28137,18.539955 -9.53076,39.61209 -15.0625,38.4375 -6.71313,-9.94072 6.84702,-39.768447 -7.09375,-45.875 -7.73728,24.950277 -30.73691,61.64595 -65.5625,80.5625 -13.14863,16.89693 -21.08194,55.83951 -23.15625,91.1875 1.86509,35.58946 -31.96885,40.80735 -39.75,0.15625 5.80795,5.19862 14.10472,5.17158 24.375,2.625 -16.19021,-19.92306 -4.78032,-40.78431 -1.875,-55.65625 0.53828,5.81223 11.66304,-0.0571 17.125,-3 -6.21455,-3.75796 -9.46212,-17.96061 -8.6875,-23.90625 0.63433,-13.05922 13.6648,-27.21948 11.75,-39.71875 9.43305,0.53528 9.50291,-11.67706 5.5,-16.8125 -7.66929,2.6422 -6.65277,2.46547 -14.53125,-0.0312 2.94964,-16.865909 -2.99001,-30.270086 -13.3125,-29.21875 0.35082,6.832121 -2.52209,8.626652 -9.25,8.65625 -1.19637,-6.882648 1.5565,-14.771871 -12.5625,-18.90625 z m 181.84375,334.71875 c 1.32291,-1.58218 1.9886,-3.70261 1.78125,-6.46875 -0.22275,2.42731 -0.85644,4.56302 -1.78125,6.46875 z M 272.5,375.8125 c -0.30466,1.40544 -0.5093,2.89141 -0.59375,4.40625 0.38768,-1.55825 0.58249,-3.02671 0.59375,-4.40625 z"
               id="path3343" />
            <g
               style="fill:none;stroke:none;stroke-opacity:1"
               transform="matrix(1.682081,0.183118,-0.183118,1.682081,-59.52397,-1022.288)"
               id="g3028">
              <path
                 id="path3339"
                 d="m 337.70334,628.77633 c 2.73364,-0.53679 5.53228,-1.72309 8.34317,-2.01462 4.34222,0.39029 7.71348,2.75852 10.03329,6.77451 -2.48675,1.7795 -5.59563,2.70016 -8.52696,2.51008 -3.83018,-0.35228 -7.22156,-2.64782 -9.8495,-7.26997 z"
                 style="fill:#b3b2b4;fill-opacity:1;fill-rule:evenodd;stroke:none;stroke-width:1.70787;stroke-linecap:butt;stroke-linejoin:miter;stroke-miterlimit:4;stroke-dasharray:none;stroke-opacity:1" />
              <ellipse
                 id="path3341"
                 style="opacity:1;fill:#000000;fill-opacity:1;fill-rule:nonzero;stroke:none;stroke-width:1.41732;stroke-linecap:round;stroke-linejoin:round;stroke-miterlimit:4;stroke-dasharray:none;stroke-dashoffset:0;stroke-opacity:1"
                 cx="345.92804"
                 cy="630.72571"
                 rx="2.3475485"
                 ry="2.2637074" />
            </g>
            <path
               style="fill:none;fill-opacity:1;fill-rule:evenodd;stroke:#000000;stroke-width:2.81716;stroke-linecap:butt;stroke-linejoin:miter;stroke-miterlimit:4;stroke-dasharray:none;stroke-opacity:1"
               d="m 501.14821,616.9488 c 3.93156,4.66007 5.21102,10.66188 4.08825,17.67089 -9.54573,2.71637 -16.47816,6.94424 -19.53335,15.28942 -6.14046,-10.93699 -0.18558,-23.6227 15.4451,-32.96031 z"
               id="path2372" />
            <path
               style="fill:none;fill-opacity:1;fill-rule:evenodd;stroke:#000000;stroke-width:2.39814;stroke-linecap:butt;stroke-linejoin:miter;stroke-miterlimit:4;stroke-dasharray:none;stroke-opacity:1"
               d="m 501.6805,672.2253 c 6.85519,-3.00398 13.52695,1.60676 16.74418,7.42577 -5.33017,3.29514 -8.96484,12.19204 -4.52398,19.53874 -14.3908,-1.0711 -18.76957,-15.32979 -12.2202,-26.96451 z"
               id="path2374" />
            <path
               style="fill:none;fill-opacity:1;fill-rule:evenodd;stroke:#000000;stroke-width:2.39814;stroke-linecap:butt;stroke-linejoin:miter;stroke-miterlimit:4;stroke-dasharray:none;stroke-opacity:1"
               d="m 555.24472,677.64326 c 2.7077,-8.79715 12.13839,-10.15382 19.41246,-6.6945 -4.21206,9.01103 0.21851,15.37229 8.05979,18.80992 -12.17771,4.30951 -24.56578,2.20945 -27.47225,-12.11542 z"
               id="path2376" />
            <path
               style="fill:none;fill-opacity:1;fill-rule:evenodd;stroke:#000000;stroke-width:2.21882;stroke-linecap:butt;stroke-linejoin:miter;stroke-miterlimit:4;stroke-dasharray:none;stroke-opacity:1"
               d="m 598.18225,641.91005 c -0.0192,-8.06369 3.09778,-16.68172 9.32373,-15.55806 11.00062,11.47143 12.39616,24.5082 -0.20384,32.71113 2.45393,-8.48768 -1.06875,-13.57957 -9.11989,-17.15307 z"
               id="path2378" />
            <path
               style="fill:none;fill-opacity:1;fill-rule:evenodd;stroke:#000000;stroke-width:2.39814;stroke-linecap:butt;stroke-linejoin:miter;stroke-miterlimit:4;stroke-dasharray:none;stroke-opacity:1"
               d="m 276.72869,468.02407 c -1.62697,5.41311 -10.29215,3.89106 -16.23753,0.21078 -0.95792,-8.0282 -3.64169,-14.23566 -10.53878,-18.05537 10.56605,-6.11601 22.74092,-0.42109 26.77631,17.84459 z"
               id="path3402" />
            <path
               style="fill:none;fill-opacity:1;fill-rule:evenodd;stroke:#000000;stroke-width:2.39814;stroke-linecap:butt;stroke-linejoin:miter;stroke-miterlimit:4;stroke-dasharray:none;stroke-opacity:1"
               d="m 225.54536,489.23794 c 3.64273,6.13861 5.78774,13.69791 -0.21113,18.0969 -5.46021,-3.07482 -17.28735,0.16759 -21.57422,7.6052 -6.01482,-13.11732 8.43439,-25.81528 21.78535,-25.7021 z"
               id="path3404" />
            <path
               style="fill:none;fill-opacity:1;fill-rule:evenodd;stroke:#000000;stroke-width:2.39814;stroke-linecap:butt;stroke-linejoin:miter;stroke-miterlimit:4;stroke-dasharray:none;stroke-opacity:1"
               d="m 225.37347,528.7341 c 7.45615,2.07961 13.46981,9.15733 9.18982,17.10198 -9.7293,-2.06898 -14.92609,3.68331 -16.50472,12.09822 -6.94749,-10.8904 -5.98398,-23.13478 7.3149,-29.2002 z"
               id="path3406" />
            <path
               style="fill:none;fill-opacity:1;fill-rule:evenodd;stroke:#000000;stroke-width:2.39814;stroke-linecap:butt;stroke-linejoin:miter;stroke-miterlimit:4;stroke-dasharray:none;stroke-opacity:1"
               d="m 270.3891,552.29565 c 8.46037,-2.11622 15.10115,3.88001 16.05185,10.64895 -8.0814,15.03224 -20.14193,14.7278 -32.84639,4.42228 9.56406,-0.22451 15.84196,-5.63122 16.79454,-15.07123 z"
               id="path3408" />
            <path
               style="fill:none;fill-opacity:1;fill-rule:evenodd;stroke:#000000;stroke-width:2.39814;stroke-linecap:butt;stroke-linejoin:miter;stroke-miterlimit:4;stroke-dasharray:none;stroke-opacity:1"
               d="m 313.18898,117.51985 c 8.63978,-3.56652 4.62103,16.41625 13.96144,18.00388 40.36281,6.74777 64.89134,-12.10267 70.96888,1.47159 -4.28653,2.67272 5.30808,3.83663 1.02155,6.50935 -5.34546,-8.57304 -26.39523,-0.69384 -36.04308,3.97979 -20.2376,10.40697 -40.95594,3.37185 -45.97725,-1.04274 -9.30365,-7.2617 -5.80956,-18.66175 -3.93154,-28.92187 z"
               id="path3337" />
            <path
               style="fill:none;fill-opacity:1;fill-rule:evenodd;stroke:#000000;stroke-width:2.99767;stroke-linecap:butt;stroke-linejoin:miter;stroke-miterlimit:4;stroke-dasharray:none;stroke-opacity:1"
               d="m 341.01366,122.92301 c 11.37225,-24.067217 58.45335,12.41013 59.01282,21.0204 1.65138,0.56031 -2.38453,-25.44078 -0.73314,-24.88046 -5.59933,-13.17342 -16.96775,-7.98431 -17.75411,-23.481378 -15.75523,-6.887703 -50.45831,-0.658611 -40.52557,27.341438 z"
               id="path2460" />
          </g>
        </g>
      </g>
    </g>
  </g>
</svg>
