<svg xmlns:dc="http://purl.org/dc/elements/1.1/" xmlns:cc="http://creativecommons.org/ns#" xmlns:rdf="http://www.w3.org/1999/02/22-rdf-syntax-ns#" xmlns:svg="http://www.w3.org/2000/svg" xmlns="http://www.w3.org/2000/svg" version="1.1" id="svg842" viewBox="186.96 278.06 231 203.83">
  <metadata id="metadata848">
    <rdf:RDF>
      <cc:Work rdf:about="">
        <dc:format>image/svg+xml</dc:format>
        <dc:type rdf:resource="http://purl.org/dc/dcmitype/StillImage"/>
        <dc:title/>
      </cc:Work>
    </rdf:RDF>
  </metadata>
  <defs id="defs846"/>
  <g id="Layer1000" transform="matrix(0.42,0,0,0.42,175.4297,220.3854)">
    <path d="m 49.3597,471.9875 1.9245,0.6611 6.7012,-16.1719 -1.2605,-0.1979 -1.2605,1.1575 -1.6592,0.099 -3.0857,1.8518 -4.3788,1.3563 -1.6592,1.3554 -2.7204,2.0173 -0.4971,0.9929 -0.1994,0.8598 0.1994,0.8598 0.9952,1.3554 z m 438.8627,138.0708 -0.0993,2.6127 3.6163,-1.4552 2.2223,-2.0506 1.6592,-1.1575 0.5973,-1.9516 0.9619,-1.5209 1.5591,-0.992 0.7633,-2.0173 1.9571,-0.6944 0.7633,-2.8114 2.3224,-3.6704 0.6966,-1.654 3.119,-4.2658 1.4591,-3.5714 1.2613,-1.2573 1.2605,-3.8027 1.3606,-1.7196 0.2986,-2.0506 1.6251,-1.9184 1.4598,-2.6127 1.6593,-2.7116 2.2556,-4.0014 0.6632,-2.315 2.9198,-4.8288 -0.398,-1.9508 -1.7251,1.4552 -3.7155,3.0094 -2.6211,1.9183 -2.9197,3.505 -5.2422,5.1265 -2.0563,3.5049 -0.166,0.1655 h -2.1565 l -0.664,0.992 0.664,2.2161 -1.5599,1.3562 -0.6632,2.2485 -1.7585,1.2565 -1.5591,2.8114 -1.8245,0.9588 -0.1993,2.4139 -0.398,2.5138 -4.0809,6.6806 -0.498,1.8518 -0.6632,1.1575 -0.3979,2.7117 -1.56,0.992 -0.3979,1.0586 1.2605,1.2564 z m -1.7252,-111.3501 2.1231,-1.1575 0.8626,-1.9175 6.9005,-5.2587 6.7354,-5.622 1.6259,-0.9588 1.957,-0.3966 2.8196,0.7933 1.1612,1.0585 0.4981,3.307 -0.896,4.2659 -1.9237,3.3735 -0.996,3.1083 -4.0801,6.1842 -2.0238,4.2666 -2.0571,5.4234 0.0992,0.7941 0.398,0.3966 0.7633,0.1655 0.7966,-0.0998 0.7625,-0.3634 3.019,-1.7529 4.2803,-2.0505 1.5591,-1.6199 7.6639,-3.6047 1.5591,-1.8194 1.3606,-0.6944 1.7585,-1.6539 2.1231,-0.4623 1.6592,-0.8931 1.0611,-0.8598 1.6592,-1.9517 6.1373,-3.5714 9.3231,-6.5809 2.2223,-0.992 3.4178,-2.1171 3.1182,-0.8598 3.8816,1.2573 2.9197,2.2152 0.5639,3.5058 -0.2652,4.2334 -0.6966,3.7037 -1.6592,3.4725 -0.4639,3.2081 -0.8959,1.9508 0.0993,2.216 -2.2232,1.8519 0.4647,2.315 v 0.0989 l -0.0659,0.8598 -0.3988,0.7942 -1.2605,1.7196 -0.4972,2.9096 -1.2613,3.0093 -1.5591,2.2161 -2.2223,6.9783 -1.2614,2.5461 -1.4598,3.0759 2.5218,-0.2644 1.1612,0.1646 2.8196,-1.3554 2.0572,-0.3642 4.7441,-1.091 3.9817,0.099 1.8577,-0.1979 2.6211,0.5945 3.3177,0.7609 2.9856,1.7529 2.8204,2.1495 0.8951,5.4233 -0.6965,4.0679 -0.9619,0.8598 -0.7966,0.1988 h -0.3646 l -2.1564,-0.9588 -2.1231,-1.4552 -0.3987,-0.5954 -2.0238,-4.2666 -1.1937,-1.9175 -2.0238,-0.0998 -1.56,-0.5954 -2.2223,0.1987 -1.8578,-0.4956 -2.9197,0.7933 h -3.7823 l -2.3224,0.9588 -4.1802,0.8931 -2.4551,1.2564 -0.6632,1.9184 -0.9627,2.315 -1.7585,2.1495 -1.0611,3.0094 -1.7585,2.1171 -0.7967,1.5541 -1.0611,1.9508 -0.664,4.1669 -1.2605,1.8194 -1.4599,1.5542 -0.1985,2.0505 -1.4599,1.1575 0.398,2.1163 -3.4178,4.7623 -0.9618,1.5541 -1.1612,0.5621 0.8625,2.0506 -1.2605,1.8519 -0.7966,2.0173 -5.54,7.8381 -0.5639,2.4472 -1.2613,1.1575 -4.1802,5.82 -1.6584,1.2573 0.3979,1.7196 -1.2605,2.5462 -1.8578,0.3642 -0.7967,0.992 0.1994,2.0173 -0.4646,0.6944 -1.2605,0.6611 -2.1565,0.1987 0.0993,2.315 -1.8578,1.5542 -2.5218,3.0093 -1.9245,1.3563 -3.4169,0.76 -1.4598,-0.1647 -6.3033,-3.5057 -3.517,-2.6127 -0.7633,-1.1576 -0.8951,-3.4059 -0.2661,-4.068 0.1993,-0.4631 0.9619,-1.9508 0.1001,-2.7117 0.9618,-2.6127 0.6966,-2.6127 1.8252,-2.2493 2.521,-6.0844 2.4551,-3.1091 5.1428,-8.2348 2.2224,-3.1083 0.2986,-1.3562 1.6593,-0.099 1.0611,-1.9184 0.7966,-2.1495 2.4217,-2.1163 3.1191,-4.5635 2.521,-1.2573 1.062,-1.8518 5.2421,-3.9681 1.3598,-1.555 1.5591,-0.0989 1.4599,-2.513 2.5218,-0.8598 0.2986,-1.8527 0.4972,-0.76 3.3844,-0.6943 2.1564,-1.3563 1.5258,-2.1162 0.8959,-2.4148 1.8578,0.1654 0.2661,-0.2644 -0.4647,-2.2485 0.564,-2.216 0.9952,-1.9508 2.0237,-1.7197 -0.1993,-2.0505 0.2986,-2.3151 0.8626,-1.6539 0.498,-2.5129 1.6584,-1.9516 0.3988,-2.3151 0.7624,-2.6127 2.1239,-5.1588 1.1938,-3.8692 1.0619,-1.6531 0.3979,-1.5217 0.0668,-2.1496 -3.3844,2.2485 -2.7204,-0.3966 -2.3224,1.8194 -1.4599,0.3966 -0.9952,1.3554 -3.5829,2.0506 -1.1612,-1.1575 -0.8959,0.1655 -1.1612,2.4472 -0.6632,0.4632 -1.7585,0.3966 h -2.2232 l -0.8959,1.9517 -0.9619,1.1575 -0.6965,0.3966 -4.3463,1.8186 -4.1802,3.2081 -4.5781,1.9184 -2.0571,1.5541 -4.081,0.6943 -1.2605,1.9184 -3.3843,-0.0665 -3.3177,0.7609 -1.4598,-0.6944 -3.583,-2.6127 -1.0619,-1.5541 -0.1986,-0.5622 -0.1001,-2.5137 -0.4971,-1.8519 1.2604,-3.0093 0.0993,-3.1091 1.56,-5.4234 0.8625,-1.9183 -0.3653,-0.4956 -1.9571,1.4552 -0.9627,1.9508 -2.3549,2.5137 -1.6259,1.4544 -1.957,-0.9588 -0.8634,-1.6531 -1.4591,-0.8931 -0.1993,-0.4631 -0.2987,-1.1575 0.1994,-0.7933 1.5591,-1.7529 4.2795,-3.6713 z m -17.4182,33.5345 -6.1047,-0.8599 -5.2747,0.2645 -7.5646,2.1495 -2.3224,1.8518 -1.5592,-1.4551 -1.2604,-0.6944 -1.5592,-1.7529 -1.4598,-2.1163 -0.1994,-1.3562 0.2986,-1.1575 1.1613,-2.0506 0.1993,-2.3142 1.4599,-0.7941 2.0238,-4.1668 1.1604,-0.8599 2.455,-3.8691 1.56,-1.3563 2.0238,-1.0577 0.4972,-2.1504 2.621,-4.4645 2.1231,-4.5302 2.3558,-2.2494 1.3606,-1.9175 0.4646,-2.9104 -0.1993,-1.6539 -0.564,-0.5621 -0.6965,-0.198 -0.4647,0.099 -1.3606,0.7609 -5.2747,4.4645 -1.2613,0.3967 -3.7814,3.4725 -2.8205,1.2564 -1.7585,1.654 -2.521,1.1575 -1.1328,1.4069 0.1702,0.1472 v 3.1083 l -0.9952,0.6619 -1.6584,2.414 -1.9246,0.1987 -0.9618,1.3555 h -0.8959 l -1.7585,1.8518 -4.8443,5.4241 -2.9189,1.9508 -1.3606,-0.5953 -1.3606,1.6539 -3.4169,2.315 -2.123,2.7117 -3.019,1.0585 -4.0809,4.0014 -1.8245,0.5621 -0.7966,-0.1987 -2.4217,-2.2153 -1.5592,-1.1575 -1.4598,-2.0505 -3.8816,-5.0267 -0.1001,-0.2977 v -0.099 l 0.498,-2.8114 0.0659,-3.1083 1.4599,-3.4725 v -3.5058 l 1.8578,-3.0759 -0.2987,-1.5541 0.3988,-2.2485 -2.5218,1.3554 -2.0572,2.547 -2.2223,0.099 -1.1612,2.6127 -1.5592,0.661 -1.3605,1.2573 -2.0572,-0.0997 -0.5639,2.547 -1.8578,1.2564 -1.1612,1.6207 -1.062,0.2977 -2.1564,2.315 h -1.8244 l -0.6966,2.4472 -1.6592,1.6531 -1.5591,1.422 -1.8244,-0.1655 -0.5973,2.1171 -0.664,0.9588 -0.2987,0.1987 -2.521,0.6943 -6.1381,5.4234 -3.1182,-0.099 -2.0238,-0.2977 -1.5591,-0.4964 -1.4599,-1.2565 -1.56,-1.8186 -1.8244,-1.7528 -3.1182,-5.0267 -1.2614,-2.0506 v -2.0173 l 0.5648,-4.0679 3.6155,-7.375 0.7632,-2.1495 1.062,-0.1655 0.1985,-1.4543 1.3606,-1.654 0.0993,-1.4552 -3.4836,1.654 -1.9571,1.5541 -1.8578,0.8598 -0.4646,-0.4964 h -0.5973 l -0.5639,1.9516 -1.1946,0.099 -0.8626,0.9587 -1.3598,1.0586 -0.005,0.002 -0.3929,0.9903 -0.7633,0.8598 -2.2223,1.7529 -1.2613,1.8186 -3.9149,3.6047 -2.1231,2.5138 -2.2557,1.6539 -0.8626,1.8186 -0.8625,0.8931 -1.56,-0.1988 -2.521,2.7117 -2.5218,0.5954 -3.3176,1.8194 -2.0572,0.4956 -2.8196,2.5138 -4.2469,0.5953 -1.6584,0.5622 -3.6163,0.1979 -2.9197,1.0585 -2.8197,-2.216 -2.7211,-1.5542 -3.0849,-3.8692 -1.3606,-1.7528 -0.2987,-0.8599 -0.4972,-2.5137 -0.7633,-1.7521 0.0993,-2.2493 -0.4346,-1.7886 -0.1627,0.069 -1.4598,1.4552 -3.8816,3.4725 -4.6774,3.406 -1.6592,1.7196 -1.9571,-0.4623 -0.5639,0.0989 -1.1612,2.7117 -2.7212,0.2644 0.1994,2.0506 -1.9571,1.1575 -1.8586,0.7941 -2.3224,1.6199 -1.6584,1.2573 -2.3225,0.2968 -2.3224,1.2573 -2.4551,-0.2644 -4.4454,0.1646 -1.9579,-1.1575 -3.019,-1.6531 -0.6632,-0.5621 -1.4599,-2.414 -1.1612,-2.6127 -1.5591,-3.5057 0.4646,-3.5715 0.2978,-3.2081 0.4981,-2.8106 0.5639,-1.2573 1.6592,-2.315 1.2605,-3.7037 1.062,-1.8186 0.8951,-2.0506 2.4225,-3.3735 3.1183,-5.9198 1.0619,-1.9508 0.0993,-0.5621 -0.0993,-0.6943 -0.3987,-0.4632 -2.7204,-1.2897 -1.1612,1.9508 -3.4837,1.555 -1.5591,1.2564 -1.957,0.9588 -2.2232,2.1495 -1.7585,1.1575 -1.1612,2.0173 -2.521,0.3967 -1.5591,0.4964 -1.2613,1.8186 -2.6211,0.7941 -1.1612,2.0173 -2.0563,0.6944 -1.198,0.3417 -0.8592,1.6099 -0.664,3.4717 -1.5592,1.1575 -4.0809,4.3656 -1.7585,0.6619 -2.2223,3.1083 -2.3558,0.6943 -1.2605,1.3563 -1.9245,0.5621 -0.9952,1.6531 -2.9857,1.3563 -5.0761,1.5541 -2.0238,-0.4956 -1.8578,-0.8598 -1.8577,-0.3975 -1.2614,-2.7116 -1.2605,-2.1163 -0.0992,-0.8931 v -0.4632 l 0.4972,-2.2484 -0.9619,-1.0586 0.0993,-2.0173 -0.0993,-2.6127 v -0.099 l 0.1994,-1.4552 0.3645,-2.3482 -0.4646,-0.4624 -1.9571,1.6531 -2.1238,0.5621 -1.1938,2.9104 -1.8252,1.0586 -0.8951,1.1575 -1.8253,0.992 -1.8578,1.4552 h -1.6592 l -0.9618,1.8186 -0.9619,1.3563 -7.1992,5.3243 -2.5218,2.3475 -2.8196,1.6539 -8.2612,4.729 -3.6162,0.6943 -5.4416,-1.2565 -3.2842,-2.5461 -0.4981,-0.8598 -0.7624,-3.2081 -1.1946,-2.9761 v -2.4472 l 0.1994,-1.7205 v 0 l -0.1001,-3.0094 0.7966,-1.3554 h 0.9619 l -0.2987,-2.1495 0.896,-1.9184 4.0809,-5.8208 0.4647,-1.4543 2.5209,-2.4148 1.5592,-2.4473 3.3176,-2.4139 3.5837,-3.8692 6.3367,-4.0679 5.9387,-4.0679 3.3835,-1.3554 3.2184,-2.0506 4.7441,-1.3562 3.3177,-1.4552 1.9245,1.0918 1.8578,-0.992 0.5973,-0.0998 2.2231,0.7941 3.1183,2.5129 0.8626,2.1171 0.3979,2.6452 1.0619,2.1171 1.4599,-1.2573 2.0571,-3.1083 2.3225,-1.9184 4.0801,-1.091 2.2231,0.5954 1.6593,1.5542 0.5964,3.1083 -0.8951,4.531 -2.4225,5.2254 -2.4217,3.3071 -2.2232,6.3829 -0.8951,1.5541 v 3.3071 l -0.3987,3.1083 0.2986,1.1575 0.2987,0.3966 0.6965,0.0666 0.664,-0.0666 1.3598,-0.8922 3.2184,-3.1091 1.9245,-1.1575 3.4169,-3.3728 0.9627,-0.2977 1.5591,-2.4148 1.6559,-1.0228 0.1026,-0.829 1.8578,-2.2152 1.0619,-1.3563 0.9619,-0.8931 1.957,-0.4631 1.7252,-1.3554 1.6592,-0.3967 1.2605,-1.9516 2.2565,-1.0577 1.5591,-1.3563 2.6211,-2.8114 0.3646,-0.1979 2.2565,-0.8598 1.2605,-1.654 h 1.2605 l 1.2604,-2.0173 4.6783,-2.8106 1.5591,-2.0506 1.6259,-1.0585 1.0953,-1.2565 2.123,-1.4552 2.2224,-1.4552 0.2986,-0.099 3.1191,-0.1987 3.4169,0.7941 2.3225,2.0173 0.5639,1.3555 0.3979,3.1091 4.0809,12.1039 -0.4646,2.9104 -0.6966,1.2565 -2.8196,3.307 -1.1612,1.5209 -1.5591,1.0918 -1.062,1.9184 -1.5591,1.1575 -0.7633,1.6531 -0.896,1.8518 -2.0237,0.6619 -0.1986,2.7117 -3.0198,4.8612 -0.9619,2.6127 -1.0944,1.6531 0.3979,0.9596 0.3979,0.1979 0.7633,0.1987 3.8148,-0.2976 1.3606,0.3966 1.9245,-1.3554 3.6822,-1.0586 1.7585,-1.1907 2.7204,-0.9588 4.6782,-3.2081 3.3844,-1.9175 1.957,-1.654 3.5829,-2.6127 1.1946,-1.6531 5.1421,-3.4725 2.1239,-3.4068 0.4262,-0.3085 0.3696,-1.3446 1.7585,-2.5138 1.1612,-1.5541 1.062,-2.8106 0.7958,-1.3563 0.8626,-2.0173 2.3224,0.4632 0.8959,-1.3563 -1.3606,-1.3554 0.6641,-3.2746 1.7585,-1.8518 2.0563,-3.0094 2.2232,-2.216 2.4217,-4.7623 1.5591,-1.1567 0.3987,-1.2572 -2.0571,0.2976 -1.3606,0.3967 -3.185,-0.1979 -2.355,0.8598 -4.9435,0.8598 -2.7203,1.4552 -1.9579,-0.1655 -2.4217,0.0657 -1.3606,-0.5621 -0.8626,-1.0577 -0.3979,-1.654 0.1994,-1.1575 1.6584,-2.9104 1.2613,-2.0497 2.3216,-1.4552 1.3606,1.1899 1.7585,-2.5462 0.5639,-0.2644 0.7967,-0.0989 h 0.3646 l 3.3176,0.3633 2.8204,-0.8598 3.2176,-0.8598 2.7203,-1.3562 7.0007,-1.3554 2.9197,-1.654 1.8244,-0.992 3.3177,-4.0679 3.0189,-2.414 3.4837,-6.2831 2.0571,-2.414 1.5592,-1.6539 1.9245,0.7609 2.3224,2.5129 1.1946,4.7622 -0.6974,3.4725 -0.4972,0.5954 -2.8204,2.2161 -1.3598,1.4552 -0.3654,1.2564 0.2987,0.5954 1.2613,0.099 1.625,-0.9588 8.5598,-1.0918 6.9006,-2.1163 8.0626,-0.9588 6.9998,-1.5549 1.8578,0.0998 2.1239,0.661 2.0563,-0.9587 5.2421,-0.8931 2.3225,-1.422 1.4598,0.5622 1.0945,0.0989 1.4599,-0.1979 8.8251,-1.7529 3.9816,0.7933 3.8148,-1.4552 1.7252,-0.2977 2.9197,-0.76 2.6211,0.4632 1.6592,-0.2653 2.1564,0.6619 1.9237,0.6943 0.7967,1.1576 1.3597,1.5541 1.5266,2.5138 0.5973,3.4725 -0.2986,1.4552 -1.062,0.9587 -1.7585,0.4956 h -0.1985 l -2.5218,-0.2977 -6.204,-0.1979 -3.3176,-0.3642 -8.4597,1.0586 -2.2232,-0.2977 -8.3604,2.0506 -4.9435,-0.099 -1.9579,0.1979 h -0.0993 l -1.7585,-0.6943 -2.2223,0.9588 -3.5837,1.3562 h -4.7767 l -2.3224,0.8931 -3.5171,-0.2977 -3.683,1.2564 -4.1802,0.099 -9.057,2.5137 -3.2842,0.099 -4.1802,1.5541 -3.6163,-0.3966 -2.6211,1.6539 -2.1239,-0.0997 -0.7958,2.3482 -1.3606,0.7609 -0.5639,2.315 -1.9571,0.992 -3.2843,6.0853 -2.3558,1.1575 -1.6258,3.307 -2.5544,2.414 -2.2231,5.2254 -1.4599,1.8518 -0.5973,1.8519 -0.9618,0.5621 -1.1612,1.9516 -1.1613,1.1575 -0.3979,2.0498 -3.2183,2.7116 0.0992,3.1748 -1.5591,2.3483 -0.7633,2.414 -1.3598,1.0585 0.2987,2.414 -0.5973,1.2573 -0.0993,0.2977 0.0993,1.3554 0.1994,2.2485 2.4217,0.6619 2.621,0.1987 h 2.9189 l 3.4178,-1.7529 2.123,0.099 7.0007,-4.2658 1.957,-0.6619 1.6593,-1.2565 2.3224,-0.992 1.4599,-1.8194 0.7624,-0.4956 0.9952,-0.3967 2.0238,-0.0997 1.062,-1.6199 7.6972,-6.3172 2.5001,-2.394 0.0209,-0.1189 2.123,-2.1496 2.4551,-1.9183 1.9245,0.2977 1.1612,-2.7117 2.5544,-0.6943 2.621,-3.1092 2.2232,0.0998 1.4599,-2.315 1.7576,-1.4552 1.062,0.1979 1.5591,-1.8518 1.9245,-0.1979 1.4599,-0.6619 1.957,-0.1988 1.9579,-0.0989 0.3646,0.0989 2.621,2.8115 1.5592,1.8518 1.4598,2.315 0.6966,3.8692 -0.0993,0.9596 -0.3979,0.6943 -1.8578,0.76 -0.2652,2.3483 -1.2614,3.0094 -0.7958,1.5217 -1.5591,1.2564 -0.7633,1.8519 -1.6593,0.1987 -0.3979,2.1163 -0.8625,3.307 -0.5973,0.7942 -1.4599,1.6198 -0.2653,1.6539 -0.9952,2.513 -0.2986,1.3562 0.1993,0.7941 0.5973,0.4624 0.3979,0.1987 0.2653,-0.0989 4.1802,-3.0759 1.3606,-0.7933 1.9571,-0.4964 0.9618,-1.6207 2.4551,-2.3483 1.5266,-1.4544 2.3558,-0.4631 0.3645,-1.7529 2.3558,-1.4552 2.3225,-2.1163 3.5161,-2.8114 0.8626,-1.2565 h 1.6592 l 1.062,-2.7116 5.9387,-5.3577 1.1612,-1.8185 2.2223,-1.555 4.8768,-4.4646 2.3224,-1.4552 3.6831,-0.5621 2.5543,0.2653 0.664,0.4956 2.7204,2.7116 3.2184,2.7117 1.0611,1.9516 0.1001,0.9588 -4.4797,11.2441 -2.7204,8.6314 -0.5639,3.0759 -1.1946,0.4964 0.2987,3.2072 1.9579,-0.893 2.7203,-1.5542 2.6211,-0.6611 1.2605,-2.1495 3.1191,-2.7117 1.5591,-1.9183 1.3597,-0.7941 1.7202,-0.1331 -0.0609,-0.3293 -0.0993,-1.3562 0.0993,-0.7933 1.6592,-3.1748 0.8626,-1.4552 6.204,-4.3656 2.6536,-2.315 2.6211,-1.2898 1.6258,-1.9183 2.0572,-1.0578 6.8013,-4.7622 6.1372,-2.7125 3.185,-2.5129 1.5592,-1.1575 2.1572,-0.099 4.3454,-1.6539 h 0.2987 l 3.8823,0.4964 1.6584,0.4624 0.5973,0.3974 1.5592,1.8519 1.6592,1.7196 0.166,0.7933 -0.9627,4.5643 -0.9618,3.3728 -2.1564,4.1668 -2.6211,3.87 -0.4647,2.5129 -1.1945,0.9921 0.1993,2.1171 -1.9245,1.0577 -1.0945,2.9104 -1.8252,1.7529 -1.6584,1.9508 -0.2986,1.0585 -1.6593,1.9184 -1.8244,2.8106 -1.7585,1.6539 2.2232,-0.5621 4.5781,-1.1907 2.6211,-0.1655 4.9768,0.1655 1.7252,0.6943 1.8169,1.3654 2.3224,0.7608 2.2565,1.6532 1.9237,2.9103 0.5973,2.1496 -0.2986,2.1163 -1.3598,0.6943 -0.6966,1.5217 -3.185,0.992 -1.2613,0.1988 -1.957,-0.4964 -2.5218,-1.4552 z m -286.6475,-21.8929 0.4647,-1.3562 4.0809,-3.0094 0.8959,-1.7529 1.5258,-1.1575 3.4169,-3.2737 1.8578,-1.9517 1.5599,-2.4139 -2.0571,0.5621 -1.2605,0.0989 -1.56,-0.0989 -6.1039,-0.8598 -0.3987,0.0989 -2.0563,1.0586 -4.2803,1.0585 -5.9054,3.505 -2.1564,0.7608 -1.4599,1.654 -5.5408,4.1668 -1.0611,1.9508 -2.4217,2.315 -0.6974,1.7529 -2.5209,1.5542 -0.9627,2.8771 -1.8578,2.547 -0.1985,1.1575 0.0992,0.7601 0.0993,2.7116 0.5973,0.7941 0.2986,0.1988 1.062,0.1646 4.0809,-1.3554 9.7202,-5.4241 1.3606,-1.5542 8.8251,-5.4233 1.6584,-1.4552 z m -146.4091,-7.177 0.5973,-2.1163 0.9619,-0.8931 0.7633,-1.9175 1.3931,-3.0102 0.664,-2.0497 1.4599,-1.1575 0.8625,-2.5138 3.417,-6.1176 0.5639,-2.6127 0.7966,-1.8195 -1.6592,-1.4552 -13.1045,-9.127 -0.9952,-1.0585 -0.3654,-1.8518 0.2652,-1.6207 1.2614,-2.0506 1.8577,-1.3554 4.1803,-2.2161 3.8815,-2.5129 3.019,-1.5541 2.1564,-0.3975 11.2476,-6.3821 2.4551,-0.8931 3.8816,-2.7116 0.4638,-0.6619 1.2947,-3.8692 0.7624,-1.4552 0.8626,-0.7933 2.2565,-0.9596 0.564,-0.8931 -1.2614,-1.5209 0.5973,-2.3482 0.6641,-2.7117 1.7585,-3.2738 0.1985,-2.0506 0.7633,-4.3655 -1.8244,-8.7969 0.9618,-2.4473 1.8578,-1.7196 1.1612,-0.3966 2.2232,0.3966 3.9808,0.6619 0.9952,0.3967 0.9627,1.1575 1.6584,2.9104 1.9245,2.1162 0.9952,1.8519 0.564,4.2666 -0.4647,3.9681 -0.3979,0.6944 -1.5591,1.8194 -1.5592,2.9096 -1.0619,0.9596 -0.3979,0.5953 -0.1001,0.2977 0.1993,3.1083 -1.3606,1.9184 v 0.2977 h 1.9579 l 1.3598,-1.2573 2.9864,-0.7933 5.7394,-3.1748 2.2557,-0.7941 2.8204,-2.315 3.6822,-1.2565 1.3606,-0.7933 2.2232,-0.6619 1.6584,-1.2565 3.019,-1.9508 2.0571,-0.2652 2.0238,0.0665 1.2605,-2.0173 0.9627,-0.6944 1.4598,0.099 2.0563,-0.8598 1.2614,0.0989 2.621,-2.315 2.1565,-0.3966 2.5209,-1.5542 3.7823,-0.5954 2.4217,-1.8185 3.4178,-1.1575 2.3224,-1.8519 2.2223,-0.5954 2.0572,-0.8598 1.3606,0.099 4.4788,-2.1496 1.5592,0.3967 2.2223,0.5954 0.3987,0.2977 0.2653,0.2644 0.9952,3.307 0.0993,1.654 -0.7958,3.4725 -2.6211,3.1083 -4.3796,2.8114 -2.9197,1.3554 -4.4455,0.7609 -6.9006,3.406 -9.721,2.5137 -3.7155,2.1496 -3.4837,0.9587 -5.3414,2.3151 -1.8578,0.1987 -1.6592,0.6943 -3.3836,0.9588 -3.9816,2.0173 -2.7204,0.4965 -4.8767,2.8106 -1.9246,0.5953 -2.6544,1.422 -2.0238,0.1987 -3.5829,2.2485 -2.2557,-0.1979 -2.1239,2.0173 -1.3597,0.2977 -1.9579,0.5954 -0.2987,1.2565 -1.3597,1.8518 -0.6641,2.315 -1.957,1.8186 -0.6632,2.2493 -1.4599,2.414 -1.2613,2.8106 -1.0945,1.6539 -1.1612,2.7117 -0.4646,1.2564 -1.1946,0.662 0.1994,2.9103 -3.3836,5.3568 -0.7966,2.2161 1.8577,1.1575 1.7585,1.0586 3.185,1.752 2.4551,0.9596 0.0993,1.7529 4.1802,1.7529 h 1.8252 l 2.1565,2.0173 3.2842,0.7933 2.2566,1.3563 3.0849,1.5541 1.6592,1.4552 3.5162,1.0577 2.2231,2.1171 2.6211,0.3967 1.7585,0.4956 0.8626,0.5629 1.2605,1.7521 2.0571,0.9596 5.1421,2.3474 0.6965,1.2573 1.9245,0.8598 2.4551,1.0577 2.3224,2.1504 h 2.3225 l 5.7393,3.4717 3.019,0.9596 1.4599,1.5542 5.4415,2.9103 1.4599,2.1496 1.1612,3.8691 -0.1001,0.4965 -1.1612,2.315 -0.896,1.5541 -2.2223,1.0578 -3.8816,1.3562 -1.4598,0.7609 -2.1565,-0.3642 -1.9245,-1.1908 -1.0619,-1.3554 -0.5973,-1.7197 -1.0611,-0.992 -0.5973,1.091 -2.5218,-0.7933 -5.3414,-4.63 -5.2414,-3.1092 -5.5408,-4.3647 -6.8012,-3.87 -2.7204,-2.3142 -4.6782,-2.4472 -3.3836,-2.9104 -1.8586,-1.3563 -1.0611,-1.6206 -2.4551,-1.7521 -2.7203,-2.6127 -2.3224,-0.7941 -7.2001,-5.3244 -5.8386,-3.3727 -2.1239,-1.3563 -0.0992,2.8107 -0.9619,1.9183 -1.4598,-0.3966 -0.6966,1.9508 -0.3654,3.307 -1.1937,3.1748 -0.5648,2.5471 -0.6966,1.2564 -0.5639,0.5621 -1.2605,0.4965 -0.1993,1.5541 -1.8578,3.3727 -5.0428,14.8165 -1.957,5.1588 0.1985,1.4552 -0.5639,3.7703 0.9618,2.3141 -0.8951,2.3483 -0.9627,2.0173 -1.0611,0.7941 -1.1612,0.2645 -1.2613,-0.2645 -1.4599,-1.3562 -2.1564,-0.4956 -1.8244,-1.2573 -1.8578,-2.414 -0.498,-1.8518 -0.0993,-1.7529 -1.2605,-3.6704 -0.1001,-1.1575 0.1001,-0.8931 0.7959,-3.7702 0.5639,-2.9104 1.4599,-2.6127 3.4177,-9.8879 z" style="fill:#1b1918;fill-rule:evenodd" id="path833"/>
    <path d="m 149.4494,337.3626 c 0.7338,-0.6827 2.2789,-7.4191 6.442,-9.2663 6.057,-2.6843 6.7593,1.7115 9.8544,3.0724 1.6735,0.7365 0.2592,-0.9751 -0.0387,-1.7397 -0.4069,-1.0451 1.7509,0.5846 2.9207,-0.0187 1.0438,-0.5378 1.3465,0.2385 2.4097,-0.1286 2.1482,-0.7435 2.2208,2.1231 2.3346,-2.3429 0.0557,-2.1581 1.3175,-8.4269 0.1502,-9.6685 -1.6517,-1.756 1.6299,-1.0242 -1.4797,-2.6025 -3.0879,-1.5666 -3.5335,-3.2548 -2.8069,-6.3178 1.1213,-4.7186 5.4297,-5.3101 9.9028,-6.4091 3.1193,-0.7646 7.8588,-5.1558 4.8727,-8.4784 -1.022,-1.1387 0.5086,-1.0826 0.6273,-2.1605 0.3003,-2.7124 0.5812,-3.1894 -0.7217,-5.4948 -0.8452,-1.4988 1.4749,-1.4918 1.5935,-2.7662 0.264,-2.8432 0.3754,-6.6966 -0.1138,-9.3762 -0.4117,-2.2541 0.9978,-5.0903 -0.3608,-6.8487 -5.0907,-6.5961 -0.6225,-8.6163 5.3691,-12.105 1.6469,-0.9586 -0.7822,-2.3008 0.017,-3.1496 1.1407,-1.2112 0.1598,-4.7278 -0.1502,-5.9694 -0.23,-0.926 0.9518,-1.0265 1.0995,-1.8332 0.3173,-1.7092 0.1962,-4.5642 -0.2082,-6.0981 -0.4384,-1.6671 1.0462,-3.7107 -0.1914,-4.9991 -3.6763,-3.823 -1.1479,-3.6757 2.5066,-5.7848 2.2935,-1.3234 2.6592,-6.7995 1.3272,-8.6444 -1.0051,-1.3912 3.1556,-4.936 4.553,-5.4948 0.4578,-0.1824 -3.0708,-2.7685 -0.4771,-4.6507 3.2138,-2.3336 4.2891,3.3343 2.107,4.4496 -0.1647,0.0842 2.4727,1.417 3.301,2.6001 0.8524,1.2206 1.9229,1.8916 0.7386,3.5167 -2.9062,3.989 3.1581,8.3685 6.2798,10.7301 1.6372,1.2393 -1.8672,2.4575 -2.1821,3.7178 -0.4262,1.7045 -1.4458,10.2835 0.6443,11.3731 0.7701,0.3998 -1.8285,4.7372 0.3051,6.9585 0.2688,0.2806 -0.1598,0.7413 -0.3996,1.099 -2.8045,4.1971 13.5574,3.9048 5.1585,13.4588 -1.9447,2.212 0.1962,5.8245 -1.0801,8.0412 -0.3682,0.6383 -0.4771,9.6615 0.5691,9.907 1.9907,0.47 1.8164,0.477 0.511,2.0881 -0.5643,0.6967 -0.5473,4.2929 0.8936,5.6397 1.3054,1.2206 -2.5259,0.8722 1.1746,3.187 2.7609,1.728 1.2739,4.1597 3.5093,6.5377 2.1481,2.2845 4.817,-0.1894 8.0235,2.7661 1.8284,1.6859 1.734,7.2976 3.9839,6.4442 0.6345,-0.2409 2.1772,-2.0226 1.9907,-0.0538 -0.1162,1.2182 5.3401,-1.1574 6.5244,1.3375 0.4044,0.8511 1.6008,0.484 1.0995,1.922 -0.4093,1.1808 1.7825,1.5222 1.177,-0.0538 -1.2351,-3.2104 6.4445,0.3835 4.7807,3.1309 -0.4384,0.7248 1.1915,-1.3562 1.2327,-1.3562 0.9639,-0.0514 4.0348,-2.3709 4.1171,-1.8121 0.2713,1.8285 0.6369,0.2549 1.6105,1.8495 0.4287,0.7038 1.0099,-0.346 1.6687,1.0803 0.5667,1.2299 0.6853,-0.6664 1.3852,1.8308 0.4118,1.4661 20.7502,-1.272 24.1287,-3.6616 2.4945,-1.7654 -1.2884,-6.014 -0.4941,-6.7014 1.4459,-1.2509 1.7389,-6.1542 0.5135,-6.9048 -2.3323,-1.4286 0.2252,-1.4473 0.4335,-2.6375 0.5715,-3.2501 0.4698,-7.5571 -0.2471,-10.695 -0.942,-4.127 -5.1827,-2.1816 1.2909,-5.9695 2.2256,-1.3024 5.931,-8.3825 3.8701,-10.5664 -0.6709,-0.7108 -1.7801,-0.9283 -1.1189,-1.7771 2.4024,-3.0841 5.7324,-8.9858 9.634,-3.6429 1.2327,1.6882 3.3324,2.4341 1.4046,4.943 -2.4872,3.2361 1.8649,9.6381 5.2167,11.4082 4.1437,2.1885 1.4385,1.5245 0.3027,4.5431 -0.4747,1.2627 -0.8888,11.5368 0.0194,12.1962 2.4387,1.7724 0.1235,0.8581 -0.3028,2.5814 -0.2857,1.1574 -0.385,5.4948 1.3659,6.2828 1.2134,0.5448 -3.2791,2.9368 0.93,2.233 27.6088,-4.6227 55.3751,-9.8135 82.6618,-16.426 1.2036,-0.2899 1.6662,-5.095 0.6999,-6.2267 -1.5427,-1.8074 0.2736,-1.0241 0.6635,-2.2704 0.5716,-1.8238 0.4529,-7.2695 -0.9469,-8.6818 -2.8238,-2.8503 2.153,-2.0787 -1.3465,-5.9882 -2.2354,-2.4972 0.3536,-1.7326 1.1189,-3.9189 0.9711,-2.7731 1.6686,-3.6242 2.2184,-6.2617 0.5328,-2.5557 -2.1942,-3.4162 -0.4166,-5.0366 1.3126,-1.1971 1.5742,-1.0709 1.7825,-2.6562 1.5935,-12.0746 2.5816,-24.2404 4.0396,-36.35 0.0411,-0.3437 0.23,-0.5097 0.5691,-0.3133 0.7338,0.4279 3.8798,33.3898 4.4392,36.7381 0.31,1.8613 3.5141,2.53 2.3516,4.0101 -2.3201,2.9532 0.4214,5.7731 2.3153,8.3498 2.5356,3.4489 -0.3536,4.0077 -1.1213,7.1245 -0.6878,2.7942 2.9352,1.1247 -0.0751,4.431 -0.7387,0.809 -1.9084,9.4791 2.4363,8.7753 2.3395,-0.3764 5.437,-0.1029 8.7138,-0.6991 11.1912,-2.0366 17.1852,-2.6656 17.9481,-2.8105 3.4075,-0.6501 9.4669,0.4138 -0.5255,8.6958 -4.0735,3.3787 49.9768,-6.3132 43.9948,-0.6617 -7.3575,6.9515 -23.4214,5.0716 -25.7536,8.8057 -1.9327,3.0912 31.0284,-3.8043 30.2219,1.9127 -0.9881,7.024 -80.9398,6.706 -39.6186,14.0083 41.2267,7.2859 -13.9134,7.4379 -12.4506,11.6981 3.6618,10.653 100.2417,23.4664 59.9377,34.1615 -2.4145,0.6406 -26.0588,-10.7535 -30.515,-4.3702 -1.6396,2.3523 2.4533,5.869 36.2329,22.9053 4.0082,2.0202 26.3616,18.832 30.4618,21.6215 2.291,1.5596 2.4145,7.9593 -2.7537,4.8027 -11.6853,-7.1316 -23.5667,-9.9819 -29.8829,-10.3045 -7.6771,-0.3905 -3.6811,5.9437 4.9672,10.3723 60.5723,31.0259 47.9425,55.2709 33.7845,47.2181 -70.5187,-40.1052 -189.2826,-77.933 -274.2281,-59.4283 -45.2034,9.8463 -10.9709,11.303 19.0646,8.5018 22.3437,-2.0834 32.9804,10.0123 -18.0596,16.2132 -60.0758,7.3 -76.7985,28.531 -80.8163,24.2825 -26.7175,-28.2551 40.0619,-40.9072 16.9673,-47.653 -2.7584,-0.8067 -7.7304,-1.2556 -10.6923,-0.2362 -3.9137,1.3492 -21.8643,-0.4583 -23.1236,-1.3772 -3.3857,-2.4762 -0.9082,-0.2011 -4.1704,-1.1995 -5.144,-1.5736 2.5114,-4.0778 4.2915,-4.1948 6.6866,-0.4466 12.4264,1.3773 20.8882,-2.9157 2.1312,-1.0826 -10.3,-2.6118 -11.7119,-3.3413 -19.5974,-10.1456 -22.6828,-4.1644 -32.6293,-9.9258 -1.4676,-0.8511 -0.2058,0.0701 -0.9808,-1.0499 -1.3708,-1.9758 -10.0675,-0.2244 -13.3467,-1.611 -0.6878,-0.2923 -9.9779,-1.2673 -8.8736,-2.3569 6.2944,-6.1987 7.7596,-4.3304 13.7899,-7.0357 4.8364,-2.1699 19.3722,-6.526 19.578,-6.6803 3.7708,-2.8223 2.2354,-1.6882 -0.075,-1.8145 -5.0568,-0.2806 -15.0807,2.6141 -16.7348,-1.6672 -0.9058,-2.3499 -5.3644,0.5028 0.4262,-3.2688 4.1002,-2.6679 0.5812,-2.1839 6.0715,-4.7138 6.0304,-2.7779 6.3161,-2.6913 12.5426,-3.8932 0.0509,-0.009 0.126,0.005 0.1672,-0.0351 z m 142.7375,-73.7335 c -2.0828,-0.1403 -2.3904,-1.9103 -1.4604,-3.4606 2.2111,-3.6897 5.7155,3.7482 1.4604,3.4606 z m 103.2593,-51.4947 c -1.3707,-0.0187 -1.8139,-2.0412 -1.252,-2.9321 2.0343,-3.2221 5.219,2.9882 1.252,2.9321 z M 199.7943,201.7317 c 0.1162,-0.1169 0.385,-0.1193 0.5303,0 0.4311,0.3554 -0.0387,0.7295 0.2834,1.4099 0.2567,0.5402 1.5257,-0.0888 1.2133,1.0616 -0.402,1.4801 -0.5546,-0.954 -1.1358,2.1605 -0.3706,1.9922 -0.9978,-0.152 -1.177,-1.9594 -0.0291,-0.2993 -2.417,-1.0616 -0.947,-1.4825 1.5427,-0.4396 0.2471,-0.1894 1.2328,-1.1901 z" style="fill:#004696;fill-rule:evenodd" id="path835"/>
    <path d="m 125.8384,338.1495 c -0.671,-0.5738 -1.023,-1.367 -0.9093,-2.4233 0.3117,-2.7339 0.7443,0.8736 2.8857,-2.5402 1.7673,-2.8216 -6.2077,0.8663 -4.7521,-0.2631 2.6437,-2.0432 12.8958,-5.0037 22.7372,-8.0629 -1.1513,1.4839 -2.013,3.0336 -2.706,4.47 -3.399,0.7054 -5.0124,1.2939 -10.1824,3.6879 -4.6017,2.1199 -6.0684,3.5855 -7.0731,5.1316 z m 181.0689,-63.9404 c 0.004,0 0.004,-0.004 0.007,-0.004 h -0.011 c 0,0 0.004,0 0.004,0.004 z m 0.007,-0.004 c 0.004,0 0.011,0 0.0146,0 z m 0.0146,0 c 0.004,-0.004 0.007,-0.004 0.011,0 z m 124.4111,-1.272 c 0.0294,-0.004 0.055,-0.0146 0.088,-0.0219 z M 218.7599,236.2082 h 0.0367 c 0.0146,-0.0182 0.022,-0.0329 0.0366,-0.0511 -0.0256,0.0146 -0.0513,0.0365 -0.0733,0.0511 -0.341,0.4459 -0.671,0.8297 -1.0047,1.1696 -0.0403,0.5081 -0.0623,1.0709 -0.0733,1.6338 2.3577,2.5512 1.8407,5.3363 1.0157,8.7208 0.4253,0.7127 0.7223,1.3889 0.913,2.0358 0.7333,0.4679 1.4593,0.9905 2.189,1.6302 h -0.033 c 3.795,3.3187 6.2114,7.3063 4.785,12.4671 1.8774,2.1126 7.6121,-0.5226 5.3828,1.897 -3.9711,4.2946 3.85,-0.223 -5.2581,5.3107 -1.0047,0.614 -2.299,0.7675 -3.3294,0.826 0.055,1.6009 -0.077,3.242 -0.8323,5.0841 2.8784,1.4912 3.6227,3.9035 2.2074,9.799 v -0.0366 c -0.0807,0.34 -0.1577,0.6616 -0.2494,0.9467 1.254,1.6118 1.87,3.0154 2.024,4.2581 0.2824,0.5482 0.4987,1.1038 0.6784,1.663 2.1963,0.3399 4.6237,1.2354 7.458,3.8414 0.011,0.0109 0.0257,0.0255 0.0367,0.0365 l -0.0367,-0.0365 c 0.0147,0.0109 0.022,0.0255 0.0367,0.0365 1.2137,1.1258 2.0387,2.3063 2.6474,3.4832 0.5536,0.1426 1.078,0.3107 1.5693,0.519 2.3394,-0.0329 4.7997,0.3655 6.9594,2.0651 0.4107,0.0694 0.8103,0.1535 1.2137,0.2668 l -0.0733,-0.0365 c 0.9753,0.2668 2.0423,0.709 3.0616,1.2573 0.6087,-0.2157 1.2651,-0.3838 2.0094,-0.4788 h 0.11 c 3.894,-0.4313 6.8677,0.4861 8.6131,3.0738 0.198,0.117 0.3996,0.2412 0.594,0.3874 1.6647,0.6031 3.201,2.0578 4.477,5.1316 0.9827,-0.3837 3.828,-1.7872 6.4204,-3.1579 -0.484,-1.7324 -0.5353,-3.421 0.3923,-5.2302 -2.002,-3.0373 -1.3053,-6.1916 0.7737,-9.5615 v 0.0366 c 0.1137,-0.1865 0.2384,-0.3509 0.352,-0.5154 0.0147,-0.4276 0,-0.8772 -0.011,-1.3231 v -0.0366 c -0.0183,-0.7967 -0.0623,-1.546 -0.1466,-2.2222 -0.4547,-0.4605 -0.9204,-1.0344 -1.4521,-1.9773 l 0.11,0.1425 c -3.9857,-6.78 -2.9407,-9.4335 5.5038,-14.5249 -2.1891,-2.8326 -2.3834,-6.1185 1.43,-10.8992 l -0.0734,0.1097 c 0.253,-0.3253 0.4987,-0.6616 0.7554,-1.0088 l -0.0367,0.0329 c 0.374,-0.5117 0.7737,-1.0271 1.188,-1.5644 0.004,-0.1279 0.004,-0.2595 0.011,-0.3874 v -0.0365 c 0.1247,-1.8312 0.759,-3.7281 1.793,-5.4825 l 0.033,-0.0695 c 4.0517,-6.78 9.6251,-6.9444 14.6192,-3.9656 l -0.033,-0.0329 c 1.98,1.1732 3.575,3.0153 4.554,5 l 0.0367,0.0731 c 0.5683,1.1623 0.9826,2.4744 1.177,3.7829 0.055,0.0731 0.11,0.1426 0.165,0.2193 0.033,0.0366 0.033,0.007 0.11,0.0877 l -0.0367,-0.0365 c 0.011,0.0109 0.022,0.0256 0.0367,0.0365 9.0237,9.1558 -1.276,14.0279 3.3843,13.56 8.5801,4.5249 9.5518,7.639 5.9474,14.2947 l 0.0734,-0.1097 c -0.4657,0.8846 -0.9204,1.4986 -1.4191,2.0578 0.0184,0.7127 0.077,2.1893 0.0807,3.8999 0,0.0109 -0.022,0.0109 -0.0587,-0.011 1.6501,1.7142 2.4201,3.3187 2.4531,4.9891 10.1017,-1.7508 20.3135,-3.6185 30.6609,-5.6433 11.2824,-2.204 22.3889,-4.5359 33.1983,-7.0359 -0.209,-2.0468 0.5903,-3.8012 2.0863,-5.5007 -2.607,-3.1616 -3.036,-5.5556 -2.486,-7.6682 -3.2193,-5.0512 -1.4703,-8.2128 2.442,-11.7179 0.1577,-0.3765 0.308,-0.7602 0.4584,-1.1184 0.0587,-0.1389 0.1173,-0.2595 0.1723,-0.3911 -1.672,-3.3516 -2.3797,-6.3926 2.09,-10.8882 0.2347,-1.8458 0.4474,-3.7062 0.66,-5.5848 -0.2786,0.1169 -0.506,0.2851 -0.6746,0.5409 -2.8857,4.4372 -4.6274,2.9679 -2.7171,-2.1564 0.396,-1.0783 1.8737,-1.9555 3.8757,-2.7669 0.2934,-2.7558 0.5867,-5.5446 0.8727,-8.3187 0.1027,-0.9722 0.1907,-1.9299 0.2897,-2.8984 -0.1173,0.0621 -0.2347,0.1242 -0.363,0.1973 -0.0917,0.5483 -9.7754,-1.4948 -9.0348,-3.9108 0.2567,-0.7931 -1.331,-0.2339 -0.3116,-1.886 2.288,-3.6257 4.0333,1.5169 6.237,-1.3121 0.7297,-0.9174 2.409,-1.4803 4.4221,-1.8969 0.1393,-1.2647 0.286,-2.4708 0.418,-3.5892 -0.1944,-0.3546 -0.3777,-0.7237 -0.5317,-1.0892 -0.1797,-0.4277 -0.3447,-0.8553 -0.473,-1.2939 -2.453,-0.3801 -4.6017,-0.7493 -5.5954,-1.1586 -3.553,-1.4913 -10.0394,-0.128 -15.3818,1.5716 -6.9411,2.2223 -13.2588,1.3706 -0.3007,-2.4159 8.0484,-2.3721 -0.2456,-3.3517 2.1377,-7.3648 1.2724,-2.1345 -4.092,-0.2376 -2.7757,-1.6082 2.6437,-2.818 -5.9804,-0.4642 -5.8337,-0.7712 2.9077,-5.4569 -11.1357,0.9722 -8.9101,-2.6864 1.6611,-2.7267 3.6704,-1.9628 5.0931,-2.2186 0,0 -9.7974,-4.7479 -1.1807,-9.2618 3.5714,-1.8713 -4.972,-0.6908 -5.4524,-2.2332 -0.1356,-0.4386 -10.0467,1.1514 -11.6197,0.1901 -3.0287,-1.8348 5.2287,-3.3918 2.3246,-7.2369 -2.1083,-2.7814 -5.456,-1.6338 -9.0897,-3.6769 -1.8444,-1.0417 -21.1165,2.31 -19.3418,-1.4876 0.3263,-0.6908 2.4053,-1.8969 1.2246,-1.7982 -3.0067,0.2704 -4.4403,6.3304 -3.3403,2.4232 1.2283,-4.4042 21.1018,-14.7223 23.0635,-14.163 5.8301,1.6922 7.4141,-11.0052 9.2694,-10.8334 4.4111,0.3984 1.826,-1.9993 3.8501,-4.1996 1.507,-1.6301 -13.2845,-0.5227 -15.0408,-0.9028 -5.4121,-1.1988 -13.2918,1.0855 -20.1852,2.9788 -5.2654,1.4364 -10.9231,-1.8677 -16.8155,-0.1389 -10.6738,3.1031 0.451,-9.2215 -0.9753,-9.0826 -5.8631,0.5592 -7.0438,3.1615 -12.7051,7.204 -1.1551,0.7931 -5.1738,3.834 -4.6641,4.2946 3.4174,3.1725 -2.3247,4.8611 -4.1324,4.6199 -1.2576,-0.1608 -6.2627,2.2551 -2.651,5.1974 3.1314,2.5621 5.2581,-1.9847 -0.715,5.4167 -1.782,2.2076 23.7016,0.9137 20.4639,3.962 -5.6028,5.3107 -8.9798,0.6615 -14.2048,2.69 -1.7014,0.6726 -18.7735,-2.7266 -24.3176,5.5556 -5.4414,8.1543 11.2605,4.9196 12.9545,5.9175 2.1853,1.2573 -4.6861,3.2383 3.1643,2.8435 1.3567,-0.095 10.5125,2.4745 7.0254,2.723 -5.06,0.3655 -11.5867,2.087 -17.4718,3.2164 -1.4887,0.2924 -28.2776,5.7895 -25.9639,13.0483 0.8617,2.7376 17.0758,-0.2303 7.0291,2.4598 -2.1634,0.5958 -7.4398,7.2405 -7.5681,8.9657 -0.5867,6.1111 11.7848,3.326 14.6961,4.7442 7.0841,3.4685 22.4109,-7.5403 26.3599,0.5044 2.4457,4.978 -11.1394,4.671 -16.2141,8.7317 -0.3667,0.318 -8.5508,5.4642 -8.7341,4.068 -0.231,-1.9408 -1.3457,-2.0285 -1.1037,-0.5409 0.165,1.0124 -15.4551,2.8253 -17.1014,2.3428 -0.6381,-0.1973 -3.6887,-0.4824 -5.7128,0.8663 z m 189.9533,8.6843 c 2.5044,0.3107 4.3817,0.6359 4.7484,0.9064 3.069,2.2588 0.8213,0.1755 3.7914,1.1002 4.697,1.4291 -2.2917,3.7098 -3.9087,3.8121 -0.7224,0.0512 -1.441,0.0768 -2.145,0.0804 -0.6014,-0.6725 -1.2944,-1.3267 -2.0424,-1.9737 -0.121,-1.0672 -0.2787,-2.3976 -0.4437,-3.9254 z m 3.7951,14.8136 c 3.3367,1.7727 7.183,4.7662 9.2877,8.6587 1.8187,2.0834 23.0452,-1.7105 26.0262,-0.4495 0.6307,0.2777 9.1191,1.1586 8.0961,2.16 -5.4744,5.4094 -6.9521,4.0973 -11.8581,6.1075 -1.2063,-1.2317 -2.662,-2.1199 -4.2754,-2.712 -2.684,-0.9868 -6.0207,-1.0014 -8.4994,-0.5226 l 0.055,-0.0147 c -0.363,0.0658 -0.4363,0.0731 -0.4986,0.0805 -0.007,0 -0.0257,0 -0.033,0 h 0.033 c -2.1451,0.2777 -7.3224,0.9612 -15.3342,2.3794 0.4694,-1.696 0.209,-3.0556 -0.5243,-4.2508 1.3677,-2.9642 1.3823,-6.1733 -2.475,-11.4365 z" style="fill:#0091cc;fill-rule:evenodd" id="path837"/>
    <path d="m 63.6359,592.0898 c 0,3.1749 -1.3742,5.5493 -4.1317,7.1064 -2.7311,1.5655 -6.1585,2.3485 -10.2903,2.3485 -2.6703,0 -4.9665,-0.1738 -6.9061,-0.5304 -1.9396,-0.3741 -3.6362,-0.8005 -5.0971,-1.2787 -1.1396,-0.374 -1.8096,-0.5568 -2.0093,-0.5568 -0.2262,0 -0.6002,0.2261 -1.1223,0.6868 l -0.6086,-0.1997 3.9315,-9.4814 0.4781,0.3049 c -0.0866,0.3736 -0.1305,0.7217 -0.1305,1.0435 0,0.8612 1.2005,1.7399 3.5923,2.627 2.3924,0.8787 4.9148,1.322 7.5677,1.322 2.6618,0 4.5581,-0.3218 5.6798,-0.9654 1.1397,-0.6525 1.705,-1.5047 1.705,-2.5746 0,-0.5131 -0.3133,-0.8787 -0.9394,-1.0958 -0.6176,-0.2436 -2.1398,-0.4872 -4.5925,-0.7397 l -4.2538,-0.409 c -3.9399,-0.3735 -6.8712,-1.1481 -8.8108,-2.3221 -1.9227,-1.192 -2.8796,-2.8008 -2.8796,-4.8361 0,-2.7226 1.2004,-4.8799 3.5928,-6.4803 2.4093,-1.5919 5.4622,-2.3924 9.1501,-2.3924 3.0534,0 6.028,0.3657 8.916,1.0964 2.8875,0.7307 4.5402,1.0958 4.9491,1.0958 0.2352,0 0.6526,-0.261 1.2438,-0.7915 l 0.6092,0.2003 -3.671,7.2453 -0.6087,-0.3043 v -0.5305 c 0,-0.7307 -1.2612,-1.3917 -3.7925,-1.966 -2.5309,-0.5828 -4.8276,-0.8697 -6.8803,-0.8697 -4.201,0 -6.2975,0.8089 -6.2975,2.4178 0,0.5917 0.4349,1.0614 1.2961,1.4007 0.8697,0.3392 2.2962,0.6086 4.2881,0.8179 l 5.3755,0.504 c 3.6272,0.3656 6.3149,1.2004 8.0458,2.5314 1.7309,1.3045 2.6011,3.1664 2.6011,5.5757 z M 49.0142,572.0313 Z m 0.0956,29.235 z M 93.1055,585.0352 H 92.444 c 0,-0.8348 -0.3999,-1.2522 -1.1999,-1.2522 h -7.1069 v 15.596 c 0,0.7476 0.4787,1.1566 1.4266,1.2263 v 0.661 h -9.8639 v -0.661 c 0.9484,-0.0348 1.4266,-0.4438 1.4266,-1.2263 v -15.596 h -7.1064 c -0.8,0 -1.2005,0.4174 -1.2005,1.2522 h -0.6609 v -7.8546 h 0.6609 c 0,0.8354 0.4005,1.2528 1.2005,1.2528 h 21.1976 c 0.8179,0 1.2263,-0.4174 1.2263,-1.2528 h 0.6615 z M 80.6406,601.2663 Z M 97.0804,589.95 c 0,-3.7667 1.3393,-6.689 4.0271,-8.7681 2.6962,-2.0701 6.019,-3.1052 9.968,-3.1052 3.923,0 7.2369,1.07 9.9336,3.2098 2.7052,2.1224 4.0535,4.9755 4.0535,8.5588 0,3.6272 -1.3309,6.4978 -4.0012,8.6202 -2.6534,2.105 -5.9498,3.1574 -9.8903,3.1574 -4.2617,0 -7.6802,-1.1048 -10.2464,-3.3138 -2.5657,-2.227 -3.8443,-5.0104 -3.8443,-8.3591 z m 6.7756,-0.1047 c 0,1.9571 0.6958,3.4967 2.0875,4.6189 1.4007,1.1048 3.1226,1.6527 5.1758,1.6527 2.0263,0 3.7228,-0.5394 5.1055,-1.6093 1.3743,-1.07 2.0617,-2.6355 2.0617,-4.7056 0,-1.9047 -0.7133,-3.4184 -2.1399,-4.5407 -1.4091,-1.1217 -3.0877,-1.6786 -5.0273,-1.6786 -2.0532,0 -3.7751,0.5654 -5.1758,1.705 -1.3917,1.1392 -2.0875,2.6614 -2.0875,4.5576 z m 7.2195,-14.2127 z m 43.3173,26.8864 h -0.661 c 0,-0.8353 -0.4349,-1.2527 -1.2961,-1.2527 h -22.3806 v -0.661 c 0.9479,-0.0697 1.4265,-0.4787 1.4265,-1.2263 v -19.0583 c 0,-0.7302 -0.4786,-1.1392 -1.4265,-1.2264 v -0.6609 h 9.8639 v 0.6609 c -0.9484,0.0872 -1.4266,0.4962 -1.4266,1.2264 v 15.596 h 13.9433 c 0.8612,0 1.2961,-0.4174 1.2961,-1.2522 h 0.661 z m -19.4927,-26.8864 z m 7.5153,25.6337 z m -15.4221,-23.1896 z m 42.7165,23.1896 h -9.8633 v -0.661 c 0.9478,0 1.4265,-0.4089 1.4265,-1.2263 v -19.0583 c 0,-0.7651 -0.4787,-1.174 -1.4265,-1.2264 v -0.6609 h 9.8633 v 0.6609 c -0.9479,0.0524 -1.426,0.4613 -1.426,1.2264 v 19.0583 c 0,0.8174 0.4781,1.2263 1.426,1.2263 z m -4.9227,0 z m 38.9679,-2.5747 -0.661,0.3567 c -0.3477,-0.3916 -0.6002,-0.5828 -0.7656,-0.5828 -0.0692,0 -0.7043,0.2784 -1.9132,0.8438 -1.4091,0.6435 -2.9487,1.1914 -4.6104,1.6527 -1.6527,0.4433 -3.4095,0.6609 -5.2799,0.6609 -4.7404,0 -8.4547,-1.0524 -11.1335,-3.1574 -2.6877,-2.105 -4.0271,-4.9491 -4.0271,-8.5155 0,-3.8882 1.4265,-6.837 4.2791,-8.8373 2.8706,-2.0268 6.4719,-3.036 10.8033,-3.036 1.9222,0 4.062,0.2959 6.4196,0.8871 2.366,0.5828 3.6446,0.8702 3.8533,0.8702 0.2346,0 0.4781,-0.1479 0.7391,-0.4353 l 0.661,0.2261 -3.7228,7.6284 -0.7656,-0.3566 c 0.148,-0.3043 0.2262,-0.5654 0.2262,-0.7915 0,-0.5563 -0.8259,-1.1217 -2.4701,-1.6786 -1.6437,-0.5653 -3.2357,-0.8438 -4.7668,-0.8438 -2.4093,0 -4.4271,0.5654 -6.0624,1.705 -1.6094,1.1392 -2.4183,2.6614 -2.4183,4.5576 0,1.9571 0.8005,3.4967 2.3919,4.6189 1.6183,1.1048 3.6795,1.6527 6.1934,1.6527 1.7224,0 3.3836,-0.3999 5.0014,-1.2004 1.6268,-0.8174 2.4442,-1.5571 2.4442,-2.218 0,-0.2521 0,-0.4956 0,-0.7133 l 0.5394,-0.3567 z m -13.2993,-23.059 z m 0,25.6337 z m 47.2921,0 h -8.6375 v -0.661 c 0.4348,0 0.6609,-0.1479 0.6609,-0.4348 0,-0.1828 -0.2171,-0.7133 -0.6435,-1.5835 l -0.9394,-1.957 v 0 h -12.186 v 0 l -1.2443,2.5746 c -0.2087,0.4439 -0.3043,0.7656 -0.3043,0.9659 0,0.2869 0.2525,0.4348 0.7571,0.4348 v 0.661 0 h -7.872 v -0.661 c 0.5479,0 0.9479,-0.3133 1.2263,-0.9394 0.2869,-0.6351 0.7043,-1.5222 1.2438,-2.6793 l 6.8802,-15.2653 c 0.5654,-1.1914 0.8438,-1.9047 0.8438,-2.1398 0,-0.3218 -0.2171,-0.4872 -0.6609,-0.4872 v -0.6609 0 h 10.9338 v 0.6609 c -0.4439,0 -0.661,0.1654 -0.661,0.4872 0,0.2351 0.2436,0.8263 0.7392,1.7832 l 6.7756,14.1953 c 0.4438,0.931 0.9394,2.0094 1.4789,3.2362 0.5479,1.2089 1.0789,1.8091 1.6093,1.8091 z m -11.2645,-8.385 v 0 l -4.3574,-8.916 v 0 l -4.4366,8.916 v 0 z m -4.2882,-17.2487 z m 7.9592,25.6337 z m -24.8771,-23.1896 z m 87.556,23.1896 h -11.9773 v -0.5828 c 0.6525,0 0.9743,-0.1738 0.9743,-0.513 0,-0.3049 -0.5136,-1.192 -1.5312,-2.6529 -1.7134,-2.4965 -3.6356,-5.3411 -5.767,-8.5335 v 0 l -4.9406,4.48 v 5.9931 c 0,0.7482 0.4961,1.1566 1.4788,1.2263 v 0.5828 0 h -10.7769 v -0.5828 c 0.9828,-0.0697 1.4784,-0.4781 1.4784,-1.2263 v -23.7026 c 0,-0.7307 -0.4956,-1.1397 -1.4784,-1.2268 v -0.5828 0 h 10.7769 v 0.5828 c -0.9827,0.0871 -1.4788,0.4961 -1.4788,1.2268 v 9.0719 0 h 0.3566 c 2.0532,-1.8873 4.8191,-4.4445 8.2899,-7.6717 1.2173,-1.1048 1.835,-1.7832 1.835,-2.0443 0,-0.3043 -0.2869,-0.4956 -0.8523,-0.5827 v -0.5828 h 13.2037 v 0.5828 c -0.6261,0.0523 -1.174,0.2435 -1.6263,0.5917 -0.4438,0.3392 -0.8697,0.6959 -1.2786,1.0699 l -8.9419,7.6718 v 0 l 10.5771,15.9003 c 0.3741,0.6177 0.9305,0.922 1.6786,0.922 z m -16.8921,0 z m 50.2325,0 h -8.6376 v -0.661 c 0.4348,0 0.661,-0.1479 0.661,-0.4348 0,-0.1828 -0.2172,-0.7133 -0.6436,-1.5835 l -0.9394,-1.957 v 0 h -12.186 v 0 l -1.2443,2.5746 c -0.2087,0.4439 -0.3043,0.7656 -0.3043,0.9659 0,0.2869 0.2525,0.4348 0.7571,0.4348 v 0.661 0 h -7.872 v -0.661 c 0.5479,0 0.9479,-0.3133 1.2264,-0.9394 0.2869,-0.6351 0.7043,-1.5222 1.2437,-2.6793 l 6.8803,-15.2653 c 0.5653,-1.1914 0.8438,-1.9047 0.8438,-2.1398 0,-0.3218 -0.2172,-0.4872 -0.661,-0.4872 v -0.6609 0 h 10.9338 v 0.6609 c -0.4438,0 -0.661,0.1654 -0.661,0.4872 0,0.2351 0.2436,0.8263 0.7392,1.7832 l 6.7756,14.1953 c 0.4438,0.931 0.9394,2.0094 1.4789,3.2362 0.5479,1.2089 1.0789,1.8091 1.6094,1.8091 z m -11.2646,-8.385 v 0 l -4.3573,-8.916 v 0 l -4.4367,8.916 v 0 z m -4.2881,-17.2487 z m 7.9591,25.6337 z m -24.8771,-23.1896 z m 61.3401,15.9527 c 0,2.357 -1.0266,4.2184 -3.0793,5.5842 -2.0617,1.3394 -4.7235,2.0093 -8.0025,2.0093 -2.479,0 -5.0188,-0.3133 -7.6194,-0.9478 -2.5837,-0.6441 -3.9495,-0.9659 -4.1059,-0.9659 -0.1828,0 -0.5912,0.2436 -1.2178,0.7392 l -0.539,-0.1564 2.1917,-7.0282 0.6609,0.3043 c 0,0.157 0,0.3482 0,0.5918 0,0.6435 1.1397,1.2696 3.4185,1.8788 2.2878,0.6003 4.6363,0.8961 7.0282,0.8961 2.9921,0 4.4884,-0.7656 4.4884,-2.2967 0,-0.539 -0.3043,-0.9653 -0.9135,-1.2697 -0.5997,-0.3043 -1.7917,-0.5917 -3.5749,-0.8438 l -3.5659,-0.4612 c -3.262,-0.4174 -5.5932,-1.1133 -6.9848,-2.0611 -1.3917,-0.9659 -2.0876,-2.3137 -2.0876,-4.0277 0,-2.2614 1.061,-4.1317 3.1834,-5.6275 2.1224,-1.5138 4.9496,-2.2704 8.4806,-2.2704 1.8181,0 3.9664,0.2177 6.4544,0.661 2.4965,0.4438 3.8274,0.661 3.9923,0.661 0.2959,0 0.6351,-0.2172 1.0266,-0.661 l 0.6609,0.3043 -3.0528,6.576 -0.7656,-0.3567 c 0.0698,-0.1997 0.1041,-0.3392 0.1041,-0.4084 0,-0.4264 -0.8522,-0.8702 -2.5483,-1.3484 -1.705,-0.4956 -3.2969,-0.7391 -4.7927,-0.7391 -3.9753,0 -5.9672,0.7476 -5.9672,2.2439 0,0.4871 0.3307,0.8961 0.9917,1.2179 0.661,0.3127 1.8265,0.5653 3.4966,0.765 l 3.1052,0.3567 c 3.4533,0.4263 5.8975,1.1571 7.3415,2.1921 1.4614,1.0351 2.1922,2.5314 2.1922,4.4884 z M 343.37,575.6326 Z m 0.1041,25.6337 z m 39.9331,-22.2243 -12.2034,16.8747 v 0 h 11.1076 c 0.8005,0 1.2005,-0.261 1.2005,-0.7915 v -0.4607 h 0.6609 v 7.8545 h -0.6609 v -0.3048 c 0,-0.6346 -0.4,-0.9479 -1.2005,-0.9479 h -22.1455 v -0.6351 L 372.474,583.783 v 0 h -9.8555 c -0.8348,0 -1.2522,0.252 -1.2522,0.765 v 0.4872 h -0.6615 v -7.8546 h 0.6615 v 0.5136 c 0,0.4956 0.4349,0.7392 1.2961,0.7392 h 20.7448 z m -11.3422,-3.4094 z m -14.5261,2.4441 z m 60.1481,1.0176 c -0.9479,0.0349 -1.4266,0.4439 -1.4266,1.2264 v 10.7251 c 0,7.0546 -4.0968,10.5771 -12.2816,10.5771 -8.1763,0 -12.2647,-3.4882 -12.2647,-10.4725 v -10.8297 c 0,-0.7477 -0.4782,-1.1566 -1.4266,-1.2264 v -0.6609 h 9.8639 v 0.6609 c -0.9484,0.0349 -1.4266,0.4439 -1.4266,1.2264 v 12.0301 c 0,1.1391 0.3825,2.0786 1.1481,2.8267 0.7831,0.7307 2.1573,1.0958 4.1233,1.0958 1.6696,0 2.9572,-0.3217 3.8792,-0.9653 0.9136,-0.6699 1.3743,-1.6786 1.3743,-3.0359 v -11.9514 c 0,-0.7477 -0.4782,-1.1566 -1.4266,-1.2264 v -0.6609 h 9.8639 z m -13.6908,-3.4617 z m 4.0097,25.6337 z m -21.4412,-23.1896 z m 63.7404,16.7442 c 0,4.2971 -3.1659,6.4454 -9.5067,6.4454 h -15.5961 v -0.661 c 0.5305,-0.0174 0.8872,-0.0956 1.0959,-0.2261 0.2176,-0.1395 0.3307,-0.4697 0.3307,-1.0002 v -19.0583 c 0,-0.4433 -0.0872,-0.7566 -0.2526,-0.9479 -0.1738,-0.1828 -0.5653,-0.2785 -1.174,-0.2785 v -0.6609 h 15.9786 c 3.1051,0 5.2709,0.4348 6.4977,1.296 1.2438,0.8697 1.8614,2.244 1.8614,4.1318 0,2.4875 -1.1655,4.2184 -3.4882,5.2016 2.8357,0.8349 4.2533,2.757 4.2533,5.7581 z m -7.1149,-9.577 c 0,-0.8348 -0.2784,-1.4435 -0.8438,-1.8176 -0.5568,-0.3915 -1.3742,-0.5827 -2.4441,-0.5827 h -6.2626 v 4.9232 h 6.0887 c 1.0351,0 1.8699,-0.1744 2.496,-0.5136 0.6441,-0.3392 0.9658,-1.0086 0.9658,-2.0093 z m 0.7656,8.8637 c 0,-0.9827 -0.2959,-1.696 -0.8876,-2.1398 -0.6002,-0.4608 -1.6702,-0.6869 -3.2093,-0.6869 h -6.2192 v 5.5752 h 5.6016 c 1.3743,0 2.5049,-0.1913 3.392,-0.5828 0.8787,-0.391 1.3225,-1.1132 1.3225,-2.1657 z" style="fill:#004696;fill-rule:evenodd" id="path839"/>
  </g>
</svg>