<?xml version="1.0" encoding="utf-8"?>
<!-- Generator: Adobe Illustrator 27.2.0, SVG Export Plug-In . SVG Version: 6.00 Build 0)  -->
<svg version="1.1"
	 id="svg948" xmlns:sodipodi="http://sodipodi.sourceforge.net/DTD/sodipodi-0.dtd" xmlns:svg="http://www.w3.org/2000/svg" xmlns:rdf="http://www.w3.org/1999/02/22-rdf-syntax-ns#" xmlns:cc="http://creativecommons.org/ns#" xmlns:dc="http://purl.org/dc/elements/1.1/" xmlns:inkscape="http://www.inkscape.org/namespaces/inkscape"
	 xmlns="http://www.w3.org/2000/svg" xmlns:xlink="http://www.w3.org/1999/xlink" x="0px" y="0px" viewBox="0 0 265.5 90"
	 style="enable-background:new 0 0 265.5 90;" xml:space="preserve">
<style type="text/css">
	.st0{fill-rule:evenodd;clip-rule:evenodd;fill:#FFCC00;}
	.st1{fill:#FF0000;}
	.st2{fill:#FFFFFF;}
	.st3{font-family:'SukhumvitSet-Bold';}
	.st4{font-size:20px;}
</style>
<sodipodi:namedview  bordercolor="#666666" borderopacity="1" fit-margin-bottom="0" fit-margin-left="0" fit-margin-right="0" fit-margin-top="0" gridtolerance="10" guidetolerance="10" id="namedview943" inkscape:current-layer="svg948" inkscape:cx="400.07945" inkscape:cy="209.17423" inkscape:document-rotation="0" inkscape:pageopacity="0" inkscape:pageshadow="2" inkscape:showpageshadow="false" inkscape:window-height="922" inkscape:window-maximized="0" inkscape:window-width="1680" inkscape:window-x="0" inkscape:window-y="25" inkscape:zoom="0.82653993" objecttolerance="10" pagecolor="#ffffff" showborder="false" showgrid="false">
	</sodipodi:namedview>
<g id="g1290">
	<rect id="rect1511" x="0" class="st0" width="265.5" height="90"/>
	<g id="g2050" transform="translate(-25.929551,-51.80476)">
		<g id="g851" transform="matrix(-0.02221766,0,0,0.02109271,39.530277,56.53506)">
			<path id="path847" d="M-1423.5,2494.4c0,0,43.7,6.6,50.6,53.9c11.1-2.7,37.3-25.1,36.5-50.7
				C-1336.8,2490.5-1396.1,2449.3-1423.5,2494.4z"/>
			<path id="path849" d="M-1376.1,2553l-0.6-4.1c-6.4-44-47-50.7-47.4-50.7l-5.6-0.9l2.9-4.8c9-14.8,22.5-22.6,39.1-22.6
				c25.7,0,54.6,19.4,54.9,27.7c1,27.8-26.9,51.5-39.3,54.5L-1376.1,2553z M-1417.4,2492c12.1,3.6,40.1,15.7,47.3,51.1
				c11.3-5.7,30.2-24.6,29.7-45c-2.3-4.4-24.6-20.8-47.4-20.8C-1400,2477.4-1409.9,2482.3-1417.4,2492z"/>
		</g>
		<g id="g857" transform="matrix(-0.02221766,0,0,0.02109271,39.530277,56.53506)">
			<path id="path853" d="M-1470.4,2601.1c0,0-44.5-72.8,50-64.3c3.6,6.1,3.9,37.9,1.5,50.4
				C-1424.8,2586.1-1463.2,2560.8-1470.4,2601.1z"/>
			<path id="path855" d="M-1468.5,2611.6l-5.2-8.5c-0.8-1.3-18.8-31.2-7.1-52.2c8.3-14.7,28.6-20.7,60.6-17.8l1.9,0.2l1,1.7
				c4.6,7.8,4.2,41.3,1.9,53l-0.7,3.7l-3.7-0.7c-1.3-0.3-3.1-1-5.7-2.2c-5.5-2.5-14.7-6.6-22.9-6.6c-6.4,0-15.3,2-18.4,19.6
				L-1468.5,2611.6z M-1434.9,2539.9c-20.6,0-33.8,4.9-39.2,14.7c-6.3,11.2-1.4,26.7,2.7,36.1c5.3-13.1,15.1-16.2,23.1-16.2
				c9.8,0,19.9,4.5,26,7.2c0.1,0,0.2,0.1,0.3,0.2c1.6-13.4,0.8-34.7-1.1-41.5C-1427.2,2540.1-1431.2,2539.9-1434.9,2539.9z"/>
		</g>
		<g id="g863" transform="matrix(-0.02221766,0,0,0.02109271,39.530277,56.53506)">
			<path id="path859" d="M-1375.8,2596.7c0,0,0,32.2-2,52.5c-8.5,3.9-53.8-16-43.7,23.4c-12.4-3.4-34.4-17.4-28.9-40.8
				C-1444.3,2606.3-1375.8,2596.7-1375.8,2596.7z"/>
			<path id="path861" d="M-1416.2,2678l-6.3-1.7c-15.3-4.3-37.4-20.3-31.5-45.3c6.4-27.3,70.4-37,77.6-38l4.3-0.6l0,4.4
				c0,0.3-0.1,32.6-2,52.9l-0.2,2.2l-2,0.9c-3,1.4-8.1,0.8-15-0.1c-4.3-0.6-9.2-1.2-13.6-1.2c-6.3,0-10.3,1.3-12.4,3.9
				c-2.4,3.1-2.6,8.6-0.6,16.4L-1416.2,2678z M-1379.6,2601.1c-20.7,3.5-62.9,14-67,31.6c-4.2,18,10.1,29.2,20.2,33.9
				c-0.8-6.8,0.3-12.1,3.3-16c3.6-4.6,9.6-6.9,18.3-6.9c4.9,0,10.1,0.7,14.6,1.3c3.4,0.5,6.6,0.9,8.9,0.9h0
				C-1380,2630.7-1379.7,2610.1-1379.6,2601.1z"/>
		</g>
		<g id="g869" transform="matrix(-0.02221766,0,0,0.02109271,39.530277,56.53506)">
			<path id="path865" d="M-1302.3,2649.7c0,0,49-13.7,66.1,19.9c0,0-43.1,47.2-12.6,50.3c-7.3,6.4-47.4,23.6-63.5-4.2
				C-1320.9,2701.1-1310.4,2652.1-1302.3,2649.7z"/>
			<path id="path867" d="M-1283.8,2734.9c-14.2,0-25.2-6-31.8-17.2c-7.2-12.5-2.4-44.8,3.9-60.8c2.6-6.5,5.2-9.9,8.3-10.8
				c0.5-0.1,10.6-2.9,23.3-2.9c22.6,0,38.9,8.6,47.2,24.8l1.2,2.3l-1.8,1.9c-11,12-25.1,32.5-22.1,40.3c0.3,0.8,1.2,3.1,7.1,3.7
				l8.6,0.9l-6.5,5.7C-1251,2726.9-1267.3,2734.9-1283.8,2734.9z M-1280.1,2650.7c-11.8,0-21.2,2.6-21.3,2.6
				c-5,3.2-15.5,47.2-7.8,60.5c5.2,8.9,13.7,13.5,25.3,13.5c9.8,0,19.6-3.3,26-6.3c-2.7-1.7-4.1-3.9-4.8-5.8
				c-5.2-13.6,14.5-37.7,21.8-46.1C-1249.9,2654-1267,2650.7-1280.1,2650.7z"/>
		</g>
		<g id="g875" transform="matrix(-0.02221766,0,0,0.02109271,39.530277,56.53506)">
			<path id="path871" d="M-1534.8,1093.8c0,0,31.3,17.9,31.3,50.8c0,3.8,30.8,0.7,38.2-12.2c7.5-12.9-15.4-42.3-31-45
				C-1509.3,1085-1534.8,1093.8-1534.8,1093.8z"/>
			<path id="path873" d="M-1498.2,1149.8L-1498.2,1149.8c-6,0-9.1-1.8-9.1-5.3c0-30.4-29.1-47.3-29.4-47.5l-7.3-4.1l7.9-2.7
				c0.8-0.3,20.8-7.1,34.9-7.1c2,0,3.9,0.1,5.5,0.4c12.4,2.2,26.4,17.1,32.3,29.7c3.9,8.4,4.4,15.7,1.4,20.9
				C-1468.7,1145.9-1489.7,1149.8-1498.2,1149.8z M-1499.8,1142.2c0.4,0,0.9,0.1,1.6,0.1l0,0c9.5,0,25.4-4.5,29.7-11.8
				c1.7-2.9,1.1-8-1.7-13.9c-5.6-12.1-18.1-24-26.7-25.5c-1.2-0.2-2.6-0.3-4.3-0.3c-7.9,0-18.2,2.5-25.1,4.4
				C-1516.8,1102.4-1500.8,1118.3-1499.8,1142.2z"/>
		</g>
		<g id="g881" transform="matrix(-0.02221766,0,0,0.02109271,39.530277,56.53506)">
			<path id="path877" d="M-1646.4,1150.4c0,0,41-14.7,52.6,25.1c0,0,32.3-2.8,39.2-33.5c1.3-6-23.2-34.7-51.9-26.7
				C-1633.5,1122.9-1646.4,1150.4-1646.4,1150.4z"/>
			<path id="path879" d="M-1596.5,1179.6l-0.9-3c-4.8-16.6-15.7-25.1-32.2-25.1c-8.6,0-15.4,2.4-15.5,2.4l-8.5,3.1l3.8-8.2
				c0.6-1.2,13.9-29.3,42.3-37.2c3.7-1,7.4-1.5,11.2-1.5c17.6,0,32.8,11.2,40.4,20.7c4,5,5.7,9,5,12c-7.4,33-42.2,36.4-42.5,36.5
				L-1596.5,1179.6z M-1629.6,1144c18.6,0,32.2,9.7,38.4,27.3c7.7-1.5,27.8-7.5,32.9-30.1c-0.4-3.8-16.5-23.5-38.1-23.5
				c-3.1,0-6.2,0.4-9.2,1.3c-16.5,4.6-27.5,17.5-33.1,25.8C-1636,1144.3-1632.9,1144-1629.6,1144z"/>
		</g>
		<g id="g887" transform="matrix(-0.02221766,0,0,0.02109271,39.530277,56.53506)">
			<path id="path883" d="M-1608.8,1256.8c0,0-88.7-9.4-68.9,79.4c12.8-15.6,43.2-29.1,67.6-18.9
				C-1608.1,1304.7-1581.8,1253.7-1608.8,1256.8z"/>
			<path id="path885" d="M-1679.7,1344.6l-1.7-7.6c-5.9-26.5-3-47.4,8.7-61.9c15.6-19.5,42.3-22.4,56.8-22.4c3.6,0,6.1,0.2,7,0.3
				c7.5-0.7,11.4,2.4,13.2,5c6.8,9.6-0.5,30-6.4,46.4c-2,5.6-3.9,10.9-4.3,13.5l-0.7,4.7l-4.4-1.8c-5.2-2.1-10.9-3.2-16.9-3.2
				c-19.1,0-37.7,10.6-46.3,21.1L-1679.7,1344.6z M-1615.9,1260.3c-10.6,0-36.8,1.9-50.9,19.6c-9.2,11.4-12,27.7-8.6,48.5
				c10.6-9.6,28-18.4,46.9-18.4c5.5,0,10.8,0.8,15.7,2.3c0.9-2.9,2.1-6.4,3.6-10.5c4.4-12.4,11.8-33.1,7.3-39.5
				c-0.6-0.8-1.7-1.9-4.8-1.9c-0.6,0-1.2,0-1.8,0.1l-0.4,0l-0.4,0C-1609.2,1260.5-1611.8,1260.3-1615.9,1260.3z"/>
		</g>
		<g id="g893" transform="matrix(-0.02221766,0,0,0.02109271,39.530277,56.53506)">
			<path id="path889" d="M-1567.6,1396.9c0,0,20.2,11.2,32.9,6.4c12.8-4.9,5.2-32.6,5.2-32.6s46.3-0.9,54.2,30.8
				c-5.9,9.2-23.8,42.8-58.8,35.9C-1544.7,1435.4-1563,1420.9-1567.6,1396.9z"/>
			<path id="path891" d="M-1524.9,1442.2c-3.2,0-6.6-0.3-9.9-1c-11.8-2.3-31.5-17.8-36.4-43.6l-1.5-7.9l7.1,3.9
				c0.1,0.1,13,7.1,23.8,7.1c2.3,0,4.3-0.3,6-1c7.2-2.7,5-20.1,2.9-28l-1.3-4.7l5.4-0.1c5,0,49.3,0.9,57.4,33.7l0.4,1.6l-0.9,1.4
				c-0.4,0.6-0.8,1.3-1.3,2.1C-1480.1,1416.6-1495.9,1442.2-1524.9,1442.2z M-1561.9,1403.7c6.3,18.4,21,28.6,28.5,30.1
				c2.9,0.6,5.7,0.9,8.5,0.9c24.7,0,39-23.1,45.1-32.9c0.2-0.3,0.3-0.5,0.5-0.8c-6.5-21.6-34.1-25.6-45.3-26.3
				c1.8,9.1,3.6,27.5-8.6,32.2c-2.6,1-5.5,1.5-8.7,1.5C-1549,1408.3-1556.5,1405.9-1561.9,1403.7z"/>
		</g>
		<g id="g899" transform="matrix(-0.02221766,0,0,0.02109271,39.530277,56.53506)">
			<path id="path895" d="M-1563,1946.3c0,0-77.8-23.7-79.7,38.7c-0.6,21.5,17.1,59,17.1,59s-5.7-44.1,27.7-25
				c8.2,4.7,30.3-23.5,35.2-34.9S-1563,1946.3-1563,1946.3z"/>
			<path id="path897" d="M-1625.6,2047.8c-1.4,0-2.8-0.8-3.4-2.2c-0.7-1.6-18.1-38.5-17.4-60.7c0.9-30.2,19.5-46.8,52.3-46.8
				c17,0,31.6,4.4,32.3,4.6c1.3,0.4,2.3,1.5,2.6,2.9c0.5,2.8,5.2,28,0,40.1c-4.1,9.7-24.2,37.7-36.5,37.7l0,0c-1.5,0-2.8-0.3-4-1
				c-8.7-5-14.8-5.8-18.3-1.8c-4.8,5.5-4.4,18.5-3.8,23c0.2,1.8-0.9,3.6-2.7,4.1C-1624.9,2047.8-1625.3,2047.8-1625.6,2047.8z
				 M-1594.2,1945.7c-28.9,0-44,13.3-44.8,39.5c-0.4,11.8,5.3,29.1,10.1,41.6c0.9-4.1,2.4-8.1,5-11.2c2.9-3.3,6.9-5,11.4-5
				c4.7,0,10,1.7,16.3,5.3c0,0,0,0,0,0c6.6,0,24.8-21.4,29.8-33.1c3.3-7.7,1.4-25-0.1-33.4
				C-1570.9,1948.1-1582,1945.7-1594.2,1945.7z"/>
		</g>
		<g id="g905" transform="matrix(-0.02221766,0,0,0.02109271,39.530277,56.53506)">
			<path id="path901" d="M-1626.7,2100.4l39.6,35.3c0,0-33.7,23.1-16.6,46.7C-1624.8,2186-1686.4,2159.9-1626.7,2100.4z"/>
			<path id="path903" d="M-1607.9,2186.5c-14.2,0-37.6-8.5-45.4-27.3c-5-12.1-4.9-32.6,24-61.4l2.5-2.5l45.9,40.8l-4,2.7
				c-0.2,0.1-17,11.9-19.5,26.2c-0.9,5.4,0.3,10.4,3.8,15.2l3.6,4.9l-6,1C-1604.5,2186.4-1606.2,2186.5-1607.9,2186.5z
				 M-1626.5,2105.6c-18.7,19.4-25.5,36.9-19.8,50.6c6,14.6,24.4,21.8,36.3,22.6c-2.1-4.8-2.7-9.9-1.8-15.2
				c2.2-12.8,13-23.3,18.9-28.2L-1626.5,2105.6z"/>
		</g>
		<g id="g911" transform="matrix(-0.02221766,0,0,0.02109271,39.530277,56.53506)">
			<path id="path907" d="M-1513.4,2140.2l53.3,4.6c0,0-20.3,37.6,9,54.3C-1478.7,2208-1536.4,2210.1-1513.4,2140.2z"/>
			<path id="path909" d="M-1479,2207.3c-16.9,0-29.6-5.2-36.8-15.2c-8.5-11.8-9-29.7-1.3-53.1l0.9-2.8l62,5.3l-2.7,5.1
				c-0.8,1.4-18.1,34.5,7.6,49.2l7.4,4.2l-8.2,2.6C-1459.1,2205.6-1469.7,2207.3-1479,2207.3z M-1510.7,2144.3
				c-6,19.6-5.6,34.2,1.1,43.5c7.2,9.9,20.6,12,30.6,12c6.1,0,12.9-0.8,19.3-2.3c-15.3-13.9-11.9-35.7-6.1-49.4L-1510.7,2144.3z"/>
		</g>
		<g id="g917" transform="matrix(-0.02221766,0,0,0.02109271,39.530277,56.53506)">
			<path id="path913" d="M-1361.3,2063.7c0,0,21.5-35,30.5-40.2c8.9-5.3,50.9,53.4,36.8,71.1c-18.7,23.6-54.1,15.5-54.1,15.5
				s25.6-15.9,14.6-33C-1339.7,2067.3-1361.3,2063.7-1361.3,2063.7z"/>
			<path id="path915" d="M-1334,2115.1c-8.6,0-14.7-1.4-15-1.5l-8.9-2.1l7.8-4.8c0.1-0.1,13.1-8.2,15.3-18.1
				c0.8-3.4,0.2-6.5-1.8-9.6c-4.4-6.8-19.7-10.7-25.3-11.6l-5.5-0.9l2.9-4.8c2.3-3.7,22.3-35.9,31.8-41.5c1-0.6,2.1-0.9,3.2-0.9
				c10,0,27,23.6,34.9,39.9c5.8,12,11.1,28.2,3.6,37.6C-1303,2111.9-1321,2115.1-1334,2115.1z M-1338.6,2107.4
				c11.2,0.7,30.1-0.6,41.7-15.2c3.6-4.5,2.4-14.3-3.2-26.9c-9-20.2-24.5-37.5-29.1-38.4c-5.5,3.7-17.7,21.2-26,34.2
				c7.4,1.8,19.9,6,25,13.8c3.1,4.8,4,10,2.8,15.3C-1329,2097.3-1334.2,2103.3-1338.6,2107.4z"/>
		</g>
		<g id="g923" transform="matrix(-0.02221766,0,0,0.02109271,39.530277,56.53506)">
			<path id="path919" d="M-564.6,2586.6c0,0,14.1,41.5,13.4,45.9c-7.6,3.8-48.1,16.6-45.5,39.2
				C-615.6,2646.6-627,2618.8-564.6,2586.6z"/>
			<path id="path921" d="M-591.4,2685.2l-8.3-11.1c-9.5-12.6-18.6-27.8-14.8-44.5c3.8-16.4,19.5-31.6,48.2-46.3l3.9-2l1.4,4.2
				c5.4,15.8,14.3,43.1,13.6,47.7l-0.3,2l-1.8,0.9c-1.1,0.6-3,1.3-5.3,2.3c-12,4.9-40,16.5-38.2,33.1L-591.4,2685.2z M-566.8,2592.1
				c-24.1,13-37.3,25.8-40.4,39.2c-2.4,10.6,2,21.1,8,30.5c6.1-15.9,29.3-25.5,41.5-30.5c0.9-0.4,1.7-0.7,2.5-1
				C-556.4,2624.4-561.5,2607.9-566.8,2592.1z"/>
		</g>
		<g id="g929" transform="matrix(-0.02221766,0,0,0.02109271,39.530277,56.53506)">
			<path id="path925" d="M-559.8,2659.5c0,0,40.8,18.5,43.3,25.4c-8.2,5-34.3,53.7-21.1,68.8C-557,2752.4-606.8,2725.2-559.8,2659.5
				z"/>
			<path id="path927" d="M-528.7,2758.1l-9.1-0.6c-11-0.7-31.9-9.1-41.1-28.5c-6.4-13.6-8.9-37,16-71.7l1.8-2.5l2.8,1.3
				c12.7,5.7,42.5,19.9,45.3,27.5l1.1,2.9l-2.6,1.6c-4.7,2.9-19.5,28-22.4,47.5c-1.1,7.3-0.3,12.7,2.3,15.7L-528.7,2758.1z
				 M-558.5,2664.2c-16.5,24.1-21.2,45.3-13.5,61.6c5.9,12.4,18.1,19.9,27.8,22.8c-1-3.9-1.1-8.7-0.2-14.2
				c2.7-17.9,14.9-41.3,22.8-50C-526.8,2680-543.2,2671.3-558.5,2664.2z"/>
		</g>
		<g id="g935" transform="matrix(-0.02221766,0,0,0.02109271,39.530277,56.53506)">
			<path id="path931" d="M-487.3,2701.3c0,0,40.1-0.7,52.7,5.6c-4.4,12.6-0.2,51.8,16.8,53.7C-446.2,2773.9-499.6,2767-487.3,2701.3
				z"/>
			<path id="path933" d="M-443.7,2770c-16,0-29.7-5.8-38.3-16.2c-10.3-12.4-13.3-30.2-9-53.2l0.6-3l3.1-0.1c0,0,1.3,0,3.6,0
				c11.7,0,39.9,0.6,50.8,6l3,1.5l-1.1,3.1c-2.9,8.3-1.4,31.2,5.7,42.6c2.4,3.7,5,5.8,7.9,6.1l13.4,1.5l-12.2,5.7
				C-424.4,2767.9-434.2,2770-443.7,2770z M-484.1,2705.1c-3.1,19.1-0.4,33.9,7.9,43.9c7.2,8.7,18.8,13.5,32.5,13.5
				c5.6,0,11.2-0.8,16.4-2.3c-1.6-1.4-3.1-3.2-4.4-5.4c-7.9-12.6-9.7-34.1-7.4-45.6c-9.4-3-28.6-4.1-44.6-4.1
				C-483.9,2705.1-484,2705.1-484.1,2705.1z"/>
		</g>
		<g id="g941" transform="matrix(-0.02221766,0,0,0.02109271,39.530277,56.53506)">
			<path id="path937" d="M-389.8,2628.5l39.6-6.3c0,0,18.1,65.4-43,76.1C-388.2,2684.4-373.5,2654.3-389.8,2628.5z"/>
			<path id="path939" d="M-399,2703.1l2.2-6.1c0.5-1.5,1.2-3.1,1.9-4.9c5.8-15,15.6-40.1,1.9-61.6l-3.1-4.8l48.6-7.8l0.9,3.3
				c0.4,1.3,8.8,32.7-6.3,56.7c-8.1,12.9-21.5,21-39.7,24.2L-399,2703.1z M-383.9,2631.4c11.1,22.6,2.3,47.2-3.3,61.7
				c12.6-3.4,21.9-9.9,27.9-19.3c10.7-16.9,7.8-39.1,6.2-47.3L-383.9,2631.4z"/>
		</g>
		<g id="g947" transform="matrix(-0.02221766,0,0,0.02109271,39.530277,56.53506)">
			<path id="path943" d="M-1142.6,1207.9c0,0-0.9-32.5,17.6-33c5.6-0.1,32,4.6,63.1,38.5c13.1,14.3,41.8,35.3,40.9,42.7
				c-0.9,7.4-2.8,14.9-26.5,21.4c-23.7,6.5-67.8,15.8-78,13.9c-10.2-1.9-22.3-12.5-22.3-12.5s-12.1,38.5,42.7,50.1
				c12.6,2.7,85.3,8.7,112.2-14.5c15-12.9,27.7-41.8,22.1-59s-5.6-68.7-5.6-68.7s-38.7-5.8-48.9-11.9c-10.2-6-37.2-39.5-42.3-42.7
				s-37.1-17.2-61.7-9.8c-10.3,3.1-42.6,13-41.3,49.2C-1169.5,1198.7-1142.6,1207.9-1142.6,1207.9z"/>
			<path id="path945" d="M-1066.9,1335.5c-18.7,0-33.8-1.7-38.9-2.8c-20.4-4.3-34.4-12.8-41.6-25.1c-8.6-14.7-4.2-29.3-4-29.9
				l1.7-5.6l4.4,3.9c0.1,0.1,11.4,10,20.5,11.7c0.4,0.1,1.3,0.2,2.8,0.2c13.9,0,52.2-8.2,73.5-14c22.2-6.1,23-12.2,23.7-18.2
				c-0.3-3.4-13.1-14.8-21.6-22.4c-6.6-5.9-13.5-12-18.3-17.3c-28.1-30.6-52.9-37.3-60.1-37.3c-2.9,0.1-5.3,1.1-7.2,3.2
				c-6.1,6.4-7,20.9-6.9,25.9l0.2,5.4l-5.1-1.7c-1.2-0.4-29.4-10.3-30.4-39.7c-0.9-26,13.9-43.9,44-53c5.1-1.5,10.8-2.3,16.9-2.3
				c21.3,0,42.9,9.3,47.9,12.5c2.4,1.5,6.8,6.4,15.1,15.5c9.1,10,21.5,23.8,27.1,27.1c7.9,4.6,37,9.8,47.5,11.4l3.2,0.5v3.3
				c0,0.5,0.1,51.2,5.4,67.6c6.1,18.9-7.5,49.4-23.3,63C-1007.8,1332.4-1041.6,1335.5-1066.9,1335.5z M-1145,1285.9
				c-0.3,4.6,0.3,11.4,4.2,18.1c6.1,10.4,18.4,17.6,36.5,21.4c5.2,1.1,20.2,2.6,37.4,2.6c34,0,59.4-5.8,71.6-16.3
				c13.7-11.8,26.2-39,21-55c-4.9-15.2-5.7-54.9-5.8-66.7c-10-1.6-37.9-6.5-47-11.9c-6.6-3.9-18.4-17-28.9-28.6
				c-5.6-6.2-11.9-13.2-13.5-14.2c-3.9-2.5-24-11.3-43.9-11.3c-5.4,0-10.3,0.7-14.7,2c-9.9,3-39.8,12-38.6,45.5
				c0.6,17.4,13.3,26.7,20.5,30.6c0.5-7,2.4-18.6,8.8-25.4c3.4-3.5,7.5-5.4,12.4-5.5c0,0,0,0,0,0c10.4,0,37.2,8.3,66,39.8
				c4.6,5,11.3,11,17.8,16.8c15.9,14.2,24.9,22.5,24.1,29c-1.1,9-4.2,17.7-29.2,24.5c-21.3,5.8-60.5,14.3-75.5,14.3
				c-1.7,0-3-0.1-4.1-0.3C-1132.9,1293.9-1140.3,1289.3-1145,1285.9z"/>
		</g>
		<g id="g957" transform="matrix(-0.02221766,0,0,0.02109271,39.530277,56.53506)">
			<g id="g951">
				<path id="path949" d="M-868.5,986.4c-12-0.3-29.8-0.9-33.2,10.6c-3.4,11.4-2.3,16.6-2.3,16.6s31.5-1.7,27.8,18.9
					c-0.2,1.3-0.5,2.7-0.8,4.2c0,0,0,0,0,0c0,3.6-1.4,7-4,9.9c-1.3,1.8-3,3.3-5.3,4.5c-5.9,3.8-14.1,6.2-23.1,6.2
					c-17.9,0-32.4-9.2-32.4-20.6c0-0.9,0.1-1.7,0.3-2.6c0.1-12.6,2.9-25.1,27.7-23.1c0.9-11.4,1.4-30.9-29.2-31.8
					c0.3-7.2-0.5-34.2-12.9-34.6c-17.7-0.6-20,36.6-20,36.6s-32.6-5.7-29.5,26.3c9.2,0,24.3-1.1,25.7,11.2c0,0,1.7,7.9,0.8,15.8
					c0,0.3,0.1,0.6,0.1,0.9c0,11.4-13.6,20.6-30.4,20.6c-8.8,0-16.7-2.6-22.3-6.6c-5.5-3.2-10.3-10.2-9.1-24.1
					c0.5-5.8,2.3-15.7,25.5-16.9c-0.3-8-0.3-28-33.5-24.6c-2.9-4.9-21.5-38.1-46.6-38.1c0,0,43,106.1,40.6,152.8
					c0,0,142.5,21.8,152.8,22.1s36.1-12,39.2-28.6c2.2-11.5,7.6-57.9,14.2-78.7c6.6-20.9,23.5-59.2,23.5-59.2
					S-855.4,957.5-868.5,986.4z"/>
			</g>
			<g id="g955">
				<path id="path953" d="M-901.3,1124.5l-0.5,0c-10.4-0.3-147.5-21.3-153.3-22.2l-3.4-0.5l0.2-3.4c2.3-45.2-39.9-150.1-40.4-151.1
					l-2.1-5.2h5.6c16.8,0,34,13.4,48.7,37.9c1.8-0.1,3.5-0.2,5.1-0.2c29.1,0,29.8,20.5,30.1,28.2l0.2,4.2l-3.7,0.2
					c-20.8,1-21.5,9.1-21.9,13.4c-0.9,10.1,1.6,17.2,7.2,20.5l0.3,0.2c5.1,3.8,12.4,5.9,20.1,5.9c14.4,0,26.6-7.7,26.6-16.9l-0.1-1
					l0-0.4c0.9-7.2-0.7-14.5-0.7-14.6c-0.7-6.1-5.4-8.2-17.4-8.2l-8.1,0l-0.3-3.4c-1-9.7,1-17.3,5.9-22.7c6.1-6.8,15.3-8.2,21.8-8.2
					c0.8,0,1.5,0,2.1,0.1c1.2-10.4,5.8-36.3,23-36.3l0.5,0c3.2,0.1,6.2,1.5,8.6,4.1c6.9,7.4,7.9,23.4,8,30.8c10.3,0.9,18,4,22.9,9.5
					c7.6,8.4,6.7,19.9,6.2,26.2l-0.3,3.8l-3.8-0.3c-1.6-0.1-3.2-0.2-4.6-0.2c-15.9,0-18.9,6.9-19.1,19.6l-0.1,0.7
					c-0.1,0.7-0.2,1.3-0.2,1.9c0,9.1,13.1,16.9,28.6,16.9c8,0,15.5-2,21-5.6c1.9-1,3.2-2.2,4.3-3.6c2.1-2.5,3.2-4.9,3.2-7.4l0.1-1
					c0.2-1.1,0.4-2.2,0.6-3.2l0.2-0.9c0.6-3.4,0.1-6.1-1.7-8.3c-3.8-4.6-13.1-6.2-20.6-6.2c-0.9,0-1.5,0-1.5,0l-3.2,0.2l-0.7-3.1
					c-0.1-0.6-1.3-6.5,2.4-18.5c4-13.4,22.2-13.4,30-13.4c1.5,0,3,0,4.5,0.1c14.4-28.4,44.4-32.1,45.7-32.3l6.5-0.7l-2.6,6
					c-0.2,0.4-16.9,38.4-23.3,58.8c-4.7,14.9-8.8,43.3-11.6,62.1c-1.1,7.2-1.9,13-2.5,16.2C-862.2,1111.1-888.8,1124.5-901.3,1124.5
					z M-1050.6,1095.3c50.1,7.7,141.3,21.4,149.1,21.6l0.3,3.8v-3.8c8.8,0,32.4-11.1,35.2-25.5c0.6-3.1,1.4-8.7,2.4-15.9
					c2.8-19,7-47.8,11.8-63.3c5-15.7,15.5-40.7,20.6-52.8c-9.2,2.8-25.5,10.1-33.9,28.6l-1,2.3l-3-0.1c-2,0-4.1-0.1-6.3-0.1
					c-14.1,0-21.1,2.5-22.7,8c-1.6,5.5-2.1,9.3-2.3,11.7c6.5,0.2,18.4,1.6,24.5,8.9c3.2,3.9,4.4,8.7,3.3,14.4l-0.2,0.9
					c-0.2,1-0.4,2-0.6,3c-0.1,4.2-1.8,8.4-4.9,12c-1.6,2.1-3.8,4-6.4,5.4c-6.5,4.2-15.4,6.6-24.9,6.6c-20.3,0-36.1-10.7-36.1-24.4
					c0-0.9,0.1-1.9,0.3-3c0.2-12.7,3.4-27.1,28-26.7c0.2-6-0.4-12.3-4.5-16.8c-4-4.5-11.2-6.9-21.2-7.2l-3.8-0.1l0.2-3.8
					c0.3-8.4-1-23.7-5.9-29c-1.3-1.4-2.5-1.6-3.3-1.7c0,0,0,0,0,0c-11.5,0-15.6,24.5-16.1,33.1l-0.3,4.2l-4.2-0.7c0,0-2-0.3-4.9-0.3
					c-5,0-11.9,1-16.2,5.7c-2.8,3.1-4.2,7.6-4.2,13.4l1.1,0c6.9,0,23.1,0,24.8,14.5l0,0c0,0,1.7,8,0.8,16.3c0,0.4,0,0.6,0,0.9
					c0,13.7-15,24.4-34.2,24.4c-9.3,0-17.9-2.6-24.4-7.3c-5.7-3.5-12.2-11-10.8-27.6c0.7-7.7,4.1-18,25.3-20.1
					c-0.6-7.7-3.3-17.7-22.4-17.7c-2.1,0-4.4,0.1-6.8,0.4l-2.4,0.2l-1.5-2.6c-11.6-19.9-24.6-32.1-37.2-35
					C-1080.5,972.8-1050.3,1053.1-1050.6,1095.3L-1050.6,1095.3z"/>
			</g>
		</g>
		<g id="g967" transform="matrix(-0.02221766,0,0,0.02109271,39.530277,56.53506)">
			<g id="g961">
				<path id="path959" d="M-313.3,2236.5c-13.8-5.9-3.8-32.1,18.9-23.9s39.7,10.7,39.7,10.7s-18.9-57.3-93.9-64.9
					c-23.3-2.4-49.8,13.2-54.2,25.2c-5.7-11.3-1.3-43.5-44.7-46c3.1,18.3,7.6,58-19.5,65.5c-17.5,4.9-46-11.3-69.3-42.8
					c-8.8-11.9-76.4-124.4-87-145.7c-72.1-2.5-130.5-26.9-154.9-38.8c3.1,11.4,5.9,21.3,7.4,29.6l2.4,13l-12.4-4.5
					c-36.5-13.2-86.5-83.3-88.5-85.9l42.7,38.8c0.4,0.5,7.4,6.1,37.2,25.7c-1.1-4.2-2.3-8.7-3.6-13.4c-7.9-28.8-12.6-62.1-8.3-91.4
					c-0.5,0.4-1,0.8-1.4,1.1c-9.7,7-23.1,6.5-32.3,5.6c-7.4-0.7-13.5-3.6-18.2-8.6c-5.7,6.1-13.2,9.6-22.5,10.5
					c-8.9,0.8-17.9-1.9-24.1-7.3c-0.9-0.8-1.7-1.5-2.4-2.4c-5.6,5.7-12.9,10.4-22.5,10.4c-0.4,0-0.8,0-1.2,0
					c-30-1.3-12.6-32.1-12.6-32.1l0.2,8c0.1,3.4,0.2,8.4,13,8.9c6.4,0.2,12.2-4.1,18.6-14l12.9-19.9l1,23.7c0.1,2.4,1.1,4.3,2.9,6
					c3,2.6,8,4.1,12.7,3.6c8.5-0.8,13.6-4.5,17.1-12.4l7.1-15.8l6.7,16c2.8,6.6,6.6,9.7,12.7,10.3c6.7,0.7,16.4,1.1,22-2.9
					c9.1-6.5,15-25.7,12.6-38.1c-0.8-1.8-1.8-15.2-2.2-17.3c0,0,14.5,15.6,25,18.7c9,2.7,22.3-2.3,28.7-9.9l8.6-10.3l4.3,12.7
					c1.9,5.5,5.3,9.3,10.3,11.2c6.6,2.6,15.4,1.6,22.9-2.5c14.3-7.8,22.4-24.2,20.1-40.8c-0.1-0.9-0.1-1.8,0.1-2.6
					c-14.5-6.8-27.7-16.7-32.9-22.5l1.8-2.4c26.1,11.9,59.2,21.1,66.9,15.8c2.6-1.8,5.9-4.8,6.6-8.2c0.5-2.8-0.9-5.1-0.9-5.2
					l-10.1-14.4l17.4,2.6c0.3,0,29.3,4,39.1-11.6c1.5-2.4,1.9-4.9,1.2-7.6c-2.4-9.5-16.2-19.2-21.3-22.2l-22.2-12.7l25.5-1.4
					c20.9-1.1,42.7-6.4,44.8-10.9c1.9-7-10.5-12.3-10.7-12.3l-15.1-6l14.3-7.7c13.4-7.2,35.4-23,37.7-35c0.3-1.5-0.1-1.9-0.4-2.2
					c-4.2-4.5-21.8-5.2-32.9-4l-6.3,0.5c15.1-6.8,34.5-33.6,34.5-39.5c0-1.8-0.4-2.4-0.4-2.5c-0.6-0.3-5.4-0.4-7.6,0.4l-11.4,2.3
					c0.2-0.2,29.2-39.9,27-62.5c-0.2-1.7-0.6-1.9-1-2.1c-7-3.6-32,8.8-53.2,16.6l-7.8,3.3c5.6-8.7,14.6-34.8,12.4-43.4
					c-0.1-0.5-4.2-2.2-4.2-2.3c-1.8-1.1-9.8-3-17,1.3l-11.4,6.9c8.2-8.7,22.8-42.5,20.6-52.5c-0.2-0.9-0.6-1.8-2-2.7
					c-6.4-4-22.4-2-29.1-0.3l-9.3,2.3v-76.4c-11.1,13.7-22.7,27.4-34.8,40.9c-0.2,0.2-0.4,0.4-0.6,0.6c-0.6,0.5-63,52.3-69.1,57.8
					c-0.3,0.2-26,23.8-15,47.6c9.4,20.4,28.5,30.6,47.5,25.3c19.6-5.5,43.9-15.4,44.1-15.5c1.7-0.7,3.6-0.5,5.1,0.4
					c1.5,1,2.5,2.6,2.7,4.4c0.6,8.4,5.4,82.4-8.4,105.4c-1.8,3-3.5,6.3-5.2,9.8c-11.1,21.8-24.9,48.9-91.2,53.5
					c-26,1.8-44.3,31.2-46.9,34.1c2.4-21.4,13.3-43.2,46.1-45.4c59.9-4.1,71.6-27,81.9-47.3c1.9-3.7,3.6-7.1,5.6-10.4
					c9.1-15.1,8.5-65.2,7.2-91c-8.9,3.5-24.3,9.2-38,13c-0.8,0.2-1.7,0.4-2.5,0.6c0.5,0.6,0.9,1.3,1.1,2.1
					c1.6,5.9-1.6,57.4-20.9,64.9c-19.3,7.5-63.3,22-79.4,46.7c-16.1,24.7-15.6,40.8-75.6,50.4c-60.1,9.7-55.9-77.4-55.9-77.4
					c0.2-5.4,0.1-8.4,0.6-10.8c-10.3,18.3-22.5,48.2-3.6,123.1c0.3,1.3-0.1,2.8-1.1,3.7c-0.7,0.7-1.6,1-2.6,1
					c-0.4,0-0.8-0.1-1.2-0.2c-47.3-6.1-61.3-40.9-64.2-69.4c-9.8,13.8-23.3,21.2-36.4,28.3c-3.4,1.9-6.9,3.8-10.4,5.8
					c-15.5,9.1-24.3,36.8-30.1,55.1c-0.6,2-1.2,3.9-1.8,5.7l-3.3,10.1l-6.6-8.3c-14.3-18-22.7-41.4-23.6-64.5
					c-11.9,7.4-23.8,12.6-33.4,16.7c-5.4,2.3-10,4.3-13.7,6.3c-16.4,8.7-17,31.6-17.5,51.9c-0.1,3.8-0.2,7.5-0.4,11l-0.5,9.5
					l-8.1-4.9c-18.7-11.4-29.7-27-33.6-46.2c-11.4-57.3,37.4-104,39-106.1c0,0-35.4,63.5-27.8,104c2.4,12.9,9.2,23.9,20.1,32.8
					c0-0.1,0-0.2,0-0.3c0.6-22.2,1.2-49.9,23.5-61.7c4.1-2.1,8.9-4.2,14.5-6.7c25.6-11,75.6-42.5,87.5-88.6l-0.3,17.6
					c-6.8,26.5-21.6,44.2-37.9,56.8c-0.8,19.4,4.5,39.5,14.7,56.2c6.6-20.5,15.7-45.8,33.5-56.2c3.6-2.1,7.2-4.1,10.8-6
					c13.8-7.5,32.1-22,41.2-36.2c0.4-12.1,2.4-20.6,3-20.6c2.1,0.1,3.7,1.9,3.6,4c-3.1,59.8,30,84.3,54.1,94.2
					c-18.3-78-0.8-108.3,9.8-126.6c1-1.7,6.2,4.5,6,4.8c21.1,63.6,54.8,64,67.5,66.1c-2.7-5.2-11.6-48.2-5.5-69.6
					c3.4-12,12.2-24.8,19.3-33.6c-17.7-27.2-25.3-66.4-27.9-83.1c-6.7,2.4-10.5,4.8-10.6,4.9l-12.1,1.7c0.7-0.5,7.9-31,60.7-18.9
					l-11.6,7.7c-5.7,0-10.8,0.6-15.4,1.5c2.2,14.7,9.2,52.5,25.2,78.2c26.7,23.6,61.1,10.9,61.1,10.9s-23.7-12.6-29.9-27.5
					c-21.1-50.4-7-93.4,1.2-112.3s4-29.9-0.3-65.9c10.8,31.8,31.2,52.8,51.5,61c-8.8-12.9-17.6-119.2-19.6-132.1
					c-2-12.9-8.1-14.9-10.8-30.5c61.6,25.1,79.9-1.4,79.9-1.4s-37.3,0.7-62.3-18.3c-14.7-11.1-19.7-33.7-21.6-50.4
					c0-0.1,0-0.2,0-0.3c-26.7,17.2-57.8,18.2-59.4,18.3l11-5c0.5-0.1,57.8-17,72.2-52.1l0,0c9.4-20.8,10.9-47.3,12.2-65.8
					c2-27.3,13.6-68.9,13.6-68.9s-26.2,28.4-42.2,50.2c-16.1,21.9-28.8,38.4-45.3,41.3c-4.2,0.8-7.9,1.4-11.2,1.9
					c-18.9,3.1-20.9,3.4-36.3,20.6l-3.3,1.3c7.6-22,16.9-29.6,37.8-33c3.2-0.5,6.8-1.1,11-1.9c8-1.4,14.7-6.9,20.3-13.8
					c1.3-3.5,2.4-6.8,2.8-9c8.3-44.6-9-80.5-9-80.5s-8.3,17.6-14.3,33.3c-6,15.6-45.2,44.6-63.9,48.9c-18.6,4.3-57.9,0.3-87.8-5
					c-29.9-5.3-58.9-7-67.5-5.3c-8.6,1.7-14.6,16.6-10,22.9c0.1,0.1,0.2,0.2,0.3,0.3c-0.5,3.5-0.1,7.5,2.4,10.9
					c6.1,8,35.5,38.8,35.5,38.8l12.4,5.3c-1,0.3-0.6,4.7,6.3,7.1c5.8,1.2,7.9,8.5,8.3,9.6l0.1,0.4c0.1,0.4,11.6,39.1,17.1,56
					c6.6,20.3,2,52.1-15.3,67c-3.2,2.7-6.7,5.1-10.5,7.2c0.2,0.1,0.3,0.2,0.5,0.3c4.3,1.7,28.6,23.6,31.9,51.6
					c0.2,1.3,0.2,2.6,0.3,3.9c-1.7,59.3-67.5,41.8-67.5,41.8c-32.6-6.4-36.3-11-63.4-8.4c-16,1.6-38.3,17.1-52,23.9
					s-25.8,0.6-30.2-8.5c-12-24.6-23.9-18-29.3-17.5s-10.6,6.8-24.6-1.9c-13.9-8.7,3.7-35.8,10.8-43.4c-45.7,9.5-50.3,37-51.3,44.7
					c-5.6,42.8,36.9,47.5,46.1,52.6c9.2,5.1,8.1,12.4,3.9,15.1c-12.9,8.2-51.7-3.8-84.4-22.8s-62.6-66.4-71.6-83.9
					c-9-17.5-22.3-25.6-30.3-37.5c-8.1-11.9-8.5-44.6-9.5-61.2s-15.2-19.9-22.8-27c-7.6-7.1-8.1-20.9-10-35.1
					c-1.9-14.2,4.3-50.7,7.1-65.4s-5.2-19-10.4-15.6c-5.2,3.3-26.1,9.5-26.1,9.5s-20.4,1.5-16.8,14.1c3.5,12.5,9.3,35.4,5.8,38.9
					s-13.5-7.1-14.8-26.4c-1.3-19.3,2.2-42.4-17-41.8s-17.4,11.9-18.6,16.7c-1.3,4.8-4.2,25.4-45,34.7c-8.8,2,3.5,28.9,21.2,43.1
					c17.7,14.1,51.1,33.4,52.1,37.9s1,10.9-12.5,6.8c-13.5-4.2-41.5-12.5-45.7-14.8c-4.2-2.3-12.5-7.4-19.3-5.8
					c-6.8,1.6-9,5.5-8,12.2s4.2,39.2,2.2,46c-1.9,6.8-4.2,28.9-4.2,28.9s14.1,1.9,24.1-1c10-2.9,34.1-6.1,41.8-4.8
					c7.7,1.3,12.5,1.3,8.4,16.1c-4.2,14.8-10,33.1,1.1,43.7c5.5,5.2,11,2.9,14.7-0.4c3.8-3.3,26-9.7,38.4,12.1
					c12.4,21.8,19.7,10,21.8,3.8c2.1-6.3,3.3-30.8,6.1-32.5c2.8-1.7,6.3-4.9,12.5,12.5s22.9,54.3,31.7,64.9
					c8.8,10.6,31.8,42.4,37.5,50.4c5.6,7.9,9.2,11.6,6.3,23.9c-5.6,3.7-32.8,18.6-75.5-8.7c0,29.2,9.5,61.6,50.5,62.4
					c41.1,0.8,45,11.8,29.2,14.2c-15.8,2.4-42.6-3.9-71.9,15c-29.2,19-28.7,35.7-56.1,35.5c-47.6-0.3-53.7-48.2-53.7-48.2
					s-37.1,56.1,29.2,89.2c17.4,8.7,67.9-4.7,67.9-4.7s-16.6,6.3-31.6,29.2c-15,22.9-72.6,68.7-136.6,38.7
					c18.2,36.3,110.5,106.6,244-54.5c7.8-9.5,27.6-1.6,2.4,23.7c-25.3,25.3-24.7,28.5-82.4,66c-46,29.9-32.9,95.2-32.1,115
					c43.5-46.3,28.3-96.4,62.5-101.2c0,0,41.1,8.7,56.1-11.1c15-19.7,45.8-56.9,45.8-56.9s-1.6,22.9-25.3,52.9s-13.4,61.6-7.9,72.6
					c16.6-22.1,60-84.5,81.3-90.8c21.3-6.3,25.3-1.6,26.1,22.1c0.8,23.7,7.9,84.5,70.3,109.8c23,9.3,40.3,19.7,46.6,28.4
					c0-15,1.6-31.6,1.6-31.6s18.2,9.5,42.6,34c24.5,24.5,46.6,38.7,46.6,38.7l-1-28.1c0,0,54.4,25.3,73.1,40.7
					c21.4,2,59.5,8.8,82.5,30.9l3.6,3.5l-3,4c-6.3,8.4-10.1,19.8-12.2,27.5c9.9-1.6,26.9-3.7,41.2,5.7
					c19.3,12.7,30.3,17.9,35.3,32.1c1.4,3.1,4.1,7.3,4.1,7.3s7.8,25.5,4,75.8c-1.5,20.7,3.8,39.7,66.1,102.7s98.3,107.1,162.5,113.4
					c64.3,6.3,110.2-5,134.2,47.2c16.8,36.6,10.7,73.7-12,117.2c-16.7,32-24.6,63-24.6,73.1c-7.6-14.5-35.9-66.1-81.9-25.8
					c4.4,12.6,15.7,58.6,4.4,74.3c16.4,6.3,34.6,18.9,38.4,32.8c3.8,13.9,13.9,10.7,16.4,3.1c2.5-7.6,16.4-49.1,19.5-46
					c3.1,3.1-2.5,55.4-2.5,55.4s49.8-3.8,54.2,6.3c4.4,10.1,17-23.3,20.2-34.6c3.1-11.3,18.3-5.7,22-18.3c3.8-12.6,6.9-30.9,20.8-29
					c13.9,1.9,29.6-2.5,27.1-10.7c-2.5-8.2-23.3-10.1-25.8-16.4c-2.5-6.3,1.9-30.9,15.7-41.6s18.3-65.5,17.6-67.4
					c-0.6-1.9,23.9,24.6,22,44.1s45.4-54.8-16.4-69.3c1.3-22.7,3.2-56.7,10.1-73.1c6.9-16.4-2.5-76.2-12-90.7
					c-9.4-14.5-10.7-40.9-1.9-42.8c8.8-1.9,27.1,15.7,29.6,52.3C-308.2,2322.8-240.8,2267.4-313.3,2236.5z M-840.9,1157.3l2.1-0.1
					c-0.2,0.2-19.4,16.7-14.9,29.9c10.9-5.2,22.4-8.8,22.4-8.8c-0.2,0.4-3.5,8.8-13.8,16.4c0.4,0.1,0.8,0.2,1.3,0.2
					c12,0.9,30-11.2,35.1-16.6l-4.2,7.6c-4.1,4.4-13.4,16.6-29.5,16.6c-0.6,0-1.3,0-1.9-0.1c-5.9-0.4-11.9-1.9-15.2-6.5
					C-873,1176.6-842.1,1158.2-840.9,1157.3z M-928.9,1497.3c-3.3,1.9-17.9,8.5-23,16.2c0,0-12.9,11.2-11-0.7
					c0.3-1.8,1.5-5.5,1.5-5.5C-950.8,1485.1-928.9,1497.3-928.9,1497.3z M-1007.7,1525c0,0,9,20.3,18.1,23c0.5,0.2,2,1,5.6-1
					c1-0.6,2.3-2.9,3.4-4.8c1.8-3.1,3.6-6.9,7.3-8.9c9.1-4.8,19.8,8.4,19.8,8.4c-0.5,0-1.2,0-2,0c-3-0.1-9.3-0.3-11.8,1.3
					c-1,0.6-2.3,2.9-3.3,4.8c-1.8,3.2-3.9,6.9-7.6,9c-7.4,4.3-13.1,3-16.5,1.2c-1.3-0.7-2.5-1.5-3.5-2.5
					c-4.4,16-14.9,29.5-31.7,32.4C-1030.1,1588-1004.1,1551.2-1007.7,1525z M-1095.5,1597.8c8-3.1,14.7-0.3,20.1,2
					c3.5,1.5,6.6,2.8,9.7,2.6c4.3-0.3,9-1.6,10.1-14l0-0.5c1.6-17.7,5.7-35.1,5.7-35.1c5,6.4,6.7,23.6,5.6,36.1l0,0.5
					c-1.3,15.3-8.3,23.4-20.6,24.3c-5.8,0.4-10.7-1.7-14.9-3.5c-5-2.1-8-3.3-11.5-1.9c-4.2,1.6-9.8,7.3-12.4,11.9l-5.6,11.3
					C-1112.9,1622.1-1103.4,1600.9-1095.5,1597.8z M-1251.2,1568.7l3.3,8.8c2,4.4,5.8,8.5,8.3,10.8c4,3.6,11.3,5.1,18.5,3.6
					c6.6-1.3,11.9-7.5,17.5-14.1c3.2-3.8,16.9-14.3,20.7-17.4l-3.4,13.9c-2.4,10.7-0.6,15.3,0.6,24.3c0.2,1.5,0.4,3.1,0.6,4.7
					c2.8-2.5,6-4.6,9.7-5.8c8.5-2.9,14.7,0.2,19.7,2.7c3.1,1.5,5.7,2.8,8.9,3c7,0.3,13.4-3.3,19.1-10.7c2.8-3.7,3.6-7.7,4.5-12.5
					c0.8-4.2,7.8-16.2,10.4-20.8c0,0,1.5,19.3,0.8,23c-1,5.3-2.2,11.4-6.6,17.2c-8,10.4-17.9,15.7-28.6,15.2
					c-5.5-0.2-9.7-2.3-13.3-4.1c-4.6-2.3-7.2-3.4-11.1-2.1c-6.2,2.1-16.9,17.2-16.9,17.2l-10.5,12.8c0.2-0.6,2-17.7,2.4-18.5
					c1.7-4.9,0.8-12.1-0.1-19.6c-0.4-3.6-0.9-7.4-1.1-11.2c-5.6,6.3-12,12.4-20.7,14.1c-10.8,2.1-21.7-0.3-28.3-6.4
					C-1252.4,1591.9-1254.2,1579.1-1251.2,1568.7z"/>
			</g>
			<g id="g965">
				<path id="path963" d="M-604.9,1999.1l46-32.8c0,0,0.3-0.2,0.6-0.4c-132-4.6-210.4-51.1-234.6-67.9c0.9,18.8,5.1,39.8,9.6,58.1
					c9.8,5.3,71.3,37,148.8,42.7c-0.1-0.1-0.1-0.1-0.2-0.2l1.4-0.2L-604.9,1999.1z"/>
			</g>
		</g>
		<g id="g973" transform="matrix(-0.02221766,0,0,0.02109271,39.530277,56.53506)">
			<g id="g971">
				<path id="path969" d="M-1447.6,2096.2c-4.5-13.6-1.5-30.2,3.8-37c4.5,3.8,16.6,2.3,24.9-9.8c8.3-12.1,12.1-18.9,16.6-15.9
					c4.5,3,10.6,25.7,22.7,34.7c12.1,9.1,27.2-4.5,36.2-18.9c9.1-14.3,18.9-18.9,24.2-26.4c-8.3-26.4-43.8-27.9-57.4-25.7
					c-13.6,2.3-17.4-3-17.4-3c33.6-63.7,133.5-138.5,151.9-151.9c-11.4-22.5-14.7-46.2-15.2-63c-0.2-4.7-0.4-7.9-0.8-10.3
					c-3.3,1.9-6.5,3.9-9.2,5.9c-60.8,46.1-95.5,102.2-102.4,113.2c-7,11-23.9,31.9-39.4,39.9s-33.9,6.5-57.6,24.4
					c-6.6,5-28.9,32.2-35.6,34.6c-6.7,2.5-19.2-6.2-29.2-17.9c-10-11.7-29.2-25.9-29.2-25.9c-3.2,42.6-42.9,77.3-41.1,78.3
					c1.7,1,16.5,3.2,32.7,0.2c16.2-3,21.4-6.8,29.2-5c16.2,3.7,4.7,24.7-1.2,28.2c-6,3.5-19.7,6.2-25.2,7.2s-16.5,15.2-23.9,17.9
					c-7.5,2.7-19.6,4.4-27.9,9c-19.2,10.5-9,28.9-3.7,30.7c5.2,1.7,23.2,24.1,34.1,30.7c19.4,11.7,31.9-9.7,35.4-16.5
					c3.5-6.7,9.5-10.7,19.9-14.7c10.5-4,14-9.3,17.7-16.1c3.8-6.8,5.3-15.9,12.1-13.6s8.3,19.6,0.8,24.2
					c-20.4,15.9-21.1,37.7-21.1,37.7s36.2,4.5,46.1,5.3c9.8,0.8,25.7,6.8,38.5-3C-1425.7,2134-1443.1,2109.8-1447.6,2096.2z"/>
			</g>
		</g>
		<g id="g977" transform="matrix(-0.02221766,0,0,0.02109271,39.530277,56.53506)">
			<path id="path975" class="st1" d="M-1245.6,1161.4c0,0-5.7,48.4,14.8,63.8c20.5,15.4,43.3,23.3,91.1,14.2
				c47.8-9.1,79.1-10.2,95.7,5.1c-31.3-0.6-95.2,16.1-135,24.5c-29.6,6.3-115,1.1-72.3-103.1
				C-1246.1,1153.3-1245.6,1161.4-1245.6,1161.4z"/>
		</g>
		<g id="g983" transform="matrix(-0.02221766,0,0,0.02109271,39.530277,56.53506)">
			<g id="g981">
				<path id="path979" d="M-678,2683.8c4.1-33.8,0-73.1-17-81.3c-11.7-5.6-49.1-22.7-32.8-95.1c2.7-12,32.7-71.6,112.5-126.3
					c-19.4-5.9-36.6-15.5-53.3-27.9c-34.5,24.5-119.6,95.5-126.6,205.2c-1.7,26.5-19.5,25.8-30.9,27.1
					c-11.3,1.3-39.7,10.7-34.6,54.2c5,43.5-1.7,82.6-21.4,80c-28.3-3.8-22.7-68-22.7-68s-52.1,77.2,17.6,103.9
					c29.6,11.3,63.6-19.5,70.5-39.7c3.2,31.5-23.9,110.2-79.4,114c-13.2,0.9-36.5-26.5-19.5-48.5c-25.8,1.3-66.8,59.8,8.8,92.6
					c18.3,7.9,108.3,15.7,172.6-143.6c14.5,39.1,76.8,98.9,125.3,31.5C-635.1,2763.1-688.7,2771.3-678,2683.8z"/>
			</g>
		</g>
		<g id="g989" transform="matrix(-0.02221766,0,0,0.02109271,39.530277,56.53506)">
			<g id="g987">
				<path id="path985" d="M-585.2,2054.9c3.7-2.4,6.2-4.2,6.2-4.2c101.3-79.2,179.3-55.4,197.2-46.5
					c69.1,34.6,49.4,140.6,49.4,140.6l-0.9,2.5c20.3,3.9,36.4,11.2,49,19.7c34.2-118-14.7-169.8-35-187.8
					C-439,1872.6-601,2015.5-601,2015.5s-1.7,1.9-4.2,4.7C-600.2,2029.1-593.1,2041.3-585.2,2054.9z"/>
			</g>
		</g>
		<g id="g993" transform="matrix(-0.02221766,0,0,0.02109271,39.530277,56.53506)">
			<path id="path991" d="M-895.9,2393.5c-1.4-10.2,7.2-23.9,13.3-35.8c6.1-11.9,8.5-37.5-5.1-49.5c-5.8,23.9-64.2,69.6-103.4,46.4
				c-24.9-14.7-44.7-80.9,26.3-134.5c20.3-15.3,83.6-39.9,111.3-74.8c13.9-17.6,22.8-35.1,28.2-48.2l0.2-2.6
				c1-17.7-12.4-29.4-36.3-42c-19-10.1-41.3-2.9-41.5-2.8l-8.9,3l1.5-9.2c0.1-0.9,3.5-20.9,13.2-36.6c-18-14.9-44.9-21.1-64-23.7
				c2.3,21.6-7.2,82.6-38,94.5c-34.2,13.2-97.5,5.3-129.1,18.4c-22.3,9.3-80.9,45.6-95.6,118.7c-3,0.7-6.2,1.1-9.8,1
				c-20.4-0.7-39.3-16.1-66.4,3.6s-33.2,46.8-55.7,52.9c-22.5,6.1-40.7,0.7-42.5-23.6c-0.6-7.5-30.4,56.8,27.9,61.8
				c23.5,2,52.9-23.9,52.9-23.9l-6.1,33.2c0,0,42.1,5,56.8-3.9c14.6-8.9,33.2-27.5,33.2-27.5s-10.7,43.6-26.1,47.9
				c18.2-0.3,32.1,1.9,46.4-9.5c6.4,19.2,18.6,60.7,44.3,69.7c26.3,9.2,38.2,13.2,23.7,22.4c-14.5,9.2-61.9,29-92.2,125.1
				c-21.1-4-51.4-7.9-67.2,0c-5.6-14.3,0.2-32.7-28.8-51.8c-3.3-2.2-20.5,40.3-30.4,47.4c-9.9,7.2-30,6.1-40.6-0.3
				s-20.5-10.2-20.5-10.2s5.1,56,0,61.8c-5.1,5.8,30.4,6.1,36.9,15.7c6.5,9.6,11.3,34.8-1.4,49.5c21.5,3.8,36.2,13.3,64.2-17.4
				c6.5-7.1,4.8,2.7,8.9,8.2c4.1,5.5,8.2,12.6,21.5,10.2c13.3-2.4,31.1-3.4,36.9,4.4s11.9,22.5,11.9,22.5s25.9-8.9,27-54.3
				c8.2,1.4,15.4,6.1,20.8,7.5c5.5,1.4,21.5-14.7,31.7-20.5c10.2-5.8,42-28.3,55-20.8s24.9,16.4,24.9,16.4s2.7-20.8-32.1-56.3
				c-3.8-3.9-5.8-16.4,0.7-13.7c6.5,2.7,48.3,19.3,55,23.2c8.2,4.8,23.6,17.1,52.6-7.2c12.5-10.4,45.4-52.2,50.5-56
				c5.1-3.8,28-28,47.1,9.6c6.3,12.3,8.5,30.4,8.2,35.2c-0.3,4.8,59.7-49.2-4.1-79.9c-5.4-2.6,1.7-26.3,13.7-27
				c12-0.7,36.9-2,36.9,50.9C-844,2479.9-790.5,2402.4-895.9,2393.5z"/>
		</g>
		<g id="g1019" transform="matrix(-0.02221766,0,0,0.02109271,39.530277,56.53506)">
			<g id="g997">
				<path id="path995" d="M-523.8,1639.1c-3.2,16.1-22.1,30.7-34.6,38.9c6,5.4,10.7,13.3,8,23.2c-0.1,0.4-0.3,0.8-0.4,1.2
					c47.3-3.1,171.5-17.7,260.6-85.2c7.6-20.3,24.9-71.9,27.2-124.3C-338.7,1566.2-495.3,1628.2-523.8,1639.1z"/>
			</g>
			<g id="g1001">
				<path id="path999" d="M-545.6,1615.5c7,1.3,13.5,3.7,17.7,8.2c1.1,1.2,2,2.5,2.7,3.9c29.7-11.6,150.6-60.7,227.3-119.7
					c10.4-24.3,40.2-104.5,21.2-183.4c0,0-1.5,1.9-4,4.6c-82.1,134.3-217.6,205-242.4,217.1c-3.1,11.2-9,21.4-14.2,28.8
					c0.6,0.3,1.2,0.7,1.8,1.1c3.1,2.1,6.8,6.5,6.8,14.8C-528.7,1600.2-536.6,1608.7-545.6,1615.5z"/>
			</g>
			<g id="g1005">
				<path id="path1003" d="M-589.5,1721.2c5.4,5.2,10.5,11.9,12.4,19.4c1.7,6.7,0.6,13.4-3.1,19.3c-6.8,10.9-18.2,15.7-28.7,17.8
					c45.5,10.1,168.3,29.5,274.6-25.1c6.7-3.4,36.9-44,52-125.9c-0.1-0.4-0.2-0.8-0.3-1.1c-102.6,78.2-250.3,87.6-281.5,88.8
					C-571.6,1717.8-580.8,1719.9-589.5,1721.2z"/>
			</g>
			<g id="g1009">
				<path id="path1007" d="M-414.3,1157.4c-3.6-23.3-14-77.3-37.4-112.5c-9.3,27.8-60.1,170.4-171.4,315.1v64
					C-590.8,1393.3-486.1,1288.9-414.3,1157.4z"/>
			</g>
			<g id="g1013">
				<path id="path1011" d="M-330.9,1215.2c-16.3,36.7-46.1,95.5-95.4,157c-61.8,77.1-128,109.8-149.9,119.1c0.8,1.4,1.5,2.9,1.9,4.6
					c1.9,7.7,0,16.8-2.9,24.9c15.8-7.1,35.6-13.5,47-7.7c5.3,2.7,8.5,7.7,9.1,14.1c0.2,1.8,0.2,3.5,0.2,5.3
					c34.4-17.7,144-80.3,218.9-191c2.8-25.1,8.7-96.6-18.7-145.5C-324.1,1203.9-327.6,1210.2-330.9,1215.2z"/>
			</g>
			<g id="g1017">
				<path id="path1015" d="M-587.2,1483.7l-0.1-0.2c0.8-0.3,80.5-29,152.1-118.4c43.8-54.6,72-107.2,88.9-143.5
					c-2.8-25.3-11.9-97-28-120.3c-72.5,168.5-215.8,307.5-245.7,335.4c8.8-0.8,20.4-0.7,28.3,4.3c4.6,2.9,7.6,7.2,8.7,12.3
					c2.1,9.9-2.1,21-7.5,30.2C-589.4,1483.4-588.3,1483.5-587.2,1483.7z"/>
			</g>
		</g>
		<g id="g1023" transform="matrix(-0.02221766,0,0,0.02109271,39.530277,56.53506)">
			<path id="path1021" d="M-636.5,1801.2c-4.2,2.9-10,4.1-16.6,4.1c-4,0-8.2-0.7-12.5-1.8c0.9,20.5-9.5,40.1-27,50.3
				c36.3,16.8,269.2,100.1,360.5-80.8c1.5-3.4,2.8-6.8,2-7.8c-0.9-1.1-3.6,0.3-7.5,1.9c-54.9,26.1-113.4,33.8-163.5,33.8
				c-59.1,0-106.6-10.8-123.1-15.1C-626,1791.6-630.1,1796.8-636.5,1801.2z"/>
		</g>
		<g id="g1027" transform="matrix(-0.02221766,0,0,0.02109271,39.530277,56.53506)">
			<path id="path1025" class="st2" d="M-1046.5,1142.6c0,0,15.6,19,23.3,21.1s30.9,0.2,38.1-10.9c7.3-11.2-21.9-16.8-25.8-17
				c-3.9-0.2-14,19-14,19l1.8-18.8C-1022.9,1136-1040.6,1138.2-1046.5,1142.6z"/>
		</g>
		<g id="g1031" transform="matrix(-0.02221766,0,0,0.02109271,39.530277,56.53506)">
			<path id="path1029" d="M-600.8,1071.2c0,0-16.4,191.6-60.5,274.1c-1,1.9-2.1,3.8-3.2,5.6c0,10.4-0.1,24.1-0.2,42.4
				c21.6-24.8,75.3-88.8,110.3-150.3C-550.2,1235.5-520,1126-600.8,1071.2z"/>
		</g>
		<g id="g1041" transform="matrix(-0.02221766,0,0,0.02109271,39.530277,56.53506)">
			<g id="g1035">
				<path id="path1033" d="M-779.2,1553.1c9.2,4.7,21.6,3.1,31.6,0.2c-7.8-5.5-14.3-13.5-18.8-23.2c-13-28.1,12.9-54.4,16.8-58.1
					l-17.6-7.1c-1.7-0.7-3.4-1.5-5.1-2.3c-2.1,2.3-4,4.3-5.5,5.9C-812.8,1504.9-797.7,1543.6-779.2,1553.1z"/>
			</g>
			<g id="g1039">
				<path id="path1037" d="M-757.7,1446c0.6,2.2,1.2,3.8,1.8,4.8l11.4,16.6c13.8-11.7,51.5-43,64.2-53.5l0.3-0.3
					c1.9-2.1,3.8-4.2,5.6-6.4c0.1-11.4,0.8-99.6-1-82.4c-1.9,18.4-40.6,65.7-56.7,88.3C-740.1,1424.7-749.3,1436.2-757.7,1446z"/>
			</g>
		</g>
		<g id="g1045" transform="matrix(-0.02221766,0,0,0.02109271,39.530277,56.53506)">
			<path id="path1043" d="M-713.3,1860.1c-5.7,0.3-11.2-0.4-16.2-2.4c-5.8-2.3-10.6-5.9-14.2-10.8c-10.5,7.3-24.4,10.5-36,7.6
				c-1.5-0.4-4.8-3.4-6.1-3.9c0.9,11-2,20.2-6.6,27.3c-0.1,1-0.2,2.1-0.3,3.1c15.2,10.7,106,69.9,256.4,70.5
				c6.4-3.9,12.9-7.4,17.7-9.2c13.2-5,86.9-40.9,98.3-47.9c11.3-6.9,36.5-25.2,36.5-25.2l-0.8-0.3c-58.4,22.9-112.1,30.9-158.4,30.9
				C-645.8,1899.9-712.3,1860.8-713.3,1860.1z"/>
		</g>
	</g>
	<text transform="matrix(1 0 0 1 64.7166 36.9609)" class="st3 st4">Internetowi Słowôrz</text>
	<text transform="matrix(1 0 0 1 64.7166 61.9609)" class="st3 st4">Kaszëbsczégò Jãzëka</text>
</g>
</svg>
