<?xml version="1.0" encoding="utf-8"?>
<!-- Generator: Adobe Illustrator 27.2.0, SVG Export Plug-In . SVG Version: 6.00 Build 0)  -->
<svg version="1.1" id="logo_xA0_Obraz_00000086691342448234413790000002953587084768484996_"
	 xmlns="http://www.w3.org/2000/svg" xmlns:xlink="http://www.w3.org/1999/xlink" x="0px" y="0px" viewBox="0 0 1000.1 1000.1"
	 style="enable-background:new 0 0 1000.1 1000.1;" xml:space="preserve">
<g>
	<g>
		<path d="M952.2,638.9c-1,3.9-4.3,7.8-5.5,12.6c-2,1.9-2.8,4.8-4.3,7.3c-2.3,3.9-4.4,7.9-6.8,11.8c-2.7,4.5-5.3,9.2-8.5,13.3
			c-3.4,4.2-6.1,8.9-9.6,13c-3.3,3.8-6.5,7.8-9.7,11.8c-7.1,8.9-15,16.9-23.1,24.8c-2.2,2.1-4.2,4.5-6.5,6.4
			c-4.1,3.3-7.6,7.3-12,10.3c-1.3,0.9-2.1,2.4-3.4,3.3c-5.5,4-10.3,8.8-16.1,12.4c-2.2,1.4-4.4,3.1-6.3,5c-2.3,2.3-5.2,3.6-7.8,5.5
			c-4.4,3.4-9.4,6.2-14.1,9.2c-3.9,2.5-8.2,4.6-11.9,7.2c-5,3.5-10.6,6.1-15.8,9.3c-4.6,2.8-9.6,5.2-14.5,7.5c-2.1,1-4,2.2-6.1,3.2
			c-3.3,1.6-6.6,3.1-9.8,4.6c-4.2,1.9-8.3,4-12.5,5.8c-4.5,1.9-9.1,3.5-13.6,5.3c-2.4,1-4.7,2.2-7.1,3.1c-3.7,1.4-7.5,2.5-11.2,4
			c-4.8,2-9.9,3.2-14.9,5c-1.2,0.4-2.2,1.2-3.5,0.9c-1.4,1.5-3.2,1.8-4.9,2.1c-3.2,0.6-6,2.3-9.1,2.7c-3.3,0.4-6.1,2.1-9.4,2.6
			c-2.9,0.4-5.7,1.6-8.5,2.5c-1.5,0.5-3.1,0.6-4.5,0.9c-2.1,0.4-4.1,1.7-6.4,1.3c-0.7-0.1-1.2,0.2-1.9,0.6c-1.3,0.8-2.6,1.8-4.3,1.5
			c-1.9-0.3-3.5,0.7-5.3,1c-5.4,1-10.9,2.1-16.3,3.1c-5.6,1.1-11.1,2.3-16.8,3c-4,0.6-7.8,1.5-11.9,1.9c-2,0.2-4.1,0.7-6.2,0.7
			c-0.9,0-1,1-2.1,1.2c-5.7-0.5-11.6,0.8-17.6,1.3c-7.7,0.7-15.4,1.4-23.1,1.9c-3.4,0.2-6.9,0.3-10.4,0.7
			c-17.8,1.9-35.7,0.6-53.5,0.9c-1.6,0-3.2-0.1-4.8,0c-7.8,0.6-15.5-0.7-23.3-1.2c-4.9-0.3-9.8-0.1-14.7-0.8
			c-6.6-0.9-13.2-1.4-19.7-2.1c-3-0.3-6.1-0.4-9.4-0.9c-0.7-1-2.1-0.8-3.3-1.2c-5.2-1.6-10.9,0-15.9-2.6c-1-0.5-2.4-0.2-3.6-0.2
			c-2.9,0-5.6-0.8-8.3-1.7c-1.5-0.5-3.2-0.2-4.7-0.5c-9.2-2.4-18.6-3.7-27.7-6.6c-4.3-0.8-8.4-2.1-12.7-3c-3.1-0.6-5.9-2.1-9.1-2.3
			c-1.4-0.1-2.8-1-4.3-1.4c-4.1-1.2-8.3-2.4-12.5-3.5c-1.6-0.4-3-1-4.3-2.2c-2,0.3-3.7-1.1-5.6-1.5c-2.5-0.6-4.8-1.5-7.1-2.3
			c-2.5-0.9-5-1.6-7.5-2.5c-4-1.4-7.9-2.9-11.8-4.4c-2.1-0.8-4-1.9-6.2-2.5c-2.4-0.7-4.4-2.3-6.9-2.5c-0.8-0.1-1.2-0.6-1.8-1
			c-4.1-2.2-8.7-3.4-12.7-5.7c-0.6-0.3-1.4-0.3-2.1-0.4c-0.6-0.6-1.1-1.2-1.7-1.9c-9.8-3.8-19.1-8.6-28.1-14
			c-0.8-0.1-1.6-0.1-2.4-0.2c-1.4-1.7-3.4-2.5-5.3-3.5c-3.4-1.8-6.7-3.9-10-5.9c-2.8-1.6-5.9-2.9-8.4-4.7c-3.3-2.4-7-4.3-10.2-6.9
			c-2.3-1.9-5.2-3.2-7.7-4.9c-1.7-1.1-2.9-2.7-4.7-3.7c-3.9-2.1-6.9-5.4-10.7-7.6c-1.5-0.9-3-2.3-4.4-3.5c-2.5-2.2-5.1-4.3-7.7-6.2
			c-2.8-2-5-4.7-7.9-6.6c-2.8-1.8-4.8-4.8-7.5-6.9c-7.1-5.5-12.9-12.3-19.2-18.5c-4.2-4.1-7.9-8.7-11.9-13c-3.1-3.5-6.2-7.2-8.9-11
			c-2.1-2.9-4.1-6-6.3-8.7c-3.8-4.6-6.8-9.6-10.1-14.4c-3.1-4.6-6-9.3-8.5-14.2c-1.9-3.7-4.1-7.4-6.1-11.1c-2.2-4-4.1-8.1-5.7-12.4
			c-0.6-1.7-1.9-3-2.4-4.8c-1-3.2-2.4-6.3-3.6-9.5c-1.2-3.2-2.7-6.3-3.5-9.6c-0.7-3.2-2.6-6.1-2.5-9.6c-2.1-1.4-1.5-3.9-2-5.9
			c-1.4-5.2-2.4-10.5-3.3-15.8c-0.7-4.3-1.2-8.6-2.1-12.8c-3.2-16.5-1.3-33.1-1.5-49.6c0-2.9,0.1-6.3,1.5-9.3
			c0.7-1.7,0.2-3.9,0.2-5.9c0-1.2-0.3-2.4,0.9-2.9c1.4-9,3-17.7,5.9-26c0.4-3.5,2.2-6.5,2.9-9.9c0.8-3.5,2.3-6.7,3.5-10
			c1.8-5,3.7-10,6.3-14.8c1.6-3,2.8-6.3,4.3-9.4c2.5-4.9,5.2-9.7,7.8-14.6c3.3-5.9,7-11.5,10.5-17.2c2.1-3.3,4.8-6.4,7-9.6
			c3.4-5,7.2-9.7,11-14.4c2.5-3.1,5.2-6.2,7.9-9.3c7.8-9.1,16.4-17.5,25.1-25.7c5.6-5.2,11.2-10.3,17.2-15c2.8-2.1,5.6-4.5,8.4-6.8
			c3-2.5,6.2-4.8,9.4-7.1c2.1-1.5,4.3-2.9,6.2-4.6c2.2-2,5-3.4,7.5-5.1c4.6-3.1,9.2-6.3,13.9-9.3c3.1-2,6.4-3.8,9.7-5.7
			c4.9-2.8,9.7-5.8,14.6-8.5c4.1-2.2,8.3-4.1,12.4-6.4c5-2.8,10.3-4.9,15.4-7.5c3.2-1.6,6.7-2.7,9.7-4.5c5-2.9,10.5-4.6,15.7-6.8
			c4.7-2,9.4-4.4,14.6-5.4c1.9-0.3,3.6-1.7,5.6-2.3c5.5-1.7,10.8-3.7,16.2-5.7c4.4-1.6,9.1-2.4,13.4-4c6.7-2.5,13.7-3.7,20.5-6
			c4.5-1.5,9.2-2.2,13.8-3.6c2-0.6,4.3-1.4,6.6-1.3c1.7,0,3.5-0.6,4.9-1.6c0.7-0.5,1.4-0.4,2-0.4c4.5-0.5,9-1.7,13.4-2.7
			c2.1-0.5,4.2-0.6,6.3-0.9c2.9-0.4,5.7-1.4,8.7-1.4c2.3,0,4.4-1.2,6.7-1.6c2.4-0.5,4.9-0.4,7.3-0.5c0.9-1,0.6-2.2,0.6-3.3
			c0-26.5,0.1-52.9,0-79.4c0-3.6,1.3-7,1-10.9c3.4,0.4,6.6,0.3,9.6,1.1c3.3,0.9,6.7,0.8,10.1,1.5c4.8,1.1,9.8,1,14.5,2.3
			c4.3,1.1,8.6,1.2,12.9,2c6.6,1.2,13.3,2.1,19.9,3.1c2.6,0.4,5.4,0.1,7.9,0.9c6,2,12.4,1.8,18.5,3.4c2.9,0.8,6,0.7,8.9,1.2
			c2.9,0.5,6,0.6,8.7,1.4c4.3,1.2,8.8,1.2,13.1,1.9c6.8,1.3,13.7,2.2,20.6,3.2c4.6,0.6,9.4,1.8,14,2.5c4.3,0.7,8.6,1.8,12.9,2
			c5.6,0.3,10.9,2.1,16.5,2.3c2.7,0.1,3.8,1.9,3.8,4.7c0,18.9,0,37.7,0,56.6c0,1.1-0.2,2.2,0.5,3.5c4.8-0.1,9.3,1.7,14.1,2.5
			c7.4,1.2,14.7,2.5,22.1,4.1c4.3,1,8.6,2,12.9,2.9c4.2,0.8,8.4,1.9,12.5,3.1c4.6,1.3,9.2,2.6,13.8,3.7c3.9,1,7.8,2.1,11.6,3.6
			c2.5,1,5.2,1.4,7.7,2.3c4.5,1.6,9.1,3,13.6,4.5c4.1,1.4,8.2,2.9,12.2,4.3c4.7,1.7,9.4,3.4,14,5.2c2.5,0.9,4.8,2.2,7.2,3.3
			c3.3,1.4,6.8,2.6,10.1,4.4c3.7,2.1,7.9,3.3,11.7,5.2c3.6,1.9,7.3,3.4,11,5.3c4.4,2.3,8.9,4.5,13.2,6.9c4.1,2.3,8.4,4.3,12.4,7
			c4.2,2.8,8.7,5.2,13,7.8c3.4,2.1,6.8,4.4,10.2,6.5c4.6,2.9,8.9,6.4,13.5,9.3c4.6,3,8.8,6.5,13.3,9.6c2.3,1.6,4.4,3.7,6.7,5.4
			c3.3,2.4,6.1,5.3,9.4,7.6c2.5,1.8,4.5,4.5,6.9,6.5c8.6,7.1,16.1,15.3,23.8,23.2c5.8,6,11.1,12.4,16.2,19c3.6,4.6,7.2,9.3,10.6,14
			c2.5,3.4,4.6,7.1,7,10.6c2.8,4,4.9,8.4,7.8,12.2c2.1,2.7,3.1,5.9,4.7,8.9c3.4,6.4,7.1,12.7,9.7,19.5c1.9,4.8,4.1,9.5,5.5,14.5
			c0.8,2.8,1.7,5.6,2.7,8.4c0.3,0.7,1.1,0.7,1.1,1c0.3,3.7,1.7,6.8,2.7,10c0.6,1.9,0.3,4,1.2,6c1.6,3.6,0.9,7.9,3,11.5
			c0.2,0.4,0.1,0.9,0.1,1.4c0,3.9,0.8,7.7,1.8,11.5c0,0.2,0.1,0.3,0.1,0.5c-0.5,4.8,1.4,9.3,1.1,14.1c-0.4,7.1,1.9,14.1,0.8,21.1
			c-0.8,5.5-0.2,11.1-1.1,16.5c-0.5,3.3-0.1,6.7-0.9,9.8c-1.3,5.2-1.3,10.6-2.8,15.7c-1.3,4.1-1.6,8.4-3,12.5c-1,2.9-1,6-2.6,8.8
			c-0.4,0.8-0.2,1.9-0.5,2.7C959.6,620.7,956.7,629.6,952.2,638.9z M406.3,227.2c-1.9-0.9-2.9,0.4-4.2,0.5
			c-7.9,0.8-15.6,2.7-23.3,4.4c-10.2,2.2-20.3,4.9-30.4,7.6c-7.1,1.9-14.2,4.2-21.2,6.5c-9.1,3-18.1,6.2-26.9,9.8
			c-7.6,3.1-15.1,6.1-22.5,9.5c-5.6,2.6-11.1,5.2-16.6,7.9c-6.9,3.4-13.8,7-20.5,10.8c-4.4,2.5-9,4.9-13.2,7.7
			c-4.9,3.3-10.2,6.2-15,9.6c-6.7,4.8-13.6,9.3-20,14.5c-6,4.9-12.2,9.6-18.1,14.7c-8,7-15.6,14.3-23,21.9
			c-6.3,6.5-12.2,13.2-17.9,20.1c-5.4,6.7-10.7,13.6-15.4,20.9c-4,6.1-7.8,12.2-11.5,18.6c-3.3,5.7-6.2,11.6-9.2,17.4
			c-4.3,8.2-7.4,17-10.6,25.6c-1.5,4-2.6,8.2-3.8,12.3c-0.8,2.6-1.4,5.3-2.2,7.9c-0.9,3.2-1.2,6.5-2.1,9.6
			c-1.9,6.5-1.8,13.2-3.7,19.7c-0.9,2.9-0.7,6.3-0.9,9.5c-0.8,15.6-0.7,31.1,0.7,46.7c0,0.4,0.1,0.8,0.2,1.2c1.5,3.3,1.4,7,1.8,10.4
			c0.3,2.6,1,5.1,1.5,7.7c0.4,1.6,0.2,3.3,0.8,4.9c1.3,3.1,1.6,6.4,2.6,9.6c1,3.1,1.8,6.3,2.7,9.5c1,3.5,2.3,6.9,3.5,10.3
			c1.6,4.4,3,9,5.1,13.2c2.3,4.5,4.2,9.2,6.6,13.7c2.8,5.4,5.6,10.8,8.7,16.1c3.3,5.7,7,11.1,10.5,16.6c1.4,2.1,2.6,4.4,4.2,6.2
			c4.6,5.2,8.4,11.1,13.1,16.3c4.4,5,8.7,10.3,13.4,15.1c8.1,8.2,16.1,16.5,24.9,24c5.3,4.5,10.7,9,16.3,13.3
			c7,5.4,14.1,10.7,21.5,15.6c6.6,4.4,13.4,8.6,20.1,12.9c3.2,2,6.6,3.8,9.9,5.8c7,4.1,14.3,7.6,21.5,11.3c4.3,2.2,8.7,4.2,13.2,6.2
			c5.2,2.3,10.5,4.6,15.8,6.8c4.4,1.8,8.9,3.4,13.3,5.2c2.8,1.1,5.7,1.9,8.5,3c4.1,1.7,8.3,3.4,12.5,4.6c6.2,1.7,12.3,3.8,18.4,5.6
			c5.6,1.6,11.2,3.1,16.8,4.6c9.5,2.5,19,4.8,28.7,6.2c0.3,0,0.6,0.2,0.9,0.3c2.4,0.5,4.7,1.3,7.1,1.4c2.9,0.1,5.6,0.8,8.4,1.3
			c5.7,1,11.5,1.5,17.2,2.7c3.8,0.8,7.8,0.7,11.6,1.3c8.5,1.4,17,1.6,25.5,2.4c9.1,0.8,18.2,1,27.3,1.1c10.6,0.2,21.3,0.2,31.9-0.1
			c10-0.3,20.1-1,30.1-1.7c8.2-0.6,16.4-1.4,24.5-2.4c5-0.6,9.9-2,14.9-2.5c5.1-0.4,10.1-1.8,15.3-2.2c1.8-0.2,3.7-0.6,5.6-1
			c4.1-0.9,8.1-1.9,12.1-2.8c5.3-1.2,10.7-2.3,16.1-3.6c3.9-1,7.8-2.5,11.7-3.3c5.1-1.1,10.1-2.5,15-4.3c5.9-2.1,12-3.5,17.8-5.8
			c5.4-2.2,11-3.8,16.4-5.9c6.1-2.4,12.3-4.8,18.3-7.4c7.7-3.4,15.3-7.1,22.9-10.8c11.4-5.5,22.3-11.7,33.1-18.2
			c9.1-5.6,18.1-11.4,26.8-17.7c6.7-4.8,13.3-9.9,19.7-15.1c8.4-6.9,16.6-14,24.2-21.8c5.1-5.2,10.4-10.2,15.1-15.7
			c5.4-6.3,10.8-12.7,15.8-19.3c5.1-6.8,9.9-13.7,14.4-20.8c5.3-8.4,10.3-17,14.5-26c3.5-7.4,6.8-14.9,9.7-22.5
			c2.2-5.9,3.9-12.1,5.9-18.1c1.9-5.8,3.2-11.7,4.4-17.6c1-5.1,2.1-10.2,2.8-15.4c1.2-9.2,1.7-18.4,2.1-27.6
			c0.4-10.3-0.5-20.5-1.4-30.8c-0.6-7.2-2-14.3-3.5-21.3c-1-4.6-2.1-9.2-3.4-13.8c-1.7-6.1-3.6-12.2-5.6-18.2
			c-1.3-3.8-3.1-7.5-4.6-11.3c-2.9-7.4-6.4-14.5-10.1-21.6c-2.9-5.7-6.1-11.3-9.5-16.8c-4.6-7.5-9.6-14.7-14.8-21.7
			c-5.2-7-10.8-13.7-16.5-20.2c-7.3-8.4-15.3-16.1-23.3-23.7c-7.1-6.8-14.9-12.9-22.5-19.1c-5.4-4.4-11.1-8.3-16.8-12.4
			c-8.1-5.8-16.5-11.3-25.1-16.4c-8.8-5.3-17.8-10.4-27.2-14.9c-5.6-2.7-10.9-5.8-16.5-8.4c-6.2-2.9-12.5-5.4-18.8-8
			c-5-2.1-10-4.2-15.1-6.1c-6-2.2-12.2-4.1-18.3-6.2c-3.9-1.3-7.8-2.6-11.7-3.8c-7.5-2.4-15.2-4.1-22.7-6.2
			c-8.4-2.4-17-3.6-25.3-6.1c-2.5-0.7-5-0.9-7.4-1.4c-3.2-0.6-6.4-2-10.2-1c0,54.5,0,109,0,163.5c-1.2,1.4-2.6,1.1-3.9,1.1
			c-23.5,0-47,0-70.5,0c-38.3,0-76.6,0-114.9,0c-1.4,0-3,0.4-3.8-1.5c0-0.5,0-1.2,0-2c0-53,0-106,0-159.1
			C407,228.9,407.2,227.6,406.3,227.2z M462,177.7c0.2,0.6,0.2,0.9,0.3,1c3,4.1,4.5,8.4,2.8,13.5c-1.8,5.3-2.8,10.9-4.6,16.2
			c-1.8,5.1-3.1,10.4-4.6,15.6c-1.6,5.6-3.3,11.2-5.1,16.8c-1.3,4.2-2.6,8.5-3.8,12.7c-1.5,5.3-2.8,10.7-4.4,15.9
			c-3,9.6-5.9,19.2-7.9,29c-1.8,9.4-1.8,18.9,1.7,28c3,7.9,7.4,14.9,14.6,19.6c3.2,2.1,6.9,3.3,10.3,5c7.1,3.5,14.6,4.8,22.2,5.7
			c1.8,0.2,3.4,1.7,5.4,0.8c0.4-2.1-1.3-3.2-2.3-4.8c-8.5,1-16.4-1.3-24-4.4c-5.4-2.2-10.3-5.4-14.6-9.8c-7.1-7.3-10.2-16-10.8-25.8
			c-0.4-6.4,0.9-12.6,2.2-18.8c0.9-4.4,1.3-8.9,2.7-13.2c2.7-8.3,5-16.8,7.4-25.2c1.8-6.2,3.8-12.4,5.6-18.5
			c2.4-7.9,4.8-15.7,7.2-23.6c1.7-5.8,3.7-11.6,5.4-17.3c1.1-3.6,2.1-7.7,0.5-11.8c-0.5-1.2-0.7-2.8,0.1-4.1
			c5.1-0.9,10.3,3.6,10.5,9.1c0.3,6.1-1.7,11.7-3.2,17.5c-0.8,3.1-1.8,6.3-2.4,9.4c-1.2,6.1-2.8,12.1-3.9,18.1
			c-1,5.6-1.5,11-1.4,16.6c0,3.1,2.1,5.8,5.1,6.6c2.2,0.6,4.5,1,6.9,1.6c0,3.3,0,6.4,0,9.3c1.8,1.6,39.6,2,44.2,0.6
			c0-3.1,0-6.2,0-9.4c2.3-1.3,4.7-1.4,6.9-1.9c1.5-0.4,3.1-0.7,3.9-2.1c2.6-4.4,2.9-9.1,1.7-14c-0.7-2.6-1.2-5.2-1.6-7.9
			c-0.5-4.3-1.7-8.5-2.6-12.8c-0.6-2.8-1.4-5.5-2.3-8.2c-1.3-3.9-1.8-8-2.9-12c-1.1-4.1-1.5-8.3-1.2-12.6c0.3-4.3,5.8-9.7,10.7-7.8
			c0.5,1.1,0.5,2.3-0.1,3.2c-0.9,1.4-0.8,2.9-0.9,4.4c-0.3,3.8,0.9,7.3,2.1,10.9c1.5,4.8,2.4,9.9,4.2,14.5c1.2,3.1,2.2,6.3,3.1,9.4
			c1.7,5.8,3.5,11.5,5.3,17.3c0.8,2.7,1.9,5.4,2.3,8.2c0.7,4.7,2.7,8.9,4,13.4c1.3,4.7,2.6,9.6,4.3,14.2c1,2.8,1.5,5.8,2.3,8.7
			c1.6,5.7,2.4,11.5,3.4,17.2c1.5,8.3,1.2,17-2.1,25.1c-2.9,6.9-7.6,12.3-13.5,16.8c-3.8,2.8-8.1,4.8-12.6,6.2
			c-3.4,1.1-6.7,2.8-10.4,2.9c-3.3,0.1-6.7,0.6-10.1,0.3c-1.5,1.3-2.6,2.7-1.8,4.9c2,0.5,3.6-0.8,5.5-0.9c3.2-0.2,6.4-0.4,9.5-1.3
			c5.9-1.8,11.6-3.9,17.2-6.4c9.1-4.2,14.8-11.2,18.9-19.8c2.9-6.1,3.5-12.7,3.3-19.4c-0.1-4,0.1-8.1-0.6-12
			c-1.2-7.4-4-14.4-5.9-21.6c-1.4-5.1-2.7-10.2-4.3-15.2c-2.1-6.5-3.6-13.1-5.8-19.5c-1.7-4.8-3-9.8-4.5-14.7
			c-1.1-3.7-2.4-7.4-3.2-11.1c-1.2-5.7-3.3-11-4.9-16.5c-1.7-5.7-3.5-11.2-1.3-17.2c0.5-1.4,2.2-2.1,2.3-3.6
			c-0.4-0.5-0.9-0.5-1.4-0.5c-3.4,0-6.9-0.1-10.3,0.1c-1.4,0.1-2.7,1.3-4.1,1.7c-4.2,1.1-7.5,6.1-7.5,10.3c0.1,18,0.1,36,0.1,54
			c0,1.2,0,2.4,0,3.4c-4.2,2.3-6.9,0.8-6.9-3.5c0-15.4,0-30.7,0-46.1c0-1.3,0-2.7,0-4c-0.9-0.4-1.7-0.5-2.6,0.3
			c0.1,1,0.2,2.1,0.2,3.2c0,15.8,0,31.5,0,47.3c0,1.2,0.1,2.4-1,3.4c-1.6,0.5-3.2,0.6-4.8-0.8c0-17.7,0-35.5,0-53.2
			c-1.1-0.6-2-0.6-3-0.1c0,0.6-0.1,1.2-0.1,1.8c0,16.2,0,32.3,0,48.5c0,1.3,0.4,2.9-1.2,3.6c-1.6,0.8-3.3,0.6-4.9-0.8
			c0-17.7,0-35.5,0-53.2c-1.1-0.4-1.9-0.5-2.9,0.2c0,0.7,0,1.4,0,2.2c0,16,0,32,0,48c0,3.8-2,5-5.6,3.3c-0.5-1.3-0.4-2.6-0.4-4
			c0-16.9,0.1-33.7,0.1-50.6c0-5.2-1.2-9.9-6.3-12.7c-0.9-0.5-1.9-0.5-2.9-1C472.1,176.6,467.1,178,462,177.7z M529.7,337.5
			c0.5-3.5,0-6.8-0.6-10.1c-1.4-8-0.8-16.2-1.9-24.2c-0.9-6-1.3-12.1-1.1-18.1c0.1-3.1-1.2-6-1.3-9.2c-6.2,0-12.1,0-18.3,0
			c0,8.4,0,16.6,0,25.4c3.7,2.9,8.6,5.5,8.6,11.8c0,6-3.6,9.6-8.9,12.1c0,15.4,0,30.8,0,46.3c0.5,0.4,1.1,0.3,2.2-0.3
			C508.5,355.8,514.3,343.6,529.7,337.5z M480.1,275.8c-1.2,0.7-0.9,1.6-1,2.5c-0.2,3.8-0.3,7.7-0.6,11.5
			c-0.4,5.1-1.4,10.1-1.5,15.1c-0.2,5.8-0.4,11.6-1.3,17.2c-0.9,5.1-0.4,10.2-0.8,15.3c15.4,6.3,21.2,18.4,21.4,34
			c0.7,0.4,1.3,0.4,1.8-0.2c0-15.4,0-30.8,0-46.3c-5.3-2.1-8.9-6-8.8-11.7c0-5.8,4.3-9.3,8.7-11.7c0-8.9,0-17.2,0-25.7
			C491.8,275.8,485.9,275.8,480.1,275.8z"/>
		<path d="M316.8,540.5c-8.9,0-17.6,0-26.6,0c-0.4-0.1-0.7-0.8-1.1-1.2c2.3-4.6,3.7-9.3,4-14.3c2-27.1,0.3-54.3,0.9-81.4
			c0-0.5-0.1-0.9-0.1-1.5c-1.9-0.6-2.8,0.9-3.5,1.9c-5.5,7.1-11.3,13.9-16.9,20.9c-3.4,4.2-6.7,8.6-10.3,12.7
			c-5,5.7-9.6,11.9-15.6,16.9c-5.9-5.3-10.3-11.7-15.4-17.6c-5.2-6-10.1-12.2-15.3-18.1c-5.1-5.7-9.6-12-15.3-17.9
			c-0.8,2.4-0.4,3.9-0.4,5.3c0,24.9-0.1,49.7,0.1,74.6c0,4.5,1.4,9,2.5,13.4c0.5,1.9,2.4,3.9,0.6,6.4c-3.8,0-7.7,0-11.6,0
			c-4.2,0-8.3,0-12.5,0c-1.3,0-2.3-0.2-3.1-1.4c-0.2-1.6,0.9-3,1.2-4.6c2-9.1,1.8-18.4,1.8-27.6c0-28.9,0-57.7,0-86.6
			c0-2.5-0.9-4.2-2.7-5.9c-3.8-3.8-7.3-8-10.9-12c-0.4-0.4-0.4-0.9-0.2-1.6c10.1,0,20.3,0,30,0c16.2,21.8,34.7,41.3,50.7,62.4
			c1.2,0.4,1.9,0.3,2.6,0.1c0.1-0.1,0.3-0.1,0.4-0.3c3.5-5.2,7.7-9.9,11.4-14.8c3.6-4.8,7.2-9.6,10.9-14.3
			c5.4-6.9,11.1-13.6,16.4-20.7c2.6-3.5,5.9-6.5,7.7-10.5c0.7-1.6,2.1-2.3,4.1-2.2c6.2,0.1,12.5,0,18.7,0c0.9,0,1.7,0.1,2.5,0.1
			c0.6,0.7,0.7,1.4,0.2,1.9c-3.3,3.8-4.2,8.8-6.7,13.1c-0.4,0.6-0.3,1.6-0.3,2.3c0,36.9,0,73.9,0,110.8c0,2.7,1.3,5,1.8,7.6
			C317,537.7,317.3,538.9,316.8,540.5z"/>
		<path d="M776.1,465.1c-0.7,2.3-0.2,4.6-0.2,6.8c0,16,0.1,32-0.1,48c-0.1,6.4,1.7,12.3,3.9,18.5c0,0.9-0.7,1.4-1.8,1.4
			c-8,0-16,0-24-0.1c-0.2,0-0.4-0.1-0.7-0.2c-0.5-1.1-0.4-2.2,0-3.2c2.4-6.1,3.5-12.5,3.5-19c0-14.9,0.1-29.8-0.1-44.6
			c-0.1-6.1-2.2-11.7-8.3-14.3c-3-1.3-6.2-1.8-9.8-1.1c-4.5,0.9-7.7,3.5-11,6.3c-1.7,1.5-2.4,3.3-2.4,5.7c0.1,15,0.1,30.1,0,45.1
			c-0.1,5.9,0.9,11.5,2,17.2c0.4,2,1.3,3.8,2.1,5.7c0.3,0.8,0.5,1.5-0.4,2.4c-8.7,0-17.6,0.1-26.7,0c0.8-4.4,2.7-7.4,3.2-11
			c0.6-3.9,1.4-7.8,1.5-11.8c0.2-16.7,0.4-33.4,0-50.1c-0.2-7.4-1.3-14.8-4.6-21.5c0.5-0.8,0.7-1.7,1.7-1.7c6.9,0,13.9,0,21,0
			c0.6,5,0,9.9,0.3,14.7c1.6,0.5,2-0.7,2.6-1.6c2.9-4.5,6-8.8,10.9-11.4c2.7-1.4,5.5-2.7,8.6-2.6c3.8,0,7.5-0.3,11.4,0.7
			c4.2,1.1,7.2,3.5,10,6.5c2.6,2.8,4.4,6,5.6,9.7c1.7,0.2,2-1.2,2.6-2.1c2.5-4.3,5.6-8.2,9.8-11c3.2-2.2,6.7-3.6,10.7-3.7
			c4.3-0.1,8.6-0.4,12.8,0.9c5.3,1.7,9.2,5,11.8,9.9c3.5,6.5,3.9,13.5,3.8,20.7c-0.1,15.8-0.3,31.7,0.2,47.5
			c0.2,5.3,1.6,10.4,3.4,15.4c0.3,0.8,0.3,0.8,0.3,2.5c-8.8,0-17.6,0-26.4,0c-1-2.2,0.4-3.9,0.9-5.6c0.8-2.6,1.3-5.2,1.7-7.8
			c2.7-17.8,0.7-35.7,1-53.5c0.1-5.8-2.1-11.8-8.4-14.4c-2.7-1.1-5.7-1.5-8.9-1.1C783.7,458,779.9,461.5,776.1,465.1z"/>
		<path d="M602,443.8c9,0,17.9,0,26.8,0c1.2,2.1-0.3,3.9-0.9,5.4c-2.6,6.4-3,13.1-3,19.9c0,13.6-0.1,27.2-0.1,40.8
			c0,6.9,3.1,12.2,9.5,14.6c4.4,1.6,9.1,1.8,13.9,0.6c3.8-1,7.1-2.9,10.6-4.5c0-0.9,0.1-1.7,0.1-2.5c0-15,0-30.1,0-45.1
			c0-2.9,0-5.7,0.1-8.6c0.1-6.3-1.1-12.2-3.5-18c-0.3-0.8-0.8-1.6,0.2-2.6c8.6,0,17.3,0,26,0c1.1,2.2-0.2,4-0.9,5.6
			c-2.6,6.4-2.7,13-2.7,19.7c-0.1,17.3,0,34.7,0.2,52c0.1,5.3,1.4,10.5,3.3,15.4c0.4,1,0.5,1.9,0.2,3.1c-7.2,0-14.3,0-21.6,0
			c-1-0.9-1.3-2-1.2-3.4c0.2-2.9-0.4-5.7,0.4-8.6c0.2-0.8-0.5-1.2-0.8-2c-2.2,1.4-3.8,3-5.6,4.5c-3.2,2.9-5.9,6.2-9.3,8.8
			c-1.6,1.2-3.3,1.9-5.3,1.6c-1.8-0.2-3.2,1-4.9,1c-7.8-0.4-15.2-2.1-21.3-7.3c-3.2-2.7-5-6.4-5.5-10.8c-1.8-19.5-0.3-39.1-0.8-58.6
			c-0.2-6.5-0.9-12.9-4-18.8c-0.1-0.3-0.2-0.6-0.2-0.9C601.8,444.7,601.9,444.3,602,443.8z"/>
		<path d="M417.9,539.6c-7.4,0-14.5,0-22.2,0c-1.6-4.4,0-9.2-0.9-13.6c-1-0.6-1.6,0.1-2.2,0.7c-4.3,4-8.6,8-12.9,12
			c-1.3,1.2-2.8,2.1-4.6,1.9c-2.1-0.3-3.8,1.2-5.8,1c-5.7-0.6-11.3-1.5-16.4-4.3c-4.4-2.4-7.9-5.4-9.3-10.3
			c-0.8-2.8-1.5-5.6-1.5-8.6c0-18.1,0-36.1,0-54.2c0-4.8-1.2-9.3-2.1-13.9c-0.4-2-2.4-3.7-1.9-6.4c8.8,0,17.6,0,26.5,0
			c1.5,1.6-0.1,3.1-0.7,4.3c-1.6,3.4-2.7,7-2.8,10.6c-0.2,18.2-0.1,36.3-0.1,54.5c0,4.3,2.7,7.1,5.9,9.4c4.8,3.5,10.3,3.6,15.7,2.8
			c4.4-0.6,8.7-2.6,12.5-5.2c0-5.6,0-11,0-16.5c0-13.8,0-27.7,0-41.5c0-5.5-1.2-10.8-3.7-15.7c-0.4-0.9-0.3-1.7,0-2.7
			c8.8,0,17.6,0,26.2,0c0.6,0.9,0.7,1.6,0.3,2.3c-2.7,5.6-3.7,11.7-3.7,17.8c0,20.2-0.1,40.3,0.2,60.5c0.1,4.2,1.2,8.5,3.4,12.4
			C418,537.6,418,537.6,417.9,539.6z"/>
		<path d="M583.9,494.5c-16.3,0-32.9,0-49.5,0c-1,4.2,0,8.1,0.8,11.9c0.8,3.8,2.3,7.4,4.7,10.7c2,2.7,4.5,4.3,7.3,5.8
			c5.3,2.8,11.2,2.4,16.5,1.4c5.4-1,10.9-2.6,16-5.1c0.7-0.3,1.3-0.6,2.6,0c-1.6,6.4-5.3,12-7.7,18c-3.2,1.5-6.4,1.5-9.4,2.5
			c-4.1,1.4-8.4,0.1-12.5,1.7c-1.7,0.7-3.2-0.7-4.9-0.8c-12.9-0.6-22.3-6.6-28.3-18.2c-2.6-5.1-4-10.5-5-16.1
			c-1.4-8-1.2-15.9-0.6-23.8c0.3-4.8,1.3-9.5,3.1-14.1c2.2-5.8,5.2-11.1,9.4-15.6c3.4-3.7,7.7-6.3,12.5-8.2c6.3-2.4,13-2.5,19.5-1.8
			c7.8,0.8,14.6,4,19.5,10.7c3.3,4.5,4.7,9.5,6.1,14.8c2.1,7.6,1.6,15.3,1.8,22.9C585.9,492.6,585.4,493.6,583.9,494.5z
			 M534.4,482.3c13,0,25.7,0,38.6,0c0.2-6.7-1.1-12.8-3.5-18.7c-1.5-3.6-4.1-6.2-7.5-7.8c-3.7-1.7-7.8-1.6-11.7-1
			c-3.8,0.6-7.5,2.1-10.1,5.3c-3.7,4.7-5.3,10.3-6.1,16.1C533.9,478.2,533.8,480.2,534.4,482.3z"/>
		<path d="M460.5,525.5c0.3,0.3,0.6,1.1,0.8,1c3.6-0.8,7.1,2,10.7,0.4c0.8-0.4,1.9-0.2,2.8-0.2c7.1,0,13.7-2,19.9-5.3
			c1-0.5,2-0.9,3.5-0.3c-1,6.4-3,12.5-5,18.5c-20,0-39.6,0-60,0c13-27.8,25.8-55.2,38.7-82.8c-0.2-1-1.3-1-2.4-1
			c-5.4,0-10.8-0.5-16.1,0.1c-5.3,0.6-10.7,1.5-15.4,4.4c-1.4,0.8-1.4,0.7-2.8-0.9c2.4-4.9,0.9-10.8,3.8-15.8c18.2,0,36.2,0,54.2,0
			c0.9,0,1.8,0,2.6,0c1,0,1.7,0.4,2,1.4C485.5,471.8,473,498.6,460.5,525.5z"/>
		<path d="M423.1,754.3c-2.7-8.3-5.4-16.5-8.3-25c-0.8,0.9-1.4,1.3-1.6,1.8c-2.1,6.6-4.2,13.3-6.3,19.9c-0.6,1.9-1.3,3.8-4,4.3
			c-0.8-0.1-2-0.4-3.2-0.6c-1.1-0.2-1.6-0.9-1.9-1.9c-1.3-5.2-2.4-10.6-4-15.7c-2.1-6.6-3.6-13.3-5.5-19.9c-1-3.4-2.1-6.8-3.4-10.2
			c-0.3-0.7-0.3-1.4,0.2-2.2c2.7,0,5.6,0,8.7,0c1.4,11,5.3,21.3,8.7,31.9c4.6-9.8,7.1-20.1,11-30c1.5-0.5,2.4,0.3,2.5,1.6
			c0.5,3.9,2.5,7.4,3.6,11.1c1.1,3.7,2.2,7.4,3.4,11c0.7,2.1,1.6,4,2.5,6c0.9,0.2,1.4,0,1.6-1c1.3-6.1,3.2-12.1,4.7-18.2
			c1-4,2-8.1,2-12.4c3.3,0,6.2,0,9,0c1.2,2-0.2,3.8-0.8,5.3c-2.1,5.3-3,10.9-4.4,16.3c-1.5,5.8-3.5,11.6-4.6,17.5
			c-0.5,2.8-1.3,5.5-2,8.3c-0.6,2.6-2.9,3.8-5.5,3C424.7,754.9,424,754.6,423.1,754.3z"/>
		<path d="M640.8,576c0.9,10.9-0.9,21.7,1.4,32.7c-3.6,0.5-6.8,0.3-10,0.1c-0.6-1.1-0.6-2.3-0.2-3.1c1.3-2.4,0.9-5,0.9-7.5
			c0-11,0-22.1,0-32.9c-1.9-2-4-3.6-4.8-6.4c2.5-1.2,5.1-0.1,7.5-0.6c3.2-0.6,4.4,1.9,6,3.7c4.1,4.8,8,9.8,12,14.6
			c1.2,1.4,1.7,3.4,4,4c2.3-2.8,4.8-5.5,6.9-8.5c3-4.2,6.5-8,9.3-12.4c1.3-2,7-2.2,9-0.9c-2.2,16.3-0.6,32.3-1,48.3
			c0,0.5-0.1,0.9-0.1,1.6c-3.3,0-6.5,0-9.9,0c1.9-11,0.2-22,1-32.7c-1.6-0.9-2.2,0.1-2.7,0.9c-3.2,5.1-7.6,9.3-11.3,14
			c-1.3,1.6-2.8,1.2-4.3-0.6c-3.8-4.6-7.8-9.2-11.6-13.8C642.6,575.8,642.1,575.3,640.8,576z"/>
		<path d="M217,680.8c0,0.1,0.1,0.8-0.3,1.8c-2.9,0-5.9,0.1-8.9-0.1c-1.2-0.1-2.2-0.9-2.9-2.1c-3.1-5.2-7.1-9.6-10.9-14.3
			c-2-2.4-3.8-4.9-5.7-7.4c-0.5,0-1.2-0.1-2.2-0.1c0,2.8,0,5.5,0,8.1c0,2.8,0.4,5.7-0.1,8.4c-0.5,2.5,2.6,5.1-0.2,7.4
			c-2.4,0-4.8,0-7.3,0c-0.5-0.4-1-0.8-1.6-1.4c2.1-9.5,0.7-19.2,1.1-28.7c0.2-4.3,0-8.6,0-12.9c0-1.6,0.2-3.3-0.8-4.8
			c-0.5-0.8-0.6-2,0.1-3c3.1,0,6.3,0,10,0c-1.9,6.7-0.8,13.3-1.1,19.7c1,0.5,1.8,0.4,2.3-0.2c5-6,10.6-11.4,15.2-17.7
			c0.4-0.5,0.5-1.1,0.8-1.9c3.5,0,6.9,0,10.4,0c0.9,1.3,0.1,2-0.7,2.7c-5.5,5.2-10.9,10.4-15.6,16.3c-1.1,1.3-2.3,2.5-3.6,3.9
			C201.8,663.4,208.6,672.2,217,680.8z"/>
		<path d="M595.9,654.6c-1.4,8.9-0.7,17.8,0.3,26.9c-3.2,0-6.1,0-9,0c-0.3-1.3-0.4-2.4,0.4-3.5c0.5-0.7,0.4-1.7,0.4-2.6
			c0-7.1,0-14.2,0-21.3c0-1.3,0-2.4-0.7-3.7c-0.7-1.3-0.6-2.8,1.2-3.8c2.2,0.2,4.7-0.8,6.7,1.3c0.1,0.8,0.2,1.5,0.3,2.2
			c0.8,0.6,1.4,0.6,2-0.2c3-3.9,6.8-4.1,11.1-2.5c1.3,0.5,1.8,1.5,2.6,2.3c0.6,0.6,0.8,1.5,1.9,1.8c1-0.4,1.7-1.2,2.4-2
			c2.2-2.6,6.7-3.8,9.4-2.9c4.9,1.7,6.3,5,6.4,8.6c0.1,5.3,0,10.6,0,15.8c0,2.7-0.3,5.4,0.9,8c0.4,0.8,0.4,1.5-0.3,2.4
			c-2.7,0-5.6,0-8.4,0c-0.7-0.8-0.6-1.6-0.4-2.3c2-7.5,0.6-15.1,0.8-22.6c0.1-2.8-2.1-4.1-5.4-4c-2.6,0.1-5.3,2.3-5.3,4.5
			c-0.1,5.8-0.1,11.7,0.1,17.5c0.1,2.2,1.3,4.4,0.7,6.9c-2.9,0-5.7,0-8.5,0c-0.4-0.9-0.4-1.7-0.2-2.5c2-7.3,0.6-14.8,0.8-22.1
			c0.1-3.5-4.2-5.5-7.6-3.8C597.6,653.5,597,654,595.9,654.6z"/>
		<path d="M260.7,608.6c-2.8,0-5.6,0-8.4,0c1.1-11.6,1.1-23-0.1-34.6c2.2-0.6,4.4-0.2,6.3-0.3c2.2,0.5,1.1,3.1,3.1,3.8
			c2.1-2.4,4.6-4.1,8.3-4c3.9,0.1,5.8,2.4,7.8,5.2c2-1,2.9-2.9,4.5-4c3.9-2.7,10.8-1.2,12.8,3c0.7,1.6,1.2,3.2,1.2,5
			c-0.1,5.4-0.1,10.9,0,16.3c0,2.3-0.4,4.6,0.9,6.8c0.4,0.7,0.3,1.7-0.1,2.7c-2.8,0-5.6,0-8.5,0c-0.5-1.2-0.6-2.5,0-3.5
			c0.7-1.1,0.7-2.3,0.7-3.4c0-5.4-0.1-10.9,0.1-16.3c0.1-2.4-0.6-4.3-2.7-5.6c-2.6-1.5-4.7-0.4-6.8,1.1c-0.6,0.4-1,1-1.6,1.7
			c0.4,8.5-0.9,17.2,1.3,26c-3.2,0-6,0-8.8,0c-1.2-2.1,0.7-3.8,0.7-5.8c-0.1-3.3,0-6.6,0-9.8c0-2.9-0.2-5.8,0.1-8.6
			c0.3-2.6-2.5-5.2-5.3-5.3c-2.9-0.1-5.6,2.6-5.6,5.5c0,5.8,0.1,11.5-0.1,17.3C260.1,604.1,262,606.1,260.7,608.6z"/>
		<path d="M524.7,608.7c-1.7,0-3.4,0-5.1,0c-0.5-0.5-1-1.1-1.3-1.5c-1.6-6.3-3.2-12.3-4.7-18.3c-0.8-0.6-1.5-0.6-2.1-0.2
			c-1.5,6-2.9,11.9-4.4,17.9c-0.3,0.7-1.3,1-1.4,2c-2.1,0.1-4.1,0.3-6.2-0.1c-3.8-11-5.5-22.7-10.2-33.7c0.2-0.3,0.7-0.7,1-1.1
			c2.9,0,5.6,0,8.8,0c-0.9,7.5,2.1,14.2,3.3,21.3c0.8,0.8,1.5,0.6,2,0.1c1.9-7.3,3.8-14.4,5.7-21.3c1.9,0,3.2,0,4.6,0
			c1.3,0.7,2,2.1,2.1,3.6c0.4,3.4,2,6.5,2.7,9.8c0.4,2.2,1.2,4.4,1.6,6.6c0.3,1.5,0.9,2.1,2.5,1.3c1.3-7,4.4-13.7,3.4-21.2
			c2.9-0.5,5.3-0.3,7.7-0.2c1.4,1.9-0.3,3.3-0.8,4.7c-1.2,3-1.7,6.2-2.8,9.2c-1.7,4.4-1.8,9.1-3.7,13.4c-0.7,1.7-0.3,3.8-1.2,5.5
			C525.7,607.4,525.3,608.1,524.7,608.7z"/>
		<path d="M175.3,558.4c6,0.3,12-1.2,17.6,1.2c5.7,2.4,9.7,6.7,10,13.1c0.3,6.4-3.8,12.2-10.8,14c-2.1,0.5-4.1,0.8-6.2,0.8
			c-1.7,2-1.6,12.8,0.2,21c-3.6,0-7.1,0-10.7,0c-0.7-1.9,0.8-3.3,0.8-5c-0.1-13.3-0.1-26.7,0-40
			C176.1,561.9,174.9,560.6,175.3,558.4z M185.8,583.5c7.6-2.4,7.8-7.8,6.9-13.7c-2-2.2-3.4-5.4-6.9-5.3
			C185.8,571,185.8,577.3,185.8,583.5z"/>
		<path d="M629.5,754.4c-4-11.1-5.6-22.7-10.2-33.8c3.5,0,6.4,0,9.8,0c-0.8,7.4,2.1,14.4,3.1,21.7c0.4,0.1,0.8,0.2,1.2,0.2
			c0.4,0,0.8-0.1,1.1-0.2c1.6-7.4,3.1-14.7,5.8-21.8c1.5,0,2.9,0,5,0c2.9,6.8,3.7,14.5,6.5,21.9c1.3,0.5,2-0.3,2.2-1.9
			c0.5-4,1.7-7.8,2.8-11.7c0.5-1.7,0.4-3.6,0.4-5.5c0-1.1,0-2.1,1.1-2.9c2,0,4.3-0.2,7.2,0.3c-6,10.7-6,23-10.5,33.8
			c-2.2,0-3.9,0-6.1,0c-2.5-6.8-3.6-14.1-6-21c-1-0.3-1.6,0-1.8,0.9c-0.7,2.9-1.3,5.8-2,8.7c-0.8,3.2-2,6.3-2.5,9.6
			c-0.1,0.6-0.7,1.2-1.1,1.7C633.6,754.7,631.7,755,629.5,754.4z"/>
		<path d="M324.1,742.3c1,0.4,1.7,0.4,2.5,0c1.8-7.2,3.7-14.4,5.5-21.4c2-0.6,3.6-0.4,5.4-0.2c2.4,7,4.5,14.2,6,21.6
			c0.7,0.5,1.5,0.4,2.4,0.1c0.5-5,2.6-9.7,3.2-14.8c0.2-1.6,0.9-3.1,0-4.7c-0.5-0.9,0.6-1.5,1-2.2c2.3,0,4.5,0,7.4,0
			c-3.1,5.7-4.3,11.5-5.4,17.3c-2.6,5.3-2.1,11.6-5,16.7c-2,0-3.6,0-5.7,0c-2.3-6.7-4.3-13.6-5.6-20.7c-0.7-0.6-1.5-0.4-2.2-0.3
			c-1.4,7-3.2,14-5.2,21c-2.5-0.3-5,0.9-7-1.2c-2.9-10.9-5.3-21.9-9.6-32.8c3.5,0,6.3,0,9.2,0c0.6,1.2,0.4,2.4,0.3,3.6
			c-0.3,3.4,1.2,6.4,1.7,9.6C323.1,736.7,324.4,739.3,324.1,742.3z"/>
		<path d="M524.4,660.6c-1.2,0.8-1.3,1.7-1.3,2.8c0,4.2,0,8.5,0,12.7c0,0.9,0.1,1.7,0.5,2.5c0.7,1.5,0.7,2.9-1,3.9
			c-2.3,0-4.7,0-7.3,0c-0.4-0.4-1-0.8-1.3-1.1c1.8-13.4,0.5-26.7,0.9-39.9c0.1-2.4,0.2-4.8-0.8-7c-0.4-0.8-0.4-1.9,0.3-3
			c4.5,0,9.3-0.8,13.7,0.2c5.9,1.3,10.6,4.8,12.7,11c2.3,6.7-2.2,14.8-9,17C529.2,660.5,526.9,660.5,524.4,660.6z M523.3,657.6
			c4.1,0.1,6.2-2.5,8.2-5c2.2-2.7,2.4-8.3,0.1-10.7c-2.2-2.4-3.9-6-8.3-5.1C523.3,643.6,523.3,650.4,523.3,657.6z"/>
		<path d="M795.6,586.7c4.7-3.3,7.8-8,10.6-12.9c3,0,5.7,0,8.4,0c0.9,1.3,0,2-0.7,2.5c-3.5,2.8-6,6.5-8.9,9.9
			c-2.5,2.9-2,3.2,0.9,7.7c1.6,2.4,3.1,4.9,4.5,7.4c1,1.7,2.1,3.3,3.6,4.7c0.8,0.7,1.2,1.5,0.7,2.7c-3.1,0-6.3,0-9.8,0
			c-1.2-2.5-1.5-5.8-3.8-7.9c-2-1.9-2.3-5.4-5.6-6.2c-1.4,5,1,9.4,0.6,14.1c-3.1,0-6.1,0-9.4,0c1.8-8,1-16,1-23.8
			c-0.1-7.9,1.1-15.9-1.1-23.6c7.6-2.5,8.5-2.5,10-0.5C794.5,569.2,795.5,577.8,795.6,586.7z"/>
		<path d="M416.3,681.6c1.3-16,1.4-31.8-0.2-47.9c3.2,0.6,5.8-1.8,9.3-0.7c-1.5,8.7-0.9,17.4-1.1,26.1c0.7,0.7,1.4,0.5,2.2,0.3
			c1.3-2.9,4.1-4.8,5.7-7.6c0.5-0.9,1.2-1.7,1.5-2.7c0.5-1.6,1.8-2.3,3.2-2.4c2-0.2,4.1-0.1,6.1-0.1c1.1,1.2,1,2-0.2,2.9
			c-4.5,3.5-7.3,8.4-11.2,12.6c4.2,6.5,7.9,13.1,13.1,19.5c-4.2,0-7.4,0-10.9,0c-1.6-5.3-5.1-9.5-8.5-14.4c-2.1,2.4-0.6,4.9-1,7.1
			c-0.5,2.4,1.5,4.6,0.5,7.2C422.1,681.6,419.2,681.6,416.3,681.6z"/>
		<path d="M351,681.7c-0.3-1.6-0.5-3,0.5-4.1c0.6-0.7,0.5-1.5,0.5-2.3c0-11.5,0-23,0-34.5c0-1-0.1-2.1-0.7-3
			c-0.8-1.2-0.7-2.5-0.3-4.1c3,0.6,5.6-1.8,9.1-0.7c-1.6,6.1-1.2,12.3-0.6,18.7c2.6-2.4,5.1-4.7,9.2-4.8c1.6,1.1,4.2,0.5,6.4,2.3
			c2.5,2,3.6,4.4,4.7,7.1c2,5,0.7,9.9-1.2,14.5c-1.7,4.1-4.9,7-9.1,9C363.6,682.8,357.3,681.2,351,681.7z M359.1,675.4
			c0.5,0.4,0.9,0.9,1.4,1.1c4.3,1.5,9.3-0.4,11.4-4.6c2.1-4.1,2.4-8.5,0.8-12.8c-1.2-3.2-3.5-5.6-7.1-6.1c-3.4-0.5-6.5,1.4-6.5,4
			C359,663.1,359.1,669.1,359.1,675.4z"/>
		<path d="M501.9,728.1c0.6,8.9-0.8,17.6,1.1,26.5c-3,0-5.9,0-9.3,0c1.8-7.7,1.1-15.5,1.1-23.2c-0.1-7.7,1-15.5-1.2-23.3
			c2.7-2.1,5.9-1.5,9.6-2.8c-1.5,6.8-1,12.9-1.1,19c2,0.4,2.7-1,3.5-1.9c2.9-3.2,6.5-2.5,9.8-1.7c2.6,0.6,4.2,2.8,4.9,5.7
			c1.5,6.1,0.4,12.3,0.8,18.4c0.2,2.5-0.5,5.1,0.9,7.5c0.3,0.6,0.2,1.4-0.4,2.3c-2.6,0.4-5.4,0.3-8.2,0.1c-0.5-1-0.5-2-0.3-2.8
			c1.8-6.4,0.4-13,0.9-19.5c0.2-2.9-0.9-5.2-3.4-6.2c-2.6-1.1-5.3-0.8-7.6,1.2C502.7,727.5,502.3,727.8,501.9,728.1z"/>
		<path d="M744.4,659.6c5.4-2.9,7.6-8.8,11.4-12.9c2.5,0,4.6,0,6.8,0c1.2,0.8,1.2,1.8,0.2,2.7c-4,3.6-7.2,7.9-11,12.5
			c3.3,6.6,7.6,13,12.5,19.6c-3.6,0-6.7,0-10.4,0c-1-2.4-2.2-5.1-4.1-7.5c-1.7-2.2-2.4-5.3-5.6-6.5c-0.7,5-0.1,9.5,0.9,14.2
			c-3.2,0-6,0-8.9,0c1.2-16,1.4-31.9-0.2-47.9c3.2,0.5,5.8-1.8,9.3-0.8C743.1,641.6,744.3,650.4,744.4,659.6z"/>
		<path d="M386.7,575.2c0.7-0.6,1.2-1,1.6-1.4c2.1,0,4.2,0,6.1,0c1,1,0.7,2.3,1.2,3.3c0.9,0.5,1.6,0.4,2.4-0.4
			c5.2-4.9,12.2-4.3,15.8,1.1c1.7,10.2-0.7,20.5,2.3,30.7c-3.3,0-6.1,0-9.4,0c0.4-8.7,0.2-17.5,0.3-26.2c-2-3.7-8-3.3-10.5-1.3
			c-1.2,0.9-1.3,2.3-1,3.7c0.9,4.8,0.6,9.6,0.1,14.5c-0.2,2,0.4,4.1,0.9,6c0.3,1.2,0.6,2.1-0.3,3.3c-2.5,0-5.1,0-8,0
			c-0.4-0.2-0.7-0.9-1-1.6c1-1.2,1-2.7,1-4.3c0-7.5,0-15,0-22.5C388.2,578.4,388.3,576.7,386.7,575.2z"/>
		<path d="M314.8,677c0-7.2,0-14.6,0-21.9c0-1.6,0-3.1-0.8-4.6c-0.6-1.2-0.8-2.7,0.9-3.7c2.1,0,4.3,0,6.7,0c0.4,0.3,0.9,0.8,1.4,1.3
			c-2,8.2-0.5,16.5-1.1,24.5c2.5,5.6,9.6,4.8,12,0.6c-0.4-8.2,0.9-16.7-1.4-24.8c2.4-2.9,5.3-1.2,7.6-1.7c1,0.2,1.3,0.9,1.7,1.2
			c-1.1,11.3-1.1,22.4,0.1,33.7c-2.5,0.3-5,0.3-7.6,0.1c-0.2-1.2-0.3-2.3-0.4-3.4c-1.8-0.3-1.8-0.3-4.3,2.6
			c-3.6,2.4-6.7,1.8-9.9,0.6C317.8,680.4,316.4,678.7,314.8,677z"/>
		<path d="M690.4,573.7c2.8,0.4,5.9-0.8,8.4,0.8c1.1,2.3-1,3.5-0.9,5.3c0.1,6.5,0,13.1,0,19.5c3.5,4.6,6.4,5.2,10.2,2.4
			c1.2-0.9,1.5-1.9,1.5-3.2c0-5.7,0-11.5-0.1-17.2c0-1.6-0.5-3.3-0.8-4.9c-0.1-0.8-0.3-1.6,0.5-2.4c2.6,0,5.4,0,8.7,0
			c-1.2,11.6-1.4,23.1,0.1,34.7c-2.8,0.3-5.3,0.4-7.7,0c-0.3-0.9-0.6-1.7-1-2.6c-2.7-1.1-3.1,2-4.8,2.5c-4.2,0.5-8.5,1.2-11.9-2.4
			c-1.1-1.1-1.7-2.2-1.7-3.7c0.1-4.4,0-8.8,0-13.2c0-4.3,0.3-8.6-1.1-12.7C689.4,575.4,689.6,574.6,690.4,573.7z"/>
		<path d="M562.7,646.6c6.7,0.2,11.7,2.5,14.6,8c3.1,5.9,3.3,12,0.1,18.1c-3.1,6.1-8.6,9-14.9,9.8c-5,0.6-9.3-2-12.5-5.9
			c-3.3-4-3.9-8.6-3.3-13.9c0.7-6.9,4.4-11.2,9.9-14.5C558.6,647.1,560.9,646.3,562.7,646.6z M573,665c0.2-4.1-1.7-7.3-4-10.3
			c-1.3-1.7-3.3-2.7-5.6-2.8c-4.7-0.2-8.8,3.6-9.4,9c-0.6,5.2,1,9.8,4.7,13.5c2.7,2.8,8.2,3.3,10.2,0.8
			C571.1,672.2,573.1,669,573,665z"/>
		<path d="M465.5,682.6c-7.7-0.4-14.9-6-15.6-14.4c-0.3-4.4-0.2-8.7,2.1-12.4c3.9-6.4,9.1-10.2,16.9-9.1c6.6,0.9,12.2,5,13.2,13
			c0.7,4.9,0.5,9.7-2.1,14c-2.5,4.2-6.3,6.8-11.1,7.9C467.7,682,466.7,683.1,465.5,682.6z M475.8,664.9c0.7-3.7-1-6.8-3-9.5
			c-2.9-3.8-8-5.4-12-1.6c-2.5,2.3-3.5,5.5-3.7,8.7c-0.3,4.6,1.6,8.4,4.9,11.6c3.5,3.4,8.7,3.3,11.3-0.8
			C474.9,670.8,476.5,668.2,475.8,664.9z"/>
		<path d="M360,582.1c0.4,8.8-0.8,17.6,1.2,26.5c-3.2,0-6,0-9.1,0c1.5-11.5,1.5-23,0-34.5c2.3-0.8,4.3-0.3,6.1-0.5
			c1.9,0.6,1.8,2.1,1.8,3.7c2.1,0.1,3.5-1.4,4.8-2.4c2.8-2.2,5.9-1.9,8.6-1c3.4,1.2,5.7,4,5.6,8.1c-0.1,5.6-0.1,11.2,0,16.8
			c0,2.4-0.4,4.9,0.9,7.3c0.3,0.6,0,1.5,0,2.4c-3,0-5.9,0-8.7,0c-0.7-1-0.5-2.1-0.2-3.1c1.9-7.2,0.5-14.6,0.8-21.9
			c0.1-2-1.8-3.4-3.5-3.7C365.4,579.3,362.4,579.2,360,582.1z"/>
		<path d="M672,663.9c0.6,4-0.4,7.8-2.8,11c-2.2,3-5.3,5.3-8.7,6.6c-4.2,1.6-8.7,1.7-12.7-0.8c-5-3.1-8.3-7.3-7.9-13.6
			c0.2-3.8-0.3-7.5,1.7-11.1c2.4-4.2,5.5-7,10.2-8.6c4.5-1.5,8.7-0.7,12.5,1.3c4.9,2.5,7.4,6.8,7.6,12.4C672,662,672,663,672,663.9z
			 M647,662.5c-0.1,6,1.8,10.2,6.3,13c2.3,1.5,5.2,2.1,7.4,0.5c4.1-3,5.5-7.6,5-12.4c-0.2-2.5-0.9-5.2-2.5-7.5
			c-2.7-3.8-8.3-5.9-12.1-2.7C648.1,655.9,646.9,659.3,647,662.5z"/>
		<path d="M752.1,618.8c2.2-2.9,4.3-5.6,6.4-8.3c1.5-1.9,2.3-4.1,3.3-6.2c0.4-0.8,0.3-2.2-0.1-3c-4.4-8.5-7.3-17.8-12.6-26.4
			c2.9-2.5,6.3-0.5,9.2-1.3c1,0.7,1.8,1.3,1.7,2.4c-0.4,4.5,2.1,8.2,3.5,12.2c0.5,1.4,1.1,2.7,1.6,4.1c0.2,0.7,0.6,1.1,1.5,1.2
			c2-3,2-6.9,4-9.8c2-3,0.7-6.9,2.3-9.8c7.5-0.3,7.5-0.3,8.8,1.4c-4.2,7.7-7.1,16.1-10.7,24.1c-2.5,5.6-4.7,11.5-8,16.7
			C760.7,619.7,756.3,621,752.1,618.8z"/>
		<path d="M616.1,737c0.7,8.8-6.3,16.1-13.8,17.8c-7.8,1.8-14-1.4-17.5-9.1c-4.3-9.7,0.7-22,10.5-24.9c7-2.1,14.5-0.9,18.6,7.2
			C616.1,732.4,616.1,732.4,616.1,737z M591.3,736.3c-0.7,3.8,0.5,7.1,2.9,10.1c1.9,2.5,8.3,5,10.5,3c3-2.8,4.9-6.1,5.3-10.2
			c0.5-4.6-1.4-8.3-4.1-11.7c-3.1-3.9-9.6-3.7-12.5,0.3C591.4,730.3,590.7,733.2,591.3,736.3z"/>
		<path d="M807.4,647.6c5.8,4.9,8.4,14,4.9,18.3c-5.3,0-11,0-16.6,0c-0.9,4.2,2.2,10.5,6.4,10.1c2.3-0.2,4.6,0.1,6.8-0.9
			c1-0.4,1.9-0.7,3.2,0c-0.3,2.6-1.8,4.7-3.3,6.7c-1.8,0-3.4,0.6-5,0.8c-5.8,0.9-12.4-1.9-14.8-8.3c-2-5.3-2.4-10.9-0.9-16.1
			c2.1-7.5,6.6-12.1,15.4-11.4C804.9,646.7,806,648.1,807.4,647.6z M808,660.4c1-3.3,0-6.2-2.6-8c-1.8-1.3-5-1.2-6.7,0.1
			c-2.7,2-3.9,5.1-2.9,7.9C799.8,660.4,803.8,660.4,808,660.4z"/>
		<path d="M543.3,580.8c0.4-5.2,1.7-7.1,5.9-7.1c3.6,0,7.4-0.8,10.8,1.7c1.5,1.1,2.5,2.4,2.9,4.1c1.6,6.6,1.1,13.3,0.9,20
			c-0.1,2.2-0.1,4.3,0.5,6.4c0.3,1.1,0.2,1.8-0.5,2.7c-2,0-4.2,0-6.5,0c-0.6-0.8-0.3-2.2-1.5-2.8c-1.7-0.5-2.7,1.1-3.7,2
			c-2.7,2.3-7.2,0.8-10.1-1.7c-2.3-1.9-2.8-6.2-1.6-8.8c1.1-2.4,3.2-3.6,5.2-5c3.2-2.2,6.5-4,10.1-5.1c1.9-2.7,1.7-3.6-0.5-6.4
			C550.9,577.3,547.2,580,543.3,580.8z M556.1,598.2c0.8-1.9,1.4-3.8-0.9-5.4c-0.9,0-2,0-3.1,0c-3.9,0-5.1,1.2-5.1,4.9
			c0,3.2,3.3,6.2,6.5,5.8C556.2,603.3,557.4,600.9,556.1,598.2z"/>
		<path d="M346,590.6c-1.2,1.6-2.8,2.3-4.8,2.1c-3.8-0.4-7.6,0.6-11.4-0.7c-1.2-0.4-2,0.6-2.9,1.6c1.7,2.5,0.8,6.3,4.3,8.2
			c2.9,1.5,5.8,1.2,8.5,0.3c1.4-0.4,2.6-0.7,4-0.6c0.7,2.8-2.7,7.4-5.5,7.2c-2.5-0.2-5.1,0.2-7.7,0c-3.9-0.3-6.4-2.8-8.5-5.9
			c-2.2-3.2-2.7-7-2.8-10.5c-0.1-6.7,1.4-13.5,7.7-17.2c6.1-3.6,16.8-2.5,18.2,8.2C345.5,585.8,346.3,588.2,346,590.6z M327.1,587.8
			c3.9,1.4,8.2,0.2,12.2,0.7c0.7-0.5,1.1-0.9,1.6-1.3c0.8-4.5-1.4-7.4-5.1-9.6c-1,0-2.1,0-2.8,0
			C328.8,579.8,326.1,582.6,327.1,587.8z"/>
		<path d="M232.2,570.6c1.8-2.8,3.6-5.7,5.1-8.7c1.9-0.7,4.1-0.1,5.8-1.2c0.7,0.5,1.3,0.9,2,1.4c-3.4,3.8-7.5,6.9-10.4,11
			c0.2,0.2,0.4,0.4,0.6,0.7c1.9,0,3.8-0.1,5.7,0c1.8,0.1,3.5,0.9,4,2.7c0.4,1.5,0.8,3.4-1.4,4.4c-2.1-1.1-4.2-2.1-6.4-3.2
			c-1,0.5-1.9,1.1-2.8,1.6c-3.1,1.9-2.3,6.4,1.7,8.3c2.5,1.2,4.7,2.8,6.7,4.6c5.2,4.8,3.9,12.2-2.8,15.5c-4.7,2.3-9.6,0.7-14.4,1.3
			c-0.6-0.7-1-1.2-1.4-1.7c0-2.5,0-4.9,0-7.5c1.6,0.5,2.6,1.5,3.7,2.6c2.4,2.5,5.4,3.1,7.9,1.6c1.7-1,2.4-2.4,2.3-4.4
			c-2.4-3.3-5.8-5.4-9.1-7.6c-5.3-3.4-5.3-12.6-0.8-15.6c0.8-0.6,1.8-0.9,2.6-1.4C233.6,573.3,233.7,573.5,232.2,570.6z"/>
		<path d="M552.9,737.3c-0.9,1.4-2,1.3-3.1,1.3c-4.8,0-9.6,0-14.5,0c-1,3.1-0.1,5.7,1.5,7.9c1.8,2.5,4.6,3.5,7.6,2.6
			c1.8-0.5,3.6-0.5,5.3-1.4c0.7-0.4,1.4-0.2,1.9,0.6c-0.1,1.7-1.7,3-1.8,4.7c-5.4,3.4-11.1,3.3-16.3,0.3c-2.8-1.6-4.6-4.7-5.5-8
			c-1.7-6.4-1.7-12.8,1.7-18.7c2.3-4,5.4-6.6,10.6-6.6c5,0,9.2,1.1,11.3,5.7C553.3,729.4,553.3,733.4,552.9,737.3z M548.9,732.7
			c-2.7-7.9-4.3-9.1-9.5-7.9c-2.4,0.6-5.3,5.3-5.1,8.3c0.3,0.4,0.8,1,1.1,1.4c4.1,0,8.1,0,12,0C548,733.8,548.4,733.3,548.9,732.7z"
			/>
		<path d="M470,747.3c-0.3,3.4-1.1,5.7-3.6,7.3c-2.2-0.3-4.3,1.1-6.6,1.1c-6.8-0.2-11.2-4.2-13-10.2c-1.6-5.1-1.3-10.3,0.1-15.4
			c2.2-8.2,12.3-12.6,19.6-8.4c2.1,1.2,3.7,3.4,4.1,5.6c0.6,3.3,2.6,6.4,1.1,10.4c-0.6,0.7-1.8,1.1-3.2,1c-4.1-0.1-8.2,0-12.2,0
			c-1.2,0-2.4,0-3.1,1.3c0.8,6,4.1,11.3,11.1,9C466,748.4,467.8,748.3,470,747.3z M454.4,734.4c4.2,0,8.2,0,12.2,0
			c0.9-3.4,0.4-6.3-2.1-8.6c-2.1-1.9-4.7-1.5-7-0.8c-2.3,0.7-4.5,5.3-4.3,8.1C453.6,733.6,454.1,734.1,454.4,734.4z"/>
		<path d="M707.8,754.6c-2.3-0.2-4.1,1.1-6.3,1c-7.2-0.1-12.4-4.4-13.7-11.3c-1.1-5.7-0.8-11,1.1-16.3c1.1-3.2,6-8.1,10.1-7.6
			c2.6,0.3,5.3-0.6,7.7,0.8c3.9,2.3,5.9,5.8,6.2,10.3c0.2,1.9,0,3.8,0,5.6c-0.7,1.5-1.9,1.6-3.2,1.6c-4.8,0-9.6,0-14.4,0
			c-1.2,3.5-0.2,6.4,2,8.7c1.8,1.9,4.5,2.8,7.3,1.9c1.6-0.5,3.3-0.5,4.8-1.4c0.4-0.3,1.1-0.2,1.8,0.3
			C711.5,750.8,709.5,752.6,707.8,754.6z M707.2,734.5c1.6-1.9,1-6.4-1.1-8.5c-1.9-1.9-6.9-2-8.9-0.3c-2.4,2.1-3.3,6.5-1.6,8.7
			C699.5,734.5,703.4,734.5,707.2,734.5z"/>
		<path d="M246.8,681.6c-2.2,0-4.3,0-6.5,0c-0.5-1-1-1.9-1.5-2.8c-2.1-0.7-2.7,1.5-4.1,2.2c-4.3,2.1-10.2-0.1-11.7-4.5
			c-1.2-3.5-0.3-6.6,2.4-8.9c1.8-1.5,11.3-6.8,13.4-7.4c0.8-1.7,0.1-3.3,0.1-4.9c-2.4-3-5.8-4.5-9.8-2.3c-1.3,0.7-1.3,0.6-2.8,0.3
			c-0.3-1.9,0.5-3.9,2-5.6c2.7-0.2,5.3-1.6,8.2-1.1c3.2,0.6,6.5,1.1,8.2,4.5c0.8,1.7,1.5,3.5,1.5,5.6c-0.1,6.3,0.1,12.6-0.1,18.9
			C246,677.7,247.9,679.3,246.8,681.6z M231.6,665.8c-3,3-3.2,7.4-0.7,9.6c2.3,2,7.1,1.8,9.1-0.7c-0.8-2.8,1.3-6.2-1.4-8.9
			C236.1,665.8,233.8,665.8,231.6,665.8z"/>
		<path d="M706,680.2c0-2.1,0-4.2,0-6.3c1.1-1.2,2-1.2,3,0.1c1.4,1.9,3.5,3,5.8,3.5c2,0.4,3.9,0,4.9-2c1.4-4.6-2.3-6.1-5.1-8.2
			c-2.9-2.1-6.1-3.7-7.3-7.6c-1-3.2,0.4-8.4,3.3-10.3c5.2-3.3,7.8-3.6,16.1-1.6c0.6,1.8,0.6,3.7,0.2,5.5c-1.3,0.8-2.1,0.1-2.9-0.6
			c-1.7-1.3-3.6-1.2-5.5-0.9c-1.6,0.2-2.8,1.2-3.3,2.7c-0.5,1.5,0,3,1.2,4.1c2,1.8,4.2,3.5,6.6,4.8c4.1,2.2,5.8,5.9,5,11.3
			c-0.4,3-4.5,6.1-8,7.1c-3.9,1-7.6,1.1-11.5,0C707.3,681.5,706.6,681,706,680.2z"/>
		<path d="M400,676.2c0.3-0.9,0.5-1.5,0.7-2c-0.3-4.3-3.9-5.7-6.6-7.4c-5.4-3.3-7-6.6-5.9-12.9c0.5-2.8,3.9-6,6.8-6.3
			c1.5-0.2,2.7-1,4.4-1c2.6,0.1,5,0.2,7.7,1.5c0.7,1,1,2.5,1,4.2c-0.9,1.7-2,1.8-3.6,0.7c-2.2-1.6-4.8-1.8-7-0.6
			c-3.2,1.7-2.5,5.8,1.4,8.3c2.1,1.4,4.2,2.7,6.3,4.1c4.6,3.2,4.6,11.4,0.1,14.7c-4.4,3.3-9.3,4.2-14.6,2.6c-1-0.3-2.1-0.2-3.1-0.4
			c-3.2-2.9,0.3-5.9-0.3-9.1C391,675.6,394.3,680.2,400,676.2z"/>
		<path d="M744.4,608.7c-6.8,0-13.5,0-20.3,0c-0.8-3,1.3-5.1,2.2-7.3c2.2-5.4,4.8-10.7,7.5-15.9c0.6-1.2,1.1-2.6,1.9-3.7
			c0.4-0.7,1-1.5,0.1-2.6c-3.5-0.6-7.1-0.3-10.4,1c-1.6-1.9-1.1-4.6,0.9-6.3c6.4,0,12.8,0,19.1,0c1,1.2,0.6,2.6,0.1,3.7
			c-3.4,7.5-7,14.9-10.4,22.4c-0.4,1-2,1.6-0.9,3.4c3.1,0.7,6.3,0.8,9.3-1.1c1.8-1.2,2.8-0.8,3.6,1.2
			C745.5,604.8,746.2,607.2,744.4,608.7z"/>
		<path d="M256.6,681.7c-0.6-0.5-1.2-0.9-1.6-1.3c0-2.4,0-4.6,0-6.7c0.8-0.4,1.5-0.3,2.2-0.2c4,4.9,9,5.7,11.8,1.5
			c0-0.9,0-1.9,0-2.9c-2.6-2.3-5.1-4.8-8.3-6.5c-4.8-2.6-6-9.8-3.1-14.1c2.9-4.3,10.8-6.2,15.1-4.2c0.8,0.4,1.8-0.2,2.5,0.7
			c0.2,0.3,0.5,0.6,0.8,0.9c0,1.5,0.2,3-0.2,4.9c-3.8-0.9-7.6-4.3-11.5-0.4c-0.4,1.4-0.2,2.9-0.1,4.6c2.2,2.6,5.3,4.5,8.3,6
			c5.3,2.7,5.9,13.1,0.2,15.9c-3.7,1.8-7.3,2.8-11.3,2.8C259.7,682.6,258.4,681.1,256.6,681.7z"/>
		<path d="M284.4,653.1c-0.8-1.5-0.3-2.8-0.4-4c0.5-1.2,1.7-1.6,2.4-2.5c6.1,0,12.1,0,18.3,0c0.4,0.5,0.9,1,1.5,1.6
			c-4.7,9-8.6,18.2-13.1,27.8c4.5,1.3,8.6,0.7,12.8-1.7c0.4,3.2-0.7,5.2-1.8,7.4c-6.5,0-12.6,0-18.8,0c-1.1,0-1.8-0.3-2.2-1.4
			c4.3-9,8.5-18,13-27.4C292.2,650.2,288.3,652.8,284.4,653.1z"/>
		<path d="M463,602.4c0.1,3.3-1.9,4.5-3.2,6.3c-3.3,0.3-6.6,0.5-9.8,0c-5.7-0.8-10.7-6.5-12-12.2c-1.1-4.5-0.3-8.8,1.3-12.7
			c1.8-4.4,5.4-7.5,10.1-9.2c4.3-1.6,8.6-0.6,13-0.9c0.6,0.5,1.1,1,1.6,1.5c0.1,2.1-1.1,3.9-0.8,6c-1.5,0.1-2.3-0.5-3.2-1
			c-5.5-3.3-12.9-0.4-14.3,6.8c-0.6,3.3-0.1,6.1,0.3,9.1c0.4,3,5.7,7.8,9.2,7.6C457.8,603.5,460.3,603.5,463,602.4z"/>
		<path d="M469.8,580.2c-1.2-0.6-2.1-1.1-2.9-1.5c0.2-3,7.6-11.2,9.9-10.9c0.5,1.8,0,3.6,0.3,5.7c2.1,2.3,5.2,0.4,7.8,1.4
			c1,1.2,1,2.5,0,3.8c-2.4,1.3-5.5-0.7-7.9,1.4c0,6.2,0,12.5,0,18.8c0,1.7,1.6,2.4,2.4,3.7c2,0.2,4.1,0.7,5.9-0.9
			c0.9,0.3,1.2,1,1.7,1.6c-2.4,5.9-4.3,6.1-13.1,5.5c-3.8-2.1-4.2-5.4-4.1-9.1C469.9,593.2,469.8,586.7,469.8,580.2z"/>
		<path d="M688.8,681.7c-2.9-0.1-5.7,0.3-8.7-0.3c1.4-11.2,1-22.2,0.4-33.3c-0.2,0-0.5-0.1-0.7-0.1c0.5-0.5,1-0.9,1.6-1.5
			c2.2,0.3,4.8-0.8,6.7,1.3c0.1,0.8,0.2,1.6,0.2,2.3c0.7,0.5,1.3,0.5,1.9,0.2c3.4-4.1,7.3-5.1,10.8-2.6c0.3,2.2,0,4.4-0.9,6.4
			c-0.8,0.5-1.6,0.4-2.3-0.1c-2.3-1.7-4.7-1.2-7-0.3c-1.7,0.7-2.7,2.1-2.7,4.1c0.1,5.5,0.1,11,0,16.5c0,1.7,0.7,3.1,1.2,4.6
			C689.7,680.2,689.5,680.9,688.8,681.7z"/>
		<path d="M559.6,720.6c2.8,0,5.1,0,7.2,0c1,1.1,0.8,2.5,0.8,3.5c1.1,0.8,1.7,0.3,2.2-0.4c3.1-4,5.7-4.8,10.1-3
			c0.6,3.7,0.3,5.5-1.6,7c-3.1-2.9-6.5-2.3-10.2,0.7c-0.7,8.3-0.5,17.2,0.3,26.1c-3.1,0-6,0-8.9,0
			C560.7,743.1,560.4,731.9,559.6,720.6z"/>
		<path d="M475.2,765.6c-0.6-1.2,0.2-2,0.7-2.9c2.2-3.2,2.8-6.9,2.9-10.5c0.2-8,0-16,0.1-24c0-2.5-1.8-4.7-0.8-7.5
			c2.5,0,5.1,0,7.9,0c0.5,0.3,1.1,1,0.7,1.8c-1.5,3.6-0.7,7.3-0.8,10.9c-0.1,6,0.1,12-0.1,18c-0.1,2.9-0.5,6-1.9,8.7
			c-1,1.9-2.4,3.7-3.6,5.5C478.7,765.8,476.9,766,475.2,765.6z"/>
		<path d="M823.2,692.7c-1.8,0.2-3.5,0.4-5.2-0.1c-0.3-0.8-0.3-1.5,0.4-2.2c2.6-2.7,3.3-6.3,3.4-9.8c0.3-8.9,0-17.9,0.1-26.8
			c0-2-1.4-3.5-1.4-5.6c0.3-0.4,0.7-0.9,1-1.2c2.2-0.9,7.3-0.2,8.4,1.1c-2.1,11.2-0.4,22.6-1.2,33.8
			C828.5,685.9,826.8,689.8,823.2,692.7z"/>
		<path d="M603.2,608.6c-3.2,0-6.1,0-9.3,0c1.6-11.6,1.5-23.1,0.1-34.8c3.2,0,6.1,0,9.2,0C602.5,585.5,602.2,597,603.2,608.6z"/>
		<path d="M431.8,608.7c-2.9,0-5.8,0-8.8,0c1.8-11.5,1.7-23,0.1-34.6c2.9-0.7,5.7-0.2,8.5-0.3c1.8,1.9,0.6,4.1,0.2,5.8
			c-0.6,2.8-0.6,5.5-0.6,8.3c0,3.2,0.1,6.4,0,9.6c-0.1,3,1.2,5.7,1.1,8.7C432.1,607,432.4,607.8,431.8,608.7z"/>
		<path d="M672.1,720.6c3,0,5.8,0,9,0c-1.3,11.3-1.5,22.5,0,33.9c-3.1,0-6,0-9,0C673.5,743.2,673.4,732,672.1,720.6z"/>
		<path d="M208.3,608.7c1.4-11.7,0.9-23.3,0.3-34.9c3,0,5.3,0,8.1,0c0.2,0.3,0.5,1,0.8,1.6c-2.4,10.9-1.6,22-0.1,33.3
			C214,608.7,211.3,608.7,208.3,608.7z"/>
		<path d="M821,573.8c3,0,5.6,0,8.4,0c0.3,0.4,0.7,0.9,0.8,1c-2.1,11.5-1.7,22.7-0.2,33.9c-3.2,0-6,0-9,0
			C822.4,597,822.4,585.5,821,573.8z"/>
		<path d="M771.3,646.4c3.4,0.7,6.4-0.9,9,1.6c-1.1,5.6-1.3,11.2-1.3,16.9c0,5.5,0.3,11,1.4,16.7c-3.4,0-6.2,0-9.2,0
			C772.6,670,772.3,658.5,771.3,646.4z"/>
		<path d="M312.6,573.7c1.3,0.8,1.7,1.9,1.1,2.9c-0.9,1.6-0.8,3.2-0.8,4.9c0,6.9,0.1,13.9-0.1,20.8c-0.1,2.2,1.8,4,0.8,6.4
			c-2.7,0-5.5,0-8.9,0c1.7-11.5,1.9-23-0.1-34.6C307.7,573.5,310.2,573.8,312.6,573.7z"/>
		<path d="M508.1,660.6c0.2,2.4,0.3,4.6-0.1,6.9c-6.3,0-12.5,0-18.9,0c-1.4-2.1-1.1-4.4-0.1-6.9
			C495.3,660.6,501.6,660.6,508.1,660.6z"/>
		<path d="M598.7,569.6c-2.8-0.7-5.1-1.9-5.2-5.7c1.1-3.8,2.4-5,5.3-4.9c2.3,0.1,5,2.6,5.3,4.9C604.3,566,602.1,568.3,598.7,569.6z"
			/>
		<path d="M828.4,559.8c1.1,1.1,1.4,2.5,2.6,3.2c0.2,3.4-1.2,5.2-5.1,6.5c-3.8-1-6.3-3.7-5.6-6.1
			C821.3,559.6,824.1,558.4,828.4,559.8z"/>
		<path d="M422.9,562.2c2.1-2.3,4.3-4.3,8.2-2.1c2.8,2.8,2.7,8.6-3.3,9.3c-2-0.3-3.6-1.5-4.9-3C422.7,565,422.7,563.6,422.9,562.2z"
			/>
		<path d="M825.6,642.6c-2.6,0-5.5-2.8-5.5-5.3c0.1-2.3,3-4.9,5.5-4.9c2.4,0,4.9,2.5,4.9,4.8C830.5,640.2,828.3,642.6,825.6,642.6z"
			/>
		<path d="M771.1,635.1c2.4-2.6,5-3.4,7.1-1.9c2.2,1.4,3.1,3.8,2.2,5.9c-1.3,2.9-3.5,4.2-6,3.5C771.9,641.9,770.7,639.2,771.1,635.1
			z"/>
		<path d="M213,569.3c-2.1-0.3-3.6-1.3-4.7-3c-0.2-1.3-0.2-2.7,0-4.1c0.7-0.8,1.4-1.6,2.2-2.5c1.6-0.6,3.4-0.5,5.1,0
			C219.5,564.4,218.7,567.8,213,569.3z"/>
		<path d="M671.9,710.4c0-2.9,2-4.8,5-4.8c2.3,0,5,2.6,5,5c0.1,2.2-2.8,4.9-5.2,4.9C674,715.5,671.8,713.3,671.9,710.4z"/>
		<path d="M311.6,559.6c0.7,0.8,1.5,1.6,2.3,2.5c0,1.3,0,2.8,0,4.1c-2.4,3.9-6,3.4-7.9,1.9c-2.5-2-2.3-5.2,0.5-8.5
			C309.2,559.1,309.2,559.1,311.6,559.6z"/>
		<path d="M487,710.8c0,2.8-2,4.8-4.8,4.8c-2.4,0-5.3-2.8-5.2-4.9c0.1-2.5,2.8-5,5.3-4.9C485.1,705.7,487.1,707.9,487,710.8z"/>
	</g>
</g>
</svg>
