<?xml version="1.0" encoding="UTF-8" standalone="no"?>
<svg
   xmlns:dc="http://purl.org/dc/elements/1.1/"
   xmlns:cc="http://creativecommons.org/ns#"
   xmlns:rdf="http://www.w3.org/1999/02/22-rdf-syntax-ns#"
   xmlns:svg="http://www.w3.org/2000/svg"
   xmlns="http://www.w3.org/2000/svg"
   xmlns:sodipodi="http://sodipodi.sourceforge.net/DTD/sodipodi-0.dtd"
   xmlns:inkscape="http://www.inkscape.org/namespaces/inkscape"
   version="1.1"
   id="svg961"
   xml:space="preserve"
   width="81.921486"
   height="100"
   viewBox="0 0 81.921477 100"
   sodipodi:docname="logo_Samorząd Województwa Pomorskiego.svg"
   inkscape:version="1.0.1 (c497b03c, 2020-09-10)"><sodipodi:namedview
     pagecolor="#ffffff"
     bordercolor="#ffffff"
     borderopacity="1"
     objecttolerance="10"
     gridtolerance="10"
     guidetolerance="10"
     inkscape:pageopacity="0"
     inkscape:pageshadow="2"
     inkscape:window-width="1680"
     inkscape:window-height="922"
     id="namedview842"
     showgrid="false"
     fit-margin-top="0"
     fit-margin-left="0"
     fit-margin-right="0"
     fit-margin-bottom="0"
     inkscape:showpageshadow="false"
     showborder="false"
     inkscape:zoom="4.9"
     inkscape:cx="30.624789"
     inkscape:cy="44.999993"
     inkscape:window-x="0"
     inkscape:window-y="25"
     inkscape:window-maximized="0"
     inkscape:current-layer="svg961" /><metadata
     id="metadata967"><rdf:RDF><cc:Work
         rdf:about=""><dc:format>image/svg+xml</dc:format><dc:type
           rdf:resource="http://purl.org/dc/dcmitype/StillImage" /><dc:title></dc:title></cc:Work></rdf:RDF></metadata><defs
     id="defs965" /><g
     id="g969"
     transform="matrix(0.88888886,0,0,-0.88888886,-136.22019,139.82562)"><g
       id="g992"
       transform="matrix(0.73506416,0,0,0.73506416,153.24772,44.719934)"><path
         d="M 0.634766,152.53 V 64.0699 c 0,-2.7945 0.425784,-7.6113 0.955464,-10.9945 C 1.75508,52.0238 2.8875,46.9211 3.34844,45.3805 7.4875,31.5426 16.852,18.4359 28.641,10.8617 34.6164,7.02383 38.9848,5.27344 43.8051,3.63555 49.8355,1.58477 56.1922,0.686719 62.5223,0.748828 71.7758,0.839844 78.7898,2.83828 81.7621,3.84766 86.5867,5.48672 91.452,7.69023 95.85,10.5895 c 6.48,4.2699 8.571,6.4382 11.002,8.9367 11,11.3008 14.096,21.1508 15.403,26.0894 0.545,2.0602 1.322,5.7399 1.711,7.4785 0.469,2.1016 0.784,9.3989 0.778,10.9801 -0.123,29.4324 0,58.9778 0,88.4558 H 0.634766"
         style="fill:#fdde36;fill-opacity:1;fill-rule:evenodd;stroke:none;stroke-width:0.1"
         id="path973" /><path
         d="m 55.907,139.851 c 0.1364,0.444 0.0567,1.297 -0.0859,2.304 -0.0793,0.565 0.0082,1.422 0.0285,1.542 0.3559,2.064 1.7262,3.189 3.7727,3.257 1.5925,0.053 2.7523,-0.634 4.0562,-1.532 0.2922,-0.201 0.9039,-0.538 1.2953,-0.482 0.3207,0.046 -0.0222,0.578 0.4348,0.747 0.7652,0.284 1.2074,-0.784 1.3047,0.161 0.1527,1.484 2.241,1.846 4.0558,1.541 0.8184,-0.138 1.6457,-0.69 1.9856,-0.832 0.3406,-0.143 0.3976,0.029 0.6242,-0.143 0.2274,-0.169 1.4754,-0.964 1.8149,-1.219 1.1093,-0.832 2.1394,-1.567 3.4613,-2.07 1.3207,-0.504 2.7679,-1.03 3.0691,-1.068 0.2887,-0.036 1.5703,-0.337 2.8305,0.135 -0.7238,-1.532 -2.2152,-1.774 -2.5266,-1.834 0.4153,-0.672 2.7004,-0.641 3.4356,0.057 -0.2477,-1.691 -3.0278,-4.087 -4.3711,-4.449 -0.8215,-0.221 -1.6957,-0.233 -2.3715,-0.086 0.2254,-1.852 -0.0055,-3.802 -0.143,-4.557 -0.2328,-1.278 -0.6613,-2.747 -1.4238,-4.187 -1.6625,-3.135 -1.4,-4.366 -1.7383,-4.608 -0.434,-0.31 -0.6226,0.429 -0.9066,0.415 -0.2156,-0.011 -0.4871,-1.095 -0.9629,-2.286 -0.4766,-1.189 -1.3965,-4.813 -1.3977,-6.308 0,-0.27 -0.5215,-0.112 -0.9398,0.121 -0.3781,0.211 -0.5848,0.496 -0.7602,0.333 -0.3226,-0.299 -0.4156,-3.499 -0.4156,-4.061 0,-0.358 -0.0187,-1.19 -0.4531,-1.36 -0.4348,-0.17 -1.0574,0.661 -1.1332,0.775 -0.0758,0.113 -0.1512,0.037 -0.1321,-0.17 0.0192,-0.208 -0.3777,-2.551 -0.2457,-2.833 0,0 0.2926,-1.916 0.1,-2.06 -1.3621,-0.006 -1.8394,1.385 -2.098,2.749 -0.1793,-0.129 -0.0531,-2.214 0.6988,-2.725 0.2938,-0.2 0.3289,-1.858 0.5793,-2.147 0.1586,-0.182 0.0723,1.111 0.193,1.784 0.4262,-0.039 0.6832,-0.489 1.1332,-0.529 -0.0969,0.799 -0.1699,1.599 -0.266,2.399 0.2261,-0.114 0.3191,-0.034 0.5285,0.056 3.223,1.399 4.684,1.772 8.6871,1.889 0.3754,0.011 2.4906,-0.315 2.6672,-0.142 0.1496,0.145 0.3641,0.949 0.7117,1.707 0.3984,0.867 0.7707,1.697 2.0223,3.042 0.509,0.548 0.1508,0.529 0.189,0.775 0.0371,0.245 0.1133,0.49 0.4911,0.888 0.3777,0.396 -0.4305,0.968 -0.5672,1.435 -0.1371,0.468 -0.2223,2.009 0.1511,3.08 0.425,1.221 1.1973,2.155 2.0532,3.235 0.1718,0.217 -0.1219,0.453 -0.0883,0.525 0.1515,0.321 0.5597,0.71 0.3972,0.831 -0.3742,0.284 -1.3793,0.643 -1.3793,1.682 0,0.51 0.0372,1.021 0.1321,1.36 0.0949,0.341 0.0566,0.625 0.4539,1.852 1.2019,3.722 3.3715,8.783 3.268,12.187 -0.0317,1.059 -0.2266,1.946 -0.3782,2.249 -0.1508,0.303 -0.5664,2.229 -2.0019,3.061 4.0097,0.143 8.0367,-3.591 8.6883,-8.386 0.1769,0.871 0.1457,1.591 0.0757,2.612 0.7258,-0.195 0.959,-0.504 1.325,-0.927 0.668,3.519 0.4633,6.376 -0.132,8.936 2.7305,-2.956 3.9899,-5.115 4.2027,-6.513 0.4394,0.211 1.2074,2.208 4.3544,2.253 5.935,0.086 7.877,-9.765 11.094,-14.881 1.908,-3.033 3.007,-3.443 6.438,-3.672 -0.518,-1.111 -1.111,-2.045 -1.931,-2.652 -0.887,-0.655 -1.731,-1.233 -3.588,-1.259 -1.001,-0.012 -3.484,1.118 -4.885,2.159 -0.006,-0.227 -0.051,-0.436 -0.057,-0.663 0,0 1.108,-0.887 2.824,-2.235 1.582,-1.244 3.562,-2.894 5.81,-2.025 -1.335,-1.47 -5.311,0.621 -8.255,2.537 2.229,-2.294 3.687,-3.861 5.537,-4.762 0.524,-0.254 2.968,-0.825 4.365,0.048 0.149,-2.961 -3.038,-4.852 -5.475,-5.098 -3.039,-0.306 -6.878,2.261 -8.276,3.93 -0.012,-0.176 -0.025,-0.352 -0.038,-0.528 0,0 3.118,-2.929 6.198,-4.97 3.08,-2.04 3.401,-2.495 5.347,-2.381 -1.686,-0.615 -3.036,0.295 -4.909,1.41 -2.365,1.407 -5.019,3.207 -7.184,4.391 -0.389,0.213 -0.557,0.036 -0.265,-0.227 2.718,-2.445 5.556,-5.227 8.844,-7.104 3.288,-1.876 4.818,-0.51 5.555,0.037 -0.567,-2.739 -3.026,-5.446 -5.669,-5.555 -3.594,-0.146 -7.646,3.024 -9.598,4.932 -0.183,-0.037 -0.365,-0.076 -0.549,-0.113 3.477,-3.151 7.729,-6.6431 11.321,-8.9884 0.857,-0.559 1.756,-0.6188 2.548,-0.6863 -1.211,-0.5098 -3.471,0.7175 -5.9,2.298 -3.33,2.1687 -6.979,4.9707 -8.479,6.0537 -0.018,0.056 0,-0.662 0,-0.662 4.028,-3.538 5.756,-5.1905 8.236,-7.0519 3.154,-2.3675 6.018,-3.45 8.657,-2.6402 -1.953,-4.5379 -6.523,-4.1516 -7.313,-4.2328 -5.563,-0.5668 -8.798,4.2012 -13.169,6.2922 3.628,-3.7094 9.541,-7.9293 14.209,-10.2406 -2.703,0.2324 -11.299,6.5687 -13.869,8.4265 0.018,-0.2394 0.037,-0.4781 0.056,-0.7183 4.197,-2.8536 5.62,-4.5149 7.193,-5.8836 3.249,-2.8246 6.521,-4.2868 8.603,-4.4328 -2.187,-2.1239 -4.734,-2.9379 -8.049,-2.7016 -3.315,0.2371 -3.851,0.2172 -15.154,8.207 -0.2211,-0.1078 -0.3656,-0.2144 -0.5867,-0.3222 4.3043,-3.8118 9.9757,-8.9153 14.6917,-10.9434 -4.241,0.7891 -11.2081,6.8605 -15.8656,10.7543 -0.2148,0.0191 -0.4289,0.0191 -0.6437,0.0375 0,0 -0.0567,-0.1508 0.0566,-0.3219 1.4063,-1.4156 5.1489,-5.1633 8.9967,-8.3297 3.199,-2.6324 4.351,-4.2761 8.535,-5.0175 -2.368,-2.5485 -6.753,-2.4692 -10.1094,-1.7981 -7.2195,1.4434 -12.1465,7.0906 -17.3621,12.0977 -0.3527,0.0625 -0.7063,0.1257 -1.0602,0.1894 0,0 -0.057,-0.1711 0.095,-0.5113 2.2574,-2.3758 5.2589,-5.334 7.9265,-7.9399 0.3309,-0.3234 1.5453,-1.6968 5.8758,-5.1996 -2.7965,1.3008 -6.7809,4.6364 -9.7598,7.5028 -0.7191,-0.3543 -1.564,-0.6922 -2.3925,-0.8492 0.164,-0.1387 0.4183,-0.3629 0.5273,-0.443 2.9082,-2.1317 5.7094,-6.4074 5.9324,-6.7199 0,0 -2.1933,0.7007 -6.2961,0.5441 -4.1039,-0.1566 -6.5679,-1.2863 -7.532,-1.777 -0.9641,-0.4898 -4.1336,-2.0289 -6.543,-5.7652 -1.1078,-1.7172 -2.5051,-5.3996 -2.5754,-7.5566 -0.0058,-0.1719 -0.1609,-0.3852 -0.091,-0.4035 0.0832,-0.0223 0.3992,0.1839 0.4512,0.4097 0.3437,1.493 0.4348,3.891 2.4738,7.15 1.4211,2.2731 3.5422,4.4731 6.4942,5.8742 2.3109,1.0961 5.3972,1.643 7.3222,1.675 2.3016,0.0391 4.668,-0.3121 6.9297,-0.8191 1.2895,-0.2824 4.3008,-1.1441 7.3117,-3.1203 1.6223,-1.0641 3.5257,-2.302 5.7107,-3.8918 2.313,-1.6832 4.883,-3.7395 6.009,-4.8996 1.125,-1.1586 4.233,-4.8305 4.782,-8.1406 0.548,-3.3114 1.612,-7.345 -1.089,-10.2481 -0.776,-0.8332 -2.729,-2.1687 -4.78,-2.6027 0.363,1.0804 0.715,1.7347 0.739,2.3265 2.205,1.3477 2.703,2.3356 2.909,3.4797 0.196,1.0824 0.252,2.3793 0.025,3.8094 -0.735,4.6539 -4.164,10.0781 -8.058,12.5109 -0.352,0.22 -1.254,0.5227 -2.686,1.7125 -0.284,0.2352 0.568,-2.2246 0.616,-2.9593 0.172,-2.6727 1.421,-4.9793 2.911,-7.1465 0.52,-0.7574 1.325,-1.775 2.769,-2.1535 1.444,-0.3782 3.668,-0.0711 3.668,-0.0711 0.134,-0.686 0.269,-1.3723 0.402,-2.059 -3.182,-0.8746 -4.367,-0.2547 -4.521,-0.4024 -0.186,-0.1796 0.971,-0.7812 1.586,-2.3425 0.616,-1.5625 0.523,-2.6504 0.474,-2.9578 -0.781,-4.8758 -3.958,-6.2262 -4.851,-9.8926 -0.458,-1.8793 -0.022,-3.516 -0.12,-4.2364 -0.261,-1.9472 -0.649,-2.8691 -1.443,-4.0707 -0.483,-0.7308 -0.65,-1.4035 -0.88,-2.7402 -0.589,1.3516 -0.651,2.6574 -0.631,2.866 -0.9885,-2.9504 -3.6807,-4.1781 -5.8604,-3.1898 1.834,0.2117 2.7933,1.3746 2.9101,3.4543 -0.3738,-0.341 -0.8566,-0.5067 -1.2824,-0.5953 1.0567,0.8277 0.959,2.257 1.2211,4.0168 0.1961,1.314 0.5301,2.805 1.1274,4.4129 0.5972,1.607 1.7222,2.9144 1.7222,2.9144 0,0 0.607,0.8148 2.083,2.102 1.477,1.2878 2.234,1.9882 2.631,2.5179 0.398,0.5305 0.89,1.4391 0.966,1.7797 0.457,2.0512 -1.028,4.7524 -3.162,4.1848 -1.034,-0.2762 -1.566,-1.0238 -1.684,-2.1207 -0.234,-2.1574 1.459,-3.8528 3.502,-3.7301 -0.739,-0.757 -1.648,-1.7039 -1.648,-1.7039 -2.594,-0.557 -4.6302,2.7867 -4.4102,5.0551 0.3574,3.7027 2.7322,4.6523 5.3012,5.0554 0.339,0.0524 -2.137,0.8383 -3.954,4.9657 -1.9781,4.4898 -1.184,7.6679 -4.3976,11.7281 -0.6036,0.7637 -2.5852,1.8473 -4.4614,3.2894 -3.3246,1.4364 -7.0523,1.8325 -8.2429,1.7618 -3.2453,-0.1938 -6.2063,-1.1211 -8.7293,-3.0645 -2.5243,-1.9445 -4.3114,-5.2242 -4.7977,-8.2644 0.7297,2.0761 1.2457,3.316 2.1352,4.6371 1.2398,1.8441 2.1781,2.7539 2.8925,3.2972 0.7129,0.5438 3.4641,2.7348 8.5829,2.9805 3.998,0.1926 6.4148,-1.1371 7.8386,-1.7789 0.9102,-1.675 1.2828,-3.0399 1.4684,-4.4465 0.1859,-1.407 0.4137,-6.5148 0.393,-7.0738 -0.0211,-0.5586 -0.6844,-2.1379 -1.0125,-2.7301 -0.2071,-0.3727 0.1644,-5.0613 0.1644,-5.9367 0,-0.875 -0.3601,-4.4934 -1.5562,-6.5774 -1.1954,-2.0843 -3.8079,-5.0211 -9.3614,-4.291 0.6457,-4.6656 2.7602,-5.0554 4.4254,-5.3074 0.1735,-0.0258 0.6102,-2.2047 1.541,-3.7254 0.1645,-0.2691 -2.5324,-2.9586 -2.2961,-4.1894 0.2223,-1.1508 1.4067,-1.2469 1.5856,-2.3903 0.0348,-0.214 -0.0024,-0.8109 -0.0945,-1.4226 -0.0461,-0.3063 -0.2039,-0.2504 -0.2204,-0.5274 -0.048,-0.8121 -0.2093,-1.0828 -0.3714,-1.1258 -0.2051,-0.055 -0.1563,0.1786 -0.2989,0.3231 -0.032,0.0328 -0.1621,-0.1922 -0.2066,-0.1395 -0.0469,0.0547 -0.0023,0.2817 -0.0449,0.411 -0.0305,0.0933 -0.1215,0.082 -0.1918,0.1347 -0.1598,0.1211 -0.1051,-1.4304 -0.7309,-2.3664 -0.6187,-0.9222 -1.2773,-1.9457 -1.2797,-1.8101 -0.0136,0.8668 -0.33,1.9961 -0.9023,1.889 0.7223,-1.016 0.0902,-3.2214 -2.0723,-4.5437 -0.3953,-0.2406 0.6567,0.7469 -0.6363,2.1683 C 78.8254,11.8762 78.077,10.9547 77.2352,10.6094 76.3957,10.2641 75.6582,9.82305 75.6199,9.74297 74.4785,7.38047 72.8797,5.90859 70.998,6.03555 c -0.2312,0.01562 -0.1113,0.3 -0.1113,0.3 C 69.6605,5.78984 68.7945,4.77773 68.2836,3.30625 67.0457,3.75547 66.8027,5.22305 67.4164,7.56563 67.0352,7.55781 66.8488,7.74805 66.6738,7.97617 65.1809,6.32109 63.441,5.95898 61.2305,6.99805 59.6063,5.18594 59.2273,4.00898 59.748,3.29063 57.1398,4.09961 56.4195,5.65234 57.1766,7.72344 57.0195,7.92148 56.6973,8.25898 56.5453,8.78047 55.5008,8.76055 54.8344,9.00039 54.4625,9.44375 53.9,9.20781 53.8523,7.47344 53.8797,5.46797 c -3.0652,2.3207 -4.3418,4.80903 -1.641,7.50973 0.0027,0.6813 -0.7895,2.6649 0.9621,3.4864 0.7234,0.339 1.0414,0.2847 2.1769,0.4734 1.136,0.1891 2.0668,0.5207 2.0668,0.5207 l 2.0356,-0.5523 c 0,0 1.6812,1.3582 3.1234,1.3254 1.9801,-0.0458 2.291,-1.8692 3.7711,-2.004 1.7512,-0.1593 3.1211,0.7692 3.7863,0.6157 0.9508,1.7476 3.4055,6.6269 3.5184,8.0933 -0.7477,-0.1312 -0.8539,-0.4062 -1.9691,0.9106 -0.4969,-1.1699 -1.6024,-2.1266 -3.1715,-2.4367 0.4324,1.007 0.7847,1.9289 0.3312,2.7453 -1.2828,-2.2742 -2.9219,-3.3282 -4.7094,-3.6446 0.5555,1.0282 0.7153,1.5903 0.6391,1.9875 -2.8523,-1.725 -4.8789,-0.8796 -6.532,0.9942 4.0859,-0.4297 5.8148,1.7152 5.9875,5.3246 -1.1203,-0.6309 -2.6817,-1.909 -3.5965,-1.6809 -1.1457,0.2844 -2.8141,1.6192 -3.8109,2.2731 -0.4852,0.3176 -0.8282,-0.7656 -1.277,-1.1832 0.0859,1.2769 1.1414,2.0301 2.0824,2.0117 1.0203,-0.0215 1.3641,-0.8 2.011,-0.5688 1.1957,0.4282 2.5523,1.8454 2.7922,3.2422 0.2406,1.3973 -0.7336,4.7102 -0.8993,5.4438 -0.1656,0.7332 -1.0882,4.4957 -0.8039,6.8625 0.2832,2.366 0.6625,3.6445 0.9696,4.3781 -1.0789,-0.4227 -1.8313,-0.4047 -2.7903,-0.5594 -1.8668,-0.3035 -2.7203,-0.3976 -3.623,-0.5765 -0.9028,-0.1782 -3.7231,-0.4746 -4.1887,-1.1602 -1.0394,-1.5285 -1.9977,-4.0656 -1.207,-5.9156 0.2879,-0.6723 1.207,-0.9945 1.7043,-1.8223 0.4968,-0.8281 0.4968,-1.7988 -0.2367,-3.7859 -0.734,-1.9887 -0.6153,-2.0828 -0.7809,-2.2246 -0.166,-0.1426 -0.409,0.4015 -0.5211,0.1179 -0.1117,-0.2839 -1.3164,-0.7734 -1.4438,-0.8761 -0.1269,-0.1016 -0.2835,-0.6153 -0.0472,-1.3012 0.2363,-0.6859 0.0765,-1.0652 0.0945,-1.3492 0.0399,-0.6086 -0.3992,-2.0117 -1.2894,-2.2653 -0.8325,-0.2359 -1.4739,-0.789 -2.1172,-1.0953 0.7258,1.0243 0.7961,2.1149 0.2597,3.266 -0.039,0.4583 0.1102,0.9387 -0.1183,1.3731 -0.0399,-0.2012 -0.4031,-0.6551 -0.2387,-1.2613 0.527,-1.9399 -0.6855,-4.6125 -2.743,-4.9629 0.4856,0.4258 0.8067,0.8515 0.8516,1.2773 -0.1113,0.836 -1.0035,1.2696 -1.4203,1.9649 -0.4149,0.6949 -0.3551,1.064 -0.3551,1.064 -0.7168,-1.4441 -1.7121,-2.3324 -3.1226,-2.3894 -0.0766,-0.2606 -0.3743,-0.5203 -0.8286,-0.7813 -0.0761,0.152 0.0246,0.3977 -0.1089,0.5024 -0.3118,0.2422 -0.6102,0.4328 -0.6258,0.9652 -0.0192,0.7102 1.8308,1.9879 1.7523,3.6918 -0.9855,-1.3578 -2.1551,-2.4457 -3.8344,-2.793 -0.3523,-0.155 -0.6574,-0.4039 -0.9468,-0.6855 0.15,0.2527 0.2925,0.5191 0.3793,0.8988 -0.1559,0.9785 0.2879,1.9567 0.7097,2.934 -1.184,0.0219 -4.1105,0.0742 -4.5461,-0.4465 -0.4793,-0.5742 -1.8832,-2.8558 -2.8851,-3.1976 -1.0016,-0.3422 -3.6914,0.7343 -3.6914,0.7343 -0.8457,-0.9465 -1.3485,-1.9269 -1.5629,-2.9347 -1.3121,0.5593 -1.7082,2.1222 -1.0641,4.8273 -0.2379,-0.0168 -0.4414,0.0336 -0.6156,0.1422 -1.8176,-0.9879 -3.0742,-0.7242 -4.0703,0.1184 -0.7918,-0.3364 -1.5121,-2.2356 -1.8695,-4.0231 -1.9895,2.4336 -1.6321,4.918 -0.2133,7.2887 -0.0844,0.4433 -0.3328,0.7242 -0.9231,0.6625 -0.066,0.623 -0.2097,1.059 -0.5914,0.923 -0.5969,0.1985 -2.3472,-1.4273 -2.7453,-2.3668 -1.09882,1.616 -1.01132,3.4059 0.2254,5.3367 -0.1469,0 -0.1953,2.2485 1.5613,3.7161 1.7567,1.4672 3.2422,1.0644 3.7625,0.9703 0.5211,-0.0949 1.8438,-0.4422 2.2723,-0.5215 0.3406,-0.0621 3.0754,0.9863 4.4961,0.5441 1.1613,-0.3593 1.5293,-2.3832 4.3547,-3.3836 0.2441,-0.0859 0.3804,-0.514 0.639,-0.5199 2.3625,-0.0594 7.1813,-0.064 9.2532,-0.6633 0.4636,-0.1343 2.8109,2.1325 2.8398,2.675 0.0297,0.5403 -1.1121,2.4055 -1.4434,3.6676 -1.1734,-0.2043 -2.3211,-0.1664 -3.4312,0.2606 1.5484,0.6925 2.2234,1.8785 2.1301,3.4546 -0.2489,-0.0621 -3.6043,-2.6785 -3.9289,-0.5679 -0.0481,0.3074 0.0718,0.7039 -0.0481,0.6867 -0.3215,-0.0473 -2.4613,-3.6574 -5.5601,1.1832 -0.8719,1.3598 0.2355,3.9625 -1.8704,3.0047 -1.207,-0.5481 2.1762,2.0773 2.9114,-0.4965 0.189,-0.6625 -0.1184,-0.734 0.2836,-0.8984 0.4027,-0.1668 2.007,-0.2239 2.4851,0.0695 2.0785,1.2824 1.993,3.848 1.893,4.2129 -0.0367,0.1336 -0.166,0.0234 -0.3074,-0.1418 -0.1418,-0.1656 -0.0946,-0.5207 -0.9469,-0.5207 -0.8516,0 -1.9164,0.3551 -2.4367,0.8047 -0.5215,0.4496 -0.8528,1.2301 -0.8285,1.491 0.0226,0.2605 0.0398,0.5781 0.307,0.4262 0.8254,-0.468 1.7613,-1.0524 3.4555,0.3785 0.3004,0.2535 0.5289,1.4613 0.9226,2.1535 0.3942,0.6922 2.8485,3.8473 8.2125,4.8992 2.4137,0.4731 6.4582,-0.1055 7.9746,-0.0242 7.1239,0.3785 12.2828,1.0648 13.4196,1.1125 -1.161,0.8516 -4.2481,1.9914 -5.4438,2.059 -4.6621,0.2605 -8.6129,1.3363 -9.3953,1.6558 -3.3543,1.3731 -6.2488,2.5395 -8.5422,3.1985 -0.6726,0.1933 -6.1988,2.8902 -6.8641,5.7 -0.4597,0.0949 -0.8578,0.3234 -1.0648,0.5445 -0.9203,-0.4348 -2.3297,-0.5355 -3.2656,0.1414 -0.7707,0.1809 -4.6153,0.3082 -4.9469,-0.2355 -0.3312,-0.5446 -0.6352,-0.8571 -0.2602,-2.9825 0.0961,-0.5402 -0.5437,-0.875 -0.5437,-0.875 -0.666,-0.1734 0.1687,-1.1851 0.2598,-1.5148 0.1961,-0.7098 -0.4961,-0.4734 -0.1649,-1.5387 0.1293,-0.4183 -0.0945,-0.7211 -0.2273,-1.0351 -0.1391,-0.3289 -0.0813,-0.5907 -0.602,-0.9766 -0.6465,-0.4789 -0.8801,-0.2574 -0.9988,-0.4687 -0.1836,-0.3289 -1.8934,-0.7188 -2.1063,-0.4965 -2.725,-1.3207 -5.7078,-0.9114 -6.8628,1.3957 1.1562,-0.3715 3.5449,-0.5832 4.1175,0.2847 -0.8043,0.8473 -0.9336,2.9922 0.3707,3.6731 0.9493,0.4957 1.6309,1.368 1.7356,1.8633 0.0625,0.2945 0.5445,0.3558 0.6164,0.5218 0.0695,0.1645 0.8039,1.4899 0.0226,1.7504 -0.4019,0.134 0.118,-0.4488 -0.7574,-0.8046 -0.875,-0.3547 -1.7988,-0.1891 -1.9168,-0.2125 C 15.7477,80.5078 15.3688,79.8684 14.6117,79.7504 13.8539,79.632 13.3098,79.632 13.3098,79.632 13.2906,79.6121 12.8156,78.6871 11.1563,78.7805 11.125,77.7344 8.61211,74.8711 6.80156,77.1941 5.10508,76.6238 2.97539,76.9734 2.47109,80.1758 c 1.74219,-2.5985 3.1668,-1.1313 2.86641,0.8363 -0.09023,0.5902 0.35,1.6199 0.6125,2.1926 0.29414,1.1461 2.77617,1.0144 3.19453,0.498 0.85313,0.336 1.62497,0.4856 2.03517,-0.1898 0.7492,0.7426 1.6094,0.9699 2.6742,0.2601 0.7551,0.6129 1.5563,0.8083 2.4379,0.2844 0,0 1.5988,0.3008 2.8164,0.4727 0.9625,0.1367 1.9645,0.0953 2.6508,-0.0227 0.6863,-0.1187 1.443,0.0707 1.7273,0.3313 0.2832,0.2597 -0.5914,0 -0.9703,0 -1.4082,0 -2.6363,0.439 -4.0125,-0.1242 -0.5695,-0.2336 -1.4504,-0.2434 -2.0226,0.3128 -1.0239,-0.4218 -1.8164,-0.2242 -2.461,0.4262 -0.9844,-0.523 -1.9347,-0.084 -2.7929,0.7813 C 10.35,85.9863 9.7582,85.5305 9.15508,85.6184 7.87305,85.8039 6.81719,86.2582 5.93477,86.9543 5.48633,87.307 5.47344,88.0727 5.35781,88.7906 5.24258,89.509 4.13945,89.4418 3.83203,89.3703 c -0.3082,-0.0711 -1.7039,-0.757 -1.7039,-0.757 0.66132,1.5773 1.8,2.7918 3.78593,3.3601 1.65,1.2289 3.14649,0.918 4.54374,-0.3785 0.9738,-0.0304 1.6621,-0.1828 1.7512,-0.5914 0.7738,0.1535 1.1121,-0.0515 1.657,-0.5207 -0.259,0.5672 -0.6578,0.8754 -0.7578,1.325 -0.5441,-0.0523 -1.0883,0.3277 -1.6328,0.9703 -3.14767,0.466 -2.96876,1.9942 -3.07618,3.4317 -1.975,1.2523 -3.18399,0.8855 -4.02305,-0.2606 -0.11133,1.6317 4.50274,3.4586 6.10513,1.9406 2.7941,1.8668 4.4019,0.6809 5.1117,-2.8164 0.6476,-0.6214 1.184,-1.3105 1.3258,-2.248 0.7941,-0.6481 1.6832,-1.2809 1.6335,-2.059 0.8102,-0.1266 1.4872,-0.2406 1.8711,-1.8859 0.5075,-0.5317 1.8094,-1.4703 4.2098,-1.4504 2.402,0.0195 2.4074,-0.0715 2.4074,-0.0715 1.2485,0.4891 2.4821,0.7496 3.6684,0.3555 -0.1824,0.6148 -0.268,1.2304 -0.2606,1.8461 -0.8421,-0.0782 -1.6187,-0.0891 -2.2718,0.023 -0.5344,-0.1617 -0.8383,-0.5394 -0.9942,-1.0176 -0.4597,1.8403 1.1059,2.2055 1.9406,2.675 0.6829,0.3821 1.5043,1.8414 1.4915,2.3891 -0.0336,1.3855 -3.2875,8.0173 -6.2711,8.4253 0.6199,1.321 1.7691,2.016 3.714,1.822 -0.1047,0.836 -1.0515,0.729 -1.5086,1.73 -0.466,1.024 -0.4636,2.648 -0.3133,4.045 -1.5437,0.618 -2.1066,3.046 -1.9167,5.064 -1.3204,1.372 -1.818,3.923 -2.8403,6.579 -0.1762,0.459 -0.8582,0.56 -1.3484,0.591 -0.2227,0.015 -0.316,-0.315 -0.4735,-0.473 -0.0793,-0.859 -0.4566,-1.42 -1.325,-1.561 0.025,-1.011 -0.3093,-1.625 -1.041,-1.988 0.2938,-2.949 -3.389,-4.408 -5.775,-2.627 -3.14685,-0.28 -4.58435,0.156 -5.27693,2.603 0.81133,-0.665 1.77852,-1.134 3.85703,-0.213 0.0723,2.536 1.6797,3.373 4.2129,3.195 0.0703,0.406 0.3465,0.5 0.7336,0.402 0.0484,0.314 0.3297,0.397 0.757,0.331 0.4457,1.029 1.3457,1.7 2.2485,2.272 -0.3012,0.299 -0.4559,0.238 -0.6629,0.544 -0.9032,-0.191 -1.5817,-0.06 -1.9168,0.568 -0.7336,-0.356 -1.4668,-0.243 -2.2012,0.095 -1.2016,-1.593 -4.35157,-1.735 -4.68555,0.853 0,0 -0.30742,0.354 -0.59141,0.354 -2.71211,-0.034 -4.14336,0.547 -4.89882,3.55 0.98359,-1.258 2.36836,-1.834 4.61484,-0.946 -0.86484,2.79 2.21406,3.692 4.18984,2.818 0.6047,-0.268 1.1492,-0.732 1.5609,-1.374 1.0774,0.168 2.1332,0.188 2.9582,-1.421 0.6102,-0.119 1.1332,-0.346 1.4907,-0.78 2.6461,-0.204 3.232,-2.996 4.5906,-3.314 -0.9543,1.073 -2.2875,2.548 -2.6734,3.1 -1.843,0.305 -2.5239,1.02 -2.7219,1.704 -0.677,0.208 -1.2156,0.835 -1.325,1.799 -0.716,0.248 -1.2406,0.666 -1.5149,1.798 -2.7574,-1.076 -3.9421,1.079 -3.6929,3.029 0.1023,0.806 -0.0477,0.955 -0.2594,1.539 -1.76563,1.203 -3.08321,0.422 -4.40157,-0.355 2.27852,2.887 4.37147,3.874 6.27147,2.911 1.7125,1.599 3.1809,1.316 4.3711,-0.408 0.6961,-1.007 0.6664,-2.568 1.4738,-3.663 0.8786,-0.748 1.5293,-1.61 1.3965,-2.863 0.716,-0.136 1.336,-0.588 1.6098,-2.177 1.4156,-0.322 2.3285,-5.919 3.7863,-8.331 -0.7414,2.172 -1.4594,5.148 -2.4137,7.455 -0.6066,0.742 -0.6484,1.475 -0.4972,2.343 -0.809,0.476 -1.1242,1.344 -0.9235,2.768 -1.8664,0.916 -2.4875,2.492 -1.1113,4.757 0,0 -0.0242,0.379 0.1184,0.545 0.4824,1.896 -2.5805,2.373 -3.4086,1.466 0.7316,1.885 4.7273,2.275 5.9644,-0.165 1.0524,0.305 2.6348,0.038 2.8313,-0.476 0.3609,-0.941 0.918,-1.594 1.2644,-2.484 0.1504,-0.387 0.1153,-1.248 -0.5398,-2.604 0.9074,-1.351 0.7812,-2.813 0.1656,-4.023 0.5485,-1.249 0.5793,-2.174 0.166,-3.1 0,0 -0.1336,-0.282 -0.0574,-0.711 0.1438,-0.81 0.2508,-2.706 0.3723,-4.281 0.0347,-0.453 0.3879,-1.201 0.6789,-1.54 -0.1113,-0.244 0.0234,-0.639 0.0234,-0.639 0.7227,-1.086 1.2903,-2.455 1.6332,-4.236 1.359,-0.933 2.4203,-2.387 2.7688,-5.088 2.3062,-1.013 1.7777,-3.693 2.3176,-4.159 l -0.0016,0.001 c -0.4422,-0.898 -0.634,-2.086 -0.666,-3.459 -1.1289,0.828 -2.4285,1.338 -3.8102,1.692 -0.7195,-0.694 -0.8578,-1.801 -0.3785,-3.348 -2.0871,0.131 -3.0801,-0.15 -3.2418,-0.745 1.302,0.176 2.5832,0.358 3.5969,-0.012 -0.2231,1.353 -0.2988,2.631 0.0469,3.479 0.5464,-0.05 2.0101,-0.66 4.2605,-1.752 -0.0719,1.539 0.2969,3.263 0.8207,4.356 v 0 c 0.1414,0.207 0.275,0.494 0.5633,0.743 0.4187,0.36 0.723,0.965 0.9176,1.524 0.0168,-1.328 0.2519,-2.571 0.8996,-2.887 0,0 0.7332,-1.634 0.8519,-1.657 0.1188,-0.024 1.1598,1.23 1.609,1.609 0.45,0.379 2.1195,1.726 2.3906,2.044 -0.5339,0.382 -1.0496,1.165 -1.0496,1.582 0,0.416 0.3336,0.252 0.5004,0.25 2.3945,-0.025 5.5711,3.056 5.8172,3.815 -0.5207,0.351 -0.6254,0.335 -0.6879,0.668 -0.0625,0.333 -0.0418,0.855 0.0832,1.001 0.125,0.145 1.3641,-0.067 1.7813,-0.005 0.3488,0.05 3.2644,1.777 3.6187,2.131 0.3543,0.355 0.5586,0.347 0.5274,0.52 -0.0313,0.174 -0.3309,0.363 -0.2524,0.505 0.0793,0.142 0.0793,0.252 0.5207,0.315 0.4414,0.063 0.4789,-0.025 0.7262,0.126 3.718,2.286 5.073,6.079 5.3871,9.559 0.1641,1.826 -0.8203,3.162 -2.6816,3.947 2.6113,1.234 4.8,-0.73 4.8,-0.73 -0.3852,2.299 -3.9313,2.948 -7.2887,2.652 -2.5539,-0.225 -4.9238,-0.315 -5.8559,-0.102 -3.3859,0.774 -4.8914,3.285 -5.0715,5.922 -0.2984,4.351 3.4313,6.594 5.6965,6.484 2.1446,-0.102 3.7754,-1.748 3.7391,-3.502 -0.0445,-2.239 -1.6223,-3.445 -3.4543,-3.549 0.5309,-2.384 2.5871,-2.78 5.466,-2.604 5.2504,0.322 9.2098,-0.75 10.5793,-4.757 -0.4391,3.5 -2.0543,5.288 -4.4496,5.822 0.1332,1.051 -0.527,1.646 -2.0348,1.752 -0.8929,0.061 -1.68,-1.042 -1.9414,-1.539 -0.2597,-0.497 -0.6386,-0.71 -0.5961,-0.685 z M 21.0871,31.5906 c -0.0566,0.3403 1.0395,3.666 2.6512,3.5399 1.7363,-0.1352 2.8715,-2.9367 0.757,-3.5399 1.1797,0.8051 0.7192,2.9285 -0.7765,2.9153 -0.7407,-0.0063 -1.7411,-0.9657 -2.6317,-2.9153 z m 26.009,12.041 c 0.132,-0.3781 0.3406,-0.7382 0.2457,-0.9656 -0.0941,-0.2269 -0.166,0.1832 -0.1891,-0.2269 -0.0226,-0.4102 1.8219,-2.7133 1.7981,-2.6129 -0.0223,0.1019 0.0699,-0.2367 -0.3781,-0.4164 -0.1426,-0.0567 -2.2825,2.4871 -1.4766,4.2218 z m -2.1207,-7.0617 c 0.9934,0.4188 2.0984,0.6551 3.1805,0.8145 -0.127,0.0758 0.2343,0.9836 0.4742,1.2304 0.0492,0.2469 0.1508,0.9086 0.3781,0.927 0.2266,0.0195 0.1887,-0.5668 0.0758,-0.8516 -0.1145,-0.2839 -0.3602,-1.7039 -0.3602,-1.7039 0.0512,-0.28 -2.6758,-0.6531 -3.7484,-0.4164 z m -2.3477,-0.3594 c 0.2594,0.379 1.0848,0.554 1.6477,0.4543 -0.7387,-0.3976 -0.7957,-0.2835 -1.6477,-0.4543 z m -1.4386,-2.8968 c 0.2078,-1.7035 -1.2946,-3.7348 -1.6473,-3.3324 -0.2379,0.273 0.966,1.0226 1.6473,3.3324 z m -21.0496,1.707 c 0.0398,1.3254 1.0105,2.9145 3.6804,3.5023 0.086,-0.0289 0.0922,-0.1179 0.0922,-0.1324 1.2047,0.7461 2.7434,0.3102 4.0731,-0.5426 0.8878,-0.0707 3.6918,0.0125 3.6918,0.0125 -1.1911,-0.4679 -2.5477,-0.6757 -3.4192,-0.4496 -0.5918,0.0235 -1.0719,0.7286 -2.7105,0.8516 -0.9008,0.0684 -2.3535,-0.3961 -3.8328,-1.4672 -1.1379,-0.8226 -1.5629,-1.7988 -1.575,-1.7746 z m -0.0883,-0.2309 c -0.1504,-0.775 0.5738,-1.5621 0.2488,-1.8027 -0.5965,-0.4406 -0.5109,1.6734 -0.2488,1.8027 z m 1.8109,7.6247 c 1.7828,-0.3793 2.9973,0.0156 4.3227,-0.7106 -1.9746,-0.3809 -4.82,0.3391 -4.3227,0.7106 z m -5.393,2.7664 c 1.8102,-1.7692 1.4774,-2.7899 5.2102,-2.9071 0.1473,0.2508 0.0937,0.2555 0.1863,0.5348 -3.9601,0.5695 -2.9636,1.4918 -4.3726,2.2098 -0.2559,0.1164 -1.0239,0.1625 -1.0239,0.1625 z M 13.5613,32.5738 c 0.5348,3.9543 3.1051,5.4117 4.0473,4.8383 1.0699,-0.6508 1.8383,-1.5348 -1.6742,-4.2801 4.791,2.1168 2.6914,4.6172 2.1394,4.9075 -2.6347,1.3875 -4.7918,-3.302 -4.5125,-5.4657 z m 0.8145,5.536 c -0.011,2.7687 2.8847,4.3718 6.268,1.4078 0.2449,-0.2153 1.0156,0.2773 1.5593,0.3246 0.5442,0.0469 4.827,-0.0574 4.8961,-0.2207 0.0696,-0.1625 0.0934,-0.3715 -0.0465,-0.3485 -0.139,0.0231 -4.9832,0.0942 -5.4648,-0.0351 -0.2012,-0.0535 -0.7254,-0.4418 -0.875,-0.3254 -2.5316,1.9602 -5.3813,2.1473 -6.3371,-0.8027 z m -3.6754,2.9769 c 0.2086,1.2574 1.2883,2.1809 2.4426,2.2102 2.0023,0.0515 1.7265,-2.6989 1.4652,-2.7317 -0.1715,-0.0211 -0.193,-0.066 -0.3254,-0.0367 -0.3824,0.0844 0.4371,3.9403 -3.5824,0.5582 z m 25.7578,7.0203 c -0.0953,0.034 -0.0137,0.3118 0.0973,0.2871 1.5273,-0.3468 2.7156,1.3528 3.5,3.2161 0.0316,-2.193 0.1679,-3.3618 0.6945,-3.5504 0.4191,-0.1493 3.6965,1.5062 4.5121,2.3355 -0.2211,-0.9949 -3.9918,-3.0613 -4.3223,-2.95 -1.0738,0 -1.121,2.8082 -1.121,2.8082 -0.4606,-1.3988 -2.0864,-2.5828 -3.3606,-2.1465 z m -1.925,6.034 c 0,0 -0.4531,-2.8379 0.1852,-3.0316 0.4246,-0.1293 1.5566,0.7949 2.0695,1.057 0.0453,-0.0973 0.0609,-0.1527 0.0609,-0.1527 0.5528,0.6965 1.2168,1.1789 1.918,1.6285 -0.6059,-0.7586 -1.2117,-1.4192 -1.5797,-1.9688 -0.4859,-0.3121 -2.482,-1.4898 -3.1719,-1.2851 -0.9554,0.4133 -0.0019,2.2008 0.518,3.7527 z m -5.0844,4.8992 c 0.9285,-0.68 1.9442,-0.9472 3.2172,-0.4437 -0.1664,-0.2774 -0.2586,-0.7379 -1.0351,-0.7395 -0.9981,-0.0011 -1.8723,0.5434 -2.1821,1.1832 z m -2.3281,-4.5113 c 1.5426,-3.8574 3.0953,-4.4055 5.4152,-2.1809 -3.1914,-4.33 -5.1605,0.3594 -5.4152,2.1809 z M 66.1004,16.166 c -3.1516,-0.3805 -6.0223,1.1035 -6.2457,0.8012 -0.5016,-0.6774 5.0176,-1.6633 6.2457,-0.8012 z M 51.2789,10.0164 c 0.1457,1.4922 1.2856,3.227 2.5348,3.4449 1.9281,-0.0847 2.2773,-2.7039 2.6078,-2.5953 0.3582,0.1172 -0.1176,2.7473 -2.3895,3.3469 -0.1875,0.0504 -0.5234,-0.0051 -0.5562,-0.427 -1.1442,-0.4879 -2.7219,-2.5203 -2.1969,-3.7695 z m 5.6875,-1.17577 c 0.0609,2.29217 0.6117,4.39257 3.6879,4.45037 1.9297,0.0367 3.7973,-1.6082 4.6094,-3.43162 0.1215,1.35352 -1.1324,2.70112 -1.7094,2.99572 1.5734,0.1394 4.4133,1.2207 4.7359,1.3605 0.3235,0.1418 1.9805,0.5895 2.795,1.0653 -1.086,-0.0672 -2.6481,-0.7918 -2.9336,-0.8293 -1.4301,-0.1875 -3.0996,-0.9938 -4.1368,-1.0629 -0.682,-0.0453 -2.6714,0.6586 -3.7121,0.5699 -2.7539,-0.2352 -4.2285,-2.4215 -3.3363,-5.11797 z m 1.3109,0.33906 c 0.0485,-0.1086 1.2493,1.65001 2.6442,1.32261 1.3949,-0.3277 1.6742,-1.17652 1.7105,-1.75894 0.036,-0.58242 -1.2011,-0.87422 -1.0562,-1.07969 0.1465,-0.20586 1.468,0.47305 1.4922,0.80078 0.0246,0.32735 -0.6778,2.49645 -2.0254,2.72895 -1.0496,0.1808 -3.0711,-1.32465 -2.7653,-2.01371 z m 9.8489,3.10551 c -0.2184,0 -1.7106,-0.7039 -1.7711,-0.9586 -0.0602,-0.2547 0.0855,-0.2668 0,-0.4727 -0.0844,-0.2066 -0.3758,-0.94648 -0.3758,-1.3582 0,-0.4125 0.1578,-0.99453 0.1457,-1.12812 -0.0121,-0.1332 -0.5703,-0.83711 -0.4359,-0.98281 0.1332,-0.14571 0.9207,0.55781 0.9086,0.65507 -0.0114,0.09688 -0.4239,0.92188 -0.327,1.45586 0.0969,0.5332 0.2543,1.334 0.5824,1.6492 0.327,0.3149 0.8242,0.6188 0.9938,0.6664 0.1703,0.0496 0.4488,0.2914 0.2793,0.4739 z m 0.8972,0.1937 c 0.9586,0.1336 1.3762,0.4363 1.6618,0.5941 0.2859,0.1579 0.9824,0.6305 1.3953,1.2129 -1.1223,-0.7285 -1.9149,-1.3082 -3.0571,-1.807 z m 2.4379,-5.93046 c 0.7758,0.61797 0.8852,1.94844 -0.0363,2.69219 -0.9762,0.78827 -2.2559,0.53359 -2.207,0.24257 0.0242,-0.29101 1.3066,0.03633 1.9164,-0.61836 0.3621,-0.38906 0.8125,-0.98281 0.3269,-2.3164 z m -3.784,0.93281 c 0.6184,1.08008 1.6129,1.81992 1.3825,2.03828 -0.2305,0.21914 -1.3461,-0.97031 -1.3825,-2.03828 z m -1.0675,1.95313 c 0.2789,0.76442 1.189,1.75902 0.8007,1.97772 -0.3882,0.218 -0.8242,-1.45546 -0.8007,-1.97772 z m 7.7023,1.44372 c -1.2836,1.0305 -2.0226,1.2926 -3.4691,1.5407 -0.7797,0.1328 -1.9176,-0.104 -2.7047,-0.643 1.4527,0.343 3.1101,0.6574 6.1738,-0.8977 z m -3.2629,2.1469 c 1.5145,1.198 1.2274,1.5563 2.8871,2.2188 -0.9914,-0.9676 -1.2578,-1.5067 -2.8871,-2.2188 z m 9.4899,2.7633 c -1.0161,-2.1344 -0.4196,-2.4414 -0.7403,-2.9137 -0.3043,-0.448 -0.4929,1.4805 0.7403,2.9137 z m 0.9316,1.1832 c 0,0 1.0055,-2.8985 0.7543,-3.0024 -0.252,-0.1031 -0.7395,2.943 -0.7543,3.0024 z m 1.9074,3.4305 c 0.325,-1.375 1.1684,-1.9079 1.2871,-2.2028 0.1043,-0.2625 0.2059,-1.0648 -0.03,-1.2277 -0.4582,1.516 -1.6711,2.7476 -1.2571,3.4305 z m 0.991,2.4109 c -0.1394,-2.5422 1.4629,-1.8582 1.5668,-3.6973 0.85,1.8559 -1.3281,1.9117 -1.5668,3.6973 z m -1.7164,5.3375 c 0.145,-0.2977 0.3352,-0.5844 0.6368,-0.843 0,0 0.291,-1.0988 0.0593,-1.5816 -0.6308,-1.3106 -1.2054,-1.2598 -1.1246,-2.3953 0.5223,0.7566 1.0555,1.4156 1.6571,2.0547 -0.0875,0.7746 -0.2379,1.5484 -0.4438,2.3222 -0.0234,-0.1168 -0.7703,0.3332 -0.7848,0.443 z m 0.3996,2.8543 c 0.6461,-0.4137 1.3446,-0.7742 2.3067,-0.8723 0.257,-0.3109 0.291,-0.8082 0.3113,-1.1976 -0.1777,0.2656 -0.7375,0.7836 -1.109,0.8722 -0.8379,0.2004 -1.6566,0.7461 -1.509,1.1977 z m -2.3066,0.8574 c 0.4289,-0.8125 0.8137,-1.9219 1.3309,-2.4394 0.5172,-0.5176 1.7894,-1.1832 1.6125,-1.4938 -0.152,-0.2641 -1.7457,1.0059 -2.0852,1.4938 -0.3406,0.4878 -0.7836,1.5082 -0.8582,2.4394 z m 0.902,11.2242 c -0.5375,-1.8582 -0.8981,-3.7976 -0.9903,-5.6937 -0.0672,-1.3711 0.0953,-2.5727 0.4731,-3.6668 -0.7168,0.7558 -1.2465,2.009 -0.9321,4.4515 0.2598,2.0102 0.8293,3.5821 1.4493,4.909 z M 72.0719,26.2734 c 0.189,0.1981 0.6301,-0.5097 1.0441,-0.5621 0.8703,-0.1097 3.7606,1.2055 3.7774,3.7278 0.5621,-2.1528 -2.0746,-4.0317 -3.375,-4.3059 -0.584,-0.1238 -1.6043,0.9746 -1.4465,1.1402 z m -2.3301,-1.6066 c 0.8035,1.9922 0.216,4.0293 0.3691,4.0664 0.4481,0.1055 0.5793,-3.8414 -0.3691,-4.0664 z m -2.7324,0.2891 c 2.2086,3.4257 0.7246,3.5976 1.109,3.825 0.3691,0.2195 1.3496,-1.9766 -1.109,-3.825 z m -4.9336,-0.209 c 3.791,1.1476 4.0402,4.1168 4.5156,4.066 0.5844,-0.0629 -1.409,-4.482 -4.5156,-4.066 z m -1.5039,5.9054 c -0.025,0.1415 0.5676,0.0512 1.3035,0.1868 0.8215,0.1527 1.4383,1.0148 2.8527,1.6777 -0.1203,-1.307 -3.9785,-2.891 -4.1562,-1.8645 z m -10.5035,11.825 c 1.9265,-0.6902 1.5289,-3.8437 1.1175,-3.7871 -0.2062,0.0289 0.1887,1.3258 0.075,1.9883 -0.2839,0.0758 -1.2246,1.3949 -1.1925,1.7988 z M 73.8,61.1281 c -3.1852,-5.9082 -12.4453,-3.4945 -12.6781,-14.316 1.291,9.8141 12.314,9.4504 12.6781,14.316 z m -13.0766,9.2254 c 2.6961,-0.1828 6.6602,-3.6828 8.4336,-5.6914 -0.0648,-0.0523 -0.2168,-0.2266 -0.2523,-0.3223 -2.9352,2.5965 -5.4699,5.0864 -8.1813,6.0137 z m 7.9457,20.8961 c 0.6231,-0.8086 3.2715,-4.4988 6.2473,-4.5371 0.0973,0.4902 0,1.1195 -0.484,1.9375 0.6781,-0.3605 1.0981,-0.4629 1.7918,-0.6934 -2.1734,1.9543 -2.9445,3.436 -3.0512,4.6161 3.2997,-5.7926 8.3043,-6.2504 10.0411,-6.1504 0.9437,0.7 -1.2266,2.8093 -1.0328,3.0992 0.1937,0.2906 0.8394,0.0484 1.1621,0.0484 -0.4274,2.2106 -2.6723,4.1989 -3.3414,5.6824 1.3144,-1.2863 3.4449,-3.2445 4.0187,-6.1988 -0.2738,-0.1844 -0.5477,-0.2027 -0.823,-0.1285 0.5558,-0.8836 0.7519,-1.8078 0.5332,-2.7773 -1.7403,-0.5477 -4.0821,-0.0227 -6.8125,1.1949 -0.6598,-0.0852 -1.2067,0.0851 -1.695,0.3871 0.1008,-0.6258 0.0821,-1.2035 -0.0324,-1.7434 -2.3726,0.1075 -5.7023,2.516 -6.5219,5.2633 z m 13.5766,1.8555 c 3.1262,-2.4067 6.427,-4.2688 10.5898,-3.4371 -0.1433,0.9652 -0.8707,2.1265 -1.6625,3.3078 0.6079,-0.1442 1.2641,-0.3266 1.6461,-0.2899 -0.8976,3.0621 -1.9371,3.8911 -3.4867,5.3106 2.7813,-1.6422 7.5985,-4.336 11.2036,-3.5992 -0.432,1.5109 -2.1637,3.7129 -2.1637,3.7129 0.5039,0.0617 0.8949,0.0304 1.2918,0.0964 -0.7301,1.8364 -1.8282,2.7754 -4.1645,4.4874 3.4098,-1.775 6.8594,-2.308 9.0714,-0.694 -0.258,1.373 -2.064,2.99 -1.873,3.261 0.275,0.388 1.308,0.162 1.308,0.162 -1.118,0.977 -2.347,1.831 -3.551,2.68 2.321,-0.768 4.491,-1.057 6.296,-0.662 -0.267,1.188 -1.088,2.34 -2.002,3.486 0.522,-0.172 1.033,-0.323 1.469,-0.322 -1.2,1.354 -2.541,2.595 -3.955,3.777 3.106,0.23 4.214,0.645 4.488,0.839 -0.13,0.837 -1.395,1.742 -1.308,1.953 0.088,0.215 1.188,-0.616 1.404,-0.29 0.28,0.421 -0.986,1.547 -2.108,2.245 -1.077,0.672 -2.089,0.764 -1.96,1.145 0.145,0.426 3.083,-1.436 5.892,0.549 -0.528,0.962 -1.365,1.891 -2.324,2.809 0.837,0.088 1.64,0.191 2.13,0.452 -1.261,2.197 -4.444,1.15 -4.503,1.76 -0.037,0.372 2.833,0.427 4.868,3.413 0,0 -1.114,0.852 -1.68,0.727 -0.241,-0.053 -0.419,0 -0.307,0.145 0.113,0.146 0.372,0.517 1.002,0.726 -0.303,0.688 -2.796,0.384 -2.826,0.646 -0.049,0.435 2.351,0.712 3.908,-0.129 -0.062,-0.422 -0.425,-0.765 -1.131,-1.016 0.718,-0.294 1.403,-0.616 1.905,-1.082 -0.999,-1.339 -2.177,-2.209 -3.39,-2.986 1.514,-0.579 2.656,-1.31 2.922,-2.406 -0.354,-0.418 -0.851,-0.647 -1.421,-0.807 0.594,-0.623 1.128,-1.407 1.55,-2.244 -0.305,-1.176 -3.535,-1.759 -3.535,-1.759 0,0 1.749,-1.562 1.646,-2.292 -0.05,-0.361 -0.2,-0.787 -0.597,-0.421 0,0 0.398,-1.137 0.387,-1.371 -0.016,-0.34 -1.969,-0.904 -4.02,-1.066 0.689,-0.263 3.787,-2.702 3.843,-3.584 0.021,-0.332 -0.501,-0.21 -0.889,-0.129 0.434,-1.028 1.097,-2 1.227,-3.068 -1.152,-0.584 -2.437,-0.577 -3.761,-0.387 0.468,-0.541 0.867,-1.116 1.163,-1.744 -0.483,0.006 -0.945,-0.019 -1.341,-0.144 0.278,-0.206 1.892,-2.732 1.728,-3.035 -0.77,-1.422 -4.827,-1.549 -6.5219,-0.888 0.8555,-1.0727 1.4699,-2.2098 1.6789,-3.4539 -0.287,-0.0895 -0.6054,-0.0414 -0.9355,-8e-4 1.1725,-1.0383 1.5495,-2.8574 1.6785,-3.5031 -4.2305,-0.7657 -6.6246,0.473 -8.9434,1.7921 0.4192,-0.9843 1.2446,-3.266 0.8879,-3.7929 -0.123,-0.1824 -0.3875,0.0312 -0.7105,0.2734 0,0 -0.0977,-0.2621 0.0324,-0.4355 0.3945,-0.525 0.9754,-1.8403 0.9688,-2.6309 -3.1981,-0.9648 -9.0161,0.7363 -11.1231,3.7445 -0.1207,0.1723 -4e-4,0.177 0.0086,0.1692 z m 16.9367,34.3199 c 0.2567,0.086 0.8726,-0.182 1.0386,-0.162 1.336,0.162 1.73,1.639 2.353,2.627 0.569,0.899 2.613,3.379 3.098,3.909 0.485,0.532 0.601,1.502 0.646,1.664 0.047,0.161 -0.138,0.508 -0.346,0.323 -0.208,-0.185 -1.551,-0.234 -1.551,-0.234 0,0 0.65,0.927 0.512,1.227 -0.139,0.3 -1.363,-0.624 -1.871,-0.948 -0.508,-0.322 -1.108,-1.038 -1.316,-1.339 -0.208,-0.3 -0.624,-1.454 -0.831,-2.078 -0.208,-0.625 0.069,-0.97 -0.232,-1.501 -0.3,-0.532 -0.8771,-0.786 -1.2701,-0.624 -0.3926,0.161 -0.7988,0.388 -0.6,1.479 0.659,0.737 0.9273,0.752 1.7091,1.551 0.618,0.632 0.642,1.257 1.733,2.604 0.445,1.325 -0.139,2.997 -1.41,4.759 -0.535,-1.656 -0.823,-3.111 -1.8704,-4.527 -0.1812,-0.245 -0.4023,0.675 -0.3226,0.97 0.507,1.893 1.619,4.003 -0.2547,7.691 1.214,-1.902 1.9197,-4.141 0.8543,-7.275 0.5695,0.762 1.0004,2.24 1.4554,3.764 1.886,-1.474 2.508,-3.367 1.87,-5.334 -0.284,0.142 2.448,1.951 2.865,1.663 0.207,-0.186 0.276,-0.786 0.069,-1.479 0.487,0.204 0.937,0.334 1.362,0.416 0.252,-0.063 0.079,-1.93 -0.346,-2.333 -0.462,-0.436 -3.58,-4.296 -3.927,-5.058 -0.512,-2.065 -1.802,-2.683 -3.5078,-2.333 -0.4863,0.101 -0.8317,-0.927 -0.4625,-1.227 0.3695,-0.3 1.7993,0.604 2.2153,0.535 0.416,-0.069 1.522,-0.042 2.034,-0.578 0.442,-0.464 1.27,-1.951 1.175,-2.541 -0.093,-0.565 -2.054,-2.368 -3.786,-2.261 -0.7356,0.045 -0.6403,0.875 -1.2703,0.924 -0.9723,0.075 -0.9446,-1.51 -0.1563,-1.55 0.3551,-0.019 0.7074,0.215 1.6566,0.094 1.095,-0.141 2.397,-1.547 2.673,-2.579 -0.105,-1.084 -1.958,-2.737 -3.075,-2.891 -0.5054,-0.07 -0.9206,0.021 -1.1132,0.098 -0.4226,0.17 -0.6156,1.042 -0.9937,1.136 -0.7918,0.197 -1.4418,-1.191 -0.3317,-1.515 0.568,-0.166 1.8192,-0.114 2.0828,-0.094 0.6388,0.047 1.5148,-0.853 1.7278,-1.894 0.308,-0.9 0.19,-1.657 0.142,-2.13 -0.639,-0.449 -3.053,-1.254 -4.1893,-0.994 -1.1352,0.261 -1.041,0.852 -1.5379,0.923 -1.3223,0.19 -1.3195,-1.421 -0.5914,-1.515 1.2805,-0.164 0.9316,0.365 2.2957,0.214 1.4164,-0.157 1.5817,-3.078 1.4906,-4.047 -0.9906,-1.395 -3.8808,-1.539 -4.4015,-1.396 -1.4199,0.473 -1.3352,1.313 -1.7289,1.632 -1.177,0.96 -1.8235,-0.831 -1.4899,-0.97 0.2844,-0.118 1.2278,-0.364 1.6563,-0.686 1.6547,-1.241 1.8226,-3.5498 1.8226,-3.5498 -2.3082,-1.7387 -5.3625,-1.6344 -6.5316,-0.7102 -0.8012,0.6336 -0.7984,1.593 -1.2313,2.106 -0.6879,0.817 -2.1234,-0.243 -1.5851,-0.71 0.3551,-0.307 1.5566,-0.31 2.0117,-1.0647 0.302,-0.5004 0.4973,-1.3012 0.2844,-1.7508 -0.2141,-0.45 -1.018,-1.6805 -1.586,-2.2957 -1.6332,0 -5.1898,0.1179 -5.6558,1.2062 -0.5824,1.3598 -0.1981,1.9258 -0.3317,2.5559 -0.1136,0.5375 -1.8875,0.5097 -1.8218,-0.2594 0.0554,-0.6699 1.0218,-0.3437 1.2539,-1.0176 0.8027,-2.3363 0,-2.9429 -1.7516,-4.4496 -3.1523,0.6863 -4.1195,1.2145 -4.6144,2.8867 -0.109,0.3692 0.332,1.1114 0.2128,1.3735 -0.3921,0.859 -2.014,0.3527 -1.3011,-0.5922 0.3367,-0.4469 0.7597,-0.5524 0.9929,-1.3254 0.3235,-1.0672 -0.1425,-2.6504 -1.2304,-3.502 -1.277,-0.166 -4.0317,0.4559 -4.5434,1.5614 -0.3562,0.7711 -0.3898,1.8125 -0.6863,2.225 -0.8719,1.2129 -1.9551,0.1261 -1.041,-0.8754 0.4625,-0.5078 1.1925,-0.7004 1.5855,-1.302 0.8965,-1.373 0.5922,-2.1453 0.4262,-2.6746 -0.9027,-0.1558 -1.6309,-0.048 -2.3434,0.2367 2.5992,-4.723 11.2989,-15.2722 19.2403,-11.7847 0,0 0.5675,-0.2606 0.3078,-0.3559 -4.9133,-1.5711 -7.9961,-0.5496 -11.2223,1.7926 -3.5488,2.5773 -6.6629,6.4137 -9.2488,10.9879 0.207,0.1484 0.5219,0.4488 0.5445,0.4972 0.5363,-0.7015 1.1902,-1.1781 2.2957,-0.8054 0.457,2.2875 -1.4164,2.3824 -2.0117,3.2422 -1.0145,1.4648 0.8641,2.9722 1.6316,1.6796 0.5934,-0.9937 0.6137,-1.8824 0.7348,-2.3421 0.2762,-1.0516 3.3766,-1.6098 4.2832,-1.3969 0.7227,0.5555 1.2414,2.2328 0.7106,2.9113 -0.3247,0.4137 -0.8278,0.8293 -0.9473,1.1367 -0.9363,2.4067 2.5601,1.9118 2.4855,0.686 -0.041,-0.6598 -0.6609,-0.968 -0.3078,-1.7282 0.6813,-1.4652 3.3231,-1.7613 4.1176,-1.775 0.9945,0.6395 1.834,2.627 1.5391,3.0532 -0.6793,0.9761 -1.2965,0.3191 -1.6102,1.2074 -0.6848,1.9401 2.8024,2.4141 3.0297,0.6387 0.1144,-0.8926 -0.1734,-1.3477 -0.0242,-1.8227 0.3238,-1.025 3.0476,-1.3301 5.0176,-1.1117 0.7468,0.3949 1.5878,1.9398 1.3015,2.5555 -0.4347,0.9328 -1.9777,0.8687 -2.2715,1.4443 -0.9656,1.885 2.02,2.617 2.7211,1.419 0.3907,-0.667 0.2883,-1.076 0.7813,-1.8462 0.8109,-1.2675 4.3543,-0.6468 5.8687,0.1902 -0.0906,1.213 -0.9058,2.854 -1.7277,3.266 -0.7156,0.357 -1.2492,-0.221 -1.5613,0.237 -1.3145,1.924 1.4824,3.212 2.3656,2.176 0.1789,-0.209 0.0687,-1.055 0.5211,-1.372 1.375,-0.964 3.6137,0.006 4.6621,0.852 0.0238,1.112 -0.4004,2.595 -0.8754,2.934 -0.5457,0.39 -1.841,-0.117 -2.4852,0 -2.041,0.372 -0.7722,2.963 0.118,2.888 1.2055,-0.102 1.184,-0.735 1.7281,-0.971 1.4192,-0.616 3.3841,0.308 4.0701,0.521 0,1.515 -0.617,3.229 -1.3955,3.384 -0.7601,0.152 -1.8578,-0.247 -2.5085,0.047 -1.7219,0.78 -0.3774,2.682 0.7808,2.39 0.993,-0.25 0.8699,-0.892 1.302,-1.064 1.2282,-0.492 2.7202,1.301 3.0992,2.012 -0.047,0.922 -1.255,2.34 -2.2,2.485 -0.4504,0.068 -1.4106,-0.339 -1.8703,-0.142 -1.5102,0.643 -0.5633,2.628 0.5441,2.65 0.8305,0.016 0.8637,-0.93 1.3962,-0.971 1.823,-0.139 2.607,0.985 3.101,2.083 -0.596,1.713 -1.562,2.261 -2.603,2.248 -0.805,-0.01 -1.0395,-0.737 -1.8227,-0.781 -1.5402,-0.087 -1.2648,2.009 0.1281,2.473 z m 1.4106,5.431 c -0.6164,-0.947 -1.6504,-1.461 -0.9469,-2.011 0.4309,-0.337 0.6859,0.971 0.9469,2.011 z m -9.4707,-9.804 c 0.1832,-0.022 -0.109,-0.463 0.2515,-0.74 0.4258,-0.328 1.2575,0.013 1.2973,-0.189 0.1055,-0.539 -1.5648,-0.098 -1.875,-0.195 -0.1535,0.716 -0.0016,1.165 0.3262,1.124 z m 3.9773,13.836 c -1.8457,-4.787 -3.8039,-6.897 -4.4516,-10.254 -0.4199,-2.174 0.5747,-3.456 1.1918,-3.598 0.4102,0.542 -0.8394,0.351 -0.3414,3.295 0.3414,2.014 1.7188,5.04 3.8532,10.016 0.1078,0.251 -0.1371,0.842 -0.252,0.541 z M 86.7711,123.83 c -0.0656,0.039 -0.8531,0.039 -0.9844,-0.382 -0.1316,-0.419 0.1313,-1.037 0.3543,-0.971 0.2231,0.066 -0.0398,0.512 0.0785,0.709 0.1184,0.197 0.8227,0.482 0.5516,0.644 z m 3.1129,-12.985 c -0.3844,-0.288 -3.1129,-3.412 -3.1942,-4.238 -0.0796,-0.797 -1.0097,-1.919 -1.1902,-1.891 -0.2098,0.034 -0.7332,0.489 -1.2711,0.375 -1.2062,-0.375 -0.6363,-1.851 -0.9457,-1.875 -0.4398,-0.032 -0.5051,0.311 -0.5051,0.555 0,0 -0.1816,-0.464 -0.5539,-0.505 -0.216,-0.023 -2.3777,-0.088 -2.8199,-0.017 -0.6031,0.098 -2.1512,0.229 -3.5367,0.131 -1.2164,-0.085 -6.3301,-1.728 -8.018,-1.434 -1.0613,0.184 -2.7062,0.163 -3.9933,2.037 0,0 2.241,-1.378 4.2543,-1.271 3.3203,0.175 5.6543,1.669 7.9851,1.711 3.0891,0.056 4.0527,-0.85 5.2969,-0.669 0.4344,0.064 0.1613,0.626 0.8316,0.816 0.3715,0.105 0.4805,-0.095 0.7985,0.048 0.5461,0.248 -0.0164,0.77 1.1734,0.93 1.0523,0.14 1.1055,-0.267 1.2551,-0.196 0.1375,0.065 0.241,0.083 0.2769,0.57 0.0289,0.396 0.2442,0.218 0.343,0.506 0.1461,0.429 0.0313,0.897 0.1945,1.288 0.3118,0.741 2.0137,2.644 3.57,3.406 -0.2286,0.179 -0.6028,0.391 -0.6684,0.586 -0.0652,0.196 0.1141,0.832 0.3262,0.864 0.2117,0.033 0.4726,-0.195 0.4234,-0.407 -0.0488,-0.211 -0.407,-0.619 0.0164,-0.75 0.1328,-0.041 0.3258,-0.098 0.6848,-0.195 0.3578,-0.098 0.4804,-0.21 0.375,-0.375 -0.2512,-0.393 -0.6852,0.314 -1.1086,0 z m 0.8473,10.968 c 0.4949,-0.149 -1.1309,-2.055 -1.1895,-4.694 -0.0492,-2.226 1.416,-4.633 1.1574,-4.759 -0.3656,-0.177 -2.1039,2.286 -2.1515,4.645 -0.0422,2.063 1.3984,5.045 2.1836,4.808 z M 80.543,108.262 c 0.1718,-0.173 0.7914,-0.232 0.8988,-0.026 0,0.033 -0.0164,0.144 -0.0527,0.157 0.0105,0.134 -0.1848,0.004 -0.2485,0.027 0.0278,0.35 -0.1968,0.511 -0.2754,0.13 -0.0054,-0.029 -0.014,0.004 -0.014,-0.078 -0.009,0.001 -0.2836,0.159 -0.3153,-0.111 0.0016,-0.022 -0.0304,-0.059 0.0071,-0.099 z m 4.509,6.353 c -0.0297,-0.084 -0.9383,-0.188 -0.9586,-0.498 -0.0161,-0.249 0.1996,-0.312 0.1836,-0.487 -0.009,-0.101 -0.4586,-0.524 -0.5907,-0.38 -0.1304,0.145 0.1539,0.275 0.1703,0.368 0.027,0.145 -0.2066,0.276 -0.1832,0.473 0.0262,0.222 0.2493,0.538 0.6829,0.892 0,0.162 -0.2368,0.226 -0.1579,0.328 0.1805,0.234 0.2274,-0.084 0.4426,-0.279 0.1867,-0.169 0.4906,-0.192 0.411,-0.417 z M 52.5352,77.8676 c 0.0433,0.0234 0.1078,-0.3196 0.3492,-0.3227 1.7629,-0.0191 3.7781,0.9731 5.2844,2.1383 0.6996,0.5414 1.7339,2.7516 2.5531,4.4586 -0.2934,-2.3996 -1.4008,-4.2457 -3.0274,-5.523 -1.1648,-0.7461 -3.9316,-1.6821 -5.0636,-1.2575 -0.0946,0.0352 -0.4114,0.3387 -0.0957,0.5063 z m 1.4414,3.0172 c 0.2238,0.1414 0.4355,0.3 0.655,0.4953 -0.1,-0.8668 -0.5968,-2.5504 -0.8851,-2.9215 -0.2891,-0.3711 -0.5852,-0.5477 -0.6738,-0.7074 -0.0883,-0.1606 -0.2481,-0.1535 -0.2657,0.1058 -0.0175,0.259 0.3606,0.6844 0.62,0.9559 0.2589,0.2719 0.5441,1.5285 0.5496,2.0719 z m -1.2051,14.1285 c -0.5414,0.3051 -1.2363,-2.5039 -2.4629,-3.6789 -0.6055,-0.5817 -2.6898,-2.2496 -6.6898,-2.0223 0.1902,-0.7707 0.9531,-1.4656 2.9386,-2.0004 -0.4812,-1.4148 -1.2125,-2.2031 -2.0715,-2.6738 0.1985,-0.8992 1.4063,-1.4492 2.4786,-1.5574 -1.6293,-1.116 -1.6993,-2.9391 -4.0196,-5.259 3.2231,-0.8258 6.3602,2.0129 6.9766,2.957 0.0953,-0.432 -0.9399,-2.0765 -1.1512,-2.5144 0.9934,-0.0672 4.5309,1.3898 4.7629,1.9297 0.0703,0.1777 0.018,0.4785 -0.1414,0.3722 -0.1594,-0.1066 -3.8953,-1.7887 -3.8953,-1.7887 0.393,0.8582 0.8719,1.6309 0.868,2.8868 -1.9196,-2.0309 -3.9227,-3.6332 -6.268,-3.4883 1.2562,1.239 1.6762,3.8629 3.541,4.6922 0.0383,0.0164 0.2184,0.5078 -0.057,0.559 -1.3028,0.2382 -2.6,0.9878 -2.4578,1.0695 0,0 1.1867,0.425 1.3636,0.7258 0.3856,0.3007 0.843,2.4086 0.6731,2.4078 -1.4078,0.4429 -2.0801,0.673 -2.3024,1.1152 3.3774,-0.0723 5.0383,1.118 5.6129,1.6293 1.2176,1.0832 1.0805,2.9742 2.3016,4.6387 z M 44.9109,80.9027 c 0.0989,0.0914 0.1336,0.5754 0.0711,0.5129 -0.0957,-0.0957 -2.5367,0.1485 -2.6742,0.2485 -0.9676,-0.4653 -3.2555,-1.4715 -5.382,0.2832 0.2269,0.3687 0.2875,0.734 0.3715,1.2035 -0.359,0.0597 -0.3871,-0.6953 -0.8086,-0.9731 -0.75,-0.4957 -1.5379,-0.3863 -2.2004,-0.4433 -1.5164,-0.1301 -1.8262,0.5668 -2.0192,0.6015 -0.1941,0.0356 -0.6546,0.0536 -0.7261,-0.0707 0.0843,-0.7261 4.1226,-2.2019 5.3648,-0.7964 0.8508,-1.3961 3.6113,-1.6723 5.684,-0.2301 0.532,-0.2266 1.0578,-0.1078 1.5937,-0.1688 0.3704,-0.0414 0.6786,-0.2097 0.7254,-0.1672 z m -3.3468,0.6903 c 0.1691,0.3254 0.4929,0.6488 0.8504,0.832 0.1886,0.3727 0.425,0.6953 0.7078,0.973 -0.036,-0.4894 -0.1524,-0.9789 -0.425,-1.4683 0,-0.0465 -1.1332,-0.4027 -1.1332,-0.3367 z m 0.3476,13.8668 c -0.8523,-1.2371 -1.4691,-2.3731 -1.9355,-3.977 0,0 -0.2574,0.3281 -0.2344,0.5633 0.0234,0.2344 0.0945,0.7855 0,0.8211 -0.691,0.1379 -0.1953,-1.527 0.2113,-2.1 0.2309,0.7234 0.4965,1.4004 0.7274,2.1238 0.0386,-0.0902 0.1015,-0.2039 0.141,-0.2937 0.3883,0.7629 0.9215,1.9269 1.0902,2.8625 z m -2.0527,0.7968 c -0.4195,0.0309 -1.3664,-2.3179 -1.4309,-3.5187 -0.023,-0.2348 -1.5605,-1.9707 -1.266,-2.1117 0.2926,-0.1407 1.6766,1.4312 1.6766,1.6422 -0.1383,1.2191 0.6851,3.3449 1.0203,3.9882 z m -7.1559,-2.4398 c -0.9062,-3.3789 -3.3804,-1.9105 -3.7883,-3.6012 1.4438,0.802 3.5872,-0.189 3.7883,3.6012 z m 0.7746,5.3965 c -1.7105,-1.3945 -2.2261,-4.8211 -2.3461,-6.0414 1.1418,3.1715 1.6141,4.6566 2.3461,6.0414 z m 7.0434,5.5177 c -0.5973,-0.578 -2.4965,-4.083 -2.2066,-4.666 0.1367,-0.2748 0.4386,0.532 0.5746,0.39 0.139,-0.143 -0.361,-1.296 -0.1145,-1.7234 0.7828,-0.2816 4.325,3.2214 3.907,3.5634 -0.207,0.169 -2.7523,-2.9305 -3.2421,-2.6841 -0.5364,0.2715 0.1406,1.3761 -0.2258,1.6271 -0.1,-0.04 -0.1102,-0.192 -0.2098,-0.231 0.0707,0.106 1.4316,3.021 1.5172,3.724 z m -2.3906,1.587 c -1.7489,-2.584 -3.7137,-4.766 -6.1375,-5.816 0.3859,-0.5434 1.8121,-1.3442 2.2527,-0.7594 0.3516,0.4674 -0.966,0.2304 -1.6316,0.5984 2.6336,1.254 4.5289,3.703 5.5164,5.977 z M 32.234,86.9227 c 1.8957,0.5 3.7746,0.7039 5.5769,-0.4254 1.5407,1.225 2.7692,1.4082 4.0692,0.6504 1.0519,0.1324 1.3383,-1.3176 1.5613,-1.8723 0.1059,0.632 0,1.0859 -0.018,1.6117 0.5789,0.4836 1.4161,0.2699 1.7352,0.4418 0.2426,0.1305 -0.4188,0.284 -0.6547,0.4254 -0.5945,-0.0766 -1.0644,-0.3488 -1.5051,-0.407 -1.0351,0.5371 -2.0777,1.0605 -2.5855,1.0797 -1.0172,0.0402 -2.0391,-0.4641 -2.5141,-1.4168 -2.1594,1.4019 -4.7125,0.8609 -5.7008,0.1945 -0.1449,-0.0969 -0.0894,-0.3152 0.0356,-0.282 z m 23.3773,17.6013 c -1.2254,-1.145 -1.7062,-4.454 -1.1359,-5.6084 0.0992,-0.2011 0.9703,0.5446 1.184,0.45 0.2125,-0.0957 0.1804,-0.4867 0.4488,-0.5914 0.8301,-0.3281 2.516,2.3698 2.1539,2.6028 -0.6625,-0.331 -0.8531,-1.7723 -1.7988,-2.059 -0.6164,-0.1871 -0.2129,0.851 -0.2836,0.922 -0.2606,-0.023 -1.0672,-0.5584 -1.1828,-0.5908 -0.7356,-0.2074 -0.066,2.9998 0.6144,4.8748 z m -9.348,-0.497 c -1.2848,-1.234 -1.2781,-3.807 -0.9465,-5.9875 1.0176,0.0714 1.8457,1.6339 1.9645,1.5144 0.1183,-0.118 -0.4032,-0.9965 -0.0946,-1.1355 0.7977,-0.3594 3.6746,3.1926 3.6914,4.7096 -0.5597,-1.189 -2.6457,-4.1862 -3.1476,-3.905 -0.1438,0.0809 0.3554,1.375 0.1894,1.397 -0.6996,0.089 -1.6023,-1.9204 -1.9875,-1.752 -0.4715,-0.2762 -0.2777,2.848 0.3309,5.159 z m 21.8058,3.127 c 0.0539,-0.116 0.0825,-0.206 0.1133,-0.281 -0.0429,0.08 -0.0797,0.175 -0.1133,0.281 z m -7.5929,4.355 c -0.4782,-0.752 -0.8895,-1.545 -0.9641,-2.268 -0.0539,-0.875 -0.2023,-2.525 -0.0726,-2.435 0,0 0.3019,0.003 0.482,-0.169 0.1816,-0.172 0.0656,-0.456 0.1687,-0.747 1.2219,0.483 1.9379,1.044 2.5805,1.76 -0.7629,-0.31 -1.4547,-0.766 -2.2184,-1.205 0,0 -0.0488,0.361 -0.1921,0.53 -0.1457,0.168 -0.4832,0.12 -0.4832,0.12 -0.1801,0 0.0839,2.002 0.3863,2.388 0.0969,0.385 0.2402,1.374 0.3129,2.026 z m -6.7278,-1.013 c -0.5714,-1.032 -1.0519,-2.183 -0.6511,-3.015 0.1527,0.032 0.3054,0.089 0.4578,0.121 0.0254,-0.218 0.0484,-0.507 0.073,-0.723 1.6274,1.132 2.6703,2.864 3.2317,3.689 -0.3758,-0.661 -0.5938,-3.029 -3.6668,-4.341 -0.1555,0.266 -0.1004,0.531 0,0.796 -0.1758,0.027 -0.3766,-0.052 -0.5543,-0.024 -0.3328,1.384 0.3988,3.069 1.1097,3.497 z m -5.6433,1.736 c -0.6504,-0.362 -0.7922,-0.916 -1.4477,-1.302 -0.948,-0.558 -1.3758,-2.066 -1.2765,-2.315 0,-0.194 0.3371,0.578 0.6992,0.891 -0.3621,-1.325 -0.5598,-3.264 -0.3863,-3.375 0.248,-0.158 0.7234,0.483 0.7234,0.483 1.1789,-0.078 2.1832,0.718 2.2906,1.181 -0.7062,-0.304 -1.2625,-0.702 -1.8082,-0.724 0,0 0.0504,0.254 -0.193,0.29 -0.2437,0.035 -0.2593,-0.198 -0.3507,0.019 -0.511,1.212 0.6476,2.995 1.7492,4.852 z m -6.6074,-0.916 c 0.0328,0.185 0.0652,0.37 0.0972,0.554 0.8043,-1.234 2.2571,-0.583 4.027,0.627 -1.1301,-1.379 -3.3063,-2.464 -4.1242,-1.181 z m 5.4128,5.963 c -0.1363,-0.091 0.9793,-1.055 1.4606,-0.926 0.3598,-0.036 1.6016,0.515 1.5633,0.534 0.3125,0 -1.1977,-0.967 -1.7489,-1.007 -0.3699,0 -0.1429,0.184 -0.2871,0.226 -0.7168,0.125 -1.348,0.986 -0.9879,1.173 z m 6.2321,-0.926 c -0.2414,-0.109 -0.7797,-0.96 -1.2543,-1.358 -0.2488,-0.602 -0.3914,-1.09 -0.3293,-1.398 0.0617,-0.309 0.473,-0.371 0.473,-0.494 0,-0.123 -0.1238,-0.273 0.0621,-0.371 0.2872,-0.149 3.4801,2.702 3.1055,3.127 -0.2242,0.255 -2.6703,-2.633 -2.7566,-2.571 -0.0844,0.062 0.0824,0.596 0.0824,0.596 0,0 -0.5754,-0.164 -0.4934,0.207 0.0821,0.37 1.2344,2.118 1.1106,2.262 z m 1.8117,5.464 c -0.4777,-0.691 -0.7969,-0.868 -1.3813,-1.169 1.2583,-0.377 2.3977,0.36 3.4176,1.346 -0.6492,-1.608 -2.773,-2.536 -4.1968,-1.292 0.621,0.114 1.1335,0.301 2.1605,1.115 z m 20.9332,3.41 c -0.7855,-1.297 -1.0391,-2.489 -0.7281,-2.489 0.3496,0 0.0949,1.021 0.7281,2.489 z m -7.7906,-13.173 c 0.0855,-0.591 0.925,-2.041 1.3781,-2.077 0.3492,-0.029 -0.0824,-0.413 -0.3902,-0.082 -0.4532,0.472 -0.5852,0.65 -0.6368,0.776 -0.1273,0.315 -0.0515,-0.241 -0.1046,-0.221 -0.0922,0.034 -0.4184,1.148 -0.2465,1.604 z m -2.6949,-0.248 c 0.1933,-0.23 0.0214,-0.39 0.3703,-0.411 0.3492,-0.02 0.3789,2.16 0.6379,2.551 0.2589,0.391 -0.2512,-3.371 -0.5352,-3.496 -0.4809,-0.213 -1.1187,2.128 -0.473,1.356 z m -0.6372,3.21 c -0.3023,-1.459 -0.5894,-3.541 -0.1648,-3.498 0.4258,0.045 0.4734,0.043 0.4523,-0.143 -0.0203,-0.185 -0.041,-0.082 -0.2261,-0.205 -0.1856,-0.125 -0.3086,-0.227 -0.4321,-0.206 -0.123,0.02 -0.6355,0.452 -0.6171,1.172 0.0214,0.782 0.8226,1.955 0.7824,3.127 -0.0215,0.622 0.3062,0.241 0.2054,-0.247 z m -5.08,1.81 c -0.1457,0.013 -0.2067,-0.637 -0.309,-0.803 -0.1008,-0.16 -0.7395,-0.893 -0.8637,-1.151 -0.309,-0.638 -0.3914,-2.427 -0.2473,-2.53 0.1438,-0.103 0.2352,0.208 0.3907,0.123 0.2261,-0.123 0.0703,-0.41 0.2058,-0.473 0.6383,-0.293 3.1528,2.94 2.8387,3.517 -0.2105,0.387 -0.1848,-0.181 -0.3086,-0.431 -0.198,-0.401 -2.0305,-2.595 -2.2836,-2.469 -0.0918,0.046 0.0621,0.411 -0.041,0.514 -0.1031,0.103 -0.4176,-0.016 -0.5141,0.082 -0.2078,0.212 0.45,1.908 0.9871,2.778 0.1231,0.197 0.3372,0.826 0.145,0.843 z m 10.2304,0.919 c 0.302,-0.859 0.6832,-1.756 1.2211,-2.71 -0.3019,0.084 -0.3906,0.44 -0.534,0.563 -0.1589,0.136 -0.4585,0.289 -0.5281,0.465 -0.1351,0.341 -0.2664,1.188 -0.159,1.682 z m -5.6129,2.142 c 0.0364,-0.384 0.0165,-0.847 0.2301,-1.204 0.3965,0.203 0.8313,0.256 1.2571,0.248 -0.5727,-0.288 -1.0965,-0.626 -1.5758,-1.009 -0.184,0.53 -0.1332,1.653 0.0886,1.965 z m -5.5593,1.486 c -0.1032,-0.579 -0.2828,-1.072 -0.0356,-1.415 0.7965,0.144 1.5172,0.61 2.3547,1.415 -0.3926,-1.025 -1.2887,-1.866 -2.9566,-2.353 -0.2145,0.649 0.0316,1.752 0.6375,2.353 z M 32.2258,83.8762 c -0.4543,-0.3879 -0.7914,-0.9895 -0.8668,-1.5465 0.2078,0.1215 0.2945,0.1601 1.1512,0.1734 -0.3102,0.0465 -0.5375,1.0055 -0.2844,1.3731 z m -3.8656,-0.1114 c 0,0 -0.8668,-1.0562 -0.5989,-1.2617 0.2684,-0.2047 0.4262,-0.032 0.4575,0.1106 0.0316,0.1422 -0.0977,0.3051 -0.0633,0.4261 0.034,0.1215 0.1375,0.484 0.2047,0.725 z m -7.793,-4.4484 c 0.5008,3.9832 2.5629,3.9418 2.5457,4.5332 -0.0172,0.5918 -2.7879,-0.9844 -2.5457,-4.5332 z m -3.5192,4.0707 c 0.143,-0.1894 0.7418,0.2051 1.2469,0.2211 0.5051,0.0152 1.6875,0.268 1.7352,0.4262 0.0472,0.157 -1.1199,-0.1114 -1.4512,-0.1426 -0.3316,-0.032 -1.657,-0.127 -1.5309,-0.5047 z m 0.3793,5.4106 c 0.8696,-0.5082 1.886,-0.9473 2.9665,-1.245 -0.4684,-0.2453 -2.4391,-0.241 -2.9665,1.245 z M 15.8656,75.8203 c 0.316,-1.5726 2.8379,-2.9762 3.6403,-3.2894 -0.4645,-0.1383 -0.7832,-0.1332 -1.1258,-0.161 -0.3031,0.4047 -0.5399,0.3739 -0.9262,0.5203 -1.1605,0.4418 -1.7543,2.3934 -1.5883,2.9301 z m -8.68982,1.5578 c -0.44492,0.093 -1.30508,1.8289 -1.41758,3.3102 -0.07148,0.9285 -0.16601,1.0586 -0.17187,1.1851 -0.00899,0.2051 0.06797,0.3465 0.23359,0.3219 0.09141,-0.0133 0.36328,-0.9672 0.35,-1.15 -0.07383,-0.9984 0.53477,-2.5691 1.26055,-3.5445 0.05742,-0.0774 -0.2043,-0.1332 -0.25469,-0.1227 z m -1.48672,11.777 c 0.13633,-0.1797 0.27266,-0.361 0.40977,-0.5406 0,0 0.39414,2.9238 0.35,2.9828 -0.04336,0.0586 -0.175,0.1605 -0.24844,0.0586 C 6.12773,91.5531 5.68906,89.1551 5.68906,89.1551 Z m 3.53867,7.2527 C 9.21719,96.0805 9.17852,95.725 9.16875,95.3988 c 0.71172,1.1059 1.66605,2.0668 2.80705,2.8215 -0.034,0.2945 -2.82072,-1.4594 -2.74807,-1.8125 z m 1.58477,21.5762 c 0.1461,0 0.0645,-0.429 0.3605,-1.071 0.295,-0.642 0.827,-1.237 0.6446,-1.39 -0.1828,-0.154 -1.0543,0.984 -1.2598,1.65 -0.0523,0.169 0.1074,0.811 0.2547,0.811 z m -2.02383,8.157 c 0.06289,0.495 0.07539,0.725 0.07539,1.295 0,0.743 -0.02617,1.427 -0.10937,1.427 -0.08399,0 -0.1375,-0.616 -0.1375,-1.221 0,-0.469 -0.09219,-0.936 -0.17383,-1.396 0.09609,-0.042 0.20039,-0.087 0.34531,-0.105 z m 2.42503,11.289 c 0.15,-0.044 0.3019,0.562 0.523,1.31 0.2223,0.748 0.7047,1.369 0.4176,1.454 -0.2871,0.086 -0.6172,-0.726 -0.8391,-1.475 -0.2222,-0.749 -0.2511,-1.246 -0.1015,-1.289 z m 10.298,3.539 c 0.5321,0.348 1.0637,0.452 0.968,0.644 -0.0957,0.189 -0.784,-0.122 -1.3168,-0.471 -0.5316,-0.349 -0.9399,-0.755 -0.8168,-0.945 0.123,-0.191 0.6336,0.422 1.1656,0.772 z m 5.2512,-31.156 c -0.0074,-0.181 0.0156,-0.406 0.0113,-0.497 0.2328,-0.078 1.3528,-0.05 1.361,0.118 0.0113,0.261 -0.8641,0.083 -1.3723,0.379 z m -1.9055,5.065 c -0.0121,-0.138 -0.0234,-0.277 -0.0355,-0.414 0.4023,0.189 0.8289,0.283 1.1836,0.626 -0.3903,-0.145 -0.7575,-0.161 -1.1481,-0.212 z m 41.1047,30.467 c 0.1195,-0.79 0.4285,-1.53 0.9856,-2.591 -1.1192,-2.083 -0.8536,-4.803 -0.5684,-8.333 0.0375,-0.468 -0.3359,-3.422 -1.368,-5.319 -0.3808,0.158 -1.88,0.3 -2.7843,-0.034 -0.8086,1.84 -0.6993,4.721 -3.9196,5.721 3.602,0.186 3.6594,-4.418 4.0531,-4.753 0.3856,-0.331 2.5012,-0.229 2.6844,0.283 1.2891,3.595 1.8715,7.116 -2.7844,10.607 1.2438,-0.403 2.761,-2.146 3.5348,-3.203 -0.3047,1.91 0.025,4.757 0.5168,4.837 0.0106,0.099 0.0121,0.199 0.0176,0.301 -0.2527,0.234 -1.0641,1.916 -0.8348,2.301 0.0848,0.141 0.3633,0.357 0.4672,0.183 z m 1.3977,-6.13 c -0.3653,-2.515 3.0836,-2.983 0.4679,-9.762 1.7309,2.55 1.5891,5.45 1.4243,5.87 -0.3497,0.897 2.1765,1.092 2.4035,0.745 0,0 0.2781,0.05 0.0847,0.297 -0.2976,0.383 -2.016,0.392 -2.2964,0.553 -0.2075,0.119 -1.3168,0.989 -2.084,2.297 z m -0.4184,2.255 c 0.1445,-0.793 2.0203,-1.602 3.5145,-0.132 0.0929,0.091 0.3379,0.222 0.189,-0.143 -0.6254,-1.532 -4.3406,-1.324 -3.7035,0.275 z m 0.4258,1.062 c 0.1402,0.003 0.3121,-1.289 1.041,-1.207 0.4254,0.049 0.7578,0.616 0.9703,1.006 0.166,-0.26 0.9707,-0.26 1.1485,-0.532 0.0648,-0.099 0.0113,-0.343 -0.1895,-0.26 -0.2012,0.083 -0.2602,0.237 -0.6863,0.225 -0.3313,-0.852 -1.0129,-0.87 -1.1836,-0.912 -1.4348,-0.351 -1.3629,1.677 -1.1004,1.68 z m 0.6035,0.314 c 0.3606,0.059 0.4184,-0.698 0.4004,-0.917 -0.0043,-0.047 -0.1383,-0.011 -0.1414,0.004 -0.0828,0.485 -0.4594,0.452 -0.3891,0.771 0.0317,0.143 0.1184,0.141 0.1301,0.142 z m 1.8465,0.272 c 0.9461,-0.032 1.2543,-1.846 4.1058,-2.094 0.1059,-0.009 0.1059,-0.195 -0.0355,-0.201 -1.6328,-0.071 -2.1973,0.199 -2.4371,0.379 -0.2559,0.19 -1.125,1.36 -1.7758,1.608 -0.1016,0.04 -0.1769,0.319 0.1426,0.308 z m -2.7332,2.148 c -0.2,-1.003 0.9527,-1.723 1.9344,-1.91 0.3347,-0.063 0.2613,-0.265 0.0093,-0.229 -0.8269,0.12 -2.3285,0.196 -2.1828,2.062 0.0117,0.152 0.2731,0.248 0.2391,0.077 z m -7.0617,0.096 c 1.7652,-0.149 3.5941,-0.723 3.6574,-1.702 0.0238,-0.362 -0.2973,-0.978 -0.2973,-0.978 -0.4035,0.894 -2.1051,2.106 -3.3601,2.446 -0.2481,0.067 -0.2118,0.252 0,0.234 z m 2.8816,-1.332 c 0.1703,-0.159 0.3266,-0.303 0.4199,-0.472 0.0621,-0.114 -0.0941,-0.163 -0.15,-0.036 -0.0562,0.124 -0.1988,0.299 -0.3808,0.417 -0.1657,0.109 -0.0602,0.25 0.1109,0.091 z M 81.2609,39.2504 c 0.25,2.8969 1.4446,5.2062 1.7813,5.8598 1.0324,2.0007 2.9769,2.6988 3.1375,3.4023 0.1766,-0.1133 0.0285,-0.7363 0.1211,-1.6168 0.2445,-2.3164 0.1586,-4.8086 -0.8133,-6.3445 -0.6008,-0.9496 -2.5918,-1.7887 -4.2266,-1.3008 z m 32.8501,10.959 c 2.307,2.2094 3.55,5.2664 2.703,9.6851 -3.036,-3.5566 -6.388,-3.7191 -8.148,-0.6425 -1.465,2.5609 -0.114,5.6871 2.579,6.3664 1.457,0.3679 2.919,0.1 4.378,-0.6153 0.206,0.6578 0.072,2.0114 0.072,2.0114 -1.494,4.6156 -0.906,7.7687 -0.402,7.6675 0.327,-0.066 0.117,-1.3328 0.568,-1.68 -0.138,1.2414 -0.111,2.3425 0.14,3.2652 0.242,0.8898 1.481,2.1652 2.12,3.5211 0.565,1.1969 0.543,2.5402 0.673,2.5387 0.393,-0.0079 0.506,-1.6731 0.497,-2.6989 -0.166,-2.098 -0.686,-2.6347 -1.041,-3.9051 0.379,0.1114 1.077,1.7934 1.23,1.4915 0.087,-0.1696 -0.095,-0.4536 -0.15,-0.8336 -0.061,-0.4446 -0.025,-0.959 0.056,-1.3672 2.296,-3.1824 0.577,-9.2481 -0.829,-10.318 -0.196,-0.4719 -0.43,-0.9961 -0.568,-1.3488 0.805,-1.1524 1.892,-4.2699 1.374,-7.8098 -0.488,-3.3297 -1.859,-6.1824 -4.758,-7.7859 -0.165,1.2308 -0.497,2.3902 -0.494,2.4582 z m 2.98,9.8398 c 0.226,-0.0652 0.302,0.5129 0.496,1.1821 0.193,0.6699 0.472,1.2878 0.246,1.3531 -0.225,0.0648 -0.324,-0.6 -0.518,-1.2699 -0.192,-0.6696 -0.449,-1.2004 -0.224,-1.2653 z m -1.62,4.6735 c 0.174,-0.2176 -0.031,-2.5036 -0.327,-2.3719 -0.355,0.1578 0.087,1.7191 0.327,2.3719 z m -0.274,-2.6782 c 0,0 -1.727,1.775 -2.863,1.7043 -1.136,-0.0707 -1.136,-0.3789 -1.349,-0.6859 -0.213,-0.3078 -0.378,-0.9231 -0.356,-1.5625 0.024,-0.6387 0.237,-1.5149 0.545,-1.7274 0.308,-0.2128 0.828,-0.4027 1.349,-0.3312 0.52,0.0707 1.657,0.45 1.988,0.8754 0.331,0.4262 0.568,0.9234 0.686,1.7273"
         style="fill:#231f20;fill-opacity:1;fill-rule:evenodd;stroke:none;stroke-width:0.1"
         id="path975" /><path
         d="m 63.6793,130.995 c 0.3895,0.071 1.0641,1.249 0.9707,1.794 -0.5004,2.912 -1.7816,4.164 -2.8043,4.802 -2.5215,1.574 -7.4031,1.209 -9.2785,1.227 -3.5719,0.034 -4.4121,2.082 -4.5082,3.898 1.4484,-0.8 3.6113,0.084 3.5379,2.609 -0.059,2.049 -1.7742,2.738 -3.0383,2.801 -1.0289,0.053 -5.0801,-0.448 -5.0285,-5.476 0.0734,-7.223 8.9992,-5.762 10.2484,-5.554 1.2504,0.207 4.6973,0.012 5.6469,-0.408 1.55,-0.684 2.1566,-1.242 2.675,-2.797 0.3176,-0.955 0.6172,-3.073 1.5789,-2.896"
         style="fill:#f14729;fill-opacity:1;fill-rule:evenodd;stroke:none;stroke-width:0.1"
         id="path977" /><path
         d="m 123.992,152.041 c 0,-1.059 10e-4,-85.7844 0.161,-88.1031 0.022,-0.3285 -0.131,-5.2234 -0.697,-10.893 -0.104,-1.0406 -1.096,-5.3828 -1.642,-7.4375 C 118.968,34.8941 111.781,25.0184 106.389,19.8762 100.709,14.4637 96.5102,11.6719 95.5137,11.0363 90.3758,7.76445 83.8051,5.19492 81.4633,4.3582 75.8277,2.34297 69.1488,1.34336 62.8578,1.34336 c -6.4246,0 -12.6976,0.73945 -18.8473,2.82617 -4.7941,1.62695 -9.0421,3.46914 -15.107,7.18007 -4.4383,2.716 -9.7746,7.4328 -12.5668,11.0848 C 13.1449,26.6133 7.98594,32.1121 3.83711,45.3586 3.47422,46.518 2.31094,51.7883 2.17578,52.875 1.46797,58.5383 1.12461,63.5547 1.12461,63.8844 c 0,0.0148 -0.10742,86.9366 -0.10742,87.9956 z M 0,153.162 V 63.9656 C 0,61.1469 0.429688,56.2902 0.966016,52.8789 1.13164,51.8184 2.27578,46.6742 2.74102,45.1207 4.84961,38.082 8.16445,30.4902 15.6488,21.523 17.6059,19.1785 22.7051,13.8969 28.293,10.3141 34.3293,6.44414 38.7426,4.67891 43.6117,3.02734 49.7043,0.959766 56.1254,0.0542969 62.5211,0.117188 71.8684,0.208984 78.9543,2.22344 81.9566,3.24141 c 4.875,1.6539 9.7891,3.87461 14.2332,6.79769 6.5462,4.3058 8.6582,6.4922 11.1152,9.0113 11.112,11.3953 14.24,21.3262 15.559,26.3066 0.551,2.0778 1.336,5.7883 1.729,7.541 0.475,2.1188 0.792,9.4774 0.786,11.0708 -0.124,29.6777 0,59.4702 0,89.1932 H 0"
         style="fill:#231f20;fill-opacity:1;fill-rule:evenodd;stroke:none;stroke-width:0.1"
         id="path979" /></g></g></svg>
