<?xml version="1.0" encoding="UTF-8" standalone="no"?>
<svg
   xmlns:dc="http://purl.org/dc/elements/1.1/"
   xmlns:cc="http://creativecommons.org/ns#"
   xmlns:rdf="http://www.w3.org/1999/02/22-rdf-syntax-ns#"
   xmlns:svg="http://www.w3.org/2000/svg"
   xmlns="http://www.w3.org/2000/svg"
   xmlns:xlink="http://www.w3.org/1999/xlink"
   xmlns:sodipodi="http://sodipodi.sourceforge.net/DTD/sodipodi-0.dtd"
   xmlns:inkscape="http://www.inkscape.org/namespaces/inkscape"
   version="1.1"
   width="97.476471mm"
   height="53.054253mm"
   viewBox="0 0 276.31041 150.39079"
   id="svg11"
   sodipodi:docname="REDA.svg"
   inkscape:version="1.0.1 (c497b03c, 2020-09-10)">
  <metadata
     id="metadata852">
    <rdf:RDF>
      <cc:Work
         rdf:about="">
        <dc:format>image/svg+xml</dc:format>
        <dc:type
           rdf:resource="http://purl.org/dc/dcmitype/StillImage" />
        <dc:title></dc:title>
      </cc:Work>
    </rdf:RDF>
  </metadata>
  <sodipodi:namedview
     id="namedview11"
     pagecolor="#505050"
     bordercolor="#ffffff"
     borderopacity="1"
     inkscape:showpageshadow="0"
     inkscape:pageopacity="0"
     inkscape:pagecheckerboard="1"
     inkscape:deskcolor="#505050"
     inkscape:document-units="mm"
     showgrid="false"
     inkscape:zoom="0.99552512"
     inkscape:cx="265.57429"
     inkscape:cy="235.99652"
     inkscape:window-width="1680"
     inkscape:window-height="923"
     inkscape:window-x="0"
     inkscape:window-y="25"
     inkscape:window-maximized="0"
     inkscape:current-layer="svg11"
     inkscape:document-rotation="0"
     units="mm"
     fit-margin-top="0"
     fit-margin-left="0"
     fit-margin-right="0"
     fit-margin-bottom="0"
     showborder="false" />
  <rect
     style="fill:#ffffff;fill-opacity:1;stroke-width:0.187501"
     id="rect11"
     width="276.26544"
     height="150.39079"
     x="0.044967573"
     y="0" />
  <path
     d="M -0.00228722,0.04642358 V 150.07357 H 276.26086 V 0.04642358 Z"
     style="fill:none;stroke-width:0.25"
     id="path1" />
  <path
     d="m 48.935583,56.361324 c 8.28478,0 15.00433,-6.72153 15.00433,-15.01038 0,-2.8389 -0.80305,-5.48347 -2.17278,-7.74672 -10.13245,2.58657 -18.62202,9.26515 -23.6222,18.1635 2.72753,2.82743 6.55038,4.5936 10.79065,4.5936 z"
     style="fill:#f4b519;fill-rule:evenodd;stroke-width:0.25"
     id="path2" />
  <defs
     id="defs4">
    <linearGradient
       id="grad1">
      <stop
         offset="0.0000%"
         stop-color="#0087cc"
         stop-opacity="1.0000"
         id="stop2" />
      <stop
         offset="42.0000%"
         stop-color="#0087cc"
         stop-opacity="1.0000"
         id="stop3" />
      <stop
         offset="100.0000%"
         stop-color="#6cb41e"
         stop-opacity="1.0000"
         id="stop4" />
    </linearGradient>
    <linearGradient
       xlink:href="#grad1"
       id="grad2"
       x1="112.82551"
       y1="252.47093"
       x2="112.82551"
       y2="510.06152"
       gradientTransform="matrix(0.29477533,0,0,0.21202589,0.04611278,-1.4233398e-6)"
       gradientUnits="userSpaceOnUse" />
  </defs>
  <path
     d="m 33.304283,70.266374 v 0.0659 c 0.001,0.9645 0.0505,1.9202 0.12235,2.86952 0.12803,1.66933 0.3557,3.30873 0.6923,4.91075 0.0862,0.40428 0.18078,0.79698 0.27648,1.19595 13.94942,-2.80475 26.6423,-4.8215 44.07882,-3.42285 -12.224,2.49795 -26.79202,6.11985 -41.21742,11.2401 0.0637,0.12998 0.13155,0.25663 0.1978,0.38518 1.6043,3.13377 3.62482,6.01262 6.0029,8.56125 0.0451,0.0547 0.0959,0.10145 0.14317,0.15255 10.20328,-1.59313 24.07025,-1.3786 35.8673,-0.70345 -10.10465,1.6063 -21.1606,3.89955 -28.23562,6.950766 5.79047,3.59338 12.6172,5.67418 19.93112,5.67418 10.47863,0 19.96038,-4.25795 26.81503,-11.136726 1.33,-1.3341 2.554667,-2.76922 3.677897,-4.2891 0.11107,-0.15267 0.22047,-0.31107 0.32927,-0.4673 -12.096417,-3.22587 -23.673297,-4.83612 -33.579617,-5.5702 10.48197,-2.72157 23.4664,-4.77855 38.805817,-4.81847 1.02508,-3.1946 1.6367,-6.57565 1.7719,-10.07843 l 0.25185,-0.8021 c -0.0771,-0.0241 -0.15382,-0.0438 -0.2298,-0.0705 -17.701397,-5.59893 -32.484397,-6.87263 -44.249767,-6.14335 18.40237,-4.80373 36.571097,-5.79005 42.481947,-5.98735 -0.47745,-1.4998 -1.04925,-2.95523 -1.70423,-4.36788 -4.97175,-0.6112 -9.759697,-0.88445 -14.342617,-0.88445 -28.24663,-0.002 -48.73815,10.40308 -57.86963,16.12595 -0.004,0.2023 -0.0164,0.40408 -0.0172,0.61005 z"
     style="fill:url(#grad2);stroke-width:0.25"
     id="path4" />
  <path
     d="m 124.92868,55.797154 5.25548,0.33082 c 1.2297,-0.2347 2.8385,-0.42695 4.59202,-0.42695 5.53393,0 9.748,1.79855 9.748,7.38423 0,5.48847 -3.21907,8.84902 -7.66867,10.55365 1.51707,4.58995 6.01117,11.0749 9.79837,15.569 l -6.29487,3.31312 c -5.7264,-7.09802 -7.8558,-11.5469 -10.12805,-17.93612 -0.3794,0 -0.85288,-0.0468 -1.23053,-0.0468 l -2.5548,13.10815 h -7.66802 z m 6.67493,5.11085 v 0 l -1.56095,8.18705 h 0.66272 c 3.50025,0 5.7725,-1.89218 5.7725,-5.0633 0,-2.27088 -1.27725,-3.21728 -3.31227,-3.21728 -0.56805,0 -1.04255,0 -1.562,0.0935 z"
     style="fill:#0084c1;fill-rule:evenodd;stroke-width:0.25"
     id="path5" />
  <path
     d="m 158.57686,63.746904 c 5.29912,0 7.47857,2.36702 7.47857,5.82297 0,5.34628 -5.49202,9.13338 -13.25212,9.84258 0,0.2369 -0.0469,0.71067 -0.0469,1.04182 0,1.56168 0.99355,2.22405 2.3176,2.22405 1.75395,0 7.05307,-1.94182 7.05307,-1.94182 l 1.6085,4.82902 c 0,0 -5.44095,2.69775 -10.03527,2.69775 -6.3885,0 -8.46845,-4.16517 -8.46845,-8.3295 0,-8.7087 4.82682,-16.18687 13.34492,-16.18687 z m -5.0169,10.50757 v 0 c 3.40925,-0.4255 5.25452,-2.3202 5.25452,-3.73892 0,-0.85173 -0.47452,-1.27943 -1.3737,-1.27943 -1.6553,0 -3.12262,2.0833 -3.88082,5.01835 z"
     style="fill:#0084c1;fill-rule:evenodd;stroke-width:0.25"
     id="path6" />
  <path
     d="m 187.96391,76.999054 c -0.1886,0.9461 -0.23678,1.84537 -0.23678,2.60347 0,2.6503 0.61485,4.30593 1.89355,6.24733 l -5.963,2.36452 c -0.94597,-1.08727 -1.70492,-2.64885 -1.70492,-4.5424 0,-0.75675 0,-1.65602 0.14397,-2.93547 l -0.61557,1.32625 c -2.03398,4.30625 -4.63955,6.01045 -7.5721,6.01045 -4.7332,0 -6.48275,-4.2587 -6.48275,-8.13943 0,-9.04025 4.77855,-16.0435 13.58045,-16.0435 0.66302,0 1.4205,0.0467 2.22615,0.1904 l 1.8922,-9.79765 7.38412,-0.94642 z m -6.34158,-5.3466 v 0 l 0.4744,-2.13158 c -0.38087,-0.14107 -0.75882,-0.1883 -1.42122,-0.1883 -4.35305,0 -5.58565,7.42958 -5.58565,10.74373 0,1.3248 0.1908,2.41342 1.09007,2.41342 1.93963,0 4.3544,-6.24732 5.4424,-10.83727 z"
     style="fill:#0084c1;fill-rule:evenodd;stroke-width:0.25"
     id="path7" />
  <path
     d="m 191.93691,79.933774 c 0,-9.04025 4.78065,-16.0435 13.58182,-16.0435 2.0829,0 3.64458,0.33155 5.39558,1.13388 l 3.7872,0.23687 -1.98863,10.3197 c -0.33052,1.51195 -0.47377,2.88563 -0.47377,4.0218 0,2.6503 0.61557,4.30593 1.89427,6.24733 l -5.96362,2.36452 c -0.9461,-1.08727 -1.7042,-2.64885 -1.7042,-4.5424 0,-0.75675 0,-1.65602 0.14107,-2.93547 l -0.6134,1.32625 c -2.03545,4.30625 -4.63892,6.01045 -7.5722,6.01045 -4.731,0 -6.48412,-4.2587 -6.48412,-8.13943 z m 14.1996,-8.28132 v 0 l 0.47012,-2.13158 c -0.37797,-0.14107 -0.75382,-0.1883 -1.41842,-0.1883 -4.35378,0 -5.58493,7.42958 -5.58493,10.74373 0,1.3248 0.19008,2.41342 1.08863,2.41342 1.93962,0 4.35522,-6.24732 5.4446,-10.83727 z"
     style="fill:#0084c1;fill-rule:evenodd;stroke-width:0.25"
     id="path8" />
  <path
     d="m 102.19221,104.29192 c 0.16497,-0.0329 0.32167,-0.0556 0.4702,-0.068 0.14847,-0.0124 0.29692,-0.0186 0.4454,-0.0186 0.14022,0 0.28665,0.006 0.43922,0.0186 0.15258,0.0124 0.30315,0.0351 0.45163,0.068 0,0.32173 -0.0268,0.62688 -0.0804,0.9156 -0.0537,0.2887 -0.1299,0.58563 -0.2289,0.89085 -0.16497,0.0331 -0.32172,0.0557 -0.4702,0.068 -0.14847,0.0124 -0.29692,0.0186 -0.4454,0.0186 -0.14025,0 -0.28665,-0.006 -0.43922,-0.0186 -0.15258,-0.0123 -0.30318,-0.035 -0.45163,-0.068 0,-0.32165 0.0267,-0.62687 0.0804,-0.9156 0.0537,-0.2887 0.1299,-0.58562 0.2289,-0.89085 z m 3.78007,0 c 0.16498,-0.0329 0.32165,-0.0556 0.4702,-0.068 0.14845,-0.0124 0.29693,-0.0186 0.4454,-0.0186 0.14023,0 0.28665,0.006 0.43923,0.0186 0.15257,0.0124 0.30315,0.0351 0.45162,0.068 0,0.32173 -0.0268,0.62688 -0.0804,0.9156 -0.0537,0.2887 -0.1299,0.58563 -0.2289,0.89085 -0.16498,0.0331 -0.32175,0.0557 -0.4702,0.068 -0.14848,0.0124 -0.29693,0.0186 -0.4454,0.0186 -0.14025,0 -0.28665,-0.006 -0.43923,-0.0186 -0.15257,-0.0123 -0.30317,-0.035 -0.45162,-0.068 0,-0.32165 0.0268,-0.62687 0.0804,-0.9156 0.0536,-0.2887 0.1299,-0.58562 0.2289,-0.89085 z m 3.78008,0 c 0.16497,-0.0329 0.32165,-0.0556 0.4702,-0.068 0.14845,-0.0124 0.29692,-0.0186 0.44537,-0.0186 0.14025,0 0.28668,0.006 0.43925,0.0186 0.15258,0.0124 0.30315,0.0351 0.45163,0.068 0,0.32173 -0.0269,0.62688 -0.0805,0.9156 -0.0536,0.2887 -0.1299,0.58563 -0.2289,0.89085 -0.16498,0.0331 -0.32173,0.0557 -0.47018,0.068 -0.14847,0.0124 -0.29695,0.0186 -0.4454,0.0186 -0.14025,0 -0.28665,-0.006 -0.43922,-0.0186 -0.15258,-0.0123 -0.30318,-0.035 -0.45163,-0.068 0,-0.32165 0.0268,-0.62687 0.0804,-0.9156 0.0537,-0.2887 0.1299,-0.58562 0.2289,-0.89085 z m 5.38852,1.658 3.66235,-4.89962 h -2.4003 c 0,-0.12373 0.006,-0.24335 0.0186,-0.35888 0.0123,-0.11542 0.0268,-0.23095 0.0433,-0.34637 0.0164,-0.10723 0.0392,-0.2124 0.068,-0.3155 0.0289,-0.103126 0.068,-0.212476 0.11755,-0.327896 h 4.83775 l 0.0371,0.14845 -3.67477,4.899616 h 2.75917 c 0,0.12373 -0.006,0.24335 -0.0186,0.3588 -0.0124,0.1155 -0.0269,0.23103 -0.0433,0.34645 -0.0165,0.10723 -0.0392,0.2124 -0.0681,0.3155 -0.0288,0.10313 -0.0639,0.2124 -0.10515,0.3279 h -5.15942 z m 56.53268,-1.22492 c 0.066,0.0247 0.15052,0.0412 0.25362,0.0495 0.10313,0.008 0.20828,0.0124 0.3155,0.0124 0.3629,0 0.6743,-0.0845 0.93415,-0.25363 0.2598,-0.16907 0.47433,-0.3836 0.6434,-0.6434 0.1691,-0.25985 0.29283,-0.54645 0.37113,-0.85987 0.0784,-0.31345 0.11757,-0.61868 0.11757,-0.9156 0,-0.2887 -0.0598,-0.53823 -0.17937,-0.74855 -0.11963,-0.21033 -0.32378,-0.3155 -0.6125,-0.3155 -0.3794,0 -0.70525,0.1608 -0.97745,0.48252 -0.2722,0.32168 -0.47013,0.85373 -0.59385,1.59605 z m -1.34865,-2.27658 c 0.0907,-0.51967 0.15872,-0.97952 0.20415,-1.37955 0.0454,-0.40012 0.0681,-0.7115 0.0681,-0.93417 0,-0.0908 0,-0.167026 0,-0.228896 0,-0.0618 -0.004,-0.12995 -0.0124,-0.20415 0.27217,-0.0495 0.54437,-0.0743 0.81665,-0.0743 0.23095,0 0.49075,0.0248 0.77945,0.0743 0.0165,0.066 0.033,0.14435 0.0495,0.23505 0.0165,0.0908 0.0248,0.226846 0.0248,0.408346 0,0.0742 -0.002,0.14435 -0.006,0.21032 -0.004,0.066 -0.0144,0.14845 -0.0309,0.24745 0.1897,-0.35467 0.4784,-0.65167 0.86605,-0.890846 0.3877,-0.23917 0.829,-0.3588 1.32392,-0.3588 0.5774,0 1.02075,0.19793 1.33008,0.593876 0.30932,0.39592 0.46397,0.96922 0.46397,1.71985 0,0.51135 -0.0784,1.0269 -0.23507,1.54657 -0.15675,0.51965 -0.40628,0.98985 -0.74855,1.41053 -0.34235,0.42065 -0.7857,0.76292 -1.3301,1.02692 -0.54438,0.26398 -1.2084,0.39593 -1.99205,0.39593 -0.14018,0 -0.24533,-0.004 -0.31548,-0.0123 -0.0701,-0.008 -0.1258,-0.0165 -0.16705,-0.0248 l -0.49492,2.80865 c -0.16498,0.0331 -0.32165,0.0537 -0.47013,0.0619 -0.14845,0.008 -0.2887,0.0124 -0.42065,0.0124 -0.14025,0 -0.2805,-0.004 -0.42075,-0.0124 -0.14017,-0.008 -0.28862,-0.0289 -0.44537,-0.0619 z m 8.60542,1.22493 c 0.0496,0.39592 0.18148,0.6908 0.39593,0.8846 0.2145,0.19382 0.52795,0.29077 0.94032,0.29077 0.32995,0 0.6207,-0.0351 0.87228,-0.10517 0.25157,-0.0701 0.5176,-0.1629 0.7981,-0.27835 0.13195,0.16497 0.2206,0.36495 0.26595,0.60002 0.0455,0.23513 0.0681,0.48465 0.0681,0.74855 -0.14025,0.066 -0.30317,0.1258 -0.48877,0.17945 -0.1856,0.0536 -0.37738,0.099 -0.5753,0.13605 -0.198,0.0371 -0.39593,0.066 -0.59393,0.0867 -0.19792,0.0206 -0.3753,0.0309 -0.532,0.0309 -0.5032,0 -0.93415,-0.0619 -1.293,-0.1856 -0.3588,-0.12375 -0.65572,-0.299 -0.8908,-0.52583 -0.23512,-0.22685 -0.40832,-0.50315 -0.51965,-0.829 -0.1114,-0.32577 -0.16705,-0.6867 -0.16705,-1.08262 0,-0.50315 0.0866,-0.99808 0.2598,-1.48473 0.17328,-0.48662 0.4186,-0.92175 0.73623,-1.30535 0.31755,-0.38352 0.7052,-0.69285 1.163,-0.927916 0.45777,-0.23513 0.97127,-0.35263 1.5404,-0.35263 0.2722,0 0.5259,0.0329 0.76097,0.099 0.23505,0.066 0.43923,0.16705 0.61243,0.3031 0.17325,0.136126 0.30932,0.303176 0.40832,0.501096 0.099,0.198 0.14848,0.42895 0.14848,0.69285 0,0.3712 -0.0866,0.69293 -0.2598,0.96513 -0.17328,0.2722 -0.40423,0.50315 -0.69293,0.69287 -0.28872,0.1897 -0.61655,0.3444 -0.98362,0.46395 -0.3671,0.11963 -0.74858,0.20828 -1.1445,0.26603 z m 0.70525,-1.26208 c 0.31345,-0.0495 0.56913,-0.11337 0.76713,-0.19175 0.19792,-0.0784 0.35467,-0.16497 0.4702,-0.25987 0.11542,-0.0948 0.19382,-0.19175 0.23505,-0.29075 0.0412,-0.0989 0.0619,-0.19795 0.0619,-0.29695 0,-0.15668 -0.0516,-0.2846 -0.1547,-0.38353 -0.1031,-0.099 -0.24122,-0.14845 -0.4145,-0.14845 -0.21445,0 -0.4103,0.0474 -0.5877,0.14223 -0.1773,0.0949 -0.332,0.22067 -0.46395,0.37735 -0.13195,0.15677 -0.2454,0.3362 -0.34022,0.53822 -0.0949,0.20213 -0.16703,0.4063 -0.21658,0.6125 z m 4.708,0.0371 c 0.0908,-0.51967 0.1588,-0.97952 0.20415,-1.37955 0.0454,-0.40012 0.0681,-0.7115 0.0681,-0.93417 0,-0.0908 0,-0.167026 0,-0.228896 0,-0.0618 -0.004,-0.12995 -0.0124,-0.20415 0.2722,-0.0495 0.5444,-0.0743 0.8166,-0.0743 0.12373,0 0.24745,0.006 0.3712,0.0186 0.12373,0.0124 0.25568,0.031 0.39593,0.0557 0.0165,0.066 0.033,0.14435 0.0495,0.23505 0.0165,0.0908 0.0248,0.226846 0.0248,0.408346 0,0.0742 -0.002,0.14845 -0.006,0.22265 -0.004,0.0743 -0.0144,0.16498 -0.0309,0.27228 0.0825,-0.14855 0.1856,-0.29495 0.30932,-0.4393 0.12375,-0.1443 0.26185,-0.27425 0.41443,-0.3897 0.15265,-0.115496 0.32175,-0.208276 0.50735,-0.278426 0.1856,-0.0701 0.38975,-0.10517 0.61242,-0.10517 0.17325,0 0.32173,0.0206 0.44545,0.0619 0.008,0.033 0.0124,0.066 0.0124,0.099 0,0.0331 0,0.0701 0,0.11133 0,0.230946 -0.0289,0.470196 -0.0866,0.717646 -0.0578,0.24747 -0.13607,0.4537 -0.23507,0.61867 -0.0495,-0.008 -0.1031,-0.0166 -0.16088,-0.0248 -0.0577,-0.008 -0.13195,-0.0124 -0.22272,-0.0124 -0.33818,0 -0.61653,0.0578 -0.83515,0.17318 -0.21855,0.11552 -0.398,0.27837 -0.53823,0.48877 -0.14017,0.21033 -0.25157,0.46395 -0.33407,0.7609 -0.0825,0.29693 -0.15668,0.62688 -0.22265,0.98985 l -0.4578,2.4869 c -0.32173,0.0495 -0.62278,0.0743 -0.90325,0.0743 -0.28873,0 -0.57325,-0.0248 -0.85373,-0.0743 z m 6.09385,0.82898 c -0.13202,-0.0495 -0.26397,-0.11345 -0.39595,-0.19183 -0.13202,-0.0783 -0.2537,-0.1773 -0.36502,-0.29692 -0.11133,-0.11963 -0.2021,-0.26603 -0.2722,-0.43923 -0.0701,-0.1732 -0.10515,-0.37942 -0.10515,-0.61867 0,-0.3464 0.068,-0.65368 0.20415,-0.92175 0.13607,-0.26808 0.32577,-0.49493 0.56912,-0.68053 0.24338,-0.185596 0.5279,-0.327816 0.85373,-0.426816 0.32585,-0.099 0.67847,-0.14848 1.0579,-0.14848 0.13195,0 0.2763,0.006 0.43305,0.0186 0.1567,0.0123 0.3155,0.0309 0.4763,0.0556 0.16087,0.0248 0.31762,0.0598 0.4702,0.10517 0.15257,0.0454 0.29077,0.10105 0.4145,0.16703 -0.0165,0.214496 -0.0557,0.426896 -0.11758,0.637216 -0.0619,0.21033 -0.16292,0.42273 -0.3031,0.63723 -0.17325,-0.0908 -0.3836,-0.16498 -0.63105,-0.22273 -0.2474,-0.0577 -0.48252,-0.0866 -0.7052,-0.0866 -0.0908,0 -0.19182,0.008 -0.30315,0.0248 -0.11135,0.0165 -0.2165,0.0453 -0.3155,0.0866 -0.099,0.0412 -0.1815,0.10313 -0.24747,0.1856 -0.066,0.0825 -0.099,0.1856 -0.099,0.30933 0,0.24747 0.15675,0.4413 0.4702,0.58155 l 0.48252,0.21032 c 0.15675,0.066 0.30933,0.1423 0.4578,0.2289 0.14848,0.0866 0.28043,0.19175 0.39593,0.3155 0.11552,0.12373 0.20827,0.26808 0.27837,0.43305 0.0702,0.16498 0.10515,0.3588 0.10515,0.58153 0,0.41245 -0.0825,0.76917 -0.24737,1.07022 -0.165,0.3011 -0.38773,0.55268 -0.6682,0.75473 -0.28043,0.2021 -0.61243,0.35262 -0.99595,0.45162 -0.3836,0.099 -0.78983,0.14848 -1.21878,0.14848 -0.26397,0 -0.5568,-0.0268 -0.87845,-0.0805 -0.32172,-0.0536 -0.61037,-0.134 -0.86612,-0.24123 0.0248,-0.4784 0.14847,-0.92387 0.3712,-1.33625 0.25567,0.11545 0.5176,0.19588 0.7857,0.24123 0.26807,0.0453 0.52582,0.068 0.77327,0.068 0.12375,0 0.2557,-0.0123 0.39593,-0.0371 0.14025,-0.0248 0.2681,-0.066 0.38355,-0.12373 0.1155,-0.0577 0.21245,-0.1382 0.29075,-0.2413 0.0784,-0.10312 0.11757,-0.2289 0.11757,-0.37737 0,-0.16498 -0.0577,-0.29898 -0.1732,-0.40208 -0.11552,-0.10312 -0.27637,-0.19595 -0.48252,-0.27845 z m 6.05663,1.4476 c 0.066,0.0247 0.15052,0.0412 0.25365,0.0495 0.1031,0.008 0.20827,0.0124 0.31547,0.0124 0.36293,0 0.6743,-0.0845 0.93418,-0.25363 0.2598,-0.16907 0.4743,-0.3836 0.6434,-0.6434 0.16907,-0.25985 0.2928,-0.54645 0.37112,-0.85987 0.0784,-0.31345 0.11755,-0.61868 0.11755,-0.9156 0,-0.2887 -0.0598,-0.53823 -0.17935,-0.74855 -0.11962,-0.21033 -0.3238,-0.3155 -0.6125,-0.3155 -0.37942,0 -0.70525,0.1608 -0.97745,0.48252 -0.2722,0.32168 -0.47012,0.85373 -0.59387,1.59605 z m -1.34865,-2.27658 c 0.0907,-0.51967 0.15875,-0.97952 0.20417,-1.37955 0.0454,-0.40012 0.068,-0.7115 0.068,-0.93417 0,-0.0908 0,-0.167026 0,-0.228896 0,-0.0618 -0.004,-0.12995 -0.0124,-0.20415 0.2722,-0.0495 0.5444,-0.0743 0.81667,-0.0743 0.23095,0 0.49073,0.0248 0.77945,0.0743 0.0165,0.066 0.0331,0.14435 0.0495,0.23505 0.0165,0.0908 0.0249,0.226846 0.0249,0.408346 0,0.0742 -0.002,0.14435 -0.006,0.21032 -0.004,0.066 -0.0143,0.14845 -0.0309,0.24745 0.18973,-0.35467 0.47843,-0.65167 0.86605,-0.890846 0.38773,-0.23917 0.829,-0.3588 1.32393,-0.3588 0.57742,0 1.02075,0.19793 1.3301,0.593876 0.30932,0.39592 0.46395,0.96922 0.46395,1.71985 0,0.51135 -0.0784,1.0269 -0.23505,1.54657 -0.15678,0.51965 -0.40628,0.98985 -0.74858,1.41053 -0.34235,0.42065 -0.78567,0.76292 -1.33007,1.02692 -0.5444,0.26398 -1.20843,0.39593 -1.99205,0.39593 -0.14018,0 -0.24535,-0.004 -0.3155,-0.0123 -0.0701,-0.008 -0.12578,-0.0165 -0.16703,-0.0248 l -0.49492,2.80865 c -0.16498,0.0331 -0.32168,0.0537 -0.47013,0.0619 -0.14847,0.008 -0.28872,0.0124 -0.42067,0.0124 -0.14025,0 -0.28048,-0.004 -0.42073,-0.0124 -0.14017,-0.008 -0.28865,-0.0289 -0.4454,-0.0619 z m 8.60542,1.22493 c 0.0495,0.39592 0.1815,0.6908 0.39593,0.8846 0.21452,0.19382 0.52795,0.29077 0.94032,0.29077 0.32995,0 0.62073,-0.0351 0.8723,-0.10517 0.25158,-0.0701 0.5176,-0.1629 0.79808,-0.27835 0.13197,0.16497 0.22062,0.36495 0.26597,0.60002 0.0454,0.23513 0.0681,0.48465 0.0681,0.74855 -0.14025,0.066 -0.30317,0.1258 -0.48877,0.17945 -0.18558,0.0536 -0.37735,0.099 -0.57528,0.13605 -0.198,0.0371 -0.39592,0.066 -0.59392,0.0867 -0.19795,0.0206 -0.37533,0.0309 -0.532,0.0309 -0.50323,0 -0.93415,-0.0619 -1.29303,-0.1856 -0.3588,-0.12375 -0.65572,-0.299 -0.89077,-0.52583 -0.23515,-0.22685 -0.40835,-0.50315 -0.51968,-0.829 -0.1114,-0.32577 -0.16702,-0.6867 -0.16702,-1.08262 0,-0.50315 0.0866,-0.99808 0.2598,-1.48473 0.17325,-0.48662 0.4186,-0.92175 0.73622,-1.30535 0.31755,-0.38352 0.70518,-0.69285 1.16298,-0.927916 0.4578,-0.23513 0.9713,-0.35263 1.54042,-0.35263 0.2722,0 0.5259,0.0329 0.76095,0.099 0.23508,0.066 0.43923,0.16705 0.61243,0.3031 0.17327,0.136126 0.30932,0.303176 0.40832,0.501096 0.099,0.198 0.14848,0.42895 0.14848,0.69285 0,0.3712 -0.0866,0.69293 -0.2598,0.96513 -0.17325,0.2722 -0.40423,0.50315 -0.69293,0.69287 -0.2887,0.1897 -0.61652,0.3444 -0.98362,0.46395 -0.36708,0.11963 -0.74855,0.20828 -1.14448,0.26603 z m 0.70525,-1.26208 c 0.31345,-0.0495 0.56913,-0.11337 0.76713,-0.19175 0.19795,-0.0784 0.3547,-0.16497 0.4702,-0.25987 0.11545,-0.0948 0.19382,-0.19175 0.23507,-0.29075 0.0412,-0.0989 0.0618,-0.19795 0.0618,-0.29695 0,-0.15668 -0.0516,-0.2846 -0.1547,-0.38353 -0.1031,-0.099 -0.24122,-0.14845 -0.41447,-0.14845 -0.21445,0 -0.41033,0.0474 -0.5877,0.14223 -0.1773,0.0949 -0.332,0.22067 -0.46398,0.37735 -0.13195,0.15677 -0.2454,0.3362 -0.34022,0.53822 -0.0949,0.20213 -0.16703,0.4063 -0.21655,0.6125 z m 5.22768,-2.957096 c 0.14852,-0.86612 0.22272,-1.52185 0.22272,-1.96725 0,-0.0908 -0.002,-0.16702 -0.006,-0.22887 -0.004,-0.0619 -0.0103,-0.12998 -0.0185,-0.20418 0.14023,-0.0247 0.30103,-0.0433 0.48253,-0.0557 0.18147,-0.0123 0.33817,-0.0186 0.47017,-0.0186 0.23918,0 0.50315,0.0248 0.79188,0.0743 0.0412,0.12372 0.0618,0.28042 0.0618,0.47012 0,0.36298 -0.0496,0.80425 -0.14853,1.32393 l -1.27437,7.250446 c -0.29695,0.0495 -0.59798,0.0743 -0.9032,0.0743 -0.28048,0 -0.5609,-0.0248 -0.84133,-0.0743 z m 1.4229,3.291176 1.29912,-1.70745 c 0.23925,-0.31345 0.40005,-0.58153 0.48253,-0.80425 0.0825,-0.22268 0.12785,-0.400046 0.13615,-0.531996 0.17317,-0.033 0.3361,-0.0537 0.48867,-0.0619 0.15265,-0.008 0.3114,-0.0124 0.47638,-0.0124 0.14845,0 0.30727,0.006 0.47635,0.0186 0.1691,0.0124 0.3238,0.031 0.46397,0.0557 -0.0248,0.21443 -0.10107,0.433046 -0.2289,0.655726 -0.12785,0.22272 -0.3114,0.50322 -0.55057,0.8414 l -1.24965,1.55897 1.20012,3.34063 c -0.1732,0.0166 -0.33195,0.0309 -0.4763,0.0433 -0.14435,0.0124 -0.29075,0.0186 -0.4393,0.0186 -0.15667,0 -0.30515,-0.004 -0.44537,-0.0124 -0.14025,-0.008 -0.29283,-0.0247 -0.4578,-0.0495 z m 5.31432,-1.70745 h -0.95272 c 0,-0.22273 0.0165,-0.44128 0.0494,-0.65573 0.0331,-0.21452 0.0949,-0.441346 0.1856,-0.680516 h 0.95272 l 0.0743,-0.3712 c 0.0412,-0.20623 0.066,-0.4021 0.0742,-0.5877 0.008,-0.1856 0.0124,-0.34023 0.0124,-0.46395 0.21445,-0.14025 0.48255,-0.23925 0.8042,-0.297 0.32173,-0.0577 0.61865,-0.0866 0.89085,-0.0866 0.0412,0.12372 0.0619,0.28047 0.0619,0.4702 0,0.13195 -0.0103,0.27425 -0.0309,0.42682 -0.0206,0.15265 -0.0475,0.31968 -0.0804,0.5011 l -0.0743,0.40833 h 1.53425 c 0,0.24745 -0.0206,0.474296 -0.0619,0.680516 -0.0412,0.20615 -0.099,0.42478 -0.17325,0.65573 h -1.53417 l -0.43308,2.43745 c -0.0165,0.1155 -0.0309,0.22272 -0.0433,0.32172 -0.0124,0.0989 -0.0186,0.19383 -0.0186,0.28453 0,0.21445 0.0495,0.3836 0.14848,0.50732 0.099,0.12368 0.2846,0.18553 0.5568,0.18553 0.14025,0 0.26397,-0.0103 0.3712,-0.0309 0.1072,-0.0206 0.2062,-0.0433 0.29692,-0.068 0.10723,0.23918 0.16085,0.55263 0.16085,0.94033 0,0.066 0,0.13195 0,0.19792 0,0.066 -0.004,0.13203 -0.0124,0.198 -0.35467,0.10723 -0.77945,0.16088 -1.27437,0.16088 -0.69285,0 -1.20635,-0.12793 -1.54043,-0.3836 -0.33405,-0.2557 -0.5011,-0.68465 -0.5011,-1.2868 0,-0.12373 0.008,-0.25158 0.0247,-0.38353 0.0165,-0.13195 0.0371,-0.2763 0.0618,-0.43305 z m 4.2626,-1.336246 c 0.30515,-0.0495 0.6227,-0.0743 0.95265,-0.0743 0.28873,0 0.57743,0.0248 0.86613,0.0743 l 0.33407,5.592466 c 0.32165,-0.67635 0.5918,-1.26405 0.81043,-1.76307 0.21855,-0.49905 0.4021,-0.928 0.55055,-1.2868 0.14847,-0.3588 0.26192,-0.65785 0.3403,-0.89703 0.0783,-0.23925 0.13812,-0.44127 0.17937,-0.60625 0.0412,-0.16497 0.066,-0.30317 0.0743,-0.4145 0.008,-0.11132 0.0124,-0.2165 0.0124,-0.3155 0,-0.0825 -0.004,-0.144346 -0.0124,-0.185596 -0.008,-0.0412 -0.0165,-0.0825 -0.0247,-0.12372 0.14018,-0.0247 0.28865,-0.0433 0.4454,-0.0557 0.15675,-0.0123 0.31755,-0.0186 0.48253,-0.0186 0.32995,0 0.63927,0.0248 0.928,0.0743 0.0247,0.0742 0.037,0.16085 0.037,0.2598 0,0.140226 -0.0185,0.294926 -0.0556,0.464026 -0.0372,0.16907 -0.0825,0.33817 -0.13612,0.50725 -0.0536,0.1691 -0.11135,0.33202 -0.1732,0.4887 -0.0619,0.15675 -0.11758,0.297 -0.16703,0.42072 -0.21445,0.51138 -0.5135,1.16513 -0.89702,1.96108 -0.3836,0.79597 -0.8764,1.80432 -1.47855,3.02515 -0.2557,0.51142 -0.50728,0.9197 -0.75473,1.22492 -0.24747,0.3052 -0.49905,0.53618 -0.7548,0.69285 -0.2557,0.15675 -0.51137,0.25775 -0.76705,0.30318 -0.25577,0.0453 -0.51557,0.068 -0.77955,0.068 -0.1897,0 -0.35262,-0.0124 -0.48867,-0.0371 -0.13615,-0.0248 -0.28665,-0.0619 -0.45163,-0.11135 0.0165,-0.23922 0.0495,-0.46607 0.099,-0.68052 0.0495,-0.21443 0.13195,-0.42065 0.24745,-0.61865 0.0742,0.033 0.16285,0.0598 0.26598,0.0804 0.1031,0.0207 0.19182,0.031 0.26602,0.031 0.099,0 0.2145,-0.0103 0.34645,-0.031 0.13195,-0.0206 0.27425,-0.0825 0.42683,-0.1856 0.15265,-0.1031 0.31345,-0.2598 0.4826,-0.47012 0.1691,-0.21033 0.34025,-0.5011 0.51342,-0.8723 l 0.0619,-0.13613 c -0.0907,0.0165 -0.1897,0.0268 -0.29693,0.0309 -0.10722,0.004 -0.21862,0.006 -0.33407,0.006 -0.0825,0 -0.17738,0 -0.2846,0 -0.1072,0 -0.2021,-0.008 -0.28453,-0.0247 z m 6.8609,0 c 0.32168,-0.0495 0.65985,-0.0743 1.01453,-0.0743 0.14025,0 0.28255,0.004 0.4269,0.0124 0.14435,0.008 0.28665,0.0289 0.42682,0.0619 l 0.17328,4.441816 1.8435,-4.441816 c 0.2557,-0.0495 0.53617,-0.0743 0.8414,-0.0743 0.30515,0 0.60627,0.0248 0.9032,0.0743 l 0.34645,4.454216 1.20012,-2.78392 c 0.14025,-0.32165 0.23508,-0.60625 0.2846,-0.85373 0.0495,-0.24745 0.0742,-0.45367 0.0742,-0.618646 0,-0.0412 -0.002,-0.0783 -0.006,-0.11132 -0.004,-0.0331 -0.006,-0.0619 -0.006,-0.0866 0.27218,-0.0495 0.58563,-0.0743 0.9403,-0.0743 0.33818,0 0.65163,0.0248 0.94033,0.0743 v 0.0494 c 0,0.263966 -0.0453,0.540296 -0.13605,0.828996 -0.0908,0.2887 -0.23925,0.631 -0.44548,1.02692 l -2.3013,4.49135 c -0.14847,0.0248 -0.3155,0.0433 -0.5011,0.0557 -0.1856,0.0123 -0.36092,0.0186 -0.5259,0.0186 -0.29692,0 -0.58152,-0.0248 -0.85372,-0.0743 l -0.35878,-4.07063 -1.7446,4.07063 c -0.15667,0.0166 -0.32165,0.0331 -0.49485,0.0495 -0.17327,0.0165 -0.34235,0.0248 -0.50732,0.0248 -0.14018,0 -0.28873,-0.006 -0.4454,-0.0186 -0.15675,-0.0124 -0.3011,-0.031 -0.43308,-0.0557 z m 15.5961,3.625216 c -0.0907,0.51965 -0.1567,0.9795 -0.19795,1.37955 -0.0412,0.40005 -0.0618,0.71143 -0.0618,0.93415 0,0.0907 0,0.16705 0,0.2289 0,0.0619 0.004,0.1299 0.0123,0.20418 -0.12372,0.066 -0.2639,0.16085 -0.42065,0.28452 -0.1567,0.12373 -0.30727,0.25988 -0.45165,0.40833 -0.14427,0.14847 -0.26595,0.30317 -0.36495,0.46397 -0.099,0.16085 -0.14847,0.31138 -0.14847,0.45163 0,0.2722 0.14847,0.40832 0.4454,0.40832 0.0496,0 0.11962,-0.004 0.21032,-0.0124 0.0908,-0.008 0.21453,-0.0371 0.3712,-0.0866 0.0494,0.0825 0.0886,0.18355 0.11758,0.3031 0.0289,0.11963 0.0433,0.2413 0.0433,0.36503 0,0.0412 -0.002,0.0804 -0.006,0.11757 -0.004,0.037 -0.0103,0.0762 -0.0185,0.1175 -0.14855,0.0577 -0.33825,0.10515 -0.5692,0.1423 -0.23095,0.0372 -0.46603,0.0557 -0.70528,0.0557 -0.19792,0 -0.38762,-0.0165 -0.56912,-0.0495 -0.18148,-0.0329 -0.34023,-0.0907 -0.47635,-0.1732 -0.13608,-0.0825 -0.2433,-0.18765 -0.32168,-0.3155 -0.0784,-0.12782 -0.11755,-0.28665 -0.11755,-0.47635 0,-0.20622 0.0412,-0.39797 0.12373,-0.57537 0.0825,-0.1773 0.1897,-0.34843 0.32172,-0.51343 0.13195,-0.16497 0.28248,-0.32172 0.45158,-0.47017 0.16907,-0.14848 0.3403,-0.29695 0.51347,-0.4454 -0.0165,-0.066 -0.0331,-0.14435 -0.0495,-0.23508 -0.0165,-0.0908 -0.0248,-0.22682 -0.0248,-0.40832 0,-0.0743 0,-0.15258 0,-0.23505 0,-0.0825 0.008,-0.1774 0.0248,-0.2846 -0.23925,0.3794 -0.54447,0.69695 -0.9156,0.95272 -0.3712,0.25568 -0.80425,0.38353 -1.29917,0.38353 -0.5444,0 -0.95273,-0.1732 -1.22493,-0.51968 -0.2722,-0.3464 -0.40827,-0.80417 -0.40827,-1.37337 0,-0.6186 0.0928,-1.21663 0.27837,-1.79405 0.1856,-0.57743 0.4619,-1.0888 0.829,-1.53425 0.36708,-0.4454 0.82275,-0.80215 1.3672,-1.070226 0.5444,-0.26807 1.1795,-0.4021 1.9054,-0.4021 0.3629,0 0.70113,0.0248 1.01458,0.0742 0.31345,0.0496 0.62277,0.11963 0.92792,0.21033 z m -1.2744,-2.30137 c -0.0743,-0.0164 -0.1464,-0.0268 -0.2165,-0.0309 -0.0702,-0.004 -0.13817,-0.006 -0.20415,-0.006 -0.39592,0 -0.73205,0.0989 -1.00842,0.29692 -0.27633,0.19795 -0.50523,0.4454 -0.6867,0.7424 -0.18143,0.29693 -0.31345,0.61655 -0.39593,0.9589 -0.0825,0.34228 -0.12372,0.65368 -0.12372,0.93408 0,0.61045 0.2021,0.9156 0.60632,0.9156 0.39593,0 0.76295,-0.24123 1.1011,-0.72375 0.33825,-0.4826 0.58573,-1.161 0.7424,-2.03535 z"
     style="fill:#000000;fill-rule:evenodd;stroke-width:0.25"
     id="path9" />
  <path
     d="m 123.73396,105.94992 3.66237,-4.89962 h -2.40032 c 0,-0.12373 0.006,-0.24335 0.0186,-0.35888 0.0124,-0.11542 0.0268,-0.23095 0.0433,-0.34637 0.0165,-0.10723 0.0392,-0.2124 0.068,-0.3155 0.0289,-0.103126 0.068,-0.212476 0.11758,-0.327896 h 4.83775 l 0.0371,0.14845 -3.67475,4.899616 h 2.75915 c 0,0.12373 -0.006,0.24335 -0.0186,0.3588 -0.0124,0.1155 -0.0269,0.23103 -0.0433,0.34645 -0.0165,0.10723 -0.0392,0.2124 -0.0681,0.3155 -0.0288,0.10313 -0.0639,0.2124 -0.10518,0.3279 h -5.1594 z m 7.88782,-4.91202 h -0.77945 c 0,-0.0247 -0.002,-0.0495 -0.006,-0.0743 -0.004,-0.0247 -0.006,-0.0536 -0.006,-0.0866 0,-0.21442 0.0206,-0.4145 0.0618,-0.60002 0.0412,-0.1856 0.10313,-0.377426 0.1856,-0.575346 h 2.49933 l -1.12593,6.396716 c -0.31345,0.0495 -0.61037,0.0743 -0.89087,0.0743 -0.25568,0 -0.53198,-0.0248 -0.8289,-0.0743 z m 0.35888,-2.412696 c -0.008,-0.28873 0.0103,-0.56298 0.0556,-0.82278 0.0453,-0.25985 0.11758,-0.5341 0.21658,-0.82282 0.14845,-0.0329 0.30515,-0.0556 0.47012,-0.068 0.16498,-0.0124 0.31343,-0.0185 0.44545,-0.0185 0.13195,0 0.27838,0.006 0.43923,0.0185 0.1608,0.0124 0.3114,0.0351 0.45157,0.068 0,0.28872 -0.0247,0.56502 -0.0742,0.829 -0.0495,0.26397 -0.12372,0.53617 -0.22272,0.8166 -0.14848,0.0247 -0.3031,0.0412 -0.46398,0.0495 -0.16087,0.008 -0.30727,0.0123 -0.43922,0.0123 -0.12373,0 -0.26808,-0.004 -0.43308,-0.0123 -0.16497,-0.008 -0.31342,-0.0248 -0.44537,-0.0495 z m 4.29965,5.048146 c 0.0495,0.39592 0.1815,0.6908 0.39592,0.8846 0.21453,0.19382 0.52795,0.29077 0.94033,0.29077 0.32995,0 0.62072,-0.0351 0.8723,-0.10517 0.25157,-0.0701 0.5176,-0.1629 0.7981,-0.27835 0.13195,0.16497 0.2206,0.36495 0.26595,0.60002 0.0454,0.23513 0.0681,0.48465 0.0681,0.74855 -0.14025,0.066 -0.30315,0.1258 -0.48875,0.17945 -0.1856,0.0536 -0.37738,0.099 -0.5753,0.13605 -0.198,0.0371 -0.39593,0.066 -0.59393,0.0867 -0.19792,0.0206 -0.3753,0.0309 -0.532,0.0309 -0.50322,0 -0.93415,-0.0619 -1.29302,-0.1856 -0.3588,-0.12375 -0.65573,-0.299 -0.89078,-0.52583 -0.23515,-0.22685 -0.40835,-0.50315 -0.51967,-0.829 -0.1114,-0.32577 -0.16703,-0.6867 -0.16703,-1.08262 0,-0.50315 0.0866,-0.99808 0.2598,-1.48473 0.17328,-0.48662 0.4186,-0.92175 0.73623,-1.30535 0.31755,-0.38352 0.7052,-0.69285 1.16297,-0.927916 0.4578,-0.23513 0.9713,-0.35263 1.54043,-0.35263 0.2722,0 0.5259,0.0329 0.76095,0.099 0.23507,0.066 0.43925,0.16705 0.61242,0.3031 0.17328,0.136126 0.30935,0.303176 0.40835,0.501096 0.099,0.198 0.14845,0.42895 0.14845,0.69285 0,0.3712 -0.0866,0.69293 -0.2598,0.96513 -0.17325,0.2722 -0.4042,0.50315 -0.69292,0.69287 -0.2887,0.1897 -0.61653,0.3444 -0.98363,0.46395 -0.36707,0.11963 -0.74855,0.20828 -1.14447,0.26603 z m 0.70527,-1.26208 c 0.31343,-0.0495 0.56913,-0.11337 0.76713,-0.19175 0.19792,-0.0784 0.35467,-0.16497 0.47017,-0.25987 0.11545,-0.0948 0.19383,-0.19175 0.23508,-0.29075 0.0412,-0.0989 0.0619,-0.19795 0.0619,-0.29695 0,-0.15668 -0.0516,-0.2846 -0.1547,-0.38353 -0.10312,-0.099 -0.24125,-0.14845 -0.4145,-0.14845 -0.21445,0 -0.41032,0.0474 -0.5877,0.14223 -0.1773,0.0949 -0.332,0.22067 -0.46395,0.37735 -0.13195,0.15677 -0.24542,0.3362 -0.34022,0.53822 -0.0949,0.20213 -0.16705,0.4063 -0.21658,0.6125 z m 5.17818,-2.957096 c 0.0907,-0.43717 0.15462,-0.81865 0.19177,-1.14447 0.0371,-0.32585 0.0557,-0.6001 0.0557,-0.82278 0,-0.0908 -0.002,-0.16702 -0.006,-0.22887 -0.004,-0.0619 -0.0103,-0.12998 -0.0186,-0.20418 0.14018,-0.0247 0.30105,-0.0433 0.48255,-0.0557 0.18148,-0.0123 0.33815,-0.0186 0.47013,-0.0186 0.23922,0 0.5032,0.0248 0.79185,0.0743 0.0412,0.12372 0.0619,0.28042 0.0619,0.47012 0,0.17328 -0.0165,0.3712 -0.0495,0.59393 -0.033,0.22272 -0.0743,0.46602 -0.12372,0.73 l -0.95273,4.973866 c -0.0247,0.14018 -0.0371,0.2557 -0.0371,0.3464 0,0.13203 0.0185,0.23513 0.0556,0.30933 0.0371,0.0743 0.0846,0.13202 0.1423,0.17327 0.0578,0.0412 0.12375,0.068 0.198,0.0804 0.0742,0.0124 0.14847,0.0186 0.22267,0.0186 0.0331,0 0.0949,-0.006 0.1856,-0.0186 0.0908,-0.0123 0.17325,-0.0309 0.24745,-0.0556 0.0412,0.14017 0.0763,0.29282 0.10518,0.4578 0.0289,0.16497 0.0433,0.33405 0.0433,0.50725 0,0.066 -0.002,0.12785 -0.006,0.1856 -0.004,0.0577 -0.0103,0.11962 -0.0186,0.1856 -0.12375,0.0495 -0.2846,0.0887 -0.48253,0.1175 -0.198,0.0289 -0.41657,0.0434 -0.6558,0.0434 -0.56092,0 -1.0022,-0.1382 -1.32385,-0.4145 -0.32175,-0.27638 -0.48252,-0.71143 -0.48252,-1.30535 0,-0.11553 0.008,-0.23713 0.0247,-0.36503 0.0165,-0.12785 0.0371,-0.26185 0.0619,-0.4021 z m 5.62357,6.792676 c -0.8496,0 -1.47442,-0.22275 -1.87447,-0.66813 -0.40003,-0.4454 -0.6001,-1.05585 -0.6001,-1.8312 0,-0.49492 0.0743,-0.99182 0.22275,-1.49087 0.14845,-0.49903 0.3712,-0.9486 0.66812,-1.34865 0.29693,-0.40005 0.67018,-0.72588 1.11975,-0.977446 0.4495,-0.25158 0.9754,-0.37738 1.57755,-0.37738 0.85783,0 1.48678,0.22685 1.88683,0.680476 0.40002,0.45367 0.60007,1.06822 0.60007,1.84357 0,0.51143 -0.0721,1.01458 -0.2165,1.50945 -0.14435,0.49493 -0.36502,0.9404 -0.66195,1.33633 -0.29692,0.39592 -0.67222,0.71552 -1.12592,0.95887 -0.45368,0.2433 -0.98575,0.36498 -1.59613,0.36498 z m 0.16088,-1.33625 c 0.31345,0 0.57742,-0.099 0.79185,-0.29695 0.21445,-0.198 0.38977,-0.4434 0.52582,-0.73623 0.13615,-0.2928 0.23303,-0.60215 0.29078,-0.92792 0.0577,-0.32583 0.0866,-0.6207 0.0866,-0.88468 0,-0.75885 -0.30933,-1.13825 -0.92793,-1.13825 -0.31345,0 -0.5733,0.1031 -0.77952,0.30933 -0.20623,0.20615 -0.3753,0.4578 -0.50725,0.75472 -0.13195,0.29693 -0.2248,0.61038 -0.27838,0.94033 -0.0537,0.32995 -0.0804,0.62277 -0.0804,0.87845 0,0.7341 0.29282,1.1012 0.87845,1.1012 z m 5.09152,-2.46218 c 0.0908,-0.51967 0.1588,-0.97952 0.20415,-1.37955 0.0453,-0.40012 0.0681,-0.7115 0.0681,-0.93417 0,-0.0908 0,-0.167026 0,-0.228896 0,-0.0618 -0.004,-0.12995 -0.0124,-0.20415 0.27217,-0.0495 0.54437,-0.0743 0.81657,-0.0743 0.12373,0 0.24748,0.006 0.3712,0.0186 0.12373,0.0124 0.25568,0.031 0.39593,0.0557 0.0166,0.066 0.0331,0.14435 0.0495,0.23505 0.0165,0.0908 0.0248,0.226846 0.0248,0.408346 0,0.0742 -0.002,0.14845 -0.006,0.22265 -0.004,0.0743 -0.0144,0.16498 -0.0308,0.27228 0.0989,-0.17328 0.22265,-0.33825 0.37117,-0.49493 0.14848,-0.15677 0.31755,-0.29282 0.50728,-0.408346 0.1897,-0.11542 0.39387,-0.2062 0.61242,-0.2722 0.21863,-0.066 0.43923,-0.099 0.66195,-0.099 0.49493,0 0.88053,0.1258 1.1569,0.37738 0.2763,0.251646 0.4145,0.670246 0.4145,1.255896 0,0.12372 -0.008,0.25567 -0.0248,0.39592 -0.0165,0.14023 -0.0371,0.2887 -0.0619,0.44538 l -0.7176,4.0583 c -0.31343,0.0495 -0.61455,0.0743 -0.90318,0.0743 -0.28872,0 -0.57332,-0.0248 -0.85372,-0.0743 l 0.69285,-3.92215 c 0.033,-0.16498 0.0495,-0.32173 0.0495,-0.4702 0,-0.24748 -0.0536,-0.42068 -0.16088,-0.51968 -0.10722,-0.099 -0.2598,-0.14845 -0.45772,-0.14845 -0.1155,0 -0.2454,0.0289 -0.38978,0.0866 -0.14435,0.0577 -0.29075,0.17943 -0.43922,0.36503 -0.14845,0.1856 -0.2928,0.44745 -0.43305,0.78562 -0.14025,0.33825 -0.25988,0.78363 -0.3588,1.33633 l -0.4578,2.4869 c -0.32173,0.0495 -0.62278,0.0743 -0.90325,0.0743 -0.28873,0 -0.57325,-0.0248 -0.85373,-0.0743 z m 12.4905,0.87845 c -0.0907,0.51965 -0.15667,0.9795 -0.19792,1.37955 -0.0412,0.40005 -0.0618,0.71143 -0.0618,0.93415 0,0.0907 0,0.16705 0,0.2289 0,0.0619 0.004,0.1299 0.0124,0.20418 -0.12375,0.066 -0.2639,0.16085 -0.42068,0.28452 -0.15667,0.12373 -0.30727,0.25988 -0.45162,0.40833 -0.14428,0.14847 -0.26595,0.30317 -0.36495,0.46397 -0.099,0.16085 -0.14848,0.31138 -0.14848,0.45163 0,0.2722 0.14848,0.40832 0.4454,0.40832 0.0496,0 0.11963,-0.004 0.21033,-0.0124 0.0908,-0.008 0.21452,-0.0371 0.3712,-0.0866 0.0495,0.0825 0.0887,0.18355 0.11757,0.3031 0.0288,0.11963 0.0433,0.2413 0.0433,0.36503 0,0.0412 -0.002,0.0804 -0.006,0.11757 -0.004,0.037 -0.0103,0.0762 -0.0186,0.1175 -0.14852,0.0577 -0.33822,0.10515 -0.5692,0.1423 -0.23095,0.0372 -0.466,0.0557 -0.70525,0.0557 -0.19792,0 -0.38762,-0.0165 -0.56912,-0.0495 -0.1815,-0.0329 -0.34023,-0.0907 -0.47635,-0.1732 -0.13608,-0.0825 -0.2433,-0.18765 -0.32168,-0.3155 -0.0784,-0.12782 -0.11757,-0.28665 -0.11757,-0.47635 0,-0.20622 0.0412,-0.39797 0.12375,-0.57537 0.0825,-0.1773 0.1897,-0.34843 0.32172,-0.51343 0.13195,-0.16497 0.28248,-0.32172 0.45155,-0.47017 0.1691,-0.14848 0.3403,-0.29695 0.5135,-0.4454 -0.0165,-0.066 -0.0331,-0.14435 -0.0495,-0.23508 -0.0165,-0.0908 -0.0248,-0.22682 -0.0248,-0.40832 0,-0.0743 0,-0.15258 0,-0.23505 0,-0.0825 0.008,-0.1774 0.0248,-0.2846 -0.23925,0.3794 -0.54447,0.69695 -0.9156,0.95272 -0.3712,0.25568 -0.80425,0.38353 -1.2992,0.38353 -0.54437,0 -0.95272,-0.1732 -1.2249,-0.51968 -0.2722,-0.3464 -0.40827,-0.80417 -0.40827,-1.37337 0,-0.6186 0.0928,-1.21663 0.27837,-1.79405 0.1856,-0.57743 0.4619,-1.0888 0.82898,-1.53425 0.3671,-0.4454 0.82277,-0.80215 1.36722,-1.070226 0.5444,-0.26807 1.1795,-0.4021 1.90538,-0.4021 0.3629,0 0.70115,0.0248 1.0146,0.0742 0.31345,0.0496 0.62277,0.11963 0.92792,0.21033 z m -1.27437,-2.30137 c -0.0743,-0.0164 -0.1464,-0.0268 -0.2165,-0.0309 -0.0702,-0.004 -0.13818,-0.006 -0.20418,-0.006 -0.39592,0 -0.73202,0.0989 -1.00842,0.29692 -0.2763,0.19795 -0.5052,0.4454 -0.68668,0.7424 -0.18142,0.29693 -0.31345,0.61655 -0.39592,0.9589 -0.0825,0.34228 -0.12375,0.65368 -0.12375,0.93408 0,0.61045 0.20212,0.9156 0.60635,0.9156 0.39592,0 0.76292,-0.24123 1.1011,-0.72375 0.33825,-0.4826 0.58572,-1.161 0.7424,-2.03535 z"
     style="fill:#00992b;fill-rule:evenodd;stroke-width:0.25"
     id="path10" />
  <path
     d="m 98.426333,113.04605 c 50.181627,-3.10253 100.848147,-2.80238 151.644127,-1.59315 -52.68853,0.44392 -104.55675,2.04942 -154.175377,6.84305 0.84373,-1.75 1.68753,-3.4999 2.53125,-5.2499 z"
     style="fill:#00992b;fill-rule:evenodd;stroke-width:0.25"
     id="path11" />
</svg>
