<svg xmlns:dc="http://purl.org/dc/elements/1.1/" xmlns:cc="http://creativecommons.org/ns#" xmlns:rdf="http://www.w3.org/1999/02/22-rdf-syntax-ns#" xmlns:svg="http://www.w3.org/2000/svg" xmlns="http://www.w3.org/2000/svg" xmlns:xlink="http://www.w3.org/1999/xlink" version="1.1" id="Warstwa_1" x="0px" y="0px" enable-background="new 0 0 595.28 841.89" xml:space="preserve" viewBox="89.88 338.98 226.77 89.47"><metadata id="metadata940"><rdf:RDF><cc:Work rdf:about=""><dc:format>image/svg+xml</dc:format><dc:type rdf:resource="http://purl.org/dc/dcmitype/StillImage"/><dc:title/></cc:Work></rdf:RDF></metadata><defs id="defs938"/>
<g id="g933" transform="matrix(0.54574863,0,0,0.54574863,40.827205,153.98122)">
	<defs id="defs834">
		<rect id="SVGID_1_" width="595.28003" height="841.89001" x="0" y="0"/>
	</defs>
	<clipPath id="SVGID_2_">
		<use xlink:href="#SVGID_1_" overflow="visible" id="use836" x="0" y="0" width="100%" height="100%"/>
	</clipPath>
	<path clip-path="url(#SVGID_2_)" fill="#154794" d="m 115.674,468.442 c -0.099,0.133 0.133,0.399 0.133,0.499 0,0.166 -0.133,0.332 -0.399,0.565 -2.162,0.432 -3.757,0.863 -4.822,1.296 -0.799,0.334 -1.597,0.766 -2.429,1.298 0.034,0.299 -0.099,0.798 -0.333,1.497 -0.231,0.665 -0.365,1.163 -0.365,1.463 0,0.267 0.1,1.03 0.134,1.264 0,0.3 -0.2,1.164 -0.565,2.528 -0.434,1.596 -0.866,2.394 -1.231,2.394 -0.399,0 -0.799,-0.399 -1.198,-1.163 -0.3,-0.633 -0.466,-1.132 -0.466,-1.464 0,-0.1 0.233,-0.898 0.698,-2.361 0.499,-1.497 0.733,-2.294 0.733,-2.428 0,-0.232 -0.466,-0.865 -0.499,-1.031 -0.2,-0.665 -0.299,-1.23 -0.299,-1.729 0,-0.166 0.166,-0.433 0.532,-0.865 0.365,-0.432 0.631,-0.632 0.73,-0.632 0.267,0 0.4,-0.065 0.633,-0.065 0.234,0 0.665,-0.898 1.33,-2.728 0.333,-0.964 0.666,-1.896 0.998,-2.827 0.632,-1.431 1.397,-3.493 2.361,-6.253 0.433,-0.665 0.866,-0.632 0.999,-0.865 h 0.597 c 0,0.233 0.533,1.33 0.533,1.996 0,0.6 -0.598,2.129 -1.795,4.591 -1.331,2.793 -2.129,4.622 -2.363,5.486 l 0.201,0.232 c 0.798,-0.198 1.662,-0.332 2.56,-0.398 z" id="path839"/>
	<path clip-path="url(#SVGID_2_)" fill="#154794" d="m 124.431,474.194 c -2.097,1.798 -3.992,2.763 -5.687,2.861 0.065,0.732 0.431,1.364 1.097,1.863 0.532,0.398 1.065,0.599 1.629,0.599 0.632,0 1.596,-0.266 2.894,-0.799 1.497,-0.632 2.227,-0.931 2.227,-0.965 0.301,-0.065 0.6,0.034 0.833,0.267 -0.366,0.531 -1.331,1.231 -2.894,2.063 -1.563,0.864 -2.695,1.297 -3.458,1.297 -1.298,0 -2.363,-0.498 -3.194,-1.464 -0.699,-0.864 -1.064,-1.862 -1.097,-3.026 -0.033,-1.763 0.931,-3.791 2.927,-6.087 1.995,-2.295 3.89,-3.425 5.687,-3.425 0.498,0 0.965,0.231 1.463,0.731 0.499,0.499 0.732,0.998 0.732,1.496 -0.001,1.265 -1.065,2.794 -3.159,4.589 m 0.465,-4.356 c -0.965,0 -2.062,0.599 -3.326,1.829 -1.064,1.064 -1.763,2.029 -2.128,2.927 0.665,0 1.296,-0.166 1.895,-0.498 0.299,-0.167 0.898,-0.566 1.796,-1.231 0.932,-0.699 1.663,-1.597 2.228,-2.761 -0.167,-0.166 -0.333,-0.266 -0.465,-0.266" id="path841"/>
	<path clip-path="url(#SVGID_2_)" fill="#154794" d="m 138.689,474.727 c 0.332,-1.296 0.498,-1.896 0.498,-1.862 -1.03,1.098 -1.861,1.995 -2.494,2.728 -1.163,1.363 -1.962,2.494 -2.395,3.326 -0.232,0 -0.93,0.398 -1.164,0.398 -0.233,0 -0.499,-0.166 -0.798,-0.499 -0.266,-0.332 -0.399,-0.532 -0.399,-0.631 0,-0.167 0.266,-1.298 0.798,-3.46 0.565,-2.162 1.032,-3.891 1.397,-5.122 0.133,-0.432 0.931,-0.798 1.364,-0.798 0.099,0 0.265,0.066 0.499,0.2 0.298,0.198 0.465,0.298 0.499,0.298 0.066,0.433 -0.1,1.198 -0.499,2.296 -0.433,1.164 -0.665,1.896 -0.665,2.129 0,0.1 0.033,0.199 0.099,0.266 0.498,-0.466 1.197,-1.264 2.095,-2.395 0.898,-1.164 1.597,-1.962 2.062,-2.396 0.765,-0.698 1.497,-1.03 2.163,-1.03 0.465,0 0.699,0.399 0.699,1.198 0,0.798 -0.366,2.127 -1.099,3.99 -0.698,1.863 -1.063,3.126 -1.063,3.791 0,1.165 0.431,1.764 1.329,1.764 0.366,0 1.43,-0.533 3.226,-1.598 0.133,0.101 0.4,0.167 0.299,0.399 -0.299,0.633 -0.93,1.331 -1.828,2.097 -0.898,0.731 -1.597,1.098 -2.129,1.098 -1.763,0 -2.727,-1.198 -2.927,-3.559 -0.033,-0.499 0.1,-1.363 0.433,-2.628" id="path843"/>
	<path clip-path="url(#SVGID_2_)" fill="#154794" d="m 166.729,482.245 c -1.763,-0.2 -3.093,-1.165 -3.991,-2.928 -0.1,-0.166 -0.166,-0.632 -0.2,-1.363 -0.034,-0.633 -0.099,-0.932 -0.166,-0.965 -0.066,0 -0.299,0.101 -0.732,0.267 -0.398,0.166 -0.665,0.232 -0.765,0.199 -0.266,-0.033 -0.499,-0.267 -0.666,-0.731 -0.132,-0.366 -0.198,-0.633 -0.166,-0.799 0.101,-1.064 0.999,-3.791 2.662,-8.147 1.364,-3.592 2.328,-5.954 2.86,-7.085 0.232,-0.698 0.466,-1.43 0.698,-2.129 0.566,-1.363 1.164,-1.995 1.796,-1.929 0.665,0.066 0.965,0.565 0.864,1.529 -1.097,2.329 -2.027,4.392 -2.793,6.188 -1.862,4.257 -2.827,6.785 -2.893,7.583 -0.033,0.199 -0.033,0.332 0,0.365 1.164,-1.329 2.361,-2.66 3.525,-3.992 2.328,-2.46 3.825,-3.657 4.524,-3.592 0.099,0.035 0.298,0.167 0.532,0.467 0.233,0.299 0.365,0.466 0.365,0.565 -0.1,0.266 -0.266,0.632 -0.465,1.131 -0.233,0.232 -0.565,0.531 -1.064,0.864 -0.666,0.466 -1.065,0.73 -1.198,0.832 -1.097,0.897 -2.128,2.062 -3.059,3.425 -1.131,1.663 -1.764,3.193 -1.93,4.624 -0.099,1.13 0.134,2.028 0.765,2.693 0.499,0.565 1.132,0.865 1.895,0.965 1.065,0.1 2.961,-0.731 5.721,-2.562 0.167,0.033 0.333,0.033 0.499,0.067 0.033,0 0.068,0.166 0.068,0.465 -2.429,2.894 -4.659,4.224 -6.686,3.993" id="path845"/>
	<path clip-path="url(#SVGID_2_)" fill="#154794" d="m 184.883,478.053 c -1.63,1.497 -2.695,2.262 -3.16,2.262 -0.099,0 -0.333,0 -0.765,0.033 -0.399,0.033 -0.665,0.066 -0.764,0.066 -0.699,0 -1.331,-0.366 -1.896,-1.131 -0.565,-0.765 -0.866,-1.496 -0.866,-2.194 0,-0.832 0.499,-2.396 1.497,-4.69 1.032,-2.395 1.763,-3.592 2.262,-3.592 0.698,0 1.231,0.433 1.597,1.265 -0.1,0.232 -0.766,1.463 -1.963,3.625 -0.765,1.396 -1.163,2.561 -1.163,3.491 0,0.2 0,0.399 0.032,0.565 0.167,0.3 0.565,0.466 1.165,0.466 0.831,0 1.962,-0.565 3.393,-1.696 1.695,-1.296 2.66,-2.028 2.959,-2.128 0,0.033 0.167,0.231 0.167,0.465 0,0.633 -0.832,1.697 -2.495,3.193 m 1.396,-14.533 c -1.063,0.798 -1.729,1.195 -1.994,1.195 -0.699,0 -1.431,-0.997 -1.431,-1.662 0,-0.134 0.032,-0.233 0.067,-0.3 0.432,-0.232 0.864,-0.499 1.296,-0.73 1.763,-0.932 3.56,-1.064 3.593,-1.064 0.166,0 0.365,0.232 0.598,0.666 -0.366,0.463 -1.065,1.096 -2.129,1.895" id="path847"/>
	<path clip-path="url(#SVGID_2_)" fill="#154794" d="m 198.494,474.194 c -2.096,1.798 -3.991,2.763 -5.687,2.861 0.066,0.732 0.432,1.364 1.096,1.863 0.534,0.398 1.065,0.599 1.63,0.599 0.633,0 1.597,-0.266 2.895,-0.799 1.497,-0.632 2.227,-0.931 2.227,-0.965 0.3,-0.065 0.6,0.034 0.832,0.267 -0.365,0.531 -1.331,1.231 -2.893,2.063 -1.564,0.864 -2.695,1.297 -3.459,1.297 -1.297,0 -2.362,-0.498 -3.193,-1.464 -0.698,-0.864 -1.064,-1.862 -1.097,-3.026 -0.033,-1.763 0.93,-3.791 2.926,-6.087 1.996,-2.295 3.891,-3.425 5.687,-3.425 0.499,0 0.965,0.231 1.464,0.731 0.499,0.499 0.731,0.998 0.731,1.496 0,1.265 -1.063,2.794 -3.159,4.589 m 0.466,-4.356 c -0.965,0 -2.063,0.599 -3.326,1.829 -1.065,1.064 -1.763,2.029 -2.129,2.927 0.665,0 1.297,-0.166 1.895,-0.498 0.3,-0.167 0.899,-0.566 1.797,-1.231 0.932,-0.699 1.663,-1.597 2.228,-2.761 -0.166,-0.166 -0.332,-0.266 -0.465,-0.266" id="path849"/>
	<path clip-path="url(#SVGID_2_)" fill="#154794" d="m 216.189,472.299 c -0.266,0.599 -0.565,0.965 -0.931,1.132 -0.532,-0.566 -0.466,-1.032 -0.5,-1.531 -0.099,-0.365 0.2,-1.363 0.2,-1.63 0,-0.498 -0.2,-0.731 -0.631,-0.731 -0.699,0 -1.63,0.865 -2.794,2.562 -1.164,1.695 -2.063,3.492 -2.66,5.388 -0.101,0.632 -0.234,1.23 -0.333,1.862 -0.167,0.766 -0.466,1.33 -0.832,1.63 -0.266,-0.134 -0.566,-0.332 -0.899,-0.632 -0.498,-0.433 -0.731,-0.831 -0.731,-1.131 0,-0.133 0.133,-0.73 0.432,-1.829 0.466,-1.431 1.032,-3.159 1.663,-5.255 0.266,-1.163 0.466,-1.896 0.599,-2.228 0.233,-0.666 0.599,-1.198 1.03,-1.564 0.267,0 0.467,0.166 0.6,0.5 0.166,0.464 0.266,0.73 0.332,0.798 0.633,-0.565 1.298,-1.165 1.963,-1.73 0.864,-0.665 1.663,-0.997 2.394,-0.997 0.499,0 0.832,0.232 1.065,0.731 0.232,0.598 0.365,1.662 0.365,3.193 0,0.431 -0.1,0.93 -0.332,1.462" id="path851"/>
	<path clip-path="url(#SVGID_2_)" fill="#154794" d="m 235.732,477.954 c -0.365,0.565 -0.964,1.197 -1.795,1.863 -1.098,0.831 -2.063,1.263 -2.961,1.263 -0.998,0 -1.862,-0.432 -2.56,-1.298 -0.699,-0.897 -1.032,-1.861 -1.032,-2.959 0,-0.3 0.034,-0.598 0.1,-0.865 -0.864,0.898 -1.73,1.83 -2.594,2.761 -1.064,1.031 -1.896,1.563 -2.528,1.563 -1.497,0 -2.261,-0.965 -2.261,-2.86 0,-0.766 0.598,-2.494 1.795,-5.188 1.232,-2.794 2.063,-4.19 2.528,-4.19 0.233,0 0.498,0.266 0.732,0.799 0.266,0.498 0.399,0.896 0.399,1.163 0,-0.033 -0.532,0.966 -1.63,3.027 -1.097,2.128 -1.729,3.724 -1.83,4.822 -0.032,0.066 -0.032,0.133 0.068,0.199 0.997,-0.365 2.528,-1.828 4.555,-4.391 0.367,-0.433 0.966,-1.164 1.731,-2.194 0.265,-0.466 0.532,-0.932 0.831,-1.364 0.432,-0.565 0.865,-0.897 1.298,-0.997 0.099,0.1 0.332,0.399 0.698,0.864 0.232,0.232 0.332,0.499 0.332,0.732 0,-0.167 -0.365,0.599 -1.063,2.261 -0.699,1.63 -1.065,2.96 -1.132,3.925 -0.034,0.366 0.1,0.799 0.333,1.33 0.299,0.699 0.731,1.032 1.23,1.032 0.566,0 1.364,-0.267 2.361,-0.799 1.132,-0.599 1.896,-0.931 2.295,-1.031 z" id="path853"/>
	<path clip-path="url(#SVGID_2_)" fill="#154794" d="m 245.735,474.727 c 0.332,-1.296 0.498,-1.896 0.498,-1.862 -1.03,1.098 -1.862,1.995 -2.494,2.728 -1.163,1.363 -1.962,2.494 -2.395,3.326 -0.232,0 -0.93,0.398 -1.164,0.398 -0.233,0 -0.499,-0.166 -0.798,-0.499 -0.266,-0.332 -0.399,-0.532 -0.399,-0.631 0,-0.167 0.266,-1.298 0.798,-3.46 0.565,-2.162 1.032,-3.891 1.396,-5.122 0.134,-0.432 0.932,-0.798 1.365,-0.798 0.099,0 0.265,0.066 0.499,0.2 0.298,0.198 0.465,0.298 0.499,0.298 0.066,0.433 -0.1,1.198 -0.499,2.296 -0.433,1.164 -0.665,1.896 -0.665,2.129 0,0.1 0.033,0.199 0.099,0.266 0.498,-0.466 1.197,-1.264 2.095,-2.395 0.898,-1.164 1.597,-1.962 2.062,-2.396 0.765,-0.698 1.497,-1.03 2.163,-1.03 0.465,0 0.698,0.399 0.698,1.198 0,0.798 -0.365,2.127 -1.098,3.99 -0.698,1.863 -1.063,3.126 -1.063,3.791 0,1.165 0.431,1.764 1.329,1.764 0.366,0 1.43,-0.533 3.226,-1.598 0.133,0.101 0.4,0.167 0.299,0.399 -0.299,0.633 -0.93,1.331 -1.828,2.097 -0.898,0.731 -1.597,1.098 -2.129,1.098 -1.763,0 -2.727,-1.198 -2.927,-3.559 -0.033,-0.499 0.1,-1.363 0.433,-2.628" id="path855"/>
	<path clip-path="url(#SVGID_2_)" fill="#154794" d="m 263.551,474.194 c -2.096,1.798 -3.991,2.763 -5.687,2.861 0.066,0.732 0.432,1.364 1.098,1.863 0.532,0.398 1.064,0.599 1.629,0.599 0.632,0 1.596,-0.266 2.894,-0.799 1.497,-0.632 2.227,-0.931 2.227,-0.965 0.301,-0.065 0.6,0.034 0.832,0.267 -0.365,0.531 -1.33,1.231 -2.893,2.063 -1.563,0.864 -2.695,1.297 -3.458,1.297 -1.298,0 -2.363,-0.498 -3.194,-1.464 -0.699,-0.864 -1.064,-1.862 -1.097,-3.026 -0.033,-1.763 0.931,-3.791 2.927,-6.087 1.995,-2.295 3.89,-3.425 5.686,-3.425 0.499,0 0.966,0.231 1.464,0.731 0.499,0.499 0.732,0.998 0.732,1.496 -0.001,1.265 -1.065,2.794 -3.16,4.589 m 0.466,-4.356 c -0.965,0 -2.062,0.599 -3.326,1.829 -1.065,1.064 -1.763,2.029 -2.128,2.927 0.665,0 1.296,-0.166 1.895,-0.498 0.299,-0.167 0.898,-0.566 1.796,-1.231 0.932,-0.699 1.663,-1.597 2.228,-2.761 -0.167,-0.166 -0.333,-0.266 -0.465,-0.266" id="path857"/>
	<path clip-path="url(#SVGID_2_)" fill="#154794" d="m 277.884,482.245 c -1.763,-0.2 -3.094,-1.165 -3.991,-2.928 -0.1,-0.166 -0.167,-0.632 -0.2,-1.363 -0.034,-0.633 -0.1,-0.932 -0.166,-0.965 -0.067,0 -0.299,0.101 -0.732,0.267 -0.398,0.166 -0.665,0.232 -0.765,0.199 -0.266,-0.033 -0.5,-0.267 -0.666,-0.731 -0.132,-0.366 -0.198,-0.633 -0.166,-0.799 0.101,-1.064 0.999,-3.791 2.661,-8.147 1.364,-3.592 2.329,-5.954 2.86,-7.085 0.233,-0.698 0.467,-1.43 0.699,-2.129 0.566,-1.363 1.164,-1.995 1.796,-1.929 0.665,0.066 0.965,0.565 0.864,1.529 -1.097,2.329 -2.028,4.392 -2.793,6.188 -1.862,4.257 -2.827,6.785 -2.894,7.583 -0.032,0.199 -0.032,0.332 0,0.365 1.165,-1.329 2.362,-2.66 3.525,-3.992 2.328,-2.46 3.825,-3.657 4.525,-3.592 0.098,0.035 0.298,0.167 0.532,0.467 0.232,0.299 0.365,0.466 0.365,0.565 -0.1,0.266 -0.267,0.632 -0.465,1.131 -0.233,0.232 -0.565,0.531 -1.064,0.864 -0.666,0.466 -1.065,0.73 -1.198,0.832 -1.097,0.897 -2.129,2.062 -3.059,3.425 -1.132,1.663 -1.764,3.193 -1.931,4.624 -0.098,1.13 0.134,2.028 0.766,2.693 0.499,0.565 1.131,0.865 1.895,0.965 1.065,0.1 2.961,-0.731 5.721,-2.562 0.166,0.033 0.332,0.033 0.498,0.067 0.033,0 0.068,0.166 0.068,0.465 -2.428,2.894 -4.657,4.224 -6.685,3.993" id="path859"/>
	<path clip-path="url(#SVGID_2_)" fill="#154794" d="m 133.836,377.31 c -3.555,2.048 -7.973,3.072 -13.254,3.072 -5.856,0 -10.474,-1.62 -13.85,-4.862 -3.377,-3.241 -5.066,-7.706 -5.066,-13.394 0,-5.721 1.845,-10.384 5.535,-13.99 3.691,-3.605 8.599,-5.408 14.727,-5.408 3.859,0 7.262,0.533 10.207,1.6 v 7.693 c -2.81,-1.625 -6.246,-2.438 -10.309,-2.438 -3.402,0 -6.174,1.105 -8.315,3.314 -2.142,2.209 -3.212,5.159 -3.212,8.849 0,3.741 0.961,6.635 2.882,8.683 1.921,2.048 4.515,3.072 7.782,3.072 1.964,0 3.52,-0.279 4.672,-0.837 v -7.11 h -7.287 v -6.551 h 15.488 z" id="path861"/>
	<path clip-path="url(#SVGID_2_)" fill="#154794" d="m 184.019,379.747 h -7.998 v -14.828 c 0,-3.775 -1.389,-5.662 -4.164,-5.662 -1.32,0 -2.396,0.567 -3.225,1.701 -0.83,1.134 -1.244,2.548 -1.244,4.24 v 14.549 h -8.023 v -14.98 c 0,-3.673 -1.364,-5.51 -4.088,-5.51 -1.371,0 -2.468,0.542 -3.288,1.625 -0.822,1.083 -1.232,2.556 -1.232,4.418 v 14.447 h -8.023 v -26 h 8.023 v 4.063 h 0.102 c 0.829,-1.388 1.993,-2.518 3.491,-3.39 1.498,-0.872 3.136,-1.308 4.913,-1.308 3.673,0 6.187,1.617 7.541,4.85 1.981,-3.233 4.892,-4.85 8.735,-4.85 5.653,0 8.48,3.488 8.48,10.461 z" id="path863"/>
	<path clip-path="url(#SVGID_2_)" fill="#154794" d="m 197.028,349.634 c -1.354,0 -2.463,-0.402 -3.326,-1.206 -0.863,-0.804 -1.295,-1.79 -1.295,-2.958 0,-1.202 0.432,-2.184 1.295,-2.946 0.863,-0.761 1.972,-1.142 3.326,-1.142 1.371,0 2.485,0.381 3.339,1.142 0.855,0.762 1.282,1.744 1.282,2.946 0,1.218 -0.427,2.217 -1.282,2.996 -0.854,0.778 -1.968,1.168 -3.339,1.168 m 3.961,30.113 h -8.023 v -26 h 8.023 z" id="path865"/>
	<path clip-path="url(#SVGID_2_)" fill="#154794" d="m 235.454,379.747 h -7.998 V 365.3 c 0,-4.029 -1.439,-6.043 -4.316,-6.043 -1.388,0 -2.531,0.533 -3.428,1.599 -0.898,1.067 -1.346,2.421 -1.346,4.063 v 14.828 h -8.023 v -26 h 8.023 v 4.113 h 0.102 c 1.913,-3.165 4.697,-4.748 8.353,-4.748 5.755,0 8.633,3.572 8.633,10.715 z" id="path867"/>
	<path clip-path="url(#SVGID_2_)" fill="#154794" d="m 266.035,379.748 h -7.592 v -3.733 h -0.101 c -1.744,2.912 -4.326,4.367 -7.744,4.367 -2.523,0 -4.507,-0.715 -5.955,-2.145 -1.447,-1.43 -2.17,-3.339 -2.17,-5.726 0,-5.044 2.987,-7.955 8.962,-8.734 l 7.059,-0.94 c 0,-2.843 -1.541,-4.265 -4.621,-4.265 -3.098,0 -6.043,0.923 -8.836,2.767 v -6.043 c 1.117,-0.575 2.644,-1.083 4.583,-1.523 1.937,-0.44 3.702,-0.66 5.294,-0.66 7.414,0 11.121,3.698 11.121,11.095 z m -7.541,-10.563 v -1.752 l -4.723,0.609 c -2.607,0.339 -3.91,1.516 -3.91,3.53 0,0.914 0.318,1.663 0.952,2.247 0.635,0.584 1.494,0.876 2.577,0.876 1.506,0 2.734,-0.521 3.682,-1.562 0.947,-1.042 1.422,-2.358 1.422,-3.948" id="path869"/>
	<path clip-path="url(#SVGID_2_)" fill="#154794" d="m 101.775,431.75 v -8.125 c 1.473,1.235 3.072,2.163 4.799,2.78 1.726,0.618 3.47,0.927 5.23,0.927 1.033,0 1.934,-0.093 2.704,-0.279 0.771,-0.187 1.413,-0.444 1.93,-0.774 0.517,-0.33 0.901,-0.718 1.155,-1.168 0.254,-0.448 0.381,-0.936 0.381,-1.46 0,-0.711 -0.203,-1.346 -0.609,-1.904 -0.406,-0.559 -0.961,-1.075 -1.663,-1.549 -0.702,-0.473 -1.536,-0.93 -2.501,-1.371 -0.965,-0.44 -2.006,-0.889 -3.123,-1.346 -2.844,-1.184 -4.964,-2.631 -6.361,-4.341 -1.396,-1.71 -2.094,-3.775 -2.094,-6.196 0,-1.895 0.381,-3.524 1.142,-4.887 0.762,-1.363 1.799,-2.484 3.111,-3.365 1.311,-0.879 2.831,-1.527 4.557,-1.942 1.727,-0.415 3.555,-0.622 5.485,-0.622 1.895,0 3.576,0.114 5.04,0.343 1.463,0.228 2.814,0.58 4.049,1.053 v 7.592 c -0.609,-0.423 -1.273,-0.796 -1.993,-1.117 -0.719,-0.321 -1.46,-0.588 -2.221,-0.8 -0.762,-0.211 -1.52,-0.368 -2.273,-0.469 -0.753,-0.102 -1.469,-0.153 -2.145,-0.153 -0.931,0 -1.778,0.089 -2.539,0.267 -0.762,0.178 -1.406,0.428 -1.93,0.749 -0.525,0.321 -0.931,0.707 -1.219,1.155 -0.288,0.449 -0.432,0.952 -0.432,1.511 0,0.609 0.162,1.155 0.483,1.638 0.321,0.482 0.778,0.939 1.371,1.371 0.593,0.431 1.312,0.855 2.158,1.269 0.847,0.415 1.803,0.842 2.869,1.282 1.456,0.61 2.764,1.257 3.923,1.943 1.159,0.685 2.154,1.46 2.984,2.323 0.829,0.863 1.463,1.85 1.904,2.958 0.44,1.109 0.66,2.399 0.66,3.872 0,2.031 -0.385,3.737 -1.155,5.116 -0.771,1.38 -1.816,2.497 -3.136,3.352 -1.32,0.855 -2.856,1.47 -4.608,1.841 -1.752,0.372 -3.602,0.559 -5.548,0.559 -1.997,0 -3.898,-0.169 -5.7,-0.508 -1.803,-0.339 -3.365,-0.848 -4.685,-1.525" id="path871"/>
	<polygon clip-path="url(#SVGID_2_)" fill="#154794" points="131.671,429.821 144.722,413.063 132.966,413.063 132.966,407.147 154.903,407.147 154.903,411.108 142.538,427.231 155.005,427.231 155.005,433.147 131.671,433.147 " id="polygon873"/>
	<path clip-path="url(#SVGID_2_)" fill="#154794" d="m 185.28,422.432 h -16.96 c 0.27,3.774 2.649,5.662 7.134,5.662 2.861,0 5.374,-0.677 7.541,-2.031 v 5.789 c -2.403,1.286 -5.526,1.93 -9.369,1.93 -4.198,0 -7.456,-1.163 -9.775,-3.491 -2.32,-2.327 -3.479,-5.573 -3.479,-9.737 0,-4.317 1.253,-7.735 3.758,-10.258 2.505,-2.522 5.586,-3.783 9.242,-3.783 3.792,0 6.725,1.126 8.798,3.377 2.073,2.251 3.11,5.306 3.11,9.166 z m -7.439,-4.926 c 0,-3.724 -1.507,-5.586 -4.52,-5.586 -1.286,0 -2.399,0.533 -3.338,1.6 -0.94,1.066 -1.511,2.395 -1.714,3.986 z" id="path875"/>
	<path clip-path="url(#SVGID_2_)" fill="#154794" d="m 233.938,433.147 h -7.998 v -14.828 c 0,-3.775 -1.388,-5.662 -4.164,-5.662 -1.32,0 -2.396,0.567 -3.225,1.701 -0.829,1.134 -1.244,2.548 -1.244,4.24 v 14.549 h -8.023 v -14.98 c 0,-3.673 -1.363,-5.51 -4.088,-5.51 -1.371,0 -2.467,0.542 -3.288,1.625 -0.822,1.083 -1.232,2.555 -1.232,4.418 v 14.447 h -8.023 v -26 h 8.023 v 4.063 h 0.102 c 0.829,-1.388 1.993,-2.518 3.491,-3.39 1.498,-0.871 3.136,-1.308 4.913,-1.308 3.673,0 6.187,1.616 7.541,4.85 1.981,-3.234 4.892,-4.85 8.735,-4.85 5.653,0 8.48,3.488 8.48,10.461 z" id="path877"/>
	<path clip-path="url(#SVGID_2_)" fill="#154794" d="m 267.592,433.147 h -7.998 v -3.961 h -0.127 c -1.98,3.063 -4.63,4.596 -7.947,4.596 -6.027,0 -9.039,-3.647 -9.039,-10.943 v -15.691 h 7.998 v 14.98 c 0,3.673 1.455,5.51 4.367,5.51 1.438,0 2.59,-0.503 3.453,-1.512 0.863,-1.006 1.295,-2.373 1.295,-4.1 v -14.879 h 7.998 z" id="path879"/>
	<path clip-path="url(#SVGID_2_)" fill="#154794" d="m 302.387,433.147 h -8.023 v -3.58 h -0.102 c -1.828,2.81 -4.511,4.215 -8.049,4.215 -3.25,0 -5.865,-1.146 -7.845,-3.44 -1.981,-2.293 -2.971,-5.497 -2.971,-9.61 0,-4.3 1.092,-7.745 3.275,-10.334 2.184,-2.59 5.044,-3.885 8.582,-3.885 3.352,0 5.688,1.202 7.008,3.605 h 0.102 v -15.463 h 8.023 z m -7.871,-12.645 v -1.955 c 0,-1.692 -0.491,-3.098 -1.473,-4.215 -0.982,-1.117 -2.259,-1.676 -3.834,-1.676 -1.777,0 -3.165,0.699 -4.164,2.095 -0.999,1.397 -1.498,3.313 -1.498,5.751 0,2.285 0.483,4.046 1.448,5.281 0.964,1.235 2.301,1.854 4.011,1.854 1.625,0 2.949,-0.651 3.974,-1.955 1.023,-1.304 1.536,-3.03 1.536,-5.18" id="path881"/>
	<polygon clip-path="url(#SVGID_2_)" fill="#ffd42c" points="456.238,338.978 437.563,338.978 418.885,338.978 428.223,355.152 437.563,371.324 446.9,355.152 " id="polygon883"/>
	<polygon clip-path="url(#SVGID_2_)" fill="#fcde07" points="480.819,374.869 471.482,358.696 462.145,342.522 452.808,358.695 443.47,374.869 462.145,374.869 " id="polygon885"/>
	<polygon clip-path="url(#SVGID_2_)" fill="#f8b414" points="443.47,380.982 452.808,397.155 462.145,413.329 471.482,397.155 480.819,380.982 462.145,380.982 " id="polygon887"/>
	<polygon clip-path="url(#SVGID_2_)" fill="#79cbe9" points="505.402,416.447 496.064,400.273 486.727,384.099 477.389,400.273 468.052,416.447 486.727,416.447 " id="polygon889"/>
	<polygon clip-path="url(#SVGID_2_)" fill="#3c91ca" points="468.052,423.127 477.389,439.301 486.727,455.474 496.064,439.301 505.402,423.127 486.727,423.127 " id="polygon891"/>
	<polygon clip-path="url(#SVGID_2_)" fill="#f2a02a" points="431.654,374.869 422.315,358.696 412.979,342.522 403.64,358.695 394.304,374.869 412.979,374.869 " id="polygon893"/>
	<polygon clip-path="url(#SVGID_2_)" fill="#4dc0eb" points="394.304,380.982 403.64,397.155 412.979,413.329 422.315,397.156 431.654,380.982 412.979,380.982 " id="polygon895"/>
	<polygon clip-path="url(#SVGID_2_)" fill="#79cbe9" points="407.071,416.447 397.733,400.273 388.396,384.099 379.056,400.273 369.721,416.447 388.396,416.447 " id="polygon897"/>
	<polygon clip-path="url(#SVGID_2_)" fill="#3c91ca" points="456.239,416.447 446.9,400.273 437.563,384.099 428.223,400.273 418.885,416.447 437.563,416.447 " id="polygon899"/>
	<polygon clip-path="url(#SVGID_2_)" fill="#79cbe9" points="456.238,423.127 437.563,423.127 418.885,423.127 428.223,439.298 437.563,455.474 446.9,439.298 " id="polygon901"/>
	<polygon clip-path="url(#SVGID_2_)" fill="#79cbe9" points="480.819,457.883 471.482,441.709 462.145,425.536 452.808,441.709 443.47,457.883 462.145,457.883 " id="polygon903"/>
	<polygon clip-path="url(#SVGID_2_)" fill="#45a742" points="394.304,463.854 403.64,480.027 412.979,496.203 422.315,480.027 431.654,463.854 412.979,463.854 " id="polygon905"/>
	<polygon clip-path="url(#SVGID_2_)" fill="#32a32c" points="345.139,463.854 354.475,480.027 363.814,496.203 373.15,480.027 382.489,463.854 363.814,463.854 " id="polygon907"/>
	<polygon clip-path="url(#SVGID_2_)" fill="#32a32c" points="443.47,463.854 452.808,480.029 462.145,496.203 471.482,480.029 480.819,463.854 462.145,463.854 " id="polygon909"/>
	<polygon clip-path="url(#SVGID_2_)" fill="#45a742" points="320.556,500.738 339.231,500.738 357.907,500.738 348.569,484.564 339.231,468.39 329.895,484.564 " id="polygon911"/>
	<polygon clip-path="url(#SVGID_2_)" fill="#0c9e2e" points="418.885,500.738 437.563,500.738 456.238,500.738 446.9,484.564 437.563,468.39 428.223,484.564 " id="polygon913"/>
	<polygon clip-path="url(#SVGID_2_)" fill="#0c9e2e" points="369.721,500.738 388.396,500.738 407.071,500.738 397.733,484.564 388.396,468.39 379.058,484.564 " id="polygon915"/>
	<polygon clip-path="url(#SVGID_2_)" fill="#4dc0eb" points="345.139,374.869 363.814,374.869 382.489,374.869 373.15,358.695 363.814,342.523 354.476,358.695 " id="polygon917"/>
	<polygon clip-path="url(#SVGID_2_)" fill="#3c91ca" points="320.556,338.978 329.895,355.149 339.23,371.324 348.569,355.151 357.907,338.978 339.23,338.978 " id="polygon919"/>
	<polygon clip-path="url(#SVGID_2_)" fill="#3c91ca" points="345.139,380.982 354.476,397.155 363.814,413.329 373.15,397.155 382.489,380.982 363.814,380.982 " id="polygon921"/>
	<polygon clip-path="url(#SVGID_2_)" fill="#79cbe9" points="369.721,338.978 379.056,355.149 388.396,371.324 397.732,355.151 407.071,338.978 388.396,338.978 " id="polygon923"/>
	<polygon clip-path="url(#SVGID_2_)" fill="#4dc0eb" points="369.721,423.127 379.056,439.301 388.396,455.474 397.733,439.301 407.071,423.127 388.396,423.127 " id="polygon925"/>
	<polygon clip-path="url(#SVGID_2_)" fill="#79cbe9" points="382.489,457.883 373.15,441.71 363.814,425.537 354.475,441.71 345.139,457.883 363.814,457.883 " id="polygon927"/>
	<polygon clip-path="url(#SVGID_2_)" fill="#3c91ca" points="431.654,457.883 422.315,441.71 412.979,425.537 403.64,441.71 394.304,457.883 412.979,457.883 " id="polygon929"/>
	<path clip-path="url(#SVGID_2_)" fill="#1e8638" d="m 89.878,502.913 c 61.485,-9.703 35.29,-13.879 196.439,-12.607 0,0 -42.102,-4.879 -113.636,-3.288 -40.796,0.908 -81.776,15.127 -81.776,15.127" id="path931"/>
</g>
</svg>