<svg xmlns:dc="http://purl.org/dc/elements/1.1/" xmlns:cc="http://creativecommons.org/ns#" xmlns:rdf="http://www.w3.org/1999/02/22-rdf-syntax-ns#" xmlns:svg="http://www.w3.org/2000/svg" xmlns="http://www.w3.org/2000/svg" version="1.1" id="svg833" xml:space="preserve" viewBox="169.05 331.43 597.33 386.91"><metadata id="metadata839"><rdf:RDF><cc:Work rdf:about=""><dc:format>image/svg+xml</dc:format><dc:type rdf:resource="http://purl.org/dc/dcmitype/StillImage"/><dc:title/></cc:Work></rdf:RDF></metadata><defs id="defs837"><linearGradient x1="0.0099999998" y1="0" x2="0.99000001" y2="0" gradientUnits="userSpaceOnUse" gradientTransform="matrix(1544.1434,672.62668,-532.88976,1223.3506,306.79157,-908.01299)" spreadMethod="pad" id="linearGradient865"><stop style="stop-opacity:1;stop-color:#00a3df" offset="0" id="stop861"/><stop style="stop-opacity:1;stop-color:#ffffff" offset="1" id="stop863"/></linearGradient></defs><g id="g841" transform="matrix(1.3333333,0,0,-1.3333333,0,793.70077)"><g id="g843" transform="matrix(0.7,0,0,0.7,59.455359,-10.269617)"><path d="m 540.102,488.588 c 77.343,42.445 134.996,-52.297 63.07,-103.629 8.871,48.684 -23.145,92.711 -63.07,103.629" style="fill:#f9c313;fill-opacity:1;fill-rule:evenodd;stroke:none" id="path845"/><path d="m 583.531,350.24 c 28.211,19.301 53.422,39.032 77.852,61.36 l 0.008,-0.012 c 3.269,2.738 5.507,-1.531 4.773,-4.578 -0.254,-1.07 -0.715,-2.606 -1.328,-4.457 -2.695,-8.113 -9.731,-23.215 -22.68,-32.043 38.86,47.965 -55.793,-26.223 -58.621,-20.273" style="fill:#000000;fill-opacity:1;fill-rule:nonzero;stroke:none" id="path847"/><path d="m 632.141,389.94 c 4.027,30.679 -6.696,68.808 -45.45,88.757 39.813,-10.273 49.774,-45.433 52.395,-70.55 17.211,59.379 -18.016,106.902 -72.051,100.5 97.168,14.621 93.903,-97.543 65.106,-118.707" style="fill:#000000;fill-opacity:1;fill-rule:evenodd;stroke:none" id="path849"/><g id="g851"><g id="g853"><g id="g859"><path d="m 96.188,288.834 c 1.746,1.289 12.527,9.328 22.785,16.977 39.07,29.133 71.082,53.004 88.937,48.812 17.531,-4.105 24.766,-15.168 20.297,-34.187 -6.121,-26.063 -9.75,-43.938 -11.43,-55.395 -3.347,-22.797 4.727,-19.422 22.137,-8.847 21.445,13.027 52.84,39.425 81.801,63.769 44.406,37.332 84.344,70.91 111.375,61.078 23.933,-8.707 29.769,-37.047 7.922,-97.097 -2.821,-7.75 -4.957,-13.946 -6.492,-18.747 -4.25,-13.328 -4.887,-16.289 10.335,-14.562 55.571,6.332 202.891,109.859 260.813,150.562 16.105,11.317 26.375,18.528 31.52,20.243 C 673.84,302.358 482.309,178.299 413.305,203.401 c -31.055,11.293 -42.157,41.101 -21.457,98.003 4.308,11.84 7.027,17.219 9.886,20.645 l -0.007,0.02 v 0.003 C 390.41,312.283 372.809,296.959 353.629,280.838 302.176,237.58 244.418,189.022 205.367,198.197 c -26.207,6.157 -40.769,35.801 -35.883,88.512 -27.031,-16.652 -42.714,-13.398 -73.296,2.125" style="fill:url(#linearGradient865);fill-rule:evenodd;stroke:none" id="path867"/></g></g></g><path d="m 153.621,97.069 c -0.086,-0.231 -0.226,-0.422 -0.414,-0.579 -0.18,-0.152 -0.418,-0.277 -0.719,-0.359 -0.293,-0.086 -0.633,-0.148 -1.015,-0.195 -0.387,-0.039 -0.836,-0.063 -1.34,-0.063 -0.516,0 -0.977,0.024 -1.379,0.063 -0.395,0.047 -0.742,0.109 -1.043,0.195 -0.293,0.082 -0.535,0.207 -0.719,0.359 -0.183,0.157 -0.316,0.348 -0.402,0.579 l -13.055,45.339 h -0.078 L 121.508,97.069 c -0.063,-0.231 -0.168,-0.422 -0.324,-0.579 -0.153,-0.152 -0.368,-0.277 -0.641,-0.359 -0.27,-0.086 -0.594,-0.148 -0.98,-0.195 -0.379,-0.039 -0.836,-0.063 -1.379,-0.063 -0.575,0 -1.067,0.024 -1.481,0.063 -0.41,0.047 -0.777,0.109 -1.094,0.195 -0.308,0.082 -0.558,0.207 -0.746,0.359 -0.179,0.157 -0.316,0.348 -0.398,0.579 L 98.816,149.58 c -0.144,0.453 -0.214,0.805 -0.214,1.059 0,0.258 0.089,0.453 0.269,0.59 0.188,0.144 0.477,0.238 0.863,0.285 0.387,0.043 0.891,0.062 1.52,0.062 0.617,0 1.109,-0.019 1.48,-0.062 0.375,-0.047 0.661,-0.11 0.86,-0.195 0.199,-0.086 0.332,-0.204 0.402,-0.348 0.074,-0.137 0.141,-0.305 0.192,-0.5 l 13.867,-48.418 h 0.039 l 12.75,48.418 c 0.058,0.195 0.133,0.363 0.219,0.5 0.082,0.144 0.234,0.262 0.449,0.348 0.211,0.085 0.508,0.148 0.886,0.195 0.387,0.043 0.895,0.062 1.524,0.062 0.476,0 0.867,-0.019 1.172,-0.062 0.297,-0.047 0.539,-0.11 0.719,-0.195 0.187,-0.086 0.328,-0.204 0.425,-0.348 0.102,-0.137 0.184,-0.305 0.246,-0.5 l 13.907,-48.418 h 0.074 l 13.523,48.418 c 0.059,0.195 0.121,0.363 0.192,0.5 0.066,0.144 0.199,0.262 0.398,0.348 0.207,0.085 0.477,0.148 0.813,0.195 0.339,0.043 0.812,0.062 1.418,0.062 0.621,0 1.121,-0.031 1.492,-0.089 0.367,-0.051 0.644,-0.153 0.824,-0.297 0.188,-0.137 0.285,-0.332 0.297,-0.59 0.016,-0.258 -0.035,-0.602 -0.145,-1.02 z" style="fill:#37b2e5;fill-opacity:1;fill-rule:nonzero;stroke:none" id="path869"/><path d="m 208.957,98.526 c 0,-0.407 -0.035,-0.747 -0.09,-1.032 -0.054,-0.281 -0.144,-0.531 -0.273,-0.746 -0.129,-0.215 -0.278,-0.371 -0.449,-0.476 -0.176,-0.098 -0.36,-0.141 -0.555,-0.141 h -23.977 c -0.508,0 -1.027,0.188 -1.558,0.566 -0.524,0.387 -0.785,1.094 -0.785,2.125 v 22.133 l -6.18,-3.965 c -0.406,-0.23 -0.727,-0.214 -0.965,0.051 -0.242,0.274 -0.359,0.895 -0.359,1.867 0,0.34 0.011,0.649 0.035,0.914 0.035,0.274 0.094,0.516 0.183,0.723 0.082,0.211 0.184,0.399 0.309,0.555 0.129,0.16 0.293,0.297 0.5,0.41 l 6.477,4.133 v 24.828 c 0,0.168 0.043,0.324 0.128,0.461 0.086,0.148 0.227,0.262 0.426,0.347 0.196,0.086 0.457,0.157 0.785,0.208 0.325,0.058 0.746,0.089 1.262,0.089 0.481,0 0.895,-0.031 1.238,-0.089 0.34,-0.051 0.61,-0.122 0.809,-0.208 0.199,-0.085 0.34,-0.199 0.426,-0.347 0.082,-0.137 0.129,-0.293 0.129,-0.461 v -21.582 l 10.457,6.527 c 0.39,0.258 0.711,0.238 0.953,-0.051 0.238,-0.285 0.359,-0.894 0.359,-1.828 0,-0.343 -0.012,-0.652 -0.039,-0.925 -0.023,-0.27 -0.082,-0.512 -0.168,-0.723 -0.086,-0.207 -0.191,-0.391 -0.32,-0.555 -0.129,-0.152 -0.293,-0.289 -0.488,-0.398 l -10.754,-6.735 v -23.332 h 21.117 c 0.195,0 0.379,-0.05 0.555,-0.156 0.171,-0.094 0.32,-0.238 0.449,-0.422 0.129,-0.191 0.219,-0.437 0.273,-0.734 0.055,-0.293 0.09,-0.637 0.09,-1.031 z" style="fill:#37b2e5;fill-opacity:1;fill-rule:nonzero;stroke:none" id="path871"/><path d="m 256.977,97.881 c 0.171,-0.43 0.25,-0.781 0.234,-1.055 -0.012,-0.269 -0.109,-0.472 -0.297,-0.617 -0.18,-0.137 -0.465,-0.226 -0.851,-0.273 -0.383,-0.039 -0.875,-0.063 -1.465,-0.063 -0.602,0 -1.082,0.024 -1.442,0.063 -0.355,0.047 -0.629,0.109 -0.824,0.195 -0.199,0.082 -0.348,0.195 -0.453,0.336 -0.098,0.145 -0.188,0.312 -0.27,0.512 l -5.293,14.718 h -24.218 l -5.09,-14.628 c -0.051,-0.2 -0.137,-0.368 -0.254,-0.512 -0.113,-0.141 -0.27,-0.258 -0.465,-0.363 -0.199,-0.102 -0.476,-0.18 -0.836,-0.231 -0.355,-0.059 -0.801,-0.09 -1.34,-0.09 -0.593,0 -1.09,0.031 -1.496,0.09 -0.394,0.051 -0.687,0.152 -0.875,0.297 -0.179,0.144 -0.277,0.34 -0.297,0.594 -0.007,0.254 0.071,0.597 0.235,1.027 l 19.328,52.512 c 0.082,0.222 0.211,0.41 0.387,0.566 0.168,0.153 0.386,0.274 0.656,0.36 0.273,0.085 0.597,0.148 0.976,0.195 0.387,0.043 0.821,0.062 1.301,0.062 0.516,0 0.961,-0.019 1.34,-0.062 0.387,-0.047 0.711,-0.11 0.98,-0.195 0.274,-0.086 0.489,-0.207 0.641,-0.36 0.164,-0.156 0.289,-0.344 0.375,-0.566 z m -22.907,47.852 h -0.039 l -10.402,-29.68 h 21.117 z" style="fill:#37b2e5;fill-opacity:1;fill-rule:nonzero;stroke:none" id="path873"/><path d="m 307.527,124.537 c 0,-4.636 -0.586,-8.726 -1.754,-12.273 -1.156,-3.535 -2.875,-6.5 -5.148,-8.883 -2.277,-2.391 -5.086,-4.195 -8.434,-5.422 -3.343,-1.219 -7.328,-1.828 -11.964,-1.828 h -10.868 c -0.515,0 -1.043,0.188 -1.582,0.566 -0.543,0.387 -0.812,1.094 -0.812,2.125 v 49.821 c 0,1.019 0.269,1.719 0.812,2.097 0.539,0.387 1.067,0.579 1.582,0.579 h 11.602 c 4.687,0 8.644,-0.641 11.871,-1.918 3.227,-1.282 5.93,-3.09 8.102,-5.434 2.179,-2.344 3.824,-5.16 4.929,-8.445 1.11,-3.282 1.664,-6.942 1.664,-10.985 z m -5.589,-0.258 c 0,3.219 -0.407,6.196 -1.211,8.938 -0.809,2.746 -2.059,5.113 -3.758,7.105 -1.696,1.989 -3.836,3.547 -6.426,4.661 -2.586,1.125 -5.883,1.687 -9.891,1.687 h -8.484 v -45.891 h 8.535 c 3.75,0 6.93,0.458 9.531,1.379 2.598,0.926 4.766,2.356 6.5,4.286 1.735,1.937 3.032,4.382 3.903,7.328 0.867,2.941 1.301,6.445 1.301,10.507 z" style="fill:#37b2e5;fill-opacity:1;fill-rule:nonzero;stroke:none" id="path875"/><path d="M 333.621,117.877 V 96.979 c 0,-0.172 -0.047,-0.328 -0.129,-0.477 -0.078,-0.137 -0.219,-0.25 -0.426,-0.332 -0.199,-0.086 -0.468,-0.156 -0.812,-0.207 -0.332,-0.059 -0.746,-0.09 -1.234,-0.09 -0.508,0 -0.926,0.031 -1.25,0.09 -0.329,0.051 -0.598,0.121 -0.813,0.207 -0.215,0.082 -0.363,0.195 -0.449,0.332 -0.086,0.149 -0.129,0.305 -0.129,0.477 v 20.898 l -15.863,31.703 c -0.2,0.418 -0.317,0.762 -0.348,1.02 -0.027,0.258 0.039,0.453 0.195,0.59 0.153,0.144 0.414,0.246 0.785,0.297 0.364,0.058 0.84,0.089 1.415,0.089 0.625,0 1.128,-0.019 1.507,-0.062 0.387,-0.047 0.7,-0.11 0.938,-0.195 0.238,-0.086 0.418,-0.204 0.531,-0.348 0.117,-0.137 0.234,-0.305 0.348,-0.5 l 8.445,-17.192 c 0.797,-1.621 1.586,-3.304 2.371,-5.035 0.777,-1.734 1.57,-3.484 2.367,-5.242 h 0.078 c 0.739,1.676 1.489,3.367 2.254,5.074 0.77,1.707 1.559,3.399 2.356,5.075 l 8.539,17.32 c 0.074,0.195 0.168,0.363 0.281,0.5 0.121,0.144 0.277,0.262 0.477,0.348 0.195,0.085 0.457,0.148 0.785,0.195 0.336,0.043 0.742,0.062 1.223,0.062 0.675,0 1.23,-0.031 1.664,-0.089 0.425,-0.051 0.722,-0.153 0.886,-0.309 0.172,-0.156 0.246,-0.359 0.219,-0.617 -0.027,-0.258 -0.141,-0.586 -0.336,-0.981 z" style="fill:#37b2e5;fill-opacity:1;fill-rule:nonzero;stroke:none" id="path877"/><path d="m 387,111.053 c 0,-2.438 -0.445,-4.629 -1.324,-6.566 -0.887,-1.93 -2.125,-3.575 -3.723,-4.93 -1.59,-1.352 -3.476,-2.379 -5.668,-3.09 -2.187,-0.703 -4.574,-1.059 -7.156,-1.059 -1.774,0 -3.438,0.164 -4.996,0.489 -1.567,0.328 -2.961,0.718 -4.188,1.172 -1.218,0.457 -2.25,0.918 -3.09,1.378 -0.832,0.473 -1.41,0.872 -1.726,1.2 -0.309,0.324 -0.535,0.707 -0.68,1.144 -0.14,0.446 -0.207,0.996 -0.207,1.649 0,0.488 0.028,0.89 0.078,1.199 0.059,0.308 0.133,0.558 0.231,0.758 0.105,0.207 0.23,0.343 0.387,0.414 0.16,0.066 0.328,0.101 0.503,0.101 0.391,0 0.95,-0.25 1.672,-0.746 0.727,-0.5 1.668,-1.039 2.821,-1.625 1.148,-0.574 2.527,-1.113 4.132,-1.609 1.606,-0.496 3.477,-0.746 5.614,-0.746 1.734,0 3.328,0.234 4.777,0.695 1.449,0.473 2.699,1.148 3.75,2.023 1.055,0.883 1.871,1.973 2.457,3.27 0.582,1.293 0.875,2.77 0.875,4.418 0,1.707 -0.367,3.168 -1.105,4.391 -0.743,1.226 -1.715,2.296 -2.922,3.218 -1.211,0.926 -2.586,1.766 -4.121,2.512 -1.539,0.754 -3.11,1.508 -4.715,2.266 -1.606,0.754 -3.176,1.57 -4.711,2.445 -1.539,0.883 -2.91,1.914 -4.121,3.09 -1.203,1.187 -2.176,2.57 -2.922,4.16 -0.742,1.598 -1.109,3.488 -1.109,5.68 0,2.136 0.378,4.047 1.148,5.742 0.769,1.691 1.852,3.121 3.242,4.301 1.399,1.183 3.07,2.09 5.024,2.715 1.945,0.625 4.086,0.941 6.41,0.941 1.168,0 2.347,-0.117 3.543,-0.348 1.191,-0.222 2.32,-0.515 3.386,-0.875 1.071,-0.355 2.024,-0.754 2.86,-1.195 0.84,-0.441 1.394,-0.797 1.66,-1.07 0.273,-0.266 0.445,-0.465 0.516,-0.594 0.078,-0.129 0.14,-0.293 0.191,-0.488 0.059,-0.2 0.105,-0.434 0.129,-0.707 0.035,-0.27 0.051,-0.602 0.051,-0.993 0,-0.371 -0.02,-0.707 -0.063,-1.004 -0.047,-0.304 -0.109,-0.562 -0.191,-0.773 -0.09,-0.215 -0.196,-0.379 -0.324,-0.488 -0.129,-0.114 -0.282,-0.168 -0.45,-0.168 -0.308,0 -0.785,0.207 -1.429,0.617 -0.637,0.414 -1.438,0.867 -2.411,1.379 -0.972,0.516 -2.121,0.976 -3.46,1.391 -1.336,0.41 -2.852,0.617 -4.559,0.617 -1.676,0 -3.141,-0.227 -4.391,-0.684 -1.257,-0.457 -2.293,-1.074 -3.117,-1.851 -0.824,-0.786 -1.441,-1.704 -1.855,-2.758 -0.41,-1.047 -0.618,-2.157 -0.618,-3.321 0,-1.711 0.368,-3.175 1.11,-4.39 0.734,-1.223 1.715,-2.305 2.933,-3.246 1.227,-0.938 2.614,-1.785 4.161,-2.535 1.55,-0.758 3.132,-1.516 4.738,-2.27 1.613,-0.746 3.191,-1.555 4.738,-2.418 1.551,-0.871 2.938,-1.894 4.16,-3.078 1.227,-1.18 2.207,-2.555 2.95,-4.133 0.734,-1.582 1.105,-3.453 1.105,-5.617 z" style="fill:#37b2e5;fill-opacity:1;fill-rule:nonzero;stroke:none" id="path879"/><path d="m 427.055,98.526 c 0,-0.407 -0.032,-0.747 -0.09,-1.032 -0.051,-0.281 -0.141,-0.531 -0.27,-0.746 -0.129,-0.215 -0.281,-0.371 -0.449,-0.476 -0.176,-0.098 -0.359,-0.141 -0.555,-0.141 h -23.976 c -0.508,0 -1.027,0.188 -1.559,0.566 -0.523,0.387 -0.785,1.094 -0.785,2.125 v 22.133 l -6.18,-3.965 c -0.406,-0.23 -0.726,-0.214 -0.964,0.051 -0.243,0.274 -0.364,0.895 -0.364,1.867 0,0.34 0.016,0.649 0.039,0.914 0.032,0.274 0.094,0.516 0.18,0.723 0.086,0.211 0.188,0.399 0.309,0.555 0.129,0.16 0.297,0.297 0.504,0.41 l 6.476,4.133 v 24.828 c 0,0.168 0.043,0.324 0.129,0.461 0.082,0.148 0.227,0.262 0.426,0.347 0.195,0.086 0.457,0.157 0.785,0.208 0.324,0.058 0.746,0.089 1.262,0.089 0.48,0 0.89,-0.031 1.234,-0.089 0.344,-0.051 0.613,-0.122 0.813,-0.208 0.195,-0.085 0.339,-0.199 0.425,-0.347 0.082,-0.137 0.129,-0.293 0.129,-0.461 v -21.582 l 10.457,6.527 c 0.391,0.258 0.711,0.238 0.949,-0.051 0.239,-0.285 0.364,-0.894 0.364,-1.828 0,-0.343 -0.012,-0.652 -0.039,-0.925 -0.028,-0.27 -0.086,-0.512 -0.168,-0.723 -0.086,-0.207 -0.192,-0.391 -0.321,-0.555 -0.128,-0.152 -0.293,-0.289 -0.492,-0.398 l -10.75,-6.735 v -23.332 h 21.117 c 0.196,0 0.379,-0.05 0.555,-0.156 0.168,-0.094 0.32,-0.238 0.449,-0.422 0.129,-0.191 0.219,-0.437 0.27,-0.734 0.058,-0.293 0.09,-0.637 0.09,-1.031 z" style="fill:#37b2e5;fill-opacity:1;fill-rule:nonzero;stroke:none" id="path881"/><path d="m 475.078,97.881 c 0.172,-0.43 0.25,-0.781 0.235,-1.055 -0.012,-0.269 -0.11,-0.472 -0.297,-0.617 -0.18,-0.137 -0.465,-0.226 -0.852,-0.273 -0.387,-0.039 -0.875,-0.063 -1.469,-0.063 -0.601,0 -1.078,0.024 -1.441,0.063 -0.352,0.047 -0.625,0.109 -0.824,0.195 -0.2,0.082 -0.348,0.195 -0.45,0.336 -0.097,0.145 -0.187,0.312 -0.269,0.512 l -5.293,14.718 h -24.223 l -5.086,-14.628 c -0.05,-0.2 -0.136,-0.368 -0.257,-0.512 -0.11,-0.141 -0.266,-0.258 -0.461,-0.363 -0.2,-0.102 -0.477,-0.18 -0.84,-0.231 -0.352,-0.059 -0.797,-0.09 -1.336,-0.09 -0.594,0 -1.094,0.031 -1.496,0.09 -0.395,0.051 -0.688,0.152 -0.875,0.297 -0.18,0.144 -0.281,0.34 -0.297,0.594 -0.008,0.254 0.07,0.597 0.234,1.027 l 19.324,52.512 c 0.086,0.222 0.215,0.41 0.387,0.566 0.172,0.153 0.391,0.274 0.66,0.36 0.274,0.085 0.598,0.148 0.977,0.195 0.387,0.043 0.816,0.062 1.301,0.062 0.515,0 0.957,-0.019 1.34,-0.062 0.386,-0.047 0.71,-0.11 0.976,-0.195 0.274,-0.086 0.492,-0.207 0.645,-0.36 0.16,-0.156 0.289,-0.344 0.375,-0.566 z m -22.906,47.852 h -0.039 l -10.403,-29.68 h 21.118 z" style="fill:#37b2e5;fill-opacity:1;fill-rule:nonzero;stroke:none" id="path883"/><path d="m 531.59,97.069 c -0.086,-0.231 -0.223,-0.422 -0.41,-0.579 -0.18,-0.152 -0.422,-0.277 -0.723,-0.359 -0.293,-0.086 -0.629,-0.148 -1.016,-0.195 -0.386,-0.039 -0.832,-0.063 -1.339,-0.063 -0.516,0 -0.977,0.024 -1.379,0.063 -0.395,0.047 -0.743,0.109 -1.043,0.195 -0.289,0.082 -0.532,0.207 -0.719,0.359 -0.18,0.157 -0.316,0.348 -0.398,0.579 l -13.059,45.339 h -0.078 L 499.477,97.069 c -0.059,-0.231 -0.168,-0.422 -0.321,-0.579 -0.156,-0.152 -0.371,-0.277 -0.644,-0.359 -0.266,-0.086 -0.594,-0.148 -0.981,-0.195 -0.379,-0.039 -0.836,-0.063 -1.375,-0.063 -0.578,0 -1.07,0.024 -1.48,0.063 -0.414,0.047 -0.781,0.109 -1.098,0.195 -0.308,0.082 -0.558,0.207 -0.746,0.359 -0.18,0.157 -0.312,0.348 -0.398,0.579 l -15.645,52.511 c -0.148,0.453 -0.219,0.805 -0.219,1.059 0,0.258 0.09,0.453 0.27,0.59 0.187,0.144 0.476,0.238 0.863,0.285 0.387,0.043 0.891,0.062 1.52,0.062 0.617,0 1.109,-0.019 1.48,-0.062 0.375,-0.047 0.664,-0.11 0.863,-0.195 0.196,-0.086 0.329,-0.204 0.399,-0.348 0.078,-0.137 0.14,-0.305 0.195,-0.5 l 13.867,-48.418 h 0.039 l 12.747,48.418 c 0.058,0.195 0.132,0.363 0.218,0.5 0.086,0.144 0.235,0.262 0.453,0.348 0.211,0.085 0.508,0.148 0.887,0.195 0.387,0.043 0.891,0.062 1.52,0.062 0.48,0 0.867,-0.019 1.172,-0.062 0.3,-0.047 0.539,-0.11 0.722,-0.195 0.184,-0.086 0.328,-0.204 0.422,-0.348 0.106,-0.137 0.184,-0.305 0.246,-0.5 l 13.906,-48.418 h 0.079 l 13.519,48.418 c 0.059,0.195 0.121,0.363 0.195,0.5 0.067,0.144 0.2,0.262 0.399,0.348 0.203,0.085 0.476,0.148 0.808,0.195 0.344,0.043 0.817,0.062 1.418,0.062 0.625,0 1.125,-0.031 1.493,-0.089 0.367,-0.051 0.644,-0.153 0.824,-0.297 0.187,-0.137 0.289,-0.332 0.297,-0.59 0.015,-0.258 -0.032,-0.602 -0.141,-1.02 z" style="fill:#37b2e5;fill-opacity:1;fill-rule:nonzero;stroke:none" id="path885"/><path d="m 601.953,124.369 c 0,-4.414 -0.508,-8.406 -1.519,-11.976 -1.004,-3.563 -2.52,-6.602 -4.532,-9.117 -2.019,-2.516 -4.566,-4.454 -7.636,-5.821 -3.075,-1.363 -6.661,-2.047 -10.754,-2.047 -4.094,0 -7.617,0.645 -10.559,1.934 -2.933,1.293 -5.351,3.145 -7.25,5.551 -1.887,2.398 -3.281,5.336 -4.183,8.804 -0.895,3.469 -1.34,7.379 -1.34,11.731 0,4.328 0.496,8.25 1.496,11.769 0.992,3.528 2.508,6.536 4.543,9.028 2.035,2.488 4.578,4.418 7.636,5.781 3.055,1.363 6.645,2.047 10.766,2.047 4.016,0 7.488,-0.641 10.418,-1.918 2.926,-1.281 5.344,-3.117 7.262,-5.512 1.922,-2.386 3.34,-5.289 4.262,-8.703 0.925,-3.41 1.39,-7.262 1.39,-11.551 z m -5.539,-0.476 c 0,3.269 -0.309,6.336 -0.926,9.191 -0.609,2.86 -1.617,5.348 -3.027,7.469 -1.41,2.121 -3.277,3.781 -5.613,4.984 -2.328,1.211 -5.211,1.817 -8.653,1.817 -3.41,0 -6.289,-0.633 -8.64,-1.895 -2.344,-1.262 -4.25,-2.961 -5.715,-5.097 -1.465,-2.129 -2.512,-4.622 -3.156,-7.469 -0.637,-2.844 -0.954,-5.844 -0.954,-9 0,-3.348 0.29,-6.469 0.875,-9.364 0.583,-2.882 1.571,-5.394 2.961,-7.531 1.391,-2.133 3.254,-3.797 5.59,-5.008 2.332,-1.207 5.246,-1.804 8.742,-1.804 3.469,0 6.383,0.644 8.747,1.933 2.359,1.293 4.261,3.028 5.714,5.2 1.45,2.179 2.489,4.703 3.118,7.562 0.625,2.856 0.937,5.859 0.937,9.012 z" style="fill:#37b2e5;fill-opacity:1;fill-rule:nonzero;stroke:none" id="path887"/><path d="m 663.742,97.069 c -0.086,-0.231 -0.222,-0.422 -0.41,-0.579 -0.18,-0.152 -0.422,-0.277 -0.723,-0.359 -0.293,-0.086 -0.629,-0.148 -1.015,-0.195 -0.387,-0.039 -0.832,-0.063 -1.34,-0.063 -0.516,0 -0.977,0.024 -1.379,0.063 -0.395,0.047 -0.742,0.109 -1.039,0.195 -0.297,0.082 -0.535,0.207 -0.723,0.359 -0.179,0.157 -0.316,0.348 -0.398,0.579 l -13.059,45.339 h -0.078 L 631.629,97.069 c -0.059,-0.231 -0.164,-0.422 -0.32,-0.579 -0.157,-0.152 -0.371,-0.277 -0.645,-0.359 -0.266,-0.086 -0.594,-0.148 -0.98,-0.195 -0.379,-0.039 -0.836,-0.063 -1.375,-0.063 -0.579,0 -1.071,0.024 -1.481,0.063 -0.414,0.047 -0.781,0.109 -1.098,0.195 -0.308,0.082 -0.558,0.207 -0.746,0.359 -0.179,0.157 -0.312,0.348 -0.398,0.579 l -15.645,52.511 c -0.148,0.453 -0.218,0.805 -0.218,1.059 0,0.258 0.09,0.453 0.269,0.59 0.188,0.144 0.477,0.238 0.863,0.285 0.387,0.043 0.891,0.062 1.52,0.062 0.617,0 1.109,-0.019 1.48,-0.062 0.375,-0.047 0.665,-0.11 0.864,-0.195 0.195,-0.086 0.328,-0.204 0.398,-0.348 0.078,-0.137 0.145,-0.305 0.196,-0.5 l 13.867,-48.418 h 0.039 l 12.746,48.418 c 0.058,0.195 0.133,0.363 0.219,0.5 0.086,0.144 0.234,0.262 0.453,0.348 0.211,0.085 0.508,0.148 0.886,0.195 0.387,0.043 0.891,0.062 1.52,0.062 0.48,0 0.871,-0.019 1.172,-0.062 0.301,-0.047 0.539,-0.11 0.723,-0.195 0.187,-0.086 0.328,-0.204 0.421,-0.348 0.106,-0.137 0.184,-0.305 0.246,-0.5 l 13.907,-48.418 h 0.078 l 13.519,48.418 c 0.059,0.195 0.121,0.363 0.196,0.5 0.066,0.144 0.199,0.262 0.398,0.348 0.203,0.085 0.477,0.148 0.813,0.195 0.339,0.043 0.812,0.062 1.414,0.062 0.625,0 1.125,-0.031 1.492,-0.089 0.367,-0.051 0.644,-0.153 0.824,-0.297 0.188,-0.137 0.289,-0.332 0.297,-0.59 0.016,-0.258 -0.031,-0.602 -0.141,-1.02 z" style="fill:#37b2e5;fill-opacity:1;fill-rule:nonzero;stroke:none" id="path889"/><path d="m 734.109,124.369 c 0,-4.414 -0.507,-8.406 -1.519,-11.976 -1.004,-3.563 -2.52,-6.602 -4.535,-9.117 -2.016,-2.516 -4.563,-4.454 -7.633,-5.821 -3.074,-1.363 -6.656,-2.047 -10.754,-2.047 -4.094,0 -7.617,0.645 -10.559,1.934 -2.933,1.293 -5.351,3.145 -7.25,5.551 -1.886,2.398 -3.281,5.336 -4.183,8.804 -0.895,3.469 -1.34,7.379 -1.34,11.731 0,4.328 0.496,8.25 1.496,11.769 0.992,3.528 2.508,6.536 4.543,9.028 2.035,2.488 4.578,4.418 7.637,5.781 3.054,1.363 6.644,2.047 10.765,2.047 4.016,0 7.489,-0.641 10.414,-1.918 2.93,-1.281 5.348,-3.117 7.266,-5.512 1.922,-2.386 3.34,-5.289 4.262,-8.703 0.926,-3.41 1.39,-7.262 1.39,-11.551 z m -5.539,-0.476 c 0,3.269 -0.308,6.336 -0.925,9.191 -0.614,2.86 -1.618,5.348 -3.028,7.469 -1.41,2.121 -3.277,3.781 -5.613,4.984 -2.328,1.211 -5.211,1.817 -8.652,1.817 -3.411,0 -6.289,-0.633 -8.641,-1.895 -2.344,-1.262 -4.25,-2.961 -5.719,-5.097 -1.461,-2.129 -2.508,-4.622 -3.152,-7.469 -0.637,-2.844 -0.953,-5.844 -0.953,-9 0,-3.348 0.289,-6.469 0.875,-9.364 0.582,-2.882 1.57,-5.394 2.961,-7.531 1.39,-2.133 3.25,-3.797 5.59,-5.008 2.332,-1.207 5.246,-1.804 8.742,-1.804 3.468,0 6.379,0.644 8.742,1.933 2.359,1.293 4.266,3.028 5.719,5.2 1.449,2.179 2.488,4.703 3.117,7.562 0.625,2.856 0.937,5.859 0.937,9.012 z" style="fill:#37b2e5;fill-opacity:1;fill-rule:nonzero;stroke:none" id="path891"/><path d="m 622.98,206.264 c 0,-0.192 -0.019,-0.371 -0.05,-0.539 -0.028,-0.164 -0.067,-0.305 -0.117,-0.414 -0.051,-0.114 -0.122,-0.199 -0.208,-0.258 -0.085,-0.063 -0.171,-0.09 -0.257,-0.09 -0.18,0 -0.477,0.149 -0.887,0.449 -0.41,0.301 -0.965,0.625 -1.66,0.981 -0.692,0.351 -1.528,0.676 -2.512,0.98 -0.988,0.297 -2.156,0.449 -3.504,0.449 -1.722,0 -3.265,-0.324 -4.621,-0.964 -1.348,-0.637 -2.492,-1.516 -3.426,-2.629 -0.925,-1.106 -1.636,-2.426 -2.125,-3.953 -0.488,-1.52 -0.734,-3.161 -0.734,-4.918 0,-1.969 0.273,-3.723 0.824,-5.266 0.559,-1.539 1.332,-2.832 2.317,-3.891 0.988,-1.054 2.16,-1.863 3.515,-2.418 1.36,-0.562 2.84,-0.839 4.457,-0.839 1.031,0 2.078,0.128 3.141,0.386 1.074,0.258 2.074,0.649 3,1.172 v 9.438 h -7.43 c -0.238,0 -0.422,0.105 -0.539,0.308 -0.121,0.215 -0.18,0.52 -0.18,0.918 0,0.203 0.012,0.383 0.039,0.539 0.032,0.16 0.079,0.289 0.141,0.387 0.059,0.102 0.133,0.18 0.219,0.23 0.094,0.051 0.199,0.079 0.32,0.079 h 8.926 c 0.133,0 0.277,-0.028 0.426,-0.079 0.152,-0.043 0.289,-0.113 0.41,-0.218 0.129,-0.102 0.23,-0.25 0.308,-0.438 0.079,-0.187 0.118,-0.418 0.118,-0.683 v -10.84 c 0,-0.36 -0.059,-0.672 -0.168,-0.926 -0.114,-0.258 -0.375,-0.504 -0.785,-0.734 -0.407,-0.235 -0.946,-0.493 -1.622,-0.774 -0.671,-0.277 -1.367,-0.508 -2.086,-0.695 -0.722,-0.192 -1.449,-0.328 -2.179,-0.426 -0.731,-0.094 -1.446,-0.141 -2.149,-0.141 -2.214,0 -4.191,0.352 -5.922,1.067 -1.738,0.711 -3.199,1.719 -4.394,3.015 -1.191,1.301 -2.106,2.852 -2.742,4.649 -0.625,1.793 -0.938,3.773 -0.938,5.934 0,2.269 0.336,4.335 1.016,6.207 0.687,1.871 1.648,3.468 2.887,4.793 1.242,1.316 2.726,2.343 4.453,3.074 1.726,0.73 3.633,1.093 5.73,1.093 1.047,0 2.039,-0.097 2.977,-0.292 0.941,-0.2 1.789,-0.434 2.535,-0.708 0.754,-0.277 1.394,-0.578 1.918,-0.902 0.523,-0.328 0.879,-0.586 1.07,-0.773 0.184,-0.18 0.317,-0.36 0.387,-0.543 0.066,-0.18 0.101,-0.446 0.101,-0.797 z" style="fill:#37b2e5;fill-opacity:1;fill-rule:nonzero;stroke:none" id="path893"/><path d="m 661.578,181.233 c 0,-0.086 -0.027,-0.168 -0.078,-0.246 -0.043,-0.075 -0.121,-0.141 -0.23,-0.192 -0.114,-0.043 -0.254,-0.078 -0.426,-0.105 -0.172,-0.032 -0.395,-0.051 -0.668,-0.051 -0.242,0 -0.453,0.019 -0.633,0.051 -0.18,0.027 -0.32,0.062 -0.426,0.105 -0.101,0.051 -0.179,0.117 -0.23,0.192 -0.047,0.078 -0.063,0.16 -0.063,0.246 v 26.293 h -0.039 l -11.472,-26.45 c -0.028,-0.058 -0.075,-0.113 -0.129,-0.164 -0.063,-0.054 -0.149,-0.097 -0.258,-0.133 -0.106,-0.039 -0.231,-0.074 -0.375,-0.101 -0.137,-0.027 -0.305,-0.039 -0.5,-0.039 -0.207,0 -0.387,0.012 -0.543,0.039 -0.149,0.027 -0.27,0.062 -0.375,0.101 -0.094,0.036 -0.172,0.079 -0.231,0.133 -0.062,0.051 -0.097,0.106 -0.117,0.164 l -10.906,26.45 h -0.024 v -26.293 c 0,-0.086 -0.023,-0.168 -0.066,-0.246 -0.043,-0.075 -0.121,-0.141 -0.23,-0.192 -0.114,-0.043 -0.258,-0.078 -0.438,-0.105 -0.176,-0.032 -0.398,-0.051 -0.683,-0.051 -0.258,0 -0.473,0.019 -0.645,0.051 -0.172,0.027 -0.309,0.062 -0.41,0.105 -0.102,0.051 -0.176,0.117 -0.219,0.192 -0.035,0.078 -0.051,0.16 -0.051,0.246 v 27.285 c 0,0.539 0.141,0.914 0.422,1.121 0.285,0.203 0.563,0.308 0.84,0.308 h 1.48 c 0.375,0 0.708,-0.046 0.993,-0.128 0.289,-0.086 0.543,-0.207 0.757,-0.36 0.215,-0.156 0.395,-0.351 0.54,-0.582 0.156,-0.223 0.293,-0.476 0.414,-0.758 l 9.632,-23.164 h 0.102 l 10.031,23.074 c 0.156,0.36 0.317,0.665 0.489,0.915 0.171,0.246 0.351,0.441 0.542,0.589 0.184,0.157 0.387,0.262 0.606,0.325 0.211,0.058 0.449,0.089 0.707,0.089 h 1.648 c 0.133,0 0.278,-0.027 0.426,-0.078 0.153,-0.043 0.289,-0.121 0.41,-0.23 0.121,-0.113 0.219,-0.258 0.297,-0.438 0.082,-0.183 0.129,-0.41 0.129,-0.683 z" style="fill:#37b2e5;fill-opacity:1;fill-rule:nonzero;stroke:none" id="path895"/><path d="m 673.176,181.233 c 0,-0.086 -0.024,-0.168 -0.063,-0.246 -0.047,-0.075 -0.125,-0.141 -0.234,-0.192 -0.102,-0.043 -0.242,-0.078 -0.41,-0.105 -0.176,-0.032 -0.395,-0.051 -0.656,-0.051 -0.258,0 -0.477,0.019 -0.657,0.051 -0.179,0.027 -0.328,0.062 -0.441,0.105 -0.102,0.051 -0.176,0.117 -0.215,0.192 -0.047,0.078 -0.066,0.16 -0.066,0.246 v 28.261 c 0,0.086 0.027,0.168 0.078,0.246 0.051,0.079 0.133,0.137 0.242,0.18 0.109,0.043 0.254,0.078 0.426,0.106 0.179,0.031 0.39,0.05 0.633,0.05 0.261,0 0.48,-0.019 0.656,-0.05 0.168,-0.028 0.308,-0.063 0.41,-0.106 0.109,-0.043 0.187,-0.101 0.234,-0.18 0.039,-0.078 0.063,-0.16 0.063,-0.246 z" style="fill:#37b2e5;fill-opacity:1;fill-rule:nonzero;stroke:none" id="path897"/><path d="m 702.727,182.108 c 0,-0.266 -0.047,-0.489 -0.129,-0.668 -0.09,-0.18 -0.196,-0.328 -0.325,-0.442 -0.121,-0.109 -0.261,-0.187 -0.421,-0.23 -0.157,-0.051 -0.305,-0.078 -0.442,-0.078 h -0.566 c -0.301,0 -0.574,0.039 -0.824,0.117 -0.239,0.078 -0.481,0.207 -0.719,0.387 -0.231,0.187 -0.465,0.441 -0.696,0.757 -0.234,0.317 -0.492,0.727 -0.773,1.227 l -10.277,18.207 c -0.512,0.883 -1.028,1.793 -1.543,2.73 -0.516,0.942 -1.012,1.856 -1.481,2.743 h -0.015 c 0.007,-1.102 0.015,-2.227 0.015,-3.375 v -22.25 c 0,-0.086 -0.023,-0.168 -0.066,-0.246 -0.043,-0.075 -0.121,-0.141 -0.231,-0.192 -0.101,-0.043 -0.242,-0.078 -0.41,-0.105 -0.176,-0.032 -0.394,-0.051 -0.66,-0.051 -0.258,0 -0.476,0.019 -0.656,0.051 -0.18,0.027 -0.328,0.062 -0.438,0.105 -0.101,0.051 -0.175,0.117 -0.218,0.192 -0.043,0.078 -0.063,0.16 -0.063,0.246 v 27.285 c 0,0.539 0.141,0.914 0.426,1.121 0.281,0.203 0.558,0.308 0.836,0.308 h 1.121 c 0.359,0 0.656,-0.031 0.898,-0.089 0.239,-0.063 0.457,-0.164 0.657,-0.309 0.199,-0.148 0.39,-0.355 0.582,-0.621 0.187,-0.258 0.39,-0.586 0.617,-0.988 l 7.867,-13.946 c 0.488,-0.879 0.957,-1.718 1.402,-2.527 0.446,-0.797 0.879,-1.582 1.301,-2.355 0.418,-0.774 0.84,-1.54 1.25,-2.29 0.41,-0.75 0.817,-1.507 1.223,-2.281 h 0.027 c -0.019,1.262 -0.027,2.574 -0.027,3.942 v 20.921 c 0,0.086 0.019,0.168 0.066,0.247 0.051,0.078 0.129,0.14 0.231,0.191 0.101,0.055 0.238,0.086 0.414,0.105 0.168,0.024 0.39,0.04 0.668,0.04 0.238,0 0.449,-0.016 0.629,-0.04 0.183,-0.019 0.324,-0.05 0.425,-0.105 0.106,-0.051 0.18,-0.113 0.235,-0.191 0.054,-0.079 0.09,-0.161 0.09,-0.247 z" style="fill:#37b2e5;fill-opacity:1;fill-rule:nonzero;stroke:none" id="path899"/><path d="m 732.184,181.709 c 0.093,-0.226 0.136,-0.41 0.129,-0.555 -0.008,-0.148 -0.067,-0.257 -0.168,-0.335 -0.098,-0.067 -0.243,-0.114 -0.45,-0.141 -0.199,-0.027 -0.457,-0.039 -0.773,-0.039 -0.32,0 -0.574,0.012 -0.762,0.039 -0.18,0.027 -0.328,0.062 -0.437,0.101 -0.102,0.043 -0.18,0.106 -0.231,0.184 -0.051,0.074 -0.097,0.164 -0.14,0.27 l -2.797,7.777 h -12.797 l -2.692,-7.727 c -0.027,-0.113 -0.07,-0.207 -0.128,-0.285 -0.063,-0.07 -0.149,-0.133 -0.258,-0.191 -0.102,-0.051 -0.25,-0.09 -0.438,-0.117 -0.179,-0.032 -0.418,-0.051 -0.707,-0.051 -0.308,0 -0.574,0.019 -0.785,0.051 -0.207,0.027 -0.363,0.078 -0.465,0.156 -0.097,0.078 -0.148,0.183 -0.156,0.32 -0.008,0.137 0.035,0.317 0.129,0.543 l 10.199,27.735 c 0.051,0.121 0.121,0.218 0.207,0.296 0.094,0.086 0.207,0.149 0.348,0.192 0.144,0.055 0.316,0.086 0.515,0.105 0.203,0.028 0.438,0.039 0.696,0.039 0.261,0 0.5,-0.011 0.707,-0.039 0.207,-0.019 0.375,-0.05 0.515,-0.105 0.145,-0.043 0.258,-0.106 0.332,-0.192 0.086,-0.078 0.149,-0.175 0.196,-0.296 z m -12.106,25.278 h -0.012 l -5.5,-15.684 h 11.153 z" style="fill:#37b2e5;fill-opacity:1;fill-rule:nonzero;stroke:none" id="path901"/></g></g></svg>